<svg width="87" height="11" viewBox="0 0 87 11" fill="none" xmlns="http://www.w3.org/2000/svg">
<path d="M0.322 10L3.906 0.199999H5.922L9.506 10H7.602L6.818 7.732H2.996L2.198 10H0.322ZM3.486 6.332H6.328L4.9 2.258L3.486 6.332ZM11.6084 10V0.199999H15.2344C16.0184 0.199999 16.6671 0.330666 17.1804 0.591999C17.6937 0.853333 18.0764 1.21267 18.3284 1.67C18.5804 2.12733 18.7064 2.64067 18.7064 3.21C18.7064 3.75133 18.5851 4.25067 18.3424 4.708C18.0997 5.156 17.7217 5.52 17.2084 5.8C16.6951 6.07067 16.0371 6.206 15.2344 6.206H13.4004V10H11.6084ZM13.4004 4.75H15.1224C15.7477 4.75 16.1957 4.61467 16.4664 4.344C16.7464 4.064 16.8864 3.686 16.8864 3.21C16.8864 2.72467 16.7464 2.34667 16.4664 2.076C16.1957 1.796 15.7477 1.656 15.1224 1.656H13.4004V4.75ZM20.9523 10V0.199999H24.5783C25.3623 0.199999 26.011 0.330666 26.5243 0.591999C27.0376 0.853333 27.4203 1.21267 27.6723 1.67C27.9243 2.12733 28.0503 2.64067 28.0503 3.21C28.0503 3.75133 27.929 4.25067 27.6863 4.708C27.4436 5.156 27.0656 5.52 26.5523 5.8C26.039 6.07067 25.381 6.206 24.5783 6.206H22.7443V10H20.9523ZM22.7443 4.75H24.4663C25.0916 4.75 25.5396 4.61467 25.8103 4.344C26.0903 4.064 26.2303 3.686 26.2303 3.21C26.2303 2.72467 26.0903 2.34667 25.8103 2.076C25.5396 1.796 25.0916 1.656 24.4663 1.656H22.7443V4.75ZM30.2962 10V0.199999H32.0882V8.6H36.4282V10H30.2962ZM39.9866 10V6.514L36.6966 0.199999H38.7266L40.8966 4.722L43.0526 0.199999H45.0546L41.7786 6.514V10H39.9866ZM51.2186 10V0.199999H53.0106L57.6166 7.102V0.199999H59.4086V10H57.6166L53.0106 3.112V10H51.2186ZM66.7404 10.168C65.7604 10.168 64.9017 9.95333 64.1644 9.524C63.4364 9.09467 62.8624 8.502 62.4424 7.746C62.0317 6.98067 61.8264 6.09867 61.8264 5.1C61.8264 4.10133 62.0317 3.224 62.4424 2.468C62.8624 1.70267 63.4364 1.10533 64.1644 0.676C64.9017 0.246667 65.7604 0.0319998 66.7404 0.0319998C67.7111 0.0319998 68.5651 0.246667 69.3024 0.676C70.0397 1.10533 70.6137 1.70267 71.0244 2.468C71.4351 3.224 71.6404 4.10133 71.6404 5.1C71.6404 6.09867 71.4351 6.98067 71.0244 7.746C70.6137 8.502 70.0397 9.09467 69.3024 9.524C68.5651 9.95333 67.7111 10.168 66.7404 10.168ZM66.7404 8.558C67.6737 8.558 68.4157 8.25 68.9664 7.634C69.5264 7.018 69.8064 6.17333 69.8064 5.1C69.8064 4.02667 69.5264 3.182 68.9664 2.566C68.4157 1.95 67.6737 1.642 66.7404 1.642C65.8071 1.642 65.0604 1.95 64.5004 2.566C63.9404 3.182 63.6604 4.02667 63.6604 5.1C63.6604 6.17333 63.9404 7.018 64.5004 7.634C65.0604 8.25 65.8071 8.558 66.7404 8.558ZM75.6268 10L73.0368 0.199999H74.9548L76.7188 7.998L78.7908 0.199999H80.7648L82.7808 7.998L84.5448 0.199999H86.4768L83.8168 10H81.6888L79.7428 2.734L77.7408 10H75.6268Z" fill="white"/>
</svg>
