<svg width="115" height="11" viewBox="0 0 115 11" fill="none" xmlns="http://www.w3.org/2000/svg">
<path d="M0.952 10V0.199999H4.886C5.90333 0.199999 6.678 0.437999 7.21 0.913999C7.75133 1.38067 8.022 1.98267 8.022 2.72C8.022 3.336 7.854 3.83067 7.518 4.204C7.19133 4.568 6.79 4.81533 6.314 4.946C6.874 5.058 7.336 5.338 7.7 5.786C8.064 6.22467 8.246 6.738 8.246 7.326C8.246 8.10067 7.966 8.74 7.406 9.244C6.846 9.748 6.05267 10 5.026 10H0.952ZM2.744 4.316H4.62C5.124 4.316 5.51133 4.19933 5.782 3.966C6.05267 3.73267 6.188 3.40133 6.188 2.972C6.188 2.56133 6.05267 2.23933 5.782 2.006C5.52067 1.76333 5.124 1.642 4.592 1.642H2.744V4.316ZM2.744 8.544H4.746C5.278 8.544 5.68867 8.42267 5.978 8.18C6.27667 7.928 6.426 7.578 6.426 7.13C6.426 6.67267 6.272 6.31333 5.964 6.052C5.656 5.79067 5.24067 5.66 4.718 5.66H2.744V8.544ZM9.912 10L13.496 0.199999H15.512L19.096 10H17.192L16.408 7.732H12.586L11.788 10H9.912ZM13.076 6.332H15.918L14.49 2.258L13.076 6.332ZM25.0759 10.168C24.0865 10.168 23.2372 9.958 22.5279 9.538C21.8185 9.10867 21.2725 8.516 20.8899 7.76C20.5072 6.99467 20.3159 6.11267 20.3159 5.114C20.3159 4.11533 20.5072 3.23333 20.8899 2.468C21.2725 1.70267 21.8185 1.10533 22.5279 0.676C23.2372 0.246667 24.0865 0.0319998 25.0759 0.0319998C26.2519 0.0319998 27.2132 0.326 27.9599 0.913999C28.7159 1.49267 29.1872 2.30933 29.3739 3.364H27.3999C27.2785 2.832 27.0172 2.41667 26.6159 2.118C26.2239 1.81 25.7012 1.656 25.0479 1.656C24.1425 1.656 23.4332 1.964 22.9199 2.58C22.4065 3.196 22.1499 4.04067 22.1499 5.114C22.1499 6.18733 22.4065 7.032 22.9199 7.648C23.4332 8.25467 24.1425 8.558 25.0479 8.558C25.7012 8.558 26.2239 8.418 26.6159 8.138C27.0172 7.84867 27.2785 7.452 27.3999 6.948H29.3739C29.1872 7.956 28.7159 8.74467 27.9599 9.314C27.2132 9.88333 26.2519 10.168 25.0759 10.168ZM31.8001 10V0.199999H33.5921V4.162L37.2181 0.199999H39.4301L35.8181 4.092L39.5281 10H37.3301L34.5301 5.464L33.5921 6.486V10H31.8001ZM48.0531 10V1.642H45.1971V0.199999H52.7151V1.642H49.8451V10H48.0531ZM59.1192 10.168C58.1392 10.168 57.2805 9.95333 56.5432 9.524C55.8152 9.09467 55.2412 8.502 54.8212 7.746C54.4105 6.98067 54.2052 6.09867 54.2052 5.1C54.2052 4.10133 54.4105 3.224 54.8212 2.468C55.2412 1.70267 55.8152 1.10533 56.5432 0.676C57.2805 0.246667 58.1392 0.0319998 59.1192 0.0319998C60.0898 0.0319998 60.9438 0.246667 61.6812 0.676C62.4185 1.10533 62.9925 1.70267 63.4032 2.468C63.8138 3.224 64.0192 4.10133 64.0192 5.1C64.0192 6.09867 63.8138 6.98067 63.4032 7.746C62.9925 8.502 62.4185 9.09467 61.6812 9.524C60.9438 9.95333 60.0898 10.168 59.1192 10.168ZM59.1192 8.558C60.0525 8.558 60.7945 8.25 61.3452 7.634C61.9052 7.018 62.1852 6.17333 62.1852 5.1C62.1852 4.02667 61.9052 3.182 61.3452 2.566C60.7945 1.95 60.0525 1.642 59.1192 1.642C58.1858 1.642 57.4392 1.95 56.8792 2.566C56.3192 3.182 56.0392 4.02667 56.0392 5.1C56.0392 6.17333 56.3192 7.018 56.8792 7.634C57.4392 8.25 58.1858 8.558 59.1192 8.558ZM70.6173 10V0.199999H72.4093V8.6H76.7493V10H70.6173ZM82.8716 10.168C81.8916 10.168 81.0329 9.95333 80.2956 9.524C79.5676 9.09467 78.9936 8.502 78.5736 7.746C78.1629 6.98067 77.9576 6.09867 77.9576 5.1C77.9576 4.10133 78.1629 3.224 78.5736 2.468C78.9936 1.70267 79.5676 1.10533 80.2956 0.676C81.0329 0.246667 81.8916 0.0319998 82.8716 0.0319998C83.8422 0.0319998 84.6962 0.246667 85.4336 0.676C86.1709 1.10533 86.7449 1.70267 87.1556 2.468C87.5662 3.224 87.7716 4.10133 87.7716 5.1C87.7716 6.09867 87.5662 6.98067 87.1556 7.746C86.7449 8.502 86.1709 9.09467 85.4336 9.524C84.6962 9.95333 83.8422 10.168 82.8716 10.168ZM82.8716 8.558C83.8049 8.558 84.5469 8.25 85.0976 7.634C85.6576 7.018 85.9376 6.17333 85.9376 5.1C85.9376 4.02667 85.6576 3.182 85.0976 2.566C84.5469 1.95 83.8049 1.642 82.8716 1.642C81.9382 1.642 81.1916 1.95 80.6316 2.566C80.0716 3.182 79.7916 4.02667 79.7916 5.1C79.7916 6.17333 80.0716 7.018 80.6316 7.634C81.1916 8.25 81.9382 8.558 82.8716 8.558ZM94.4778 10.168C93.5538 10.168 92.7465 9.958 92.0558 9.538C91.3651 9.118 90.8285 8.53467 90.4458 7.788C90.0631 7.032 89.8718 6.15467 89.8718 5.156C89.8718 4.148 90.0678 3.26133 90.4598 2.496C90.8611 1.72133 91.4258 1.11933 92.1538 0.69C92.8911 0.251333 93.7638 0.0319998 94.7718 0.0319998C95.9198 0.0319998 96.8718 0.307333 97.6278 0.857999C98.3838 1.40867 98.8738 2.16933 99.0978 3.14H97.0958C96.9465 2.68267 96.6758 2.328 96.2838 2.076C95.8918 1.81467 95.3878 1.684 94.7718 1.684C93.7918 1.684 93.0358 1.99667 92.5038 2.622C91.9718 3.238 91.7058 4.08733 91.7058 5.17C91.7058 6.25267 91.9671 7.09267 92.4898 7.69C93.0218 8.278 93.7405 8.572 94.6458 8.572C95.5325 8.572 96.1998 8.334 96.6478 7.858C97.1051 7.37267 97.3805 6.738 97.4738 5.954H94.9958V4.61H99.2798V10H97.6278L97.4878 8.712C97.1705 9.17867 96.7738 9.538 96.2978 9.79C95.8218 10.042 95.2151 10.168 94.4778 10.168ZM101.862 10V0.199999H103.654V10H101.862ZM106.393 10V0.199999H108.185L112.791 7.102V0.199999H114.583V10H112.791L108.185 3.112V10H106.393Z" fill="white"/>
</svg>
