<svg width="248" height="23" viewBox="0 0 248 23" fill="none" xmlns="http://www.w3.org/2000/svg">
<path d="M10.55 22.36C8.43 22.36 6.61 21.91 5.09 21.01C3.57 20.09 2.4 18.82 1.58 17.2C0.76 15.56 0.35 13.67 0.35 11.53C0.35 9.39 0.76 7.5 1.58 5.86C2.4 4.22 3.57 2.94 5.09 2.02C6.61 1.1 8.43 0.64 10.55 0.64C13.07 0.64 15.13 1.27 16.73 2.53C18.35 3.77 19.36 5.52 19.76 7.78H15.53C15.27 6.64 14.71 5.75 13.85 5.11C13.01 4.45 11.89 4.12 10.49 4.12C8.55 4.12 7.03 4.78 5.93 6.1C4.83 7.42 4.28 9.23 4.28 11.53C4.28 13.83 4.83 15.64 5.93 16.96C7.03 18.26 8.55 18.91 10.49 18.91C11.89 18.91 13.01 18.61 13.85 18.01C14.71 17.39 15.27 16.54 15.53 15.46H19.76C19.36 17.62 18.35 19.31 16.73 20.53C15.13 21.75 13.07 22.36 10.55 22.36ZM23.0691 22V0.399999H26.9091V9.4C27.4091 8.58 28.0791 7.94 28.9191 7.48C29.7791 7 30.7591 6.76 31.8591 6.76C33.6991 6.76 35.1191 7.34 36.1191 8.5C37.1391 9.66 37.6491 11.36 37.6491 13.6V22H33.8391V13.96C33.8391 12.68 33.5791 11.7 33.0591 11.02C32.5591 10.34 31.7591 10 30.6591 10C29.5791 10 28.6791 10.38 27.9591 11.14C27.2591 11.9 26.9091 12.96 26.9091 14.32V22H23.0691ZM48.5511 22.36C47.0511 22.36 45.7211 22.04 44.5611 21.4C43.4011 20.76 42.4911 19.86 41.8311 18.7C41.1711 17.54 40.8411 16.2 40.8411 14.68C40.8411 13.14 41.1611 11.77 41.8011 10.57C42.4611 9.37 43.3611 8.44 44.5011 7.78C45.6611 7.1 47.0211 6.76 48.5811 6.76C50.0411 6.76 51.3311 7.08 52.4511 7.72C53.5711 8.36 54.4411 9.24 55.0611 10.36C55.7011 11.46 56.0211 12.69 56.0211 14.05C56.0211 14.27 56.0111 14.5 55.9911 14.74C55.9911 14.98 55.9811 15.23 55.9611 15.49H44.6511C44.7311 16.65 45.1311 17.56 45.8511 18.22C46.5911 18.88 47.4811 19.21 48.5211 19.21C49.3011 19.21 49.9511 19.04 50.4711 18.7C51.0111 18.34 51.4111 17.88 51.6711 17.32H55.5711C55.2911 18.26 54.8211 19.12 54.1611 19.9C53.5211 20.66 52.7211 21.26 51.7611 21.7C50.8211 22.14 49.7511 22.36 48.5511 22.36ZM48.5811 9.88C47.6411 9.88 46.8111 10.15 46.0911 10.69C45.3711 11.21 44.9111 12.01 44.7111 13.09H52.1211C52.0611 12.11 51.7011 11.33 51.0411 10.75C50.3811 10.17 49.5611 9.88 48.5811 9.88ZM66.5408 22.36C65.0208 22.36 63.6808 22.03 62.5208 21.37C61.3608 20.71 60.4408 19.79 59.7608 18.61C59.1008 17.43 58.7708 16.08 58.7708 14.56C58.7708 13.04 59.1008 11.69 59.7608 10.51C60.4408 9.33 61.3608 8.41 62.5208 7.75C63.6808 7.09 65.0208 6.76 66.5408 6.76C68.4408 6.76 70.0408 7.26 71.3408 8.26C72.6408 9.24 73.4708 10.6 73.8308 12.34H69.7808C69.5808 11.62 69.1808 11.06 68.5808 10.66C68.0008 10.24 67.3108 10.03 66.5108 10.03C65.4508 10.03 64.5508 10.43 63.8108 11.23C63.0708 12.03 62.7008 13.14 62.7008 14.56C62.7008 15.98 63.0708 17.09 63.8108 17.89C64.5508 18.69 65.4508 19.09 66.5108 19.09C67.3108 19.09 68.0008 18.89 68.5808 18.49C69.1808 18.09 69.5808 17.52 69.7808 16.78H73.8308C73.4708 18.46 72.6408 19.81 71.3408 20.83C70.0408 21.85 68.4408 22.36 66.5408 22.36ZM77.2391 22V0.399999H81.0791V13.15L86.3591 7.12H90.9191L84.8291 13.9L91.9091 22H87.1091L81.0791 14.53V22H77.2391ZM106.958 22V14.53L99.9083 0.999999H104.258L108.908 10.69L113.528 0.999999H117.818L110.798 14.53V22H106.958ZM124.662 22.36C123.222 22.36 121.922 22.03 120.762 21.37C119.622 20.71 118.712 19.8 118.032 18.64C117.372 17.46 117.042 16.1 117.042 14.56C117.042 13.02 117.382 11.67 118.062 10.51C118.742 9.33 119.652 8.41 120.792 7.75C121.952 7.09 123.252 6.76 124.692 6.76C126.112 6.76 127.392 7.09 128.532 7.75C129.692 8.41 130.602 9.33 131.262 10.51C131.942 11.67 132.282 13.02 132.282 14.56C132.282 16.1 131.942 17.46 131.262 18.64C130.602 19.8 129.692 20.71 128.532 21.37C127.372 22.03 126.082 22.36 124.662 22.36ZM124.662 19.03C125.662 19.03 126.532 18.66 127.272 17.92C128.012 17.16 128.382 16.04 128.382 14.56C128.382 13.08 128.012 11.97 127.272 11.23C126.532 10.47 125.672 10.09 124.692 10.09C123.672 10.09 122.792 10.47 122.052 11.23C121.332 11.97 120.972 13.08 120.972 14.56C120.972 16.04 121.332 17.16 122.052 17.92C122.792 18.66 123.662 19.03 124.662 19.03ZM141.296 22.36C139.436 22.36 137.996 21.78 136.976 20.62C135.976 19.46 135.476 17.76 135.476 15.52V7.12H139.286V15.16C139.286 16.44 139.546 17.42 140.066 18.1C140.586 18.78 141.406 19.12 142.526 19.12C143.586 19.12 144.456 18.74 145.136 17.98C145.836 17.22 146.186 16.16 146.186 14.8V7.12H150.026V22H146.636L146.336 19.48C145.876 20.36 145.206 21.06 144.326 21.58C143.466 22.1 142.456 22.36 141.296 22.36ZM153.968 22V7.12H157.388L157.748 9.91C158.288 8.95 159.018 8.19 159.938 7.63C160.878 7.05 161.978 6.76 163.238 6.76V10.81H162.158C161.318 10.81 160.568 10.94 159.908 11.2C159.248 11.46 158.728 11.91 158.348 12.55C157.988 13.19 157.808 14.08 157.808 15.22V22H153.968ZM173.101 22V0.999999H186.811V4.09H176.941V9.85H185.911V12.85H176.941V18.91H186.811V22H173.101ZM190.354 22V7.12H193.744L194.074 9.13C194.554 8.41 195.184 7.84 195.964 7.42C196.764 6.98 197.684 6.76 198.724 6.76C201.024 6.76 202.654 7.65 203.614 9.43C204.154 8.61 204.874 7.96 205.774 7.48C206.694 7 207.694 6.76 208.774 6.76C210.714 6.76 212.204 7.34 213.244 8.5C214.284 9.66 214.804 11.36 214.804 13.6V22H210.964V13.96C210.964 12.68 210.714 11.7 210.214 11.02C209.734 10.34 208.984 10 207.964 10C206.924 10 206.084 10.38 205.444 11.14C204.824 11.9 204.514 12.96 204.514 14.32V22H200.674V13.96C200.674 12.68 200.424 11.7 199.924 11.02C199.424 10.34 198.654 10 197.614 10C196.594 10 195.764 10.38 195.124 11.14C194.504 11.9 194.194 12.96 194.194 14.32V22H190.354ZM223.58 22.36C222.3 22.36 221.25 22.16 220.43 21.76C219.61 21.34 219 20.79 218.6 20.11C218.2 19.43 218 18.68 218 17.86C218 16.48 218.54 15.36 219.62 14.5C220.7 13.64 222.32 13.21 224.48 13.21H228.26V12.85C228.26 11.83 227.97 11.08 227.39 10.6C226.81 10.12 226.09 9.88 225.23 9.88C224.45 9.88 223.77 10.07 223.19 10.45C222.61 10.81 222.25 11.35 222.11 12.07H218.36C218.46 10.99 218.82 10.05 219.44 9.25C220.08 8.45 220.9 7.84 221.9 7.42C222.9 6.98 224.02 6.76 225.26 6.76C227.38 6.76 229.05 7.29 230.27 8.35C231.49 9.41 232.1 10.91 232.1 12.85V22H228.83L228.47 19.6C228.03 20.4 227.41 21.06 226.61 21.58C225.83 22.1 224.82 22.36 223.58 22.36ZM224.45 19.36C225.55 19.36 226.4 19 227 18.28C227.62 17.56 228.01 16.67 228.17 15.61H224.9C223.88 15.61 223.15 15.8 222.71 16.18C222.27 16.54 222.05 16.99 222.05 17.53C222.05 18.11 222.27 18.56 222.71 18.88C223.15 19.2 223.73 19.36 224.45 19.36ZM237.834 4.81C237.134 4.81 236.554 4.6 236.094 4.18C235.654 3.76 235.434 3.23 235.434 2.59C235.434 1.95 235.654 1.43 236.094 1.03C236.554 0.609999 237.134 0.399999 237.834 0.399999C238.534 0.399999 239.104 0.609999 239.544 1.03C240.004 1.43 240.234 1.95 240.234 2.59C240.234 3.23 240.004 3.76 239.544 4.18C239.104 4.6 238.534 4.81 237.834 4.81ZM235.914 22V7.12H239.754V22H235.914ZM243.763 22V0.399999H247.603V22H243.763Z" fill="#0D0140"/>
</svg>
