<svg width="77" height="11" viewBox="0 0 77 11" fill="none" xmlns="http://www.w3.org/2000/svg">
<path d="M5.39 10.168C4.40067 10.168 3.55133 9.958 2.842 9.538C2.13267 9.10867 1.58667 8.516 1.204 7.76C0.821333 6.99467 0.63 6.11267 0.63 5.114C0.63 4.11533 0.821333 3.23333 1.204 2.468C1.58667 1.70267 2.13267 1.10533 2.842 0.676C3.55133 0.246667 4.40067 0.0319998 5.39 0.0319998C6.566 0.0319998 7.52733 0.326 8.274 0.913999C9.03 1.49267 9.50133 2.30933 9.688 3.364H7.714C7.59267 2.832 7.33133 2.41667 6.93 2.118C6.538 1.81 6.01533 1.656 5.362 1.656C4.45667 1.656 3.74733 1.964 3.234 2.58C2.72067 3.196 2.464 4.04067 2.464 5.114C2.464 6.18733 2.72067 7.032 3.234 7.648C3.74733 8.25467 4.45667 8.558 5.362 8.558C6.01533 8.558 6.538 8.418 6.93 8.138C7.33133 7.84867 7.59267 7.452 7.714 6.948H9.688C9.50133 7.956 9.03 8.74467 8.274 9.314C7.52733 9.88333 6.566 10.168 5.39 10.168ZM16.7063 10.168C15.7263 10.168 14.8676 9.95333 14.1303 9.524C13.4023 9.09467 12.8283 8.502 12.4083 7.746C11.9976 6.98067 11.7923 6.09867 11.7923 5.1C11.7923 4.10133 11.9976 3.224 12.4083 2.468C12.8283 1.70267 13.4023 1.10533 14.1303 0.676C14.8676 0.246667 15.7263 0.0319998 16.7063 0.0319998C17.6769 0.0319998 18.5309 0.246667 19.2683 0.676C20.0056 1.10533 20.5796 1.70267 20.9903 2.468C21.4009 3.224 21.6063 4.10133 21.6063 5.1C21.6063 6.09867 21.4009 6.98067 20.9903 7.746C20.5796 8.502 20.0056 9.09467 19.2683 9.524C18.5309 9.95333 17.6769 10.168 16.7063 10.168ZM16.7063 8.558C17.6396 8.558 18.3816 8.25 18.9323 7.634C19.4923 7.018 19.7723 6.17333 19.7723 5.1C19.7723 4.02667 19.4923 3.182 18.9323 2.566C18.3816 1.95 17.6396 1.642 16.7063 1.642C15.7729 1.642 15.0263 1.95 14.4663 2.566C13.9063 3.182 13.6263 4.02667 13.6263 5.1C13.6263 6.17333 13.9063 7.018 14.4663 7.634C15.0263 8.25 15.7729 8.558 16.7063 8.558ZM24.0285 10V0.199999H25.8205L30.4265 7.102V0.199999H32.2185V10H30.4265L25.8205 3.112V10H24.0285ZM37.2403 10V1.642H34.3843V0.199999H41.9023V1.642H39.0323V10H37.2403ZM44.0698 10V0.199999H45.8618V10H44.0698ZM48.6012 10V0.199999H50.3932L54.9992 7.102V0.199999H56.7912V10H54.9992L50.3932 3.112V10H48.6012ZM63.3111 10.168C62.5924 10.168 61.9437 10.028 61.3651 9.748C60.7864 9.45867 60.3244 9.02467 59.9791 8.446C59.6431 7.86733 59.4751 7.13467 59.4751 6.248V0.199999H61.2671V6.262C61.2671 7.02733 61.4491 7.59667 61.8131 7.97C62.1864 8.34333 62.6997 8.53 63.3531 8.53C63.9971 8.53 64.5057 8.34333 64.8791 7.97C65.2524 7.59667 65.4391 7.02733 65.4391 6.262V0.199999H67.2311V6.248C67.2311 7.13467 67.0537 7.86733 66.6991 8.446C66.3444 9.02467 65.8684 9.45867 65.2711 9.748C64.6831 10.028 64.0297 10.168 63.3111 10.168ZM69.9004 10V0.199999H76.2984V1.642H71.6924V4.33H75.8784V5.73H71.6924V8.558H76.2984V10H69.9004Z" fill="white"/>
</svg>
