<svg width="271" height="23" viewBox="0 0 271 23" fill="none" xmlns="http://www.w3.org/2000/svg">
<path d="M10.55 22.36C8.43 22.36 6.61 21.91 5.09 21.01C3.57 20.09 2.4 18.82 1.58 17.2C0.76 15.56 0.35 13.67 0.35 11.53C0.35 9.39 0.76 7.5 1.58 5.86C2.4 4.22 3.57 2.94 5.09 2.02C6.61 1.1 8.43 0.64 10.55 0.64C13.07 0.64 15.13 1.27 16.73 2.53C18.35 3.77 19.36 5.52 19.76 7.78H15.53C15.27 6.64 14.71 5.75 13.85 5.11C13.01 4.45 11.89 4.12 10.49 4.12C8.55 4.12 7.03 4.78 5.93 6.1C4.83 7.42 4.28 9.23 4.28 11.53C4.28 13.83 4.83 15.64 5.93 16.96C7.03 18.26 8.55 18.91 10.49 18.91C11.89 18.91 13.01 18.61 13.85 18.01C14.71 17.39 15.27 16.54 15.53 15.46H19.76C19.36 17.62 18.35 19.31 16.73 20.53C15.13 21.75 13.07 22.36 10.55 22.36ZM23.0691 22V7.12H26.4891L26.8491 9.91C27.3891 8.95 28.1191 8.19 29.0391 7.63C29.9791 7.05 31.0791 6.76 32.3391 6.76V10.81H31.2591C30.4191 10.81 29.6691 10.94 29.0091 11.2C28.3491 11.46 27.8291 11.91 27.4491 12.55C27.0891 13.19 26.9091 14.08 26.9091 15.22V22H23.0691ZM41.93 22.36C40.43 22.36 39.1 22.04 37.94 21.4C36.78 20.76 35.87 19.86 35.21 18.7C34.55 17.54 34.22 16.2 34.22 14.68C34.22 13.14 34.54 11.77 35.18 10.57C35.84 9.37 36.74 8.44 37.88 7.78C39.04 7.1 40.4 6.76 41.96 6.76C43.42 6.76 44.71 7.08 45.83 7.72C46.95 8.36 47.82 9.24 48.44 10.36C49.08 11.46 49.4 12.69 49.4 14.05C49.4 14.27 49.39 14.5 49.37 14.74C49.37 14.98 49.36 15.23 49.34 15.49H38.03C38.11 16.65 38.51 17.56 39.23 18.22C39.97 18.88 40.86 19.21 41.9 19.21C42.68 19.21 43.33 19.04 43.85 18.7C44.39 18.34 44.79 17.88 45.05 17.32H48.95C48.67 18.26 48.2 19.12 47.54 19.9C46.9 20.66 46.1 21.26 45.14 21.7C44.2 22.14 43.13 22.36 41.93 22.36ZM41.96 9.88C41.02 9.88 40.19 10.15 39.47 10.69C38.75 11.21 38.29 12.01 38.09 13.09H45.5C45.44 12.11 45.08 11.33 44.42 10.75C43.76 10.17 42.94 9.88 41.96 9.88ZM57.7597 22.36C56.4797 22.36 55.4297 22.16 54.6097 21.76C53.7897 21.34 53.1797 20.79 52.7797 20.11C52.3797 19.43 52.1797 18.68 52.1797 17.86C52.1797 16.48 52.7197 15.36 53.7997 14.5C54.8797 13.64 56.4997 13.21 58.6597 13.21H62.4397V12.85C62.4397 11.83 62.1497 11.08 61.5697 10.6C60.9897 10.12 60.2697 9.88 59.4097 9.88C58.6297 9.88 57.9497 10.07 57.3697 10.45C56.7897 10.81 56.4297 11.35 56.2897 12.07H52.5397C52.6397 10.99 52.9997 10.05 53.6197 9.25C54.2597 8.45 55.0797 7.84 56.0797 7.42C57.0797 6.98 58.1997 6.76 59.4397 6.76C61.5597 6.76 63.2297 7.29 64.4497 8.35C65.6697 9.41 66.2797 10.91 66.2797 12.85V22H63.0097L62.6497 19.6C62.2097 20.4 61.5897 21.06 60.7897 21.58C60.0097 22.1 58.9997 22.36 57.7597 22.36ZM58.6297 19.36C59.7297 19.36 60.5797 19 61.1797 18.28C61.7997 17.56 62.1897 16.67 62.3497 15.61H59.0797C58.0597 15.61 57.3297 15.8 56.8897 16.18C56.4497 16.54 56.2297 16.99 56.2297 17.53C56.2297 18.11 56.4497 18.56 56.8897 18.88C57.3297 19.2 57.9097 19.36 58.6297 19.36ZM76.3691 22C74.8091 22 73.5591 21.62 72.6191 20.86C71.6791 20.1 71.2091 18.75 71.2091 16.81V10.33H68.6591V7.12H71.2091L71.6591 3.13H75.0491V7.12H79.0691V10.33H75.0491V16.84C75.0491 17.56 75.1991 18.06 75.4991 18.34C75.8191 18.6 76.3591 18.73 77.1191 18.73H78.9791V22H76.3691ZM89.2152 22.36C87.7152 22.36 86.3852 22.04 85.2252 21.4C84.0652 20.76 83.1552 19.86 82.4952 18.7C81.8352 17.54 81.5052 16.2 81.5052 14.68C81.5052 13.14 81.8252 11.77 82.4652 10.57C83.1252 9.37 84.0252 8.44 85.1652 7.78C86.3252 7.1 87.6852 6.76 89.2452 6.76C90.7052 6.76 91.9952 7.08 93.1152 7.72C94.2352 8.36 95.1052 9.24 95.7252 10.36C96.3652 11.46 96.6852 12.69 96.6852 14.05C96.6852 14.27 96.6752 14.5 96.6552 14.74C96.6552 14.98 96.6452 15.23 96.6252 15.49H85.3152C85.3952 16.65 85.7952 17.56 86.5152 18.22C87.2552 18.88 88.1452 19.21 89.1852 19.21C89.9652 19.21 90.6152 19.04 91.1352 18.7C91.6752 18.34 92.0752 17.88 92.3352 17.32H96.2352C95.9552 18.26 95.4852 19.12 94.8252 19.9C94.1852 20.66 93.3852 21.26 92.4252 21.7C91.4852 22.14 90.4152 22.36 89.2152 22.36ZM89.2452 9.88C88.3052 9.88 87.4752 10.15 86.7552 10.69C86.0352 11.21 85.5752 12.01 85.3752 13.09H92.7852C92.7252 12.11 92.3652 11.33 91.7052 10.75C91.0452 10.17 90.2252 9.88 89.2452 9.88ZM112.193 22.36C110.913 22.36 109.863 22.16 109.043 21.76C108.223 21.34 107.613 20.79 107.213 20.11C106.813 19.43 106.613 18.68 106.613 17.86C106.613 16.48 107.153 15.36 108.233 14.5C109.313 13.64 110.933 13.21 113.093 13.21H116.873V12.85C116.873 11.83 116.583 11.08 116.003 10.6C115.423 10.12 114.703 9.88 113.843 9.88C113.063 9.88 112.383 10.07 111.803 10.45C111.223 10.81 110.863 11.35 110.723 12.07H106.973C107.073 10.99 107.433 10.05 108.053 9.25C108.693 8.45 109.513 7.84 110.513 7.42C111.513 6.98 112.633 6.76 113.873 6.76C115.993 6.76 117.663 7.29 118.883 8.35C120.103 9.41 120.713 10.91 120.713 12.85V22H117.443L117.083 19.6C116.643 20.4 116.023 21.06 115.223 21.58C114.443 22.1 113.433 22.36 112.193 22.36ZM113.063 19.36C114.163 19.36 115.013 19 115.613 18.28C116.233 17.56 116.623 16.67 116.783 15.61H113.513C112.493 15.61 111.763 15.8 111.323 16.18C110.883 16.54 110.663 16.99 110.663 17.53C110.663 18.11 110.883 18.56 111.323 18.88C111.763 19.2 112.343 19.36 113.063 19.36ZM124.378 22V7.12H127.768L128.068 9.64C128.528 8.76 129.188 8.06 130.048 7.54C130.928 7.02 131.958 6.76 133.138 6.76C134.978 6.76 136.408 7.34 137.428 8.5C138.448 9.66 138.958 11.36 138.958 13.6V22H135.118V13.96C135.118 12.68 134.858 11.7 134.338 11.02C133.818 10.34 133.008 10 131.908 10C130.828 10 129.938 10.38 129.238 11.14C128.558 11.9 128.218 12.96 128.218 14.32V22H124.378ZM148.518 22L156.198 0.999999H160.518L168.198 22H164.118L162.438 17.14H154.248L152.538 22H148.518ZM155.298 14.14H161.388L158.328 5.41L155.298 14.14ZM177.4 22.36C175.88 22.36 174.54 22.03 173.38 21.37C172.22 20.71 171.3 19.79 170.62 18.61C169.96 17.43 169.63 16.08 169.63 14.56C169.63 13.04 169.96 11.69 170.62 10.51C171.3 9.33 172.22 8.41 173.38 7.75C174.54 7.09 175.88 6.76 177.4 6.76C179.3 6.76 180.9 7.26 182.2 8.26C183.5 9.24 184.33 10.6 184.69 12.34H180.64C180.44 11.62 180.04 11.06 179.44 10.66C178.86 10.24 178.17 10.03 177.37 10.03C176.31 10.03 175.41 10.43 174.67 11.23C173.93 12.03 173.56 13.14 173.56 14.56C173.56 15.98 173.93 17.09 174.67 17.89C175.41 18.69 176.31 19.09 177.37 19.09C178.17 19.09 178.86 18.89 179.44 18.49C180.04 18.09 180.44 17.52 180.64 16.78H184.69C184.33 18.46 183.5 19.81 182.2 20.83C180.9 21.85 179.3 22.36 177.4 22.36ZM195.388 22.36C193.868 22.36 192.528 22.03 191.368 21.37C190.208 20.71 189.288 19.79 188.608 18.61C187.948 17.43 187.618 16.08 187.618 14.56C187.618 13.04 187.948 11.69 188.608 10.51C189.288 9.33 190.208 8.41 191.368 7.75C192.528 7.09 193.868 6.76 195.388 6.76C197.288 6.76 198.888 7.26 200.188 8.26C201.488 9.24 202.318 10.6 202.678 12.34H198.628C198.428 11.62 198.028 11.06 197.428 10.66C196.848 10.24 196.158 10.03 195.358 10.03C194.298 10.03 193.398 10.43 192.658 11.23C191.918 12.03 191.548 13.14 191.548 14.56C191.548 15.98 191.918 17.09 192.658 17.89C193.398 18.69 194.298 19.09 195.358 19.09C196.158 19.09 196.848 18.89 197.428 18.49C198.028 18.09 198.428 17.52 198.628 16.78H202.678C202.318 18.46 201.488 19.81 200.188 20.83C198.888 21.85 197.288 22.36 195.388 22.36ZM213.227 22.36C211.787 22.36 210.487 22.03 209.327 21.37C208.187 20.71 207.277 19.8 206.597 18.64C205.937 17.46 205.607 16.1 205.607 14.56C205.607 13.02 205.947 11.67 206.627 10.51C207.307 9.33 208.217 8.41 209.357 7.75C210.517 7.09 211.817 6.76 213.257 6.76C214.677 6.76 215.957 7.09 217.097 7.75C218.257 8.41 219.167 9.33 219.827 10.51C220.507 11.67 220.847 13.02 220.847 14.56C220.847 16.1 220.507 17.46 219.827 18.64C219.167 19.8 218.257 20.71 217.097 21.37C215.937 22.03 214.647 22.36 213.227 22.36ZM213.227 19.03C214.227 19.03 215.097 18.66 215.837 17.92C216.577 17.16 216.947 16.04 216.947 14.56C216.947 13.08 216.577 11.97 215.837 11.23C215.097 10.47 214.237 10.09 213.257 10.09C212.237 10.09 211.357 10.47 210.617 11.23C209.897 11.97 209.537 13.08 209.537 14.56C209.537 16.04 209.897 17.16 210.617 17.92C211.357 18.66 212.227 19.03 213.227 19.03ZM229.86 22.36C228 22.36 226.56 21.78 225.54 20.62C224.54 19.46 224.04 17.76 224.04 15.52V7.12H227.85V15.16C227.85 16.44 228.11 17.42 228.63 18.1C229.15 18.78 229.97 19.12 231.09 19.12C232.15 19.12 233.02 18.74 233.7 17.98C234.4 17.22 234.75 16.16 234.75 14.8V7.12H238.59V22H235.2L234.9 19.48C234.44 20.36 233.77 21.06 232.89 21.58C232.03 22.1 231.02 22.36 229.86 22.36ZM242.532 22V7.12H245.922L246.222 9.64C246.682 8.76 247.342 8.06 248.202 7.54C249.082 7.02 250.112 6.76 251.292 6.76C253.132 6.76 254.562 7.34 255.582 8.5C256.602 9.66 257.112 11.36 257.112 13.6V22H253.272V13.96C253.272 12.68 253.012 11.7 252.492 11.02C251.972 10.34 251.162 10 250.062 10C248.982 10 248.092 10.38 247.392 11.14C246.712 11.9 246.372 12.96 246.372 14.32V22H242.532ZM267.414 22C265.854 22 264.604 21.62 263.664 20.86C262.724 20.1 262.254 18.75 262.254 16.81V10.33H259.704V7.12H262.254L262.704 3.13H266.094V7.12H270.114V10.33H266.094V16.84C266.094 17.56 266.244 18.06 266.544 18.34C266.864 18.6 267.404 18.73 268.164 18.73H270.024V22H267.414Z" fill="#0D0140"/>
</svg>
