<svg width="31" height="10" viewBox="0 0 31 10" fill="none" xmlns="http://www.w3.org/2000/svg">
<path d="M0.816 9V0.599999H6.3V1.836H2.352V4.14H5.94V5.34H2.352V7.764H6.3V9H0.816ZM7.7175 9V3.048H9.0735L9.2055 3.852C9.3975 3.564 9.6495 3.336 9.9615 3.168C10.2815 2.992 10.6495 2.904 11.0655 2.904C11.9855 2.904 12.6375 3.26 13.0215 3.972C13.2375 3.644 13.5255 3.384 13.8855 3.192C14.2535 3 14.6535 2.904 15.0855 2.904C15.8615 2.904 16.4575 3.136 16.8735 3.6C17.2895 4.064 17.4975 4.744 17.4975 5.64V9H15.9615V5.784C15.9615 5.272 15.8615 4.88 15.6615 4.608C15.4695 4.336 15.1695 4.2 14.7615 4.2C14.3455 4.2 14.0095 4.352 13.7535 4.656C13.5055 4.96 13.3815 5.384 13.3815 5.928V9H11.8455V5.784C11.8455 5.272 11.7455 4.88 11.5455 4.608C11.3455 4.336 11.0375 4.2 10.6215 4.2C10.2135 4.2 9.8815 4.352 9.6255 4.656C9.3775 4.96 9.2535 5.384 9.2535 5.928V9H7.7175ZM21.0078 9.144C20.4958 9.144 20.0758 9.064 19.7478 8.904C19.4198 8.736 19.1758 8.516 19.0158 8.244C18.8558 7.972 18.7758 7.672 18.7758 7.344C18.7758 6.792 18.9918 6.344 19.4238 6C19.8558 5.656 20.5038 5.484 21.3678 5.484H22.8798V5.34C22.8798 4.932 22.7638 4.632 22.5318 4.44C22.2998 4.248 22.0118 4.152 21.6678 4.152C21.3558 4.152 21.0838 4.228 20.8518 4.38C20.6198 4.524 20.4758 4.74 20.4198 5.028H18.9198C18.9598 4.596 19.1038 4.22 19.3518 3.9C19.6078 3.58 19.9358 3.336 20.3358 3.168C20.7358 2.992 21.1838 2.904 21.6798 2.904C22.5278 2.904 23.1958 3.116 23.6838 3.54C24.1718 3.964 24.4158 4.564 24.4158 5.34V9H23.1078L22.9638 8.04C22.7878 8.36 22.5398 8.624 22.2198 8.832C21.9078 9.04 21.5038 9.144 21.0078 9.144ZM21.3558 7.944C21.7958 7.944 22.1358 7.8 22.3758 7.512C22.6238 7.224 22.7798 6.868 22.8438 6.444H21.5358C21.1278 6.444 20.8358 6.52 20.6598 6.672C20.4838 6.816 20.3958 6.996 20.3958 7.212C20.3958 7.444 20.4838 7.624 20.6598 7.752C20.8358 7.88 21.0678 7.944 21.3558 7.944ZM26.7096 2.124C26.4296 2.124 26.1976 2.04 26.0136 1.872C25.8376 1.704 25.7496 1.492 25.7496 1.236C25.7496 0.98 25.8376 0.772 26.0136 0.611999C26.1976 0.444 26.4296 0.36 26.7096 0.36C26.9896 0.36 27.2176 0.444 27.3936 0.611999C27.5776 0.772 27.6696 0.98 27.6696 1.236C27.6696 1.492 27.5776 1.704 27.3936 1.872C27.2176 2.04 26.9896 2.124 26.7096 2.124ZM25.9416 9V3.048H27.4776V9H25.9416ZM29.0808 9V0.36H30.6168V9H29.0808Z" fill="#0D0140"/>
</svg>
