<svg width="283" height="33" viewBox="0 0 283 33" fill="none" xmlns="http://www.w3.org/2000/svg">
<path d="M1.036 11V1.2H7.098V2.166H2.212V5.582H6.678V6.534H2.212V10.034H7.098V11H1.036ZM8.16834 11L10.5763 7.528L8.16834 4.056H9.44234L11.3883 6.926L13.3483 4.056H14.6083L12.2003 7.528L14.6083 11H13.3483L11.3883 8.13L9.44234 11H8.16834ZM15.841 14.08V4.056H16.905L17.017 5.204C17.241 4.868 17.5583 4.56467 17.969 4.294C18.389 4.02333 18.921 3.888 19.565 3.888C20.2557 3.888 20.8577 4.04667 21.371 4.364C21.8843 4.68133 22.281 5.11533 22.561 5.666C22.8503 6.21667 22.995 6.842 22.995 7.542C22.995 8.242 22.8503 8.86733 22.561 9.418C22.281 9.95933 21.8797 10.3887 21.357 10.706C20.8437 11.014 20.2417 11.168 19.551 11.168C18.9817 11.168 18.473 11.0513 18.025 10.818C17.5863 10.5847 17.2503 10.258 17.017 9.838V14.08H15.841ZM19.425 10.146C19.8917 10.146 20.3023 10.0387 20.657 9.824C21.0117 9.6 21.2917 9.292 21.497 8.9C21.7023 8.508 21.805 8.05067 21.805 7.528C21.805 7.00533 21.7023 6.548 21.497 6.156C21.2917 5.764 21.0117 5.46067 20.657 5.246C20.3023 5.022 19.8917 4.91 19.425 4.91C18.9583 4.91 18.5477 5.022 18.193 5.246C17.8383 5.46067 17.5583 5.764 17.353 6.156C17.1477 6.548 17.045 7.00533 17.045 7.528C17.045 8.05067 17.1477 8.508 17.353 8.9C17.5583 9.292 17.8383 9.6 18.193 9.824C18.5477 10.0387 18.9583 10.146 19.425 10.146ZM24.632 11V0.92H25.808V11H24.632ZM30.8995 11.168C30.2462 11.168 29.6582 11.0187 29.1355 10.72C28.6129 10.4213 28.1975 10.0013 27.8895 9.46C27.5909 8.90933 27.4415 8.26533 27.4415 7.528C27.4415 6.79067 27.5955 6.15133 27.9035 5.61C28.2115 5.05933 28.6269 4.63467 29.1495 4.336C29.6815 4.03733 30.2742 3.888 30.9275 3.888C31.5809 3.888 32.1689 4.03733 32.6915 4.336C33.2142 4.63467 33.6249 5.05933 33.9235 5.61C34.2315 6.15133 34.3855 6.79067 34.3855 7.528C34.3855 8.26533 34.2315 8.90933 33.9235 9.46C33.6155 10.0013 33.1955 10.4213 32.6635 10.72C32.1409 11.0187 31.5529 11.168 30.8995 11.168ZM30.8995 10.16C31.3009 10.16 31.6742 10.062 32.0195 9.866C32.3649 9.67 32.6449 9.376 32.8595 8.984C33.0742 8.592 33.1815 8.10667 33.1815 7.528C33.1815 6.94933 33.0742 6.464 32.8595 6.072C32.6542 5.68 32.3789 5.386 32.0335 5.19C31.6882 4.994 31.3195 4.896 30.9275 4.896C30.5262 4.896 30.1529 4.994 29.8075 5.19C29.4622 5.386 29.1822 5.68 28.9675 6.072C28.7529 6.464 28.6455 6.94933 28.6455 7.528C28.6455 8.10667 28.7529 8.592 28.9675 8.984C29.1822 9.376 29.4575 9.67 29.7935 9.866C30.1389 10.062 30.5075 10.16 30.8995 10.16ZM36.0207 11V4.056H37.0847L37.1827 5.386C37.3974 4.92867 37.724 4.56467 38.1627 4.294C38.6014 4.02333 39.1427 3.888 39.7867 3.888V5.12H39.4647C39.054 5.12 38.676 5.19467 38.3307 5.344C37.9854 5.484 37.71 5.72667 37.5047 6.072C37.2994 6.41733 37.1967 6.89333 37.1967 7.5V11H36.0207ZM43.9689 11.168C43.3062 11.168 42.7182 11.0187 42.2049 10.72C41.6915 10.412 41.2855 9.98733 40.9869 9.446C40.6975 8.90467 40.5529 8.26533 40.5529 7.528C40.5529 6.8 40.6975 6.16533 40.9869 5.624C41.2762 5.07333 41.6775 4.64867 42.1909 4.35C42.7135 4.042 43.3155 3.888 43.9969 3.888C44.6689 3.888 45.2475 4.042 45.7329 4.35C46.2275 4.64867 46.6055 5.04533 46.8669 5.54C47.1282 6.03467 47.2589 6.56667 47.2589 7.136C47.2589 7.23867 47.2542 7.34133 47.2449 7.444C47.2449 7.54667 47.2449 7.66333 47.2449 7.794H41.7149C41.7429 8.326 41.8642 8.76933 42.0789 9.124C42.3029 9.46933 42.5782 9.73067 42.9049 9.908C43.2409 10.0853 43.5955 10.174 43.9689 10.174C44.4542 10.174 44.8602 10.062 45.1869 9.838C45.5135 9.614 45.7515 9.31067 45.9009 8.928H47.0629C46.8762 9.572 46.5169 10.1087 45.9849 10.538C45.4622 10.958 44.7902 11.168 43.9689 11.168ZM43.9689 4.882C43.4089 4.882 42.9095 5.05467 42.4709 5.4C42.0415 5.736 41.7942 6.23067 41.7289 6.884H46.0969C46.0689 6.25867 45.8542 5.76867 45.4529 5.414C45.0515 5.05933 44.5569 4.882 43.9689 4.882ZM54.8326 11.168C54.254 11.168 53.7733 11.07 53.3906 10.874C53.008 10.678 52.7233 10.4167 52.5366 10.09C52.35 9.76333 52.2566 9.40867 52.2566 9.026C52.2566 8.31667 52.5273 7.77067 53.0686 7.388C53.61 7.00533 54.3473 6.814 55.2806 6.814H57.1566V6.73C57.1566 6.12333 56.998 5.666 56.6806 5.358C56.3633 5.04067 55.9386 4.882 55.4066 4.882C54.9493 4.882 54.5526 4.99867 54.2166 5.232C53.89 5.456 53.6846 5.78733 53.6006 6.226H52.3966C52.4433 5.722 52.6113 5.29733 52.9006 4.952C53.1993 4.60667 53.568 4.34533 54.0066 4.168C54.4453 3.98133 54.912 3.888 55.4066 3.888C56.3773 3.888 57.1053 4.14933 57.5906 4.672C58.0853 5.18533 58.3326 5.87133 58.3326 6.73V11H57.2826L57.2126 9.754C57.0166 10.146 56.7273 10.482 56.3446 10.762C55.9713 11.0327 55.4673 11.168 54.8326 11.168ZM55.0146 10.174C55.4626 10.174 55.8453 10.0573 56.1626 9.824C56.4893 9.59067 56.7366 9.28733 56.9046 8.914C57.0726 8.54067 57.1566 8.14867 57.1566 7.738V7.724H55.3786C54.688 7.724 54.198 7.84533 53.9086 8.088C53.6286 8.32133 53.4886 8.61533 53.4886 8.97C53.4886 9.334 53.6193 9.628 53.8806 9.852C54.1513 10.0667 54.5293 10.174 55.0146 10.174ZM60.0969 11V0.92H61.2729V11H60.0969ZM63.2004 11V0.92H64.3764V11H63.2004ZM72.753 11C72.1183 11 71.619 10.846 71.255 10.538C70.891 10.23 70.709 9.67467 70.709 8.872V5.05H69.505V4.056H70.709L70.863 2.39H71.885V4.056H73.929V5.05H71.885V8.872C71.885 9.31067 71.9736 9.60933 72.151 9.768C72.3283 9.91733 72.641 9.992 73.089 9.992H73.817V11H72.753ZM75.423 11V0.92H76.599V5.246C76.8324 4.81667 77.1637 4.48533 77.593 4.252C78.0224 4.00933 78.489 3.888 78.993 3.888C79.7957 3.888 80.4397 4.14 80.925 4.644C81.4104 5.13867 81.653 5.904 81.653 6.94V11H80.491V7.066C80.491 5.61933 79.9077 4.896 78.741 4.896C78.1344 4.896 77.6257 5.11533 77.215 5.554C76.8044 5.98333 76.599 6.59933 76.599 7.402V11H75.423ZM86.5568 11.168C85.8941 11.168 85.3061 11.0187 84.7928 10.72C84.2794 10.412 83.8734 9.98733 83.5748 9.446C83.2854 8.90467 83.1408 8.26533 83.1408 7.528C83.1408 6.8 83.2854 6.16533 83.5748 5.624C83.8641 5.07333 84.2654 4.64867 84.7788 4.35C85.3014 4.042 85.9034 3.888 86.5847 3.888C87.2568 3.888 87.8354 4.042 88.3208 4.35C88.8154 4.64867 89.1934 5.04533 89.4548 5.54C89.7161 6.03467 89.8468 6.56667 89.8468 7.136C89.8468 7.23867 89.8421 7.34133 89.8328 7.444C89.8328 7.54667 89.8328 7.66333 89.8328 7.794H84.3028C84.3308 8.326 84.4521 8.76933 84.6668 9.124C84.8908 9.46933 85.1661 9.73067 85.4928 9.908C85.8288 10.0853 86.1834 10.174 86.5568 10.174C87.0421 10.174 87.4481 10.062 87.7748 9.838C88.1014 9.614 88.3394 9.31067 88.4888 8.928H89.6508C89.4641 9.572 89.1048 10.1087 88.5728 10.538C88.0501 10.958 87.3781 11.168 86.5568 11.168ZM86.5568 4.882C85.9968 4.882 85.4974 5.05467 85.0588 5.4C84.6294 5.736 84.3821 6.23067 84.3167 6.884H88.6848C88.6568 6.25867 88.4421 5.76867 88.0408 5.414C87.6394 5.05933 87.1448 4.882 86.5568 4.882ZM95.1105 11V4.056H96.1745L96.2585 5.064C96.4825 4.69067 96.7812 4.40133 97.1545 4.196C97.5279 3.99067 97.9479 3.888 98.4145 3.888C98.9652 3.888 99.4365 4 99.8285 4.224C100.23 4.448 100.538 4.78867 100.753 5.246C100.995 4.826 101.327 4.49467 101.747 4.252C102.176 4.00933 102.638 3.888 103.133 3.888C103.963 3.888 104.626 4.14 105.121 4.644C105.615 5.13867 105.863 5.904 105.863 6.94V11H104.701V7.066C104.701 6.34733 104.556 5.806 104.267 5.442C103.977 5.078 103.562 4.896 103.021 4.896C102.461 4.896 101.994 5.11533 101.621 5.554C101.257 5.98333 101.075 6.59933 101.075 7.402V11H99.8985V7.066C99.8985 6.34733 99.7539 5.806 99.4645 5.442C99.1752 5.078 98.7599 4.896 98.2185 4.896C97.6679 4.896 97.2059 5.11533 96.8325 5.554C96.4685 5.98333 96.2865 6.59933 96.2865 7.402V11H95.1105ZM110.798 11.168C110.145 11.168 109.557 11.0187 109.034 10.72C108.511 10.4213 108.096 10.0013 107.788 9.46C107.489 8.90933 107.34 8.26533 107.34 7.528C107.34 6.79067 107.494 6.15133 107.802 5.61C108.11 5.05933 108.525 4.63467 109.048 4.336C109.58 4.03733 110.173 3.888 110.826 3.888C111.479 3.888 112.067 4.03733 112.59 4.336C113.113 4.63467 113.523 5.05933 113.822 5.61C114.13 6.15133 114.284 6.79067 114.284 7.528C114.284 8.26533 114.13 8.90933 113.822 9.46C113.514 10.0013 113.094 10.4213 112.562 10.72C112.039 11.0187 111.451 11.168 110.798 11.168ZM110.798 10.16C111.199 10.16 111.573 10.062 111.918 9.866C112.263 9.67 112.543 9.376 112.758 8.984C112.973 8.592 113.08 8.10667 113.08 7.528C113.08 6.94933 112.973 6.464 112.758 6.072C112.553 5.68 112.277 5.386 111.932 5.19C111.587 4.994 111.218 4.896 110.826 4.896C110.425 4.896 110.051 4.994 109.706 5.19C109.361 5.386 109.081 5.68 108.866 6.072C108.651 6.464 108.544 6.94933 108.544 7.528C108.544 8.10667 108.651 8.592 108.866 8.984C109.081 9.376 109.356 9.67 109.692 9.866C110.037 10.062 110.406 10.16 110.798 10.16ZM118.579 11.168C117.748 11.168 117.058 10.958 116.507 10.538C115.956 10.118 115.634 9.54867 115.541 8.83H116.745C116.82 9.194 117.011 9.51133 117.319 9.782C117.636 10.0433 118.061 10.174 118.593 10.174C119.088 10.174 119.452 10.0713 119.685 9.866C119.918 9.65133 120.035 9.39933 120.035 9.11C120.035 8.69 119.881 8.41 119.573 8.27C119.274 8.13 118.85 8.004 118.299 7.892C117.926 7.81733 117.552 7.71 117.179 7.57C116.806 7.43 116.493 7.234 116.241 6.982C115.989 6.72067 115.863 6.38 115.863 5.96C115.863 5.35333 116.087 4.85867 116.535 4.476C116.992 4.084 117.608 3.888 118.383 3.888C119.12 3.888 119.722 4.07467 120.189 4.448C120.665 4.812 120.94 5.33467 121.015 6.016H119.853C119.806 5.66133 119.652 5.386 119.391 5.19C119.139 4.98467 118.798 4.882 118.369 4.882C117.949 4.882 117.622 4.97067 117.389 5.148C117.165 5.32533 117.053 5.55867 117.053 5.848C117.053 6.128 117.198 6.34733 117.487 6.506C117.786 6.66467 118.187 6.8 118.691 6.912C119.12 7.00533 119.526 7.122 119.909 7.262C120.301 7.39267 120.618 7.59333 120.861 7.864C121.113 8.12533 121.239 8.508 121.239 9.012C121.248 9.63733 121.01 10.1553 120.525 10.566C120.049 10.9673 119.4 11.168 118.579 11.168ZM125.349 11C124.714 11 124.215 10.846 123.851 10.538C123.487 10.23 123.305 9.67467 123.305 8.872V5.05H122.101V4.056H123.305L123.459 2.39H124.481V4.056H126.525V5.05H124.481V8.872C124.481 9.31067 124.569 9.60933 124.747 9.768C124.924 9.91733 125.237 9.992 125.685 9.992H126.413V11H125.349ZM134.846 11.168C134.183 11.168 133.595 11.0187 133.082 10.72C132.568 10.412 132.162 9.98733 131.864 9.446C131.574 8.90467 131.43 8.26533 131.43 7.528C131.43 6.8 131.574 6.16533 131.864 5.624C132.153 5.07333 132.554 4.64867 133.068 4.35C133.59 4.042 134.192 3.888 134.874 3.888C135.546 3.888 136.124 4.042 136.61 4.35C137.104 4.64867 137.482 5.04533 137.744 5.54C138.005 6.03467 138.136 6.56667 138.136 7.136C138.136 7.23867 138.131 7.34133 138.122 7.444C138.122 7.54667 138.122 7.66333 138.122 7.794H132.592C132.62 8.326 132.741 8.76933 132.956 9.124C133.18 9.46933 133.455 9.73067 133.782 9.908C134.118 10.0853 134.472 10.174 134.846 10.174C135.331 10.174 135.737 10.062 136.064 9.838C136.39 9.614 136.628 9.31067 136.778 8.928H137.94C137.753 9.572 137.394 10.1087 136.862 10.538C136.339 10.958 135.667 11.168 134.846 11.168ZM134.846 4.882C134.286 4.882 133.786 5.05467 133.348 5.4C132.918 5.736 132.671 6.23067 132.606 6.884H136.974C136.946 6.25867 136.731 5.76867 136.33 5.414C135.928 5.05933 135.434 4.882 134.846 4.882ZM138.666 11L141.074 7.528L138.666 4.056H139.94L141.886 6.926L143.846 4.056H145.106L142.698 7.528L145.106 11H143.846L141.886 8.13L139.94 11H138.666ZM149.23 11.168C148.568 11.168 147.97 11.0187 147.438 10.72C146.916 10.412 146.5 9.98733 146.192 9.446C145.894 8.89533 145.744 8.256 145.744 7.528C145.744 6.8 145.894 6.16533 146.192 5.624C146.5 5.07333 146.916 4.64867 147.438 4.35C147.97 4.042 148.568 3.888 149.23 3.888C150.052 3.888 150.742 4.10267 151.302 4.532C151.872 4.96133 152.231 5.53533 152.38 6.254H151.176C151.083 5.82467 150.854 5.49333 150.49 5.26C150.126 5.01733 149.702 4.896 149.216 4.896C148.824 4.896 148.456 4.994 148.11 5.19C147.765 5.386 147.485 5.68 147.27 6.072C147.056 6.464 146.948 6.94933 146.948 7.528C146.948 8.10667 147.056 8.592 147.27 8.984C147.485 9.376 147.765 9.67467 148.11 9.88C148.456 10.076 148.824 10.174 149.216 10.174C149.702 10.174 150.126 10.0573 150.49 9.824C150.854 9.58133 151.083 9.24067 151.176 8.802H152.38C152.24 9.502 151.886 10.0713 151.316 10.51C150.747 10.9487 150.052 11.168 149.23 11.168ZM154.737 2.516C154.503 2.516 154.307 2.44133 154.149 2.292C153.999 2.13333 153.925 1.93733 153.925 1.704C153.925 1.48 153.999 1.29333 154.149 1.144C154.307 0.994666 154.503 0.92 154.737 0.92C154.961 0.92 155.152 0.994666 155.311 1.144C155.469 1.29333 155.549 1.48 155.549 1.704C155.549 1.93733 155.469 2.13333 155.311 2.292C155.152 2.44133 154.961 2.516 154.737 2.516ZM154.149 11V4.056H155.325V11H154.149ZM160.116 11C159.482 11 158.982 10.846 158.618 10.538C158.254 10.23 158.072 9.67467 158.072 8.872V5.05H156.868V4.056H158.072L158.226 2.39H159.248V4.056H161.292V5.05H159.248V8.872C159.248 9.31067 159.337 9.60933 159.514 9.768C159.692 9.91733 160.004 9.992 160.452 9.992H161.18V11H160.116ZM163.5 2.516C163.267 2.516 163.071 2.44133 162.912 2.292C162.763 2.13333 162.688 1.93733 162.688 1.704C162.688 1.48 162.763 1.29333 162.912 1.144C163.071 0.994666 163.267 0.92 163.5 0.92C163.724 0.92 163.916 0.994666 164.074 1.144C164.233 1.29333 164.312 1.48 164.312 1.704C164.312 1.93733 164.233 2.13333 164.074 2.292C163.916 2.44133 163.724 2.516 163.5 2.516ZM162.912 11V4.056H164.088V11H162.912ZM166.136 11V4.056H167.2L167.27 5.302C167.494 4.86333 167.816 4.518 168.236 4.266C168.656 4.014 169.132 3.888 169.664 3.888C170.485 3.888 171.139 4.14 171.624 4.644C172.119 5.13867 172.366 5.904 172.366 6.94V11H171.19V7.066C171.19 5.61933 170.593 4.896 169.398 4.896C168.801 4.896 168.301 5.11533 167.9 5.554C167.508 5.98333 167.312 6.59933 167.312 7.402V11H166.136ZM176.892 8.816C176.5 8.816 176.14 8.76467 175.814 8.662L175.114 9.32C175.216 9.39467 175.342 9.46 175.492 9.516C175.65 9.56267 175.874 9.60933 176.164 9.656C176.453 9.69333 176.859 9.73533 177.382 9.782C178.315 9.84733 178.982 10.062 179.384 10.426C179.785 10.79 179.986 11.266 179.986 11.854C179.986 12.2553 179.874 12.638 179.65 13.002C179.435 13.366 179.099 13.6647 178.642 13.898C178.194 14.1313 177.615 14.248 176.906 14.248C176.28 14.248 175.725 14.164 175.24 13.996C174.754 13.8373 174.376 13.59 174.106 13.254C173.835 12.9273 173.7 12.512 173.7 12.008C173.7 11.7467 173.77 11.462 173.91 11.154C174.05 10.8553 174.311 10.5707 174.694 10.3C174.488 10.216 174.311 10.1273 174.162 10.034C174.022 9.93133 173.891 9.81933 173.77 9.698V9.376L174.96 8.2C174.409 7.73333 174.134 7.11733 174.134 6.352C174.134 5.89467 174.241 5.47933 174.456 5.106C174.67 4.73267 174.983 4.43867 175.394 4.224C175.804 4 176.304 3.888 176.892 3.888C177.293 3.888 177.657 3.944 177.984 4.056H180.546V4.938L179.244 4.994C179.514 5.386 179.65 5.83867 179.65 6.352C179.65 6.80933 179.538 7.22467 179.314 7.598C179.099 7.97133 178.786 8.27 178.376 8.494C177.974 8.70867 177.48 8.816 176.892 8.816ZM176.892 7.85C177.386 7.85 177.778 7.724 178.068 7.472C178.366 7.21067 178.516 6.83733 178.516 6.352C178.516 5.876 178.366 5.512 178.068 5.26C177.778 4.99867 177.386 4.868 176.892 4.868C176.388 4.868 175.986 4.99867 175.688 5.26C175.398 5.512 175.254 5.876 175.254 6.352C175.254 6.83733 175.398 7.21067 175.688 7.472C175.986 7.724 176.388 7.85 176.892 7.85ZM174.848 11.896C174.848 12.3627 175.044 12.708 175.436 12.932C175.828 13.1653 176.318 13.282 176.906 13.282C177.484 13.282 177.946 13.156 178.292 12.904C178.646 12.652 178.824 12.316 178.824 11.896C178.824 11.5973 178.702 11.336 178.46 11.112C178.217 10.8973 177.769 10.7713 177.116 10.734C176.602 10.6967 176.159 10.65 175.786 10.594C175.403 10.7993 175.151 11.0187 175.03 11.252C174.908 11.4947 174.848 11.7093 174.848 11.896ZM186.347 2.516C186.123 2.516 185.932 2.44133 185.773 2.292C185.615 2.13333 185.535 1.93733 185.535 1.704C185.535 1.48 185.615 1.29333 185.773 1.144C185.932 0.994666 186.123 0.92 186.347 0.92C186.571 0.92 186.758 0.994666 186.907 1.144C187.066 1.29333 187.145 1.48 187.145 1.704C187.145 1.93733 187.066 2.13333 186.907 2.292C186.758 2.44133 186.571 2.516 186.347 2.516ZM184.219 14.08V13.072H184.765C185.111 13.072 185.358 12.9973 185.507 12.848C185.666 12.708 185.745 12.4653 185.745 12.12V4.056H186.921V12.148C186.921 12.82 186.753 13.31 186.417 13.618C186.081 13.926 185.591 14.08 184.947 14.08H184.219ZM192.132 11.168C191.479 11.168 190.891 11.0187 190.368 10.72C189.845 10.4213 189.43 10.0013 189.122 9.46C188.823 8.90933 188.674 8.26533 188.674 7.528C188.674 6.79067 188.828 6.15133 189.136 5.61C189.444 5.05933 189.859 4.63467 190.382 4.336C190.914 4.03733 191.507 3.888 192.16 3.888C192.813 3.888 193.401 4.03733 193.924 4.336C194.447 4.63467 194.857 5.05933 195.156 5.61C195.464 6.15133 195.618 6.79067 195.618 7.528C195.618 8.26533 195.464 8.90933 195.156 9.46C194.848 10.0013 194.428 10.4213 193.896 10.72C193.373 11.0187 192.785 11.168 192.132 11.168ZM192.132 10.16C192.533 10.16 192.907 10.062 193.252 9.866C193.597 9.67 193.877 9.376 194.092 8.984C194.307 8.592 194.414 8.10667 194.414 7.528C194.414 6.94933 194.307 6.464 194.092 6.072C193.887 5.68 193.611 5.386 193.266 5.19C192.921 4.994 192.552 4.896 192.16 4.896C191.759 4.896 191.385 4.994 191.04 5.19C190.695 5.386 190.415 5.68 190.2 6.072C189.985 6.464 189.878 6.94933 189.878 7.528C189.878 8.10667 189.985 8.592 190.2 8.984C190.415 9.376 190.69 9.67 191.026 9.866C191.371 10.062 191.74 10.16 192.132 10.16ZM200.963 11.168C200.394 11.168 199.885 11.0513 199.437 10.818C198.998 10.5847 198.662 10.258 198.429 9.838L198.317 11H197.253V0.92H198.429V5.204C198.653 4.868 198.97 4.56467 199.381 4.294C199.801 4.02333 200.333 3.888 200.977 3.888C201.668 3.888 202.27 4.04667 202.783 4.364C203.296 4.68133 203.693 5.11533 203.973 5.666C204.262 6.21667 204.407 6.842 204.407 7.542C204.407 8.242 204.262 8.86733 203.973 9.418C203.693 9.95933 203.292 10.3887 202.769 10.706C202.256 11.014 201.654 11.168 200.963 11.168ZM200.837 10.146C201.304 10.146 201.714 10.0387 202.069 9.824C202.424 9.6 202.704 9.292 202.909 8.9C203.114 8.508 203.217 8.05067 203.217 7.528C203.217 7.00533 203.114 6.548 202.909 6.156C202.704 5.764 202.424 5.46067 202.069 5.246C201.714 5.022 201.304 4.91 200.837 4.91C200.37 4.91 199.96 5.022 199.605 5.246C199.25 5.46067 198.97 5.764 198.765 6.156C198.56 6.548 198.457 7.00533 198.457 7.528C198.457 8.05067 198.56 8.508 198.765 8.9C198.97 9.292 199.25 9.6 199.605 9.824C199.96 10.0387 200.37 10.146 200.837 10.146ZM209.749 11V4.056H210.813L210.911 5.386C211.126 4.92867 211.453 4.56467 211.891 4.294C212.33 4.02333 212.871 3.888 213.515 3.888V5.12H213.193C212.783 5.12 212.405 5.19467 212.059 5.344C211.714 5.484 211.439 5.72667 211.233 6.072C211.028 6.41733 210.925 6.89333 210.925 7.5V11H209.749ZM217.739 11.168C217.086 11.168 216.498 11.0187 215.975 10.72C215.453 10.4213 215.037 10.0013 214.729 9.46C214.431 8.90933 214.281 8.26533 214.281 7.528C214.281 6.79067 214.435 6.15133 214.743 5.61C215.051 5.05933 215.467 4.63467 215.989 4.336C216.521 4.03733 217.114 3.888 217.767 3.888C218.421 3.888 219.009 4.03733 219.531 4.336C220.054 4.63467 220.465 5.05933 220.763 5.61C221.071 6.15133 221.225 6.79067 221.225 7.528C221.225 8.26533 221.071 8.90933 220.763 9.46C220.455 10.0013 220.035 10.4213 219.503 10.72C218.981 11.0187 218.393 11.168 217.739 11.168ZM217.739 10.16C218.141 10.16 218.514 10.062 218.859 9.866C219.205 9.67 219.485 9.376 219.699 8.984C219.914 8.592 220.021 8.10667 220.021 7.528C220.021 6.94933 219.914 6.464 219.699 6.072C219.494 5.68 219.219 5.386 218.873 5.19C218.528 4.994 218.159 4.896 217.767 4.896C217.366 4.896 216.993 4.994 216.647 5.19C216.302 5.386 216.022 5.68 215.807 6.072C215.593 6.464 215.485 6.94933 215.485 7.528C215.485 8.10667 215.593 8.592 215.807 8.984C216.022 9.376 216.297 9.67 216.633 9.866C216.979 10.062 217.347 10.16 217.739 10.16ZM222.861 11V0.92H224.037V11H222.861ZM229.086 11.168C228.423 11.168 227.835 11.0187 227.322 10.72C226.809 10.412 226.403 9.98733 226.104 9.446C225.815 8.90467 225.67 8.26533 225.67 7.528C225.67 6.8 225.815 6.16533 226.104 5.624C226.393 5.07333 226.795 4.64867 227.308 4.35C227.831 4.042 228.433 3.888 229.114 3.888C229.786 3.888 230.365 4.042 230.85 4.35C231.345 4.64867 231.723 5.04533 231.984 5.54C232.245 6.03467 232.376 6.56667 232.376 7.136C232.376 7.23867 232.371 7.34133 232.362 7.444C232.362 7.54667 232.362 7.66333 232.362 7.794H226.832C226.86 8.326 226.981 8.76933 227.196 9.124C227.42 9.46933 227.695 9.73067 228.022 9.908C228.358 10.0853 228.713 10.174 229.086 10.174C229.571 10.174 229.977 10.062 230.304 9.838C230.631 9.614 230.869 9.31067 231.018 8.928H232.18C231.993 9.572 231.634 10.1087 231.102 10.538C230.579 10.958 229.907 11.168 229.086 11.168ZM229.086 4.882C228.526 4.882 228.027 5.05467 227.588 5.4C227.159 5.736 226.911 6.23067 226.846 6.884H231.214C231.186 6.25867 230.971 5.76867 230.57 5.414C230.169 5.05933 229.674 4.882 229.086 4.882ZM236.595 11.168C235.764 11.168 235.073 10.958 234.523 10.538C233.972 10.118 233.65 9.54867 233.557 8.83H234.761C234.835 9.194 235.027 9.51133 235.335 9.782C235.652 10.0433 236.077 10.174 236.609 10.174C237.103 10.174 237.467 10.0713 237.701 9.866C237.934 9.65133 238.051 9.39933 238.051 9.11C238.051 8.69 237.897 8.41 237.589 8.27C237.29 8.13 236.865 8.004 236.315 7.892C235.941 7.81733 235.568 7.71 235.195 7.57C234.821 7.43 234.509 7.234 234.257 6.982C234.005 6.72067 233.879 6.38 233.879 5.96C233.879 5.35333 234.103 4.85867 234.551 4.476C235.008 4.084 235.624 3.888 236.399 3.888C237.136 3.888 237.738 4.07467 238.205 4.448C238.681 4.812 238.956 5.33467 239.031 6.016H237.869C237.822 5.66133 237.668 5.386 237.407 5.19C237.155 4.98467 236.814 4.882 236.385 4.882C235.965 4.882 235.638 4.97067 235.405 5.148C235.181 5.32533 235.069 5.55867 235.069 5.848C235.069 6.128 235.213 6.34733 235.503 6.506C235.801 6.66467 236.203 6.8 236.707 6.912C237.136 7.00533 237.542 7.122 237.925 7.262C238.317 7.39267 238.634 7.59333 238.877 7.864C239.129 8.12533 239.255 8.508 239.255 9.012C239.264 9.63733 239.026 10.1553 238.541 10.566C238.065 10.9673 237.416 11.168 236.595 11.168ZM248.35 11.168C247.78 11.168 247.272 11.0513 246.824 10.818C246.385 10.5847 246.049 10.258 245.816 9.838L245.704 11H244.64V0.92H245.816V5.204C246.04 4.868 246.357 4.56467 246.768 4.294C247.188 4.02333 247.72 3.888 248.364 3.888C249.054 3.888 249.656 4.04667 250.17 4.364C250.683 4.68133 251.08 5.11533 251.36 5.666C251.649 6.21667 251.794 6.842 251.794 7.542C251.794 8.242 251.649 8.86733 251.36 9.418C251.08 9.95933 250.678 10.3887 250.156 10.706C249.642 11.014 249.04 11.168 248.35 11.168ZM248.224 10.146C248.69 10.146 249.101 10.0387 249.456 9.824C249.81 9.6 250.09 9.292 250.296 8.9C250.501 8.508 250.604 8.05067 250.604 7.528C250.604 7.00533 250.501 6.548 250.296 6.156C250.09 5.764 249.81 5.46067 249.456 5.246C249.101 5.022 248.69 4.91 248.224 4.91C247.757 4.91 247.346 5.022 246.992 5.246C246.637 5.46067 246.357 5.764 246.152 6.156C245.946 6.548 245.844 7.00533 245.844 7.528C245.844 8.05067 245.946 8.508 246.152 8.9C246.357 9.292 246.637 9.6 246.992 9.824C247.346 10.0387 247.757 10.146 248.224 10.146ZM255.741 11.168C255.162 11.168 254.682 11.07 254.299 10.874C253.916 10.678 253.632 10.4167 253.445 10.09C253.258 9.76333 253.165 9.40867 253.165 9.026C253.165 8.31667 253.436 7.77067 253.977 7.388C254.518 7.00533 255.256 6.814 256.189 6.814H258.065V6.73C258.065 6.12333 257.906 5.666 257.589 5.358C257.272 5.04067 256.847 4.882 256.315 4.882C255.858 4.882 255.461 4.99867 255.125 5.232C254.798 5.456 254.593 5.78733 254.509 6.226H253.305C253.352 5.722 253.52 5.29733 253.809 4.952C254.108 4.60667 254.476 4.34533 254.915 4.168C255.354 3.98133 255.82 3.888 256.315 3.888C257.286 3.888 258.014 4.14933 258.499 4.672C258.994 5.18533 259.241 5.87133 259.241 6.73V11H258.191L258.121 9.754C257.925 10.146 257.636 10.482 257.253 10.762C256.88 11.0327 256.376 11.168 255.741 11.168ZM255.923 10.174C256.371 10.174 256.754 10.0573 257.071 9.824C257.398 9.59067 257.645 9.28733 257.813 8.914C257.981 8.54067 258.065 8.14867 258.065 7.738V7.724H256.287C255.596 7.724 255.106 7.84533 254.817 8.088C254.537 8.32133 254.397 8.61533 254.397 8.97C254.397 9.334 254.528 9.628 254.789 9.852C255.06 10.0667 255.438 10.174 255.923 10.174ZM263.665 11.168C262.834 11.168 262.144 10.958 261.593 10.538C261.042 10.118 260.72 9.54867 260.627 8.83H261.831C261.906 9.194 262.097 9.51133 262.405 9.782C262.722 10.0433 263.147 10.174 263.679 10.174C264.174 10.174 264.538 10.0713 264.771 9.866C265.004 9.65133 265.121 9.39933 265.121 9.11C265.121 8.69 264.967 8.41 264.659 8.27C264.36 8.13 263.936 8.004 263.385 7.892C263.012 7.81733 262.638 7.71 262.265 7.57C261.892 7.43 261.579 7.234 261.327 6.982C261.075 6.72067 260.949 6.38 260.949 5.96C260.949 5.35333 261.173 4.85867 261.621 4.476C262.078 4.084 262.694 3.888 263.469 3.888C264.206 3.888 264.808 4.07467 265.275 4.448C265.751 4.812 266.026 5.33467 266.101 6.016H264.939C264.892 5.66133 264.738 5.386 264.477 5.19C264.225 4.98467 263.884 4.882 263.455 4.882C263.035 4.882 262.708 4.97067 262.475 5.148C262.251 5.32533 262.139 5.55867 262.139 5.848C262.139 6.128 262.284 6.34733 262.573 6.506C262.872 6.66467 263.273 6.8 263.777 6.912C264.206 7.00533 264.612 7.122 264.995 7.262C265.387 7.39267 265.704 7.59333 265.947 7.864C266.199 8.12533 266.325 8.508 266.325 9.012C266.334 9.63733 266.096 10.1553 265.611 10.566C265.135 10.9673 264.486 11.168 263.665 11.168ZM271.127 11.168C270.464 11.168 269.876 11.0187 269.363 10.72C268.85 10.412 268.444 9.98733 268.145 9.446C267.856 8.90467 267.711 8.26533 267.711 7.528C267.711 6.8 267.856 6.16533 268.145 5.624C268.434 5.07333 268.836 4.64867 269.349 4.35C269.872 4.042 270.474 3.888 271.155 3.888C271.827 3.888 272.406 4.042 272.891 4.35C273.386 4.64867 273.764 5.04533 274.025 5.54C274.286 6.03467 274.417 6.56667 274.417 7.136C274.417 7.23867 274.412 7.34133 274.403 7.444C274.403 7.54667 274.403 7.66333 274.403 7.794H268.873C268.901 8.326 269.022 8.76933 269.237 9.124C269.461 9.46933 269.736 9.73067 270.063 9.908C270.399 10.0853 270.754 10.174 271.127 10.174C271.612 10.174 272.018 10.062 272.345 9.838C272.672 9.614 272.91 9.31067 273.059 8.928H274.221C274.034 9.572 273.675 10.1087 273.143 10.538C272.62 10.958 271.948 11.168 271.127 11.168ZM271.127 4.882C270.567 4.882 270.068 5.05467 269.629 5.4C269.2 5.736 268.952 6.23067 268.887 6.884H273.255C273.227 6.25867 273.012 5.76867 272.611 5.414C272.21 5.05933 271.715 4.882 271.127 4.882ZM279.126 11.168C278.435 11.168 277.828 11.0093 277.306 10.692C276.792 10.3747 276.391 9.94067 276.102 9.39C275.822 8.83933 275.682 8.214 275.682 7.514C275.682 6.814 275.826 6.19333 276.116 5.652C276.405 5.10133 276.806 4.672 277.32 4.364C277.833 4.04667 278.44 3.888 279.14 3.888C279.709 3.888 280.213 4.00467 280.652 4.238C281.09 4.47133 281.431 4.798 281.674 5.218V0.92H282.85V11H281.786L281.674 9.852C281.45 10.188 281.128 10.4913 280.708 10.762C280.288 11.0327 279.76 11.168 279.126 11.168ZM279.252 10.146C279.718 10.146 280.129 10.0387 280.484 9.824C280.848 9.6 281.128 9.292 281.324 8.9C281.529 8.508 281.632 8.05067 281.632 7.528C281.632 7.00533 281.529 6.548 281.324 6.156C281.128 5.764 280.848 5.46067 280.484 5.246C280.129 5.022 279.718 4.91 279.252 4.91C278.794 4.91 278.384 5.022 278.02 5.246C277.665 5.46067 277.385 5.764 277.18 6.156C276.984 6.548 276.886 7.00533 276.886 7.528C276.886 8.05067 276.984 8.508 277.18 8.9C277.385 9.292 277.665 9.6 278.02 9.824C278.384 10.0387 278.794 10.146 279.252 10.146ZM4.13 29.168C3.47667 29.168 2.88867 29.0187 2.366 28.72C1.84333 28.4213 1.428 28.0013 1.12 27.46C0.821333 26.9093 0.672 26.2653 0.672 25.528C0.672 24.7907 0.826 24.1513 1.134 23.61C1.442 23.0593 1.85733 22.6347 2.38 22.336C2.912 22.0373 3.50467 21.888 4.158 21.888C4.81133 21.888 5.39933 22.0373 5.922 22.336C6.44467 22.6347 6.85533 23.0593 7.154 23.61C7.462 24.1513 7.616 24.7907 7.616 25.528C7.616 26.2653 7.462 26.9093 7.154 27.46C6.846 28.0013 6.426 28.4213 5.894 28.72C5.37133 29.0187 4.78333 29.168 4.13 29.168ZM4.13 28.16C4.53133 28.16 4.90467 28.062 5.25 27.866C5.59533 27.67 5.87533 27.376 6.09 26.984C6.30467 26.592 6.412 26.1067 6.412 25.528C6.412 24.9493 6.30467 24.464 6.09 24.072C5.88467 23.68 5.60933 23.386 5.264 23.19C4.91867 22.994 4.55 22.896 4.158 22.896C3.75667 22.896 3.38333 22.994 3.038 23.19C2.69267 23.386 2.41267 23.68 2.198 24.072C1.98333 24.464 1.876 24.9493 1.876 25.528C1.876 26.1067 1.98333 26.592 2.198 26.984C2.41267 27.376 2.688 27.67 3.024 27.866C3.36933 28.062 3.738 28.16 4.13 28.16ZM9.25116 29V22.056H10.3152L10.3852 23.302C10.6092 22.8633 10.9312 22.518 11.3512 22.266C11.7712 22.014 12.2472 21.888 12.7792 21.888C13.6005 21.888 14.2538 22.14 14.7392 22.644C15.2338 23.1387 15.4812 23.904 15.4812 24.94V29H14.3052V25.066C14.3052 23.6193 13.7078 22.896 12.5132 22.896C11.9158 22.896 11.4165 23.1153 11.0152 23.554C10.6232 23.9833 10.4272 24.5993 10.4272 25.402V29H9.25116ZM21.724 32.08L23.446 28.328H23.04L20.282 22.056H21.556L23.852 27.46L26.288 22.056H27.506L22.956 32.08H21.724ZM31.255 29.168C30.6017 29.168 30.0137 29.0187 29.491 28.72C28.9683 28.4213 28.553 28.0013 28.245 27.46C27.9463 26.9093 27.797 26.2653 27.797 25.528C27.797 24.7907 27.951 24.1513 28.259 23.61C28.567 23.0593 28.9823 22.6347 29.505 22.336C30.037 22.0373 30.6297 21.888 31.283 21.888C31.9363 21.888 32.5243 22.0373 33.047 22.336C33.5697 22.6347 33.9803 23.0593 34.279 23.61C34.587 24.1513 34.741 24.7907 34.741 25.528C34.741 26.2653 34.587 26.9093 34.279 27.46C33.971 28.0013 33.551 28.4213 33.019 28.72C32.4963 29.0187 31.9083 29.168 31.255 29.168ZM31.255 28.16C31.6563 28.16 32.0297 28.062 32.375 27.866C32.7203 27.67 33.0003 27.376 33.215 26.984C33.4297 26.592 33.537 26.1067 33.537 25.528C33.537 24.9493 33.4297 24.464 33.215 24.072C33.0097 23.68 32.7343 23.386 32.389 23.19C32.0437 22.994 31.675 22.896 31.283 22.896C30.8817 22.896 30.5083 22.994 30.163 23.19C29.8177 23.386 29.5377 23.68 29.323 24.072C29.1083 24.464 29.001 24.9493 29.001 25.528C29.001 26.1067 29.1083 26.592 29.323 26.984C29.5377 27.376 29.813 27.67 30.149 27.866C30.4943 28.062 30.863 28.16 31.255 28.16ZM38.9102 29.168C38.0888 29.168 37.4355 28.9207 36.9502 28.426C36.4648 27.922 36.2222 27.152 36.2222 26.116V22.056H37.3982V25.99C37.3982 27.4367 37.9908 28.16 39.1762 28.16C39.7828 28.16 40.2822 27.9453 40.6742 27.516C41.0755 27.0773 41.2762 26.4567 41.2762 25.654V22.056H42.4522V29H41.3882L41.3042 27.754C41.0895 28.1927 40.7675 28.538 40.3382 28.79C39.9182 29.042 39.4422 29.168 38.9102 29.168ZM44.3879 29V22.056H45.4519L45.5499 23.386C45.7645 22.9287 46.0912 22.5647 46.5299 22.294C46.9685 22.0233 47.5099 21.888 48.1539 21.888V23.12H47.8319C47.4212 23.12 47.0432 23.1947 46.6979 23.344C46.3525 23.484 46.0772 23.7267 45.8719 24.072C45.6665 24.4173 45.5639 24.8933 45.5639 25.5V29H44.3879ZM53.8929 20.516C53.6596 20.516 53.4636 20.4413 53.3049 20.292C53.1556 20.1333 53.0809 19.9373 53.0809 19.704C53.0809 19.48 53.1556 19.2933 53.3049 19.144C53.4636 18.9947 53.6596 18.92 53.8929 18.92C54.1169 18.92 54.3082 18.9947 54.4669 19.144C54.6256 19.2933 54.7049 19.48 54.7049 19.704C54.7049 19.9373 54.6256 20.1333 54.4669 20.292C54.3082 20.4413 54.1169 20.516 53.8929 20.516ZM53.3049 29V22.056H54.4809V29H53.3049ZM56.5285 29V22.056H57.5925L57.6625 23.302C57.8865 22.8633 58.2085 22.518 58.6285 22.266C59.0485 22.014 59.5245 21.888 60.0565 21.888C60.8778 21.888 61.5312 22.14 62.0165 22.644C62.5112 23.1387 62.7585 23.904 62.7585 24.94V29H61.5825V25.066C61.5825 23.6193 60.9852 22.896 59.7905 22.896C59.1932 22.896 58.6938 23.1153 58.2925 23.554C57.9005 23.9833 57.7045 24.5993 57.7045 25.402V29H56.5285ZM67.2842 29C66.6496 29 66.1502 28.846 65.7862 28.538C65.4222 28.23 65.2402 27.6747 65.2402 26.872V23.05H64.0362V22.056H65.2402L65.3942 20.39H66.4162V22.056H68.4602V23.05H66.4162V26.872C66.4162 27.3107 66.5049 27.6093 66.6822 27.768C66.8596 27.9173 67.1722 27.992 67.6202 27.992H68.3482V29H67.2842ZM72.8849 29.168C72.2222 29.168 71.6342 29.0187 71.1209 28.72C70.6075 28.412 70.2015 27.9873 69.9029 27.446C69.6135 26.9047 69.4689 26.2653 69.4689 25.528C69.4689 24.8 69.6135 24.1653 69.9029 23.624C70.1922 23.0733 70.5935 22.6487 71.1069 22.35C71.6295 22.042 72.2315 21.888 72.9129 21.888C73.5849 21.888 74.1635 22.042 74.6489 22.35C75.1435 22.6487 75.5215 23.0453 75.7829 23.54C76.0442 24.0347 76.1749 24.5667 76.1749 25.136C76.1749 25.2387 76.1702 25.3413 76.1609 25.444C76.1609 25.5467 76.1609 25.6633 76.1609 25.794H70.6309C70.6589 26.326 70.7802 26.7693 70.9949 27.124C71.2189 27.4693 71.4942 27.7307 71.8209 27.908C72.1569 28.0853 72.5115 28.174 72.8849 28.174C73.3702 28.174 73.7762 28.062 74.1029 27.838C74.4295 27.614 74.6675 27.3107 74.8169 26.928H75.9789C75.7922 27.572 75.4329 28.1087 74.9009 28.538C74.3782 28.958 73.7062 29.168 72.8849 29.168ZM72.8849 22.882C72.3249 22.882 71.8255 23.0547 71.3869 23.4C70.9575 23.736 70.7102 24.2307 70.6449 24.884H75.0129C74.9849 24.2587 74.7702 23.7687 74.3689 23.414C73.9675 23.0593 73.4729 22.882 72.8849 22.882ZM77.7336 29V22.056H78.7976L78.8956 23.386C79.1102 22.9287 79.4369 22.5647 79.8756 22.294C80.3142 22.0233 80.8556 21.888 81.4996 21.888V23.12H81.1776C80.7669 23.12 80.3889 23.1947 80.0436 23.344C79.6982 23.484 79.4229 23.7267 79.2176 24.072C79.0122 24.4173 78.9096 24.8933 78.9096 25.5V29H77.7336ZM85.6818 29.168C85.0191 29.168 84.4311 29.0187 83.9178 28.72C83.4044 28.412 82.9984 27.9873 82.6998 27.446C82.4104 26.9047 82.2658 26.2653 82.2658 25.528C82.2658 24.8 82.4104 24.1653 82.6998 23.624C82.9891 23.0733 83.3904 22.6487 83.9038 22.35C84.4264 22.042 85.0284 21.888 85.7097 21.888C86.3818 21.888 86.9604 22.042 87.4458 22.35C87.9404 22.6487 88.3184 23.0453 88.5798 23.54C88.8411 24.0347 88.9718 24.5667 88.9718 25.136C88.9718 25.2387 88.9671 25.3413 88.9578 25.444C88.9578 25.5467 88.9578 25.6633 88.9578 25.794H83.4278C83.4558 26.326 83.5771 26.7693 83.7918 27.124C84.0158 27.4693 84.2911 27.7307 84.6178 27.908C84.9538 28.0853 85.3084 28.174 85.6818 28.174C86.1671 28.174 86.5731 28.062 86.8998 27.838C87.2264 27.614 87.4644 27.3107 87.6138 26.928H88.7758C88.5891 27.572 88.2298 28.1087 87.6978 28.538C87.1751 28.958 86.5031 29.168 85.6818 29.168ZM85.6818 22.882C85.1218 22.882 84.6224 23.0547 84.1838 23.4C83.7544 23.736 83.5071 24.2307 83.4417 24.884H87.8098C87.7818 24.2587 87.5671 23.7687 87.1658 23.414C86.7644 23.0593 86.2698 22.882 85.6818 22.882ZM93.1905 29.168C92.3598 29.168 91.6691 28.958 91.1185 28.538C90.5678 28.118 90.2458 27.5487 90.1525 26.83H91.3565C91.4311 27.194 91.6225 27.5113 91.9305 27.782C92.2478 28.0433 92.6725 28.174 93.2045 28.174C93.6991 28.174 94.0631 28.0713 94.2965 27.866C94.5298 27.6513 94.6465 27.3993 94.6465 27.11C94.6465 26.69 94.4925 26.41 94.1845 26.27C93.8858 26.13 93.4611 26.004 92.9105 25.892C92.5371 25.8173 92.1638 25.71 91.7905 25.57C91.4171 25.43 91.1045 25.234 90.8525 24.982C90.6005 24.7207 90.4745 24.38 90.4745 23.96C90.4745 23.3533 90.6985 22.8587 91.1465 22.476C91.6038 22.084 92.2198 21.888 92.9945 21.888C93.7318 21.888 94.3338 22.0747 94.8005 22.448C95.2765 22.812 95.5518 23.3347 95.6265 24.016H94.4645C94.4178 23.6613 94.2638 23.386 94.0025 23.19C93.7505 22.9847 93.4098 22.882 92.9805 22.882C92.5605 22.882 92.2338 22.9707 92.0005 23.148C91.7765 23.3253 91.6645 23.5587 91.6645 23.848C91.6645 24.128 91.8091 24.3473 92.0985 24.506C92.3971 24.6647 92.7985 24.8 93.3025 24.912C93.7318 25.0053 94.1378 25.122 94.5205 25.262C94.9125 25.3927 95.2298 25.5933 95.4725 25.864C95.7245 26.1253 95.8505 26.508 95.8505 27.012C95.8598 27.6373 95.6218 28.1553 95.1365 28.566C94.6605 28.9673 94.0118 29.168 93.1905 29.168ZM99.96 29C99.3253 29 98.826 28.846 98.462 28.538C98.098 28.23 97.916 27.6747 97.916 26.872V23.05H96.712V22.056H97.916L98.07 20.39H99.092V22.056H101.136V23.05H99.092V26.872C99.092 27.3107 99.1807 27.6093 99.358 27.768C99.5353 27.9173 99.848 27.992 100.296 27.992H101.024V29H99.96ZM108.645 29.168C108.066 29.168 107.586 29.07 107.203 28.874C106.82 28.678 106.536 28.4167 106.349 28.09C106.162 27.7633 106.069 27.4087 106.069 27.026C106.069 26.3167 106.34 25.7707 106.881 25.388C107.422 25.0053 108.16 24.814 109.093 24.814H110.969V24.73C110.969 24.1233 110.81 23.666 110.493 23.358C110.176 23.0407 109.751 22.882 109.219 22.882C108.762 22.882 108.365 22.9987 108.029 23.232C107.702 23.456 107.497 23.7873 107.413 24.226H106.209C106.256 23.722 106.424 23.2973 106.713 22.952C107.012 22.6067 107.38 22.3453 107.819 22.168C108.258 21.9813 108.724 21.888 109.219 21.888C110.19 21.888 110.918 22.1493 111.403 22.672C111.898 23.1853 112.145 23.8713 112.145 24.73V29H111.095L111.025 27.754C110.829 28.146 110.54 28.482 110.157 28.762C109.784 29.0327 109.28 29.168 108.645 29.168ZM108.827 28.174C109.275 28.174 109.658 28.0573 109.975 27.824C110.302 27.5907 110.549 27.2873 110.717 26.914C110.885 26.5407 110.969 26.1487 110.969 25.738V25.724H109.191C108.5 25.724 108.01 25.8453 107.721 26.088C107.441 26.3213 107.301 26.6153 107.301 26.97C107.301 27.334 107.432 27.628 107.693 27.852C107.964 28.0667 108.342 28.174 108.827 28.174ZM113.909 29V22.056H114.973L115.043 23.302C115.267 22.8633 115.589 22.518 116.009 22.266C116.429 22.014 116.905 21.888 117.437 21.888C118.259 21.888 118.912 22.14 119.397 22.644C119.892 23.1387 120.139 23.904 120.139 24.94V29H118.963V25.066C118.963 23.6193 118.366 22.896 117.171 22.896C116.574 22.896 116.075 23.1153 115.673 23.554C115.281 23.9833 115.085 24.5993 115.085 25.402V29H113.909ZM125.071 29.168C124.38 29.168 123.774 29.0093 123.251 28.692C122.738 28.3747 122.336 27.9407 122.047 27.39C121.767 26.8393 121.627 26.214 121.627 25.514C121.627 24.814 121.772 24.1933 122.061 23.652C122.35 23.1013 122.752 22.672 123.265 22.364C123.778 22.0467 124.385 21.888 125.085 21.888C125.654 21.888 126.158 22.0047 126.597 22.238C127.036 22.4713 127.376 22.798 127.619 23.218V18.92H128.795V29H127.731L127.619 27.852C127.395 28.188 127.073 28.4913 126.653 28.762C126.233 29.0327 125.706 29.168 125.071 29.168ZM125.197 28.146C125.664 28.146 126.074 28.0387 126.429 27.824C126.793 27.6 127.073 27.292 127.269 26.9C127.474 26.508 127.577 26.0507 127.577 25.528C127.577 25.0053 127.474 24.548 127.269 24.156C127.073 23.764 126.793 23.4607 126.429 23.246C126.074 23.022 125.664 22.91 125.197 22.91C124.74 22.91 124.329 23.022 123.965 23.246C123.61 23.4607 123.33 23.764 123.125 24.156C122.929 24.548 122.831 25.0053 122.831 25.528C122.831 26.0507 122.929 26.508 123.125 26.9C123.33 27.292 123.61 27.6 123.965 27.824C124.329 28.0387 124.74 28.146 125.197 28.146ZM137.077 29.168C136.247 29.168 135.556 28.958 135.005 28.538C134.455 28.118 134.133 27.5487 134.039 26.83H135.243C135.318 27.194 135.509 27.5113 135.817 27.782C136.135 28.0433 136.559 28.174 137.091 28.174C137.586 28.174 137.95 28.0713 138.183 27.866C138.417 27.6513 138.533 27.3993 138.533 27.11C138.533 26.69 138.379 26.41 138.071 26.27C137.773 26.13 137.348 26.004 136.797 25.892C136.424 25.8173 136.051 25.71 135.677 25.57C135.304 25.43 134.991 25.234 134.739 24.982C134.487 24.7207 134.361 24.38 134.361 23.96C134.361 23.3533 134.585 22.8587 135.033 22.476C135.491 22.084 136.107 21.888 136.881 21.888C137.619 21.888 138.221 22.0747 138.687 22.448C139.163 22.812 139.439 23.3347 139.513 24.016H138.351C138.305 23.6613 138.151 23.386 137.889 23.19C137.637 22.9847 137.297 22.882 136.867 22.882C136.447 22.882 136.121 22.9707 135.887 23.148C135.663 23.3253 135.551 23.5587 135.551 23.848C135.551 24.128 135.696 24.3473 135.985 24.506C136.284 24.6647 136.685 24.8 137.189 24.912C137.619 25.0053 138.025 25.122 138.407 25.262C138.799 25.3927 139.117 25.5933 139.359 25.864C139.611 26.1253 139.737 26.508 139.737 27.012C139.747 27.6373 139.509 28.1553 139.023 28.566C138.547 28.9673 137.899 29.168 137.077 29.168ZM143.847 29C143.212 29 142.713 28.846 142.349 28.538C141.985 28.23 141.803 27.6747 141.803 26.872V23.05H140.599V22.056H141.803L141.957 20.39H142.979V22.056H145.023V23.05H142.979V26.872C142.979 27.3107 143.067 27.6093 143.245 27.768C143.422 27.9173 143.735 27.992 144.183 27.992H144.911V29H143.847ZM149.051 29.168C148.229 29.168 147.576 28.9207 147.091 28.426C146.605 27.922 146.363 27.152 146.363 26.116V22.056H147.539V25.99C147.539 27.4367 148.131 28.16 149.317 28.16C149.923 28.16 150.423 27.9453 150.815 27.516C151.216 27.0773 151.417 26.4567 151.417 25.654V22.056H152.593V29H151.529L151.445 27.754C151.23 28.1927 150.908 28.538 150.479 28.79C150.059 29.042 149.583 29.168 149.051 29.168ZM157.678 29.168C156.988 29.168 156.381 29.0093 155.859 28.692C155.345 28.3747 154.944 27.9407 154.655 27.39C154.375 26.8393 154.235 26.214 154.235 25.514C154.235 24.814 154.379 24.1933 154.669 23.652C154.958 23.1013 155.359 22.672 155.873 22.364C156.386 22.0467 156.993 21.888 157.693 21.888C158.262 21.888 158.766 22.0047 159.205 22.238C159.643 22.4713 159.984 22.798 160.227 23.218V18.92H161.403V29H160.339L160.227 27.852C160.003 28.188 159.681 28.4913 159.261 28.762C158.841 29.0327 158.313 29.168 157.678 29.168ZM157.805 28.146C158.271 28.146 158.682 28.0387 159.037 27.824C159.401 27.6 159.681 27.292 159.877 26.9C160.082 26.508 160.185 26.0507 160.185 25.528C160.185 25.0053 160.082 24.548 159.877 24.156C159.681 23.764 159.401 23.4607 159.037 23.246C158.682 23.022 158.271 22.91 157.805 22.91C157.347 22.91 156.937 23.022 156.573 23.246C156.218 23.4607 155.938 23.764 155.733 24.156C155.537 24.548 155.439 25.0053 155.439 25.528C155.439 26.0507 155.537 26.508 155.733 26.9C155.938 27.292 156.218 27.6 156.573 27.824C156.937 28.0387 157.347 28.146 157.805 28.146ZM164.076 32.08L165.798 28.328H165.392L162.634 22.056H163.908L166.204 27.46L168.64 22.056H169.858L165.308 32.08H164.076ZM174.804 29V22.056H175.868L175.952 23.064C176.176 22.6907 176.475 22.4013 176.848 22.196C177.221 21.9907 177.641 21.888 178.108 21.888C178.659 21.888 179.13 22 179.522 22.224C179.923 22.448 180.231 22.7887 180.446 23.246C180.689 22.826 181.02 22.4947 181.44 22.252C181.869 22.0093 182.331 21.888 182.826 21.888C183.657 21.888 184.319 22.14 184.814 22.644C185.309 23.1387 185.556 23.904 185.556 24.94V29H184.394V25.066C184.394 24.3473 184.249 23.806 183.96 23.442C183.671 23.078 183.255 22.896 182.714 22.896C182.154 22.896 181.687 23.1153 181.314 23.554C180.95 23.9833 180.768 24.5993 180.768 25.402V29H179.592V25.066C179.592 24.3473 179.447 23.806 179.158 23.442C178.869 23.078 178.453 22.896 177.912 22.896C177.361 22.896 176.899 23.1153 176.526 23.554C176.162 23.9833 175.98 24.5993 175.98 25.402V29H174.804ZM189.637 29.168C189.059 29.168 188.578 29.07 188.195 28.874C187.813 28.678 187.528 28.4167 187.341 28.09C187.155 27.7633 187.061 27.4087 187.061 27.026C187.061 26.3167 187.332 25.7707 187.873 25.388C188.415 25.0053 189.152 24.814 190.085 24.814H191.961V24.73C191.961 24.1233 191.803 23.666 191.485 23.358C191.168 23.0407 190.743 22.882 190.211 22.882C189.754 22.882 189.357 22.9987 189.021 23.232C188.695 23.456 188.489 23.7873 188.405 24.226H187.201C187.248 23.722 187.416 23.2973 187.705 22.952C188.004 22.6067 188.373 22.3453 188.811 22.168C189.25 21.9813 189.717 21.888 190.211 21.888C191.182 21.888 191.91 22.1493 192.395 22.672C192.89 23.1853 193.137 23.8713 193.137 24.73V29H192.087L192.017 27.754C191.821 28.146 191.532 28.482 191.149 28.762C190.776 29.0327 190.272 29.168 189.637 29.168ZM189.819 28.174C190.267 28.174 190.65 28.0573 190.967 27.824C191.294 27.5907 191.541 27.2873 191.709 26.914C191.877 26.5407 191.961 26.1487 191.961 25.738V25.724H190.183C189.493 25.724 189.003 25.8453 188.713 26.088C188.433 26.3213 188.293 26.6153 188.293 26.97C188.293 27.334 188.424 27.628 188.685 27.852C188.956 28.0667 189.334 28.174 189.819 28.174ZM195.672 20.516C195.448 20.516 195.256 20.4413 195.098 20.292C194.939 20.1333 194.86 19.9373 194.86 19.704C194.86 19.48 194.939 19.2933 195.098 19.144C195.256 18.9947 195.448 18.92 195.672 18.92C195.896 18.92 196.082 18.9947 196.232 19.144C196.39 19.2933 196.47 19.48 196.47 19.704C196.47 19.9373 196.39 20.1333 196.232 20.292C196.082 20.4413 195.896 20.516 195.672 20.516ZM193.544 32.08V31.072H194.09C194.435 31.072 194.682 30.9973 194.832 30.848C194.99 30.708 195.07 30.4653 195.07 30.12V22.056H196.246V30.148C196.246 30.82 196.078 31.31 195.742 31.618C195.406 31.926 194.916 32.08 194.272 32.08H193.544ZM201.456 29.168C200.803 29.168 200.215 29.0187 199.692 28.72C199.17 28.4213 198.754 28.0013 198.446 27.46C198.148 26.9093 197.998 26.2653 197.998 25.528C197.998 24.7907 198.152 24.1513 198.46 23.61C198.768 23.0593 199.184 22.6347 199.706 22.336C200.238 22.0373 200.831 21.888 201.484 21.888C202.138 21.888 202.726 22.0373 203.248 22.336C203.771 22.6347 204.182 23.0593 204.48 23.61C204.788 24.1513 204.942 24.7907 204.942 25.528C204.942 26.2653 204.788 26.9093 204.48 27.46C204.172 28.0013 203.752 28.4213 203.22 28.72C202.698 29.0187 202.11 29.168 201.456 29.168ZM201.456 28.16C201.858 28.16 202.231 28.062 202.576 27.866C202.922 27.67 203.202 27.376 203.416 26.984C203.631 26.592 203.738 26.1067 203.738 25.528C203.738 24.9493 203.631 24.464 203.416 24.072C203.211 23.68 202.936 23.386 202.59 23.19C202.245 22.994 201.876 22.896 201.484 22.896C201.083 22.896 200.71 22.994 200.364 23.19C200.019 23.386 199.739 23.68 199.524 24.072C199.31 24.464 199.202 24.9493 199.202 25.528C199.202 26.1067 199.31 26.592 199.524 26.984C199.739 27.376 200.014 27.67 200.35 27.866C200.696 28.062 201.064 28.16 201.456 28.16ZM206.577 29V22.056H207.641L207.739 23.386C207.954 22.9287 208.281 22.5647 208.719 22.294C209.158 22.0233 209.699 21.888 210.343 21.888V23.12H210.021C209.611 23.12 209.233 23.1947 208.887 23.344C208.542 23.484 208.267 23.7267 208.061 24.072C207.856 24.4173 207.753 24.8933 207.753 25.5V29H206.577ZM211.509 29.07C211.275 29.07 211.079 28.9953 210.921 28.846C210.771 28.6873 210.697 28.496 210.697 28.272C210.697 28.048 210.771 27.8613 210.921 27.712C211.079 27.5533 211.275 27.474 211.509 27.474C211.733 27.474 211.919 27.5533 212.069 27.712C212.227 27.8613 212.307 28.048 212.307 28.272C212.307 28.496 212.227 28.6873 212.069 28.846C211.919 28.9953 211.733 29.07 211.509 29.07Z" fill="#524B6B"/>
</svg>
