<svg width="49" height="16" viewBox="0 0 49 16" fill="none" xmlns="http://www.w3.org/2000/svg">
<path d="M0.36 15V0.999999H9.4V3.06H2.92V6.98H8.16V9H2.92V15H0.36ZM12.6956 3.54C12.229 3.54 11.8423 3.4 11.5356 3.12C11.2423 2.84 11.0956 2.48667 11.0956 2.06C11.0956 1.63333 11.2423 1.28667 11.5356 1.02C11.8423 0.739999 12.229 0.599999 12.6956 0.599999C13.1623 0.599999 13.5423 0.739999 13.8356 1.02C14.1423 1.28667 14.2956 1.63333 14.2956 2.06C14.2956 2.48667 14.1423 2.84 13.8356 3.12C13.5423 3.4 13.1623 3.54 12.6956 3.54ZM11.4156 15V5.08H13.9756V15H11.4156ZM16.6477 15V0.599999H19.2077V15H16.6477ZM26.2434 15C25.2034 15 24.3701 14.7467 23.7434 14.24C23.1168 13.7333 22.8034 12.8333 22.8034 11.54V7.22H21.1034V5.08H22.8034L23.1034 2.42H25.3634V5.08H28.0434V7.22H25.3634V11.56C25.3634 12.04 25.4634 12.3733 25.6634 12.56C25.8768 12.7333 26.2368 12.82 26.7434 12.82H27.9834V15H26.2434ZM34.8075 15.24C33.8075 15.24 32.9208 15.0267 32.1475 14.6C31.3742 14.1733 30.7675 13.5733 30.3275 12.8C29.8875 12.0267 29.6675 11.1333 29.6675 10.12C29.6675 9.09333 29.8808 8.18 30.3075 7.38C30.7475 6.58 31.3475 5.96 32.1075 5.52C32.8808 5.06667 33.7875 4.84 34.8275 4.84C35.8008 4.84 36.6608 5.05333 37.4075 5.48C38.1542 5.90667 38.7342 6.49333 39.1475 7.24C39.5742 7.97333 39.7875 8.79333 39.7875 9.7C39.7875 9.84667 39.7808 10 39.7675 10.16C39.7675 10.32 39.7608 10.4867 39.7475 10.66H32.2075C32.2608 11.4333 32.5275 12.04 33.0075 12.48C33.5008 12.92 34.0942 13.14 34.7875 13.14C35.3075 13.14 35.7408 13.0267 36.0875 12.8C36.4475 12.56 36.7142 12.2533 36.8875 11.88H39.4875C39.3008 12.5067 38.9875 13.08 38.5475 13.6C38.1208 14.1067 37.5875 14.5067 36.9475 14.8C36.3208 15.0933 35.6075 15.24 34.8075 15.24ZM34.8275 6.92C34.2008 6.92 33.6475 7.1 33.1675 7.46C32.6875 7.80667 32.3808 8.34 32.2475 9.06H37.1875C37.1475 8.40667 36.9075 7.88667 36.4675 7.5C36.0275 7.11333 35.4808 6.92 34.8275 6.92ZM41.9406 15V5.08H44.2206L44.4606 6.94C44.8206 6.3 45.3073 5.79333 45.9206 5.42C46.5473 5.03333 47.2806 4.84 48.1206 4.84V7.54H47.4006C46.8406 7.54 46.3406 7.62667 45.9006 7.8C45.4606 7.97333 45.114 8.27333 44.8606 8.7C44.6206 9.12667 44.5006 9.72 44.5006 10.48V15H41.9406Z" fill="black"/>
</svg>
