<svg width="251" height="29" viewBox="0 0 251 29" fill="none" xmlns="http://www.w3.org/2000/svg">
<path d="M0.0400001 22V0.999999H13.6V4.09H3.88V9.97H11.74V13H3.88V22H0.0400001ZM22.8224 22.36C21.3824 22.36 20.0824 22.03 18.9224 21.37C17.7824 20.71 16.8724 19.8 16.1924 18.64C15.5324 17.46 15.2024 16.1 15.2024 14.56C15.2024 13.02 15.5424 11.67 16.2224 10.51C16.9024 9.33 17.8124 8.41 18.9524 7.75C20.1124 7.09 21.4124 6.76 22.8524 6.76C24.2724 6.76 25.5524 7.09 26.6924 7.75C27.8524 8.41 28.7624 9.33 29.4224 10.51C30.1024 11.67 30.4424 13.02 30.4424 14.56C30.4424 16.1 30.1024 17.46 29.4224 18.64C28.7624 19.8 27.8524 20.71 26.6924 21.37C25.5324 22.03 24.2424 22.36 22.8224 22.36ZM22.8224 19.03C23.8224 19.03 24.6924 18.66 25.4324 17.92C26.1724 17.16 26.5424 16.04 26.5424 14.56C26.5424 13.08 26.1724 11.97 25.4324 11.23C24.6924 10.47 23.8324 10.09 22.8524 10.09C21.8324 10.09 20.9524 10.47 20.2124 11.23C19.4924 11.97 19.1324 13.08 19.1324 14.56C19.1324 16.04 19.4924 17.16 20.2124 17.92C20.9524 18.66 21.8224 19.03 22.8224 19.03ZM33.8758 22V7.12H37.2958L37.6558 9.91C38.1958 8.95 38.9258 8.19 39.8458 7.63C40.7858 7.05 41.8858 6.76 43.1458 6.76V10.81H42.0658C41.2258 10.81 40.4758 10.94 39.8158 11.2C39.1558 11.46 38.6358 11.91 38.2558 12.55C37.8958 13.19 37.7158 14.08 37.7158 15.22V22H33.8758ZM51.7188 17.56C50.9988 17.56 50.3288 17.48 49.7088 17.32L48.5988 18.43C48.9388 18.61 49.3988 18.76 49.9788 18.88C50.5588 19 51.4988 19.12 52.7988 19.24C54.7788 19.42 56.2188 19.89 57.1188 20.65C58.0188 21.41 58.4688 22.46 58.4688 23.8C58.4688 24.68 58.2288 25.51 57.7488 26.29C57.2688 27.09 56.5288 27.73 55.5288 28.21C54.5288 28.71 53.2488 28.96 51.6888 28.96C49.5688 28.96 47.8588 28.56 46.5588 27.76C45.2588 26.98 44.6088 25.8 44.6088 24.22C44.6088 22.88 45.2588 21.72 46.5588 20.74C46.1588 20.56 45.8088 20.37 45.5088 20.17C45.2288 19.97 44.9788 19.76 44.7588 19.54V18.85L47.3688 16.09C46.2088 15.07 45.6288 13.76 45.6288 12.16C45.6288 11.16 45.8688 10.25 46.3488 9.43C46.8488 8.61 47.5488 7.96 48.4488 7.48C49.3488 7 50.4388 6.76 51.7188 6.76C52.5588 6.76 53.3388 6.88 54.0588 7.12H59.6988V9.46L57.1488 9.64C57.5488 10.4 57.7488 11.24 57.7488 12.16C57.7488 13.16 57.5088 14.07 57.0288 14.89C56.5488 15.71 55.8488 16.36 54.9288 16.84C54.0288 17.32 52.9588 17.56 51.7188 17.56ZM51.7188 14.62C52.4988 14.62 53.1388 14.41 53.6388 13.99C54.1588 13.57 54.4188 12.97 54.4188 12.19C54.4188 11.41 54.1588 10.81 53.6388 10.39C53.1388 9.97 52.4988 9.76 51.7188 9.76C50.8988 9.76 50.2388 9.97 49.7388 10.39C49.2388 10.81 48.9888 11.41 48.9888 12.19C48.9888 12.97 49.2388 13.57 49.7388 13.99C50.2388 14.41 50.8988 14.62 51.7188 14.62ZM48.1188 23.83C48.1188 24.57 48.4588 25.12 49.1388 25.48C49.8388 25.86 50.6888 26.05 51.6888 26.05C52.6488 26.05 53.4288 25.85 54.0288 25.45C54.6288 25.07 54.9288 24.55 54.9288 23.89C54.9288 23.35 54.7288 22.9 54.3288 22.54C53.9488 22.18 53.1788 21.96 52.0188 21.88C51.1988 21.82 50.4388 21.73 49.7388 21.61C49.1588 21.93 48.7388 22.28 48.4788 22.66C48.2388 23.04 48.1188 23.43 48.1188 23.83ZM69.0529 22.36C67.6129 22.36 66.3129 22.03 65.1529 21.37C64.0129 20.71 63.1029 19.8 62.4229 18.64C61.7629 17.46 61.4329 16.1 61.4329 14.56C61.4329 13.02 61.7729 11.67 62.4529 10.51C63.1329 9.33 64.0429 8.41 65.1829 7.75C66.3429 7.09 67.6429 6.76 69.0829 6.76C70.5029 6.76 71.7829 7.09 72.9229 7.75C74.0829 8.41 74.9929 9.33 75.6529 10.51C76.3329 11.67 76.6729 13.02 76.6729 14.56C76.6729 16.1 76.3329 17.46 75.6529 18.64C74.9929 19.8 74.0829 20.71 72.9229 21.37C71.7629 22.03 70.4729 22.36 69.0529 22.36ZM69.0529 19.03C70.0529 19.03 70.9229 18.66 71.6629 17.92C72.4029 17.16 72.7729 16.04 72.7729 14.56C72.7729 13.08 72.4029 11.97 71.6629 11.23C70.9229 10.47 70.0629 10.09 69.0829 10.09C68.0629 10.09 67.1829 10.47 66.4429 11.23C65.7229 11.97 65.3629 13.08 65.3629 14.56C65.3629 16.04 65.7229 17.16 66.4429 17.92C67.1829 18.66 68.0529 19.03 69.0529 19.03ZM86.1503 22C84.5903 22 83.3403 21.62 82.4003 20.86C81.4603 20.1 80.9903 18.75 80.9903 16.81V10.33H78.4403V7.12H80.9903L81.4403 3.13H84.8303V7.12H88.8503V10.33H84.8303V16.84C84.8303 17.56 84.9803 18.06 85.2803 18.34C85.6003 18.6 86.1403 18.73 86.9003 18.73H88.7603V22H86.1503ZM99.3857 22V0.999999H107.156C108.836 0.999999 110.226 1.28 111.326 1.84C112.426 2.4 113.246 3.17 113.786 4.15C114.326 5.13 114.596 6.23 114.596 7.45C114.596 8.61 114.336 9.68 113.816 10.66C113.296 11.62 112.486 12.4 111.386 13C110.286 13.58 108.876 13.87 107.156 13.87H103.226V22H99.3857ZM103.226 10.75H106.916C108.256 10.75 109.216 10.46 109.796 9.88C110.396 9.28 110.696 8.47 110.696 7.45C110.696 6.41 110.396 5.6 109.796 5.02C109.216 4.42 108.256 4.12 106.916 4.12H103.226V10.75ZM121.711 22.36C120.431 22.36 119.381 22.16 118.561 21.76C117.741 21.34 117.131 20.79 116.731 20.11C116.331 19.43 116.131 18.68 116.131 17.86C116.131 16.48 116.671 15.36 117.751 14.5C118.831 13.64 120.451 13.21 122.611 13.21H126.391V12.85C126.391 11.83 126.101 11.08 125.521 10.6C124.941 10.12 124.221 9.88 123.361 9.88C122.581 9.88 121.901 10.07 121.321 10.45C120.741 10.81 120.381 11.35 120.241 12.07H116.491C116.591 10.99 116.951 10.05 117.571 9.25C118.211 8.45 119.031 7.84 120.031 7.42C121.031 6.98 122.151 6.76 123.391 6.76C125.511 6.76 127.181 7.29 128.401 8.35C129.621 9.41 130.231 10.91 130.231 12.85V22H126.961L126.601 19.6C126.161 20.4 125.541 21.06 124.741 21.58C123.961 22.1 122.951 22.36 121.711 22.36ZM122.581 19.36C123.681 19.36 124.531 19 125.131 18.28C125.751 17.56 126.141 16.67 126.301 15.61H123.031C122.011 15.61 121.281 15.8 120.841 16.18C120.401 16.54 120.181 16.99 120.181 17.53C120.181 18.11 120.401 18.56 120.841 18.88C121.281 19.2 121.861 19.36 122.581 19.36ZM140.045 22.36C138.725 22.36 137.565 22.15 136.565 21.73C135.565 21.29 134.765 20.69 134.165 19.93C133.565 19.17 133.205 18.29 133.085 17.29H136.955C137.075 17.87 137.395 18.37 137.915 18.79C138.455 19.19 139.145 19.39 139.985 19.39C140.825 19.39 141.435 19.22 141.815 18.88C142.215 18.54 142.415 18.15 142.415 17.71C142.415 17.07 142.135 16.64 141.575 16.42C141.015 16.18 140.235 15.95 139.235 15.73C138.595 15.59 137.945 15.42 137.285 15.22C136.625 15.02 136.015 14.77 135.455 14.47C134.915 14.15 134.475 13.75 134.135 13.27C133.795 12.77 133.625 12.16 133.625 11.44C133.625 10.12 134.145 9.01 135.185 8.11C136.245 7.21 137.725 6.76 139.625 6.76C141.385 6.76 142.785 7.17 143.825 7.99C144.885 8.81 145.515 9.94 145.715 11.38H142.085C141.865 10.28 141.035 9.73 139.595 9.73C138.875 9.73 138.315 9.87 137.915 10.15C137.535 10.43 137.345 10.78 137.345 11.2C137.345 11.64 137.635 11.99 138.215 12.25C138.795 12.51 139.565 12.75 140.525 12.97C141.565 13.21 142.515 13.48 143.375 13.78C144.255 14.06 144.955 14.49 145.475 15.07C145.995 15.63 146.255 16.44 146.255 17.5C146.275 18.42 146.035 19.25 145.535 19.99C145.035 20.73 144.315 21.31 143.375 21.73C142.435 22.15 141.325 22.36 140.045 22.36ZM155.807 22.36C154.487 22.36 153.327 22.15 152.327 21.73C151.327 21.29 150.527 20.69 149.927 19.93C149.327 19.17 148.967 18.29 148.847 17.29H152.717C152.837 17.87 153.157 18.37 153.677 18.79C154.217 19.19 154.907 19.39 155.747 19.39C156.587 19.39 157.197 19.22 157.577 18.88C157.977 18.54 158.177 18.15 158.177 17.71C158.177 17.07 157.897 16.64 157.337 16.42C156.777 16.18 155.997 15.95 154.997 15.73C154.357 15.59 153.707 15.42 153.047 15.22C152.387 15.02 151.777 14.77 151.217 14.47C150.677 14.15 150.237 13.75 149.897 13.27C149.557 12.77 149.387 12.16 149.387 11.44C149.387 10.12 149.907 9.01 150.947 8.11C152.007 7.21 153.487 6.76 155.387 6.76C157.147 6.76 158.547 7.17 159.587 7.99C160.647 8.81 161.277 9.94 161.477 11.38H157.847C157.627 10.28 156.797 9.73 155.357 9.73C154.637 9.73 154.077 9.87 153.677 10.15C153.297 10.43 153.107 10.78 153.107 11.2C153.107 11.64 153.397 11.99 153.977 12.25C154.557 12.51 155.327 12.75 156.287 12.97C157.327 13.21 158.277 13.48 159.137 13.78C160.017 14.06 160.717 14.49 161.237 15.07C161.757 15.63 162.017 16.44 162.017 17.5C162.037 18.42 161.797 19.25 161.297 19.99C160.797 20.73 160.077 21.31 159.137 21.73C158.197 22.15 157.087 22.36 155.807 22.36ZM167.889 22L163.539 7.12H167.349L169.929 17.83L172.929 7.12H177.189L180.189 17.83L182.799 7.12H186.609L182.229 22H178.239L175.059 10.87L171.879 22H167.889ZM195.645 22.36C194.205 22.36 192.905 22.03 191.745 21.37C190.605 20.71 189.695 19.8 189.015 18.64C188.355 17.46 188.025 16.1 188.025 14.56C188.025 13.02 188.365 11.67 189.045 10.51C189.725 9.33 190.635 8.41 191.775 7.75C192.935 7.09 194.235 6.76 195.675 6.76C197.095 6.76 198.375 7.09 199.515 7.75C200.675 8.41 201.585 9.33 202.245 10.51C202.925 11.67 203.265 13.02 203.265 14.56C203.265 16.1 202.925 17.46 202.245 18.64C201.585 19.8 200.675 20.71 199.515 21.37C198.355 22.03 197.065 22.36 195.645 22.36ZM195.645 19.03C196.645 19.03 197.515 18.66 198.255 17.92C198.995 17.16 199.365 16.04 199.365 14.56C199.365 13.08 198.995 11.97 198.255 11.23C197.515 10.47 196.655 10.09 195.675 10.09C194.655 10.09 193.775 10.47 193.035 11.23C192.315 11.97 191.955 13.08 191.955 14.56C191.955 16.04 192.315 17.16 193.035 17.92C193.775 18.66 194.645 19.03 195.645 19.03ZM206.698 22V7.12H210.118L210.478 9.91C211.018 8.95 211.748 8.19 212.668 7.63C213.608 7.05 214.708 6.76 215.968 6.76V10.81H214.888C214.048 10.81 213.298 10.94 212.638 11.2C211.978 11.46 211.458 11.91 211.078 12.55C210.718 13.19 210.538 14.08 210.538 15.22V22H206.698ZM225.169 22.36C223.769 22.36 222.519 22.02 221.419 21.34C220.319 20.66 219.449 19.73 218.809 18.55C218.169 17.37 217.849 16.03 217.849 14.53C217.849 13.03 218.169 11.7 218.809 10.54C219.449 9.36 220.319 8.44 221.419 7.78C222.519 7.1 223.769 6.76 225.169 6.76C226.289 6.76 227.269 6.97 228.109 7.39C228.949 7.81 229.629 8.4 230.149 9.16V0.399999H233.989V22H230.569L230.149 19.87C229.669 20.53 229.029 21.11 228.229 21.61C227.449 22.11 226.429 22.36 225.169 22.36ZM225.979 19C227.219 19 228.229 18.59 229.009 17.77C229.809 16.93 230.209 15.86 230.209 14.56C230.209 13.26 229.809 12.2 229.009 11.38C228.229 10.54 227.219 10.12 225.979 10.12C224.759 10.12 223.749 10.53 222.949 11.35C222.149 12.17 221.749 13.23 221.749 14.53C221.749 15.83 222.149 16.9 222.949 17.74C223.749 18.58 224.759 19 225.979 19ZM240.059 15.46L239.939 10.51H241.319C242.339 10.51 243.269 10.42 244.109 10.24C244.949 10.06 245.619 9.71 246.119 9.19C246.619 8.67 246.869 7.91 246.869 6.91C246.869 5.95 246.579 5.2 245.999 4.66C245.419 4.1 244.649 3.82 243.689 3.82C242.689 3.82 241.909 4.1 241.349 4.66C240.789 5.2 240.509 5.94 240.509 6.88H236.879C236.859 5.68 237.119 4.61 237.659 3.67C238.199 2.73 238.979 1.99 239.999 1.45C241.039 0.909999 242.279 0.64 243.719 0.64C245.059 0.64 246.239 0.889999 247.259 1.39C248.299 1.89 249.109 2.61 249.689 3.55C250.289 4.47 250.589 5.6 250.589 6.94C250.589 8.32 250.279 9.46 249.659 10.36C249.059 11.26 248.229 11.93 247.169 12.37C246.129 12.81 244.919 13.04 243.539 13.06L243.449 15.46H240.059ZM241.769 22.21C241.069 22.21 240.489 21.99 240.029 21.55C239.589 21.11 239.369 20.58 239.369 19.96C239.369 19.32 239.589 18.78 240.029 18.34C240.489 17.9 241.069 17.68 241.769 17.68C242.469 17.68 243.039 17.9 243.479 18.34C243.919 18.78 244.139 19.32 244.139 19.96C244.139 20.58 243.919 21.11 243.479 21.55C243.039 21.99 242.469 22.21 241.769 22.21Z" fill="#0D0140"/>
</svg>
