<svg width="100" height="12" viewBox="0 0 100 12" fill="none" xmlns="http://www.w3.org/2000/svg">
<path d="M0.888 9V0.599999H6V1.428H1.896V4.38H5.388V5.196H1.896V9H0.888ZM9.69234 9.144C9.13234 9.144 8.62834 9.016 8.18034 8.76C7.73234 8.504 7.37634 8.144 7.11234 7.68C6.85634 7.208 6.72834 6.656 6.72834 6.024C6.72834 5.392 6.86034 4.844 7.12434 4.38C7.38834 3.908 7.74434 3.544 8.19234 3.288C8.64834 3.032 9.15634 2.904 9.71634 2.904C10.2763 2.904 10.7803 3.032 11.2283 3.288C11.6763 3.544 12.0283 3.908 12.2843 4.38C12.5483 4.844 12.6803 5.392 12.6803 6.024C12.6803 6.656 12.5483 7.208 12.2843 7.68C12.0203 8.144 11.6603 8.504 11.2043 8.76C10.7563 9.016 10.2523 9.144 9.69234 9.144ZM9.69234 8.28C10.0363 8.28 10.3563 8.196 10.6523 8.028C10.9483 7.86 11.1883 7.608 11.3723 7.272C11.5563 6.936 11.6483 6.52 11.6483 6.024C11.6483 5.528 11.5563 5.112 11.3723 4.776C11.1963 4.44 10.9603 4.188 10.6643 4.02C10.3683 3.852 10.0523 3.768 9.71634 3.768C9.37234 3.768 9.05234 3.852 8.75634 4.02C8.46034 4.188 8.22034 4.44 8.03634 4.776C7.85234 5.112 7.76034 5.528 7.76034 6.024C7.76034 6.52 7.85234 6.936 8.03634 7.272C8.22034 7.608 8.45634 7.86 8.74434 8.028C9.04034 8.196 9.35634 8.28 9.69234 8.28ZM14.0819 9V3.048H14.9939L15.0779 4.188C15.2619 3.796 15.5419 3.484 15.9179 3.252C16.2939 3.02 16.7579 2.904 17.3099 2.904V3.96H17.0339C16.6819 3.96 16.3579 4.024 16.0619 4.152C15.7659 4.272 15.5299 4.48 15.3539 4.776C15.1779 5.072 15.0899 5.48 15.0899 6V9H14.0819ZM20.6527 7.128C20.3167 7.128 20.0087 7.084 19.7287 6.996L19.1287 7.56C19.2167 7.624 19.3247 7.68 19.4527 7.728C19.5887 7.768 19.7807 7.808 20.0287 7.848C20.2767 7.88 20.6247 7.916 21.0727 7.956C21.8727 8.012 22.4447 8.196 22.7887 8.508C23.1327 8.82 23.3047 9.228 23.3047 9.732C23.3047 10.076 23.2087 10.404 23.0167 10.716C22.8327 11.028 22.5447 11.284 22.1527 11.484C21.7687 11.684 21.2727 11.784 20.6647 11.784C20.1287 11.784 19.6527 11.712 19.2367 11.568C18.8207 11.432 18.4967 11.22 18.2647 10.932C18.0327 10.652 17.9167 10.296 17.9167 9.864C17.9167 9.64 17.9767 9.396 18.0967 9.132C18.2167 8.876 18.4407 8.632 18.7687 8.4C18.5927 8.328 18.4407 8.252 18.3127 8.172C18.1927 8.084 18.0807 7.988 17.9767 7.884V7.608L18.9967 6.6C18.5247 6.2 18.2887 5.672 18.2887 5.016C18.2887 4.624 18.3807 4.268 18.5647 3.948C18.7487 3.628 19.0167 3.376 19.3687 3.192C19.7207 3 20.1487 2.904 20.6527 2.904C20.9967 2.904 21.3087 2.952 21.5887 3.048H23.7847V3.804L22.6687 3.852C22.9007 4.188 23.0167 4.576 23.0167 5.016C23.0167 5.408 22.9207 5.764 22.7287 6.084C22.5447 6.404 22.2767 6.66 21.9247 6.852C21.5807 7.036 21.1567 7.128 20.6527 7.128ZM20.6527 6.3C21.0767 6.3 21.4127 6.192 21.6607 5.976C21.9167 5.752 22.0447 5.432 22.0447 5.016C22.0447 4.608 21.9167 4.296 21.6607 4.08C21.4127 3.856 21.0767 3.744 20.6527 3.744C20.2207 3.744 19.8767 3.856 19.6207 4.08C19.3727 4.296 19.2487 4.608 19.2487 5.016C19.2487 5.432 19.3727 5.752 19.6207 5.976C19.8767 6.192 20.2207 6.3 20.6527 6.3ZM18.9007 9.768C18.9007 10.168 19.0687 10.464 19.4047 10.656C19.7407 10.856 20.1607 10.956 20.6647 10.956C21.1607 10.956 21.5567 10.848 21.8527 10.632C22.1567 10.416 22.3087 10.128 22.3087 9.768C22.3087 9.512 22.2047 9.288 21.9967 9.096C21.7887 8.912 21.4047 8.804 20.8447 8.772C20.4047 8.74 20.0247 8.7 19.7047 8.652C19.3767 8.828 19.1607 9.016 19.0567 9.216C18.9527 9.424 18.9007 9.608 18.9007 9.768ZM27.3994 9.144C26.8394 9.144 26.3354 9.016 25.8874 8.76C25.4394 8.504 25.0834 8.144 24.8194 7.68C24.5634 7.208 24.4354 6.656 24.4354 6.024C24.4354 5.392 24.5674 4.844 24.8314 4.38C25.0954 3.908 25.4514 3.544 25.8994 3.288C26.3554 3.032 26.8634 2.904 27.4234 2.904C27.9834 2.904 28.4874 3.032 28.9354 3.288C29.3834 3.544 29.7354 3.908 29.9914 4.38C30.2554 4.844 30.3874 5.392 30.3874 6.024C30.3874 6.656 30.2554 7.208 29.9914 7.68C29.7274 8.144 29.3674 8.504 28.9114 8.76C28.4634 9.016 27.9594 9.144 27.3994 9.144ZM27.3994 8.28C27.7434 8.28 28.0634 8.196 28.3594 8.028C28.6554 7.86 28.8954 7.608 29.0794 7.272C29.2634 6.936 29.3554 6.52 29.3554 6.024C29.3554 5.528 29.2634 5.112 29.0794 4.776C28.9034 4.44 28.6674 4.188 28.3714 4.02C28.0754 3.852 27.7594 3.768 27.4234 3.768C27.0794 3.768 26.7594 3.852 26.4634 4.02C26.1674 4.188 25.9274 4.44 25.7434 4.776C25.5594 5.112 25.4674 5.528 25.4674 6.024C25.4674 6.52 25.5594 6.936 25.7434 7.272C25.9274 7.608 26.1634 7.86 26.4514 8.028C26.7474 8.196 27.0634 8.28 27.3994 8.28ZM33.9066 9C33.3626 9 32.9346 8.868 32.6226 8.604C32.3106 8.34 32.1546 7.864 32.1546 7.176V3.9H31.1226V3.048H32.1546L32.2866 1.62H33.1626V3.048H34.9146V3.9H33.1626V7.176C33.1626 7.552 33.2386 7.808 33.3906 7.944C33.5426 8.072 33.8106 8.136 34.1946 8.136H34.8186V9H33.9066ZM39.431 9V0.599999H42.191C42.847 0.599999 43.387 0.707999 43.811 0.924C44.235 1.14 44.547 1.432 44.747 1.8C44.955 2.168 45.059 2.584 45.059 3.048C45.059 3.504 44.959 3.916 44.759 4.284C44.559 4.652 44.247 4.948 43.823 5.172C43.399 5.388 42.855 5.496 42.191 5.496H40.439V9H39.431ZM40.439 4.644H42.167C42.839 4.644 43.315 4.504 43.595 4.224C43.883 3.936 44.027 3.544 44.027 3.048C44.027 2.544 43.883 2.152 43.595 1.872C43.315 1.584 42.839 1.44 42.167 1.44H40.439V4.644ZM48.0189 9.144C47.5229 9.144 47.1109 9.06 46.7829 8.892C46.4549 8.724 46.2109 8.5 46.0509 8.22C45.8909 7.94 45.8109 7.636 45.8109 7.308C45.8109 6.7 46.0429 6.232 46.5069 5.904C46.9709 5.576 47.6029 5.412 48.4029 5.412H50.0109V5.34C50.0109 4.82 49.8749 4.428 49.6029 4.164C49.3309 3.892 48.9669 3.756 48.5109 3.756C48.1189 3.756 47.7789 3.856 47.4909 4.056C47.2109 4.248 47.0349 4.532 46.9629 4.908H45.9309C45.9709 4.476 46.1149 4.112 46.3629 3.816C46.6189 3.52 46.9349 3.296 47.3109 3.144C47.6869 2.984 48.0869 2.904 48.5109 2.904C49.3429 2.904 49.9669 3.128 50.3829 3.576C50.8069 4.016 51.0189 4.604 51.0189 5.34V9H50.1189L50.0589 7.932C49.8909 8.268 49.6429 8.556 49.3149 8.796C48.9949 9.028 48.5629 9.144 48.0189 9.144ZM48.1749 8.292C48.5589 8.292 48.8869 8.192 49.1589 7.992C49.4389 7.792 49.6509 7.532 49.7949 7.212C49.9389 6.892 50.0109 6.556 50.0109 6.204V6.192H48.4869C47.8949 6.192 47.4749 6.296 47.2269 6.504C46.9869 6.704 46.8669 6.956 46.8669 7.26C46.8669 7.572 46.9789 7.824 47.2029 8.016C47.4349 8.2 47.7589 8.292 48.1749 8.292ZM54.8111 9.144C54.0991 9.144 53.5071 8.964 53.0351 8.604C52.5631 8.244 52.2871 7.756 52.2071 7.14H53.2391C53.3031 7.452 53.4671 7.724 53.7311 7.956C54.0031 8.18 54.3671 8.292 54.8231 8.292C55.2471 8.292 55.5591 8.204 55.7591 8.028C55.9591 7.844 56.0591 7.628 56.0591 7.38C56.0591 7.02 55.9271 6.78 55.6631 6.66C55.4071 6.54 55.0431 6.432 54.5711 6.336C54.2511 6.272 53.9311 6.18 53.6111 6.06C53.2911 5.94 53.0231 5.772 52.8071 5.556C52.5911 5.332 52.4831 5.04 52.4831 4.68C52.4831 4.16 52.6751 3.736 53.0591 3.408C53.4511 3.072 53.9791 2.904 54.6431 2.904C55.2751 2.904 55.7911 3.064 56.1911 3.384C56.5991 3.696 56.8351 4.144 56.8991 4.728H55.9031C55.8631 4.424 55.7311 4.188 55.5071 4.02C55.2911 3.844 54.9991 3.756 54.6311 3.756C54.2711 3.756 53.9911 3.832 53.7911 3.984C53.5991 4.136 53.5031 4.336 53.5031 4.584C53.5031 4.824 53.6271 5.012 53.8751 5.148C54.1311 5.284 54.4751 5.4 54.9071 5.496C55.2751 5.576 55.6231 5.676 55.9511 5.796C56.2871 5.908 56.5591 6.08 56.7671 6.312C56.9831 6.536 57.0911 6.864 57.0911 7.296C57.0991 7.832 56.8951 8.276 56.4791 8.628C56.0711 8.972 55.5151 9.144 54.8111 9.144ZM60.8111 9.144C60.0991 9.144 59.5071 8.964 59.0351 8.604C58.5631 8.244 58.2871 7.756 58.2071 7.14H59.2391C59.3031 7.452 59.4671 7.724 59.7311 7.956C60.0031 8.18 60.3671 8.292 60.8231 8.292C61.2471 8.292 61.5591 8.204 61.7591 8.028C61.9591 7.844 62.0591 7.628 62.0591 7.38C62.0591 7.02 61.9271 6.78 61.6631 6.66C61.4071 6.54 61.0431 6.432 60.5711 6.336C60.2511 6.272 59.9311 6.18 59.6111 6.06C59.2911 5.94 59.0231 5.772 58.8071 5.556C58.5911 5.332 58.4831 5.04 58.4831 4.68C58.4831 4.16 58.6751 3.736 59.0591 3.408C59.4511 3.072 59.9791 2.904 60.6431 2.904C61.2751 2.904 61.7911 3.064 62.1911 3.384C62.5991 3.696 62.8351 4.144 62.8991 4.728H61.9031C61.8631 4.424 61.7311 4.188 61.5071 4.02C61.2911 3.844 60.9991 3.756 60.6311 3.756C60.2711 3.756 59.9911 3.832 59.7911 3.984C59.5991 4.136 59.5031 4.336 59.5031 4.584C59.5031 4.824 59.6271 5.012 59.8751 5.148C60.1311 5.284 60.4751 5.4 60.9071 5.496C61.2751 5.576 61.6231 5.676 61.9511 5.796C62.2871 5.908 62.5591 6.08 62.7671 6.312C62.9831 6.536 63.0911 6.864 63.0911 7.296C63.0991 7.832 62.8951 8.276 62.4791 8.628C62.0711 8.972 61.5151 9.144 60.8111 9.144ZM65.5085 9L63.7685 3.048H64.7765L66.0365 7.716L67.4285 3.048H68.5685L69.9725 7.716L71.2205 3.048H72.2405L70.5005 9H69.4685L68.0045 4.092L66.5405 9H65.5085ZM75.8447 9.144C75.2847 9.144 74.7807 9.016 74.3327 8.76C73.8847 8.504 73.5287 8.144 73.2647 7.68C73.0087 7.208 72.8807 6.656 72.8807 6.024C72.8807 5.392 73.0127 4.844 73.2767 4.38C73.5407 3.908 73.8967 3.544 74.3447 3.288C74.8007 3.032 75.3087 2.904 75.8687 2.904C76.4287 2.904 76.9327 3.032 77.3807 3.288C77.8287 3.544 78.1807 3.908 78.4367 4.38C78.7007 4.844 78.8327 5.392 78.8327 6.024C78.8327 6.656 78.7007 7.208 78.4367 7.68C78.1727 8.144 77.8127 8.504 77.3567 8.76C76.9087 9.016 76.4047 9.144 75.8447 9.144ZM75.8447 8.28C76.1887 8.28 76.5087 8.196 76.8047 8.028C77.1007 7.86 77.3407 7.608 77.5247 7.272C77.7087 6.936 77.8007 6.52 77.8007 6.024C77.8007 5.528 77.7087 5.112 77.5247 4.776C77.3487 4.44 77.1127 4.188 76.8167 4.02C76.5207 3.852 76.2047 3.768 75.8687 3.768C75.5247 3.768 75.2047 3.852 74.9087 4.02C74.6127 4.188 74.3727 4.44 74.1887 4.776C74.0047 5.112 73.9127 5.528 73.9127 6.024C73.9127 6.52 74.0047 6.936 74.1887 7.272C74.3727 7.608 74.6087 7.86 74.8967 8.028C75.1927 8.196 75.5087 8.28 75.8447 8.28ZM80.2343 9V3.048H81.1463L81.2303 4.188C81.4143 3.796 81.6943 3.484 82.0703 3.252C82.4463 3.02 82.9103 2.904 83.4623 2.904V3.96H83.1863C82.8343 3.96 82.5103 4.024 82.2143 4.152C81.9183 4.272 81.6823 4.48 81.5063 4.776C81.3303 5.072 81.2423 5.48 81.2423 6V9H80.2343ZM87.071 9.144C86.479 9.144 85.959 9.008 85.511 8.736C85.071 8.464 84.727 8.092 84.479 7.62C84.239 7.148 84.119 6.612 84.119 6.012C84.119 5.412 84.243 4.88 84.491 4.416C84.739 3.944 85.083 3.576 85.523 3.312C85.963 3.04 86.483 2.904 87.083 2.904C87.571 2.904 88.003 3.004 88.379 3.204C88.755 3.404 89.047 3.684 89.255 4.044V0.36H90.263V9H89.351L89.255 8.016C89.063 8.304 88.787 8.564 88.427 8.796C88.067 9.028 87.615 9.144 87.071 9.144ZM87.179 8.268C87.579 8.268 87.931 8.176 88.235 7.992C88.547 7.8 88.787 7.536 88.955 7.2C89.131 6.864 89.219 6.472 89.219 6.024C89.219 5.576 89.131 5.184 88.955 4.848C88.787 4.512 88.547 4.252 88.235 4.068C87.931 3.876 87.579 3.78 87.179 3.78C86.787 3.78 86.435 3.876 86.123 4.068C85.819 4.252 85.579 4.512 85.403 4.848C85.235 5.184 85.151 5.576 85.151 6.024C85.151 6.472 85.235 6.864 85.403 7.2C85.579 7.536 85.819 7.8 86.123 7.992C86.435 8.176 86.787 8.268 87.179 8.268ZM96.0659 6.648L96.0179 4.716H96.3899C96.8379 4.716 97.2539 4.672 97.6379 4.584C98.0299 4.496 98.3459 4.324 98.5859 4.068C98.8259 3.812 98.9459 3.428 98.9459 2.916C98.9459 2.42 98.7899 2.028 98.4779 1.74C98.1739 1.452 97.7699 1.308 97.2659 1.308C96.7539 1.308 96.3499 1.448 96.0539 1.728C95.7579 2.008 95.6099 2.384 95.6099 2.856H94.6499C94.6499 2.376 94.7579 1.956 94.9739 1.596C95.1979 1.236 95.5059 0.955999 95.8979 0.756C96.2899 0.556 96.7459 0.456 97.2659 0.456C97.7859 0.456 98.2459 0.556 98.6459 0.756C99.0459 0.955999 99.3579 1.24 99.5819 1.608C99.8059 1.976 99.9179 2.412 99.9179 2.916C99.9179 3.508 99.7899 3.988 99.5339 4.356C99.2859 4.724 98.9379 4.992 98.4899 5.16C98.0499 5.328 97.5459 5.412 96.9779 5.412L96.9419 6.648H96.0659ZM96.4979 9.06C96.2979 9.06 96.1299 8.996 95.9939 8.868C95.8659 8.732 95.8019 8.568 95.8019 8.376C95.8019 8.184 95.8659 8.024 95.9939 7.896C96.1299 7.76 96.2979 7.692 96.4979 7.692C96.6979 7.692 96.8619 7.76 96.9899 7.896C97.1179 8.024 97.1819 8.184 97.1819 8.376C97.1819 8.568 97.1179 8.732 96.9899 8.868C96.8619 8.996 96.6979 9.06 96.4979 9.06Z" fill="#0D0140"/>
</svg>
