<svg width="56" height="10" viewBox="0 0 56 10" fill="none" xmlns="http://www.w3.org/2000/svg">
<path d="M0.816 9V0.599999H6.24V1.836H2.352V4.188H5.496V5.4H2.352V9H0.816ZM9.62138 9.144C8.87738 9.144 8.30138 8.912 7.89338 8.448C7.49338 7.984 7.29338 7.304 7.29338 6.408V3.048H8.81738V6.264C8.81738 6.776 8.92138 7.168 9.12938 7.44C9.33738 7.712 9.66538 7.848 10.1134 7.848C10.5374 7.848 10.8854 7.696 11.1574 7.392C11.4374 7.088 11.5774 6.664 11.5774 6.12V3.048H13.1134V9H11.7574L11.6374 7.992C11.4534 8.344 11.1854 8.624 10.8334 8.832C10.4894 9.04 10.0854 9.144 9.62138 9.144ZM14.6902 9V0.36H16.2262V9H14.6902ZM17.7956 9V0.36H19.3316V9H17.7956ZM23.7605 9V3.048H25.1165L25.2365 4.056C25.4205 3.704 25.6845 3.424 26.0285 3.216C26.3805 3.008 26.7925 2.904 27.2645 2.904C28.0005 2.904 28.5725 3.136 28.9805 3.6C29.3885 4.064 29.5925 4.744 29.5925 5.64V9H28.0565V5.784C28.0565 5.272 27.9525 4.88 27.7445 4.608C27.5365 4.336 27.2125 4.2 26.7725 4.2C26.3405 4.2 25.9845 4.352 25.7045 4.656C25.4325 4.96 25.2965 5.384 25.2965 5.928V9H23.7605ZM33.1133 9.144C32.6013 9.144 32.1813 9.064 31.8533 8.904C31.5253 8.736 31.2813 8.516 31.1213 8.244C30.9613 7.972 30.8813 7.672 30.8813 7.344C30.8813 6.792 31.0973 6.344 31.5293 6C31.9613 5.656 32.6093 5.484 33.4733 5.484H34.9853V5.34C34.9853 4.932 34.8693 4.632 34.6373 4.44C34.4053 4.248 34.1173 4.152 33.7733 4.152C33.4613 4.152 33.1893 4.228 32.9573 4.38C32.7253 4.524 32.5813 4.74 32.5253 5.028H31.0253C31.0653 4.596 31.2093 4.22 31.4573 3.9C31.7133 3.58 32.0413 3.336 32.4413 3.168C32.8413 2.992 33.2893 2.904 33.7853 2.904C34.6333 2.904 35.3013 3.116 35.7893 3.54C36.2773 3.964 36.5213 4.564 36.5213 5.34V9H35.2133L35.0693 8.04C34.8933 8.36 34.6453 8.624 34.3253 8.832C34.0133 9.04 33.6093 9.144 33.1133 9.144ZM33.4613 7.944C33.9013 7.944 34.2413 7.8 34.4813 7.512C34.7293 7.224 34.8853 6.868 34.9493 6.444H33.6413C33.2333 6.444 32.9413 6.52 32.7653 6.672C32.5893 6.816 32.5013 6.996 32.5013 7.212C32.5013 7.444 32.5893 7.624 32.7653 7.752C32.9413 7.88 33.1733 7.944 33.4613 7.944ZM37.987 9V3.048H39.343L39.475 3.852C39.667 3.564 39.919 3.336 40.231 3.168C40.551 2.992 40.919 2.904 41.335 2.904C42.255 2.904 42.907 3.26 43.291 3.972C43.507 3.644 43.795 3.384 44.155 3.192C44.523 3 44.923 2.904 45.355 2.904C46.131 2.904 46.727 3.136 47.143 3.6C47.559 4.064 47.767 4.744 47.767 5.64V9H46.231V5.784C46.231 5.272 46.131 4.88 45.931 4.608C45.739 4.336 45.439 4.2 45.031 4.2C44.615 4.2 44.279 4.352 44.023 4.656C43.775 4.96 43.651 5.384 43.651 5.928V9H42.115V5.784C42.115 5.272 42.015 4.88 41.815 4.608C41.615 4.336 41.307 4.2 40.891 4.2C40.483 4.2 40.151 4.352 39.895 4.656C39.647 4.96 39.523 5.384 39.523 5.928V9H37.987ZM52.1173 9.144C51.5173 9.144 50.9853 9.016 50.5213 8.76C50.0573 8.504 49.6933 8.144 49.4293 7.68C49.1653 7.216 49.0333 6.68 49.0333 6.072C49.0333 5.456 49.1613 4.908 49.4173 4.428C49.6813 3.948 50.0413 3.576 50.4973 3.312C50.9613 3.04 51.5053 2.904 52.1293 2.904C52.7133 2.904 53.2293 3.032 53.6773 3.288C54.1253 3.544 54.4733 3.896 54.7213 4.344C54.9773 4.784 55.1053 5.276 55.1053 5.82C55.1053 5.908 55.1013 6 55.0933 6.096C55.0933 6.192 55.0893 6.292 55.0813 6.396H50.5573C50.5893 6.86 50.7493 7.224 51.0373 7.488C51.3333 7.752 51.6893 7.884 52.1053 7.884C52.4173 7.884 52.6773 7.816 52.8853 7.68C53.1013 7.536 53.2613 7.352 53.3653 7.128H54.9253C54.8133 7.504 54.6253 7.848 54.3613 8.16C54.1053 8.464 53.7853 8.704 53.4013 8.88C53.0253 9.056 52.5973 9.144 52.1173 9.144ZM52.1293 4.152C51.7533 4.152 51.4213 4.26 51.1333 4.476C50.8453 4.684 50.6613 5.004 50.5813 5.436H53.5453C53.5213 5.044 53.3773 4.732 53.1133 4.5C52.8493 4.268 52.5213 4.152 52.1293 4.152Z" fill="#0D0140"/>
</svg>
