<svg width="210" height="106" viewBox="0 0 210 106" fill="none" xmlns="http://www.w3.org/2000/svg">
<path d="M2.72 29V0.999998H20.8V5.12H7.84V12.96H18.32V17H7.84V29H2.72ZM27.3913 6.08C26.4579 6.08 25.6846 5.8 25.0713 5.24C24.4846 4.68 24.1913 3.97333 24.1913 3.12C24.1913 2.26667 24.4846 1.57333 25.0713 1.04C25.6846 0.479998 26.4579 0.199999 27.3913 0.199999C28.3246 0.199999 29.0846 0.479998 29.6713 1.04C30.2846 1.57333 30.5913 2.26667 30.5913 3.12C30.5913 3.97333 30.2846 4.68 29.6713 5.24C29.0846 5.8 28.3246 6.08 27.3913 6.08ZM24.8313 29V9.16H29.9513V29H24.8313ZM35.2953 29V9.16H39.8153L40.2153 12.52C40.8286 11.3467 41.7086 10.4133 42.8553 9.72C44.0286 9.02667 45.402 8.68 46.9753 8.68C49.4286 8.68 51.3353 9.45333 52.6953 11C54.0553 12.5467 54.7353 14.8133 54.7353 17.8V29H49.6153V18.28C49.6153 16.5733 49.2686 15.2667 48.5753 14.36C47.882 13.4533 46.802 13 45.3353 13C43.8953 13 42.7086 13.5067 41.7753 14.52C40.8686 15.5333 40.4153 16.9467 40.4153 18.76V29H35.2953ZM68.7513 29.48C66.8846 29.48 65.2179 29.0267 63.7513 28.12C62.2846 27.2133 61.1246 25.9733 60.2713 24.4C59.4179 22.8267 58.9913 21.04 58.9913 19.04C58.9913 17.04 59.4179 15.2667 60.2713 13.72C61.1246 12.1467 62.2846 10.92 63.7513 10.04C65.2179 9.13333 66.8846 8.68 68.7513 8.68C70.2446 8.68 71.5513 8.96 72.6713 9.52C73.7913 10.08 74.6979 10.8667 75.3913 11.88V0.199999H80.5113V29H75.9513L75.3913 26.16C74.7513 27.04 73.8979 27.8133 72.8313 28.48C71.7913 29.1467 70.4313 29.48 68.7513 29.48ZM69.8313 25C71.4846 25 72.8313 24.4533 73.8713 23.36C74.9379 22.24 75.4713 20.8133 75.4713 19.08C75.4713 17.3467 74.9379 15.9333 73.8713 14.84C72.8313 13.72 71.4846 13.16 69.8313 13.16C68.2046 13.16 66.8579 13.7067 65.7913 14.8C64.7246 15.8933 64.1913 17.3067 64.1913 19.04C64.1913 20.7733 64.7246 22.2 65.7913 23.32C66.8579 24.44 68.2046 25 69.8313 25ZM102.616 29V19.04L93.2163 0.999998H99.0163L105.216 13.92L111.376 0.999998H117.096L107.736 19.04V29H102.616ZM126.222 29.48C124.302 29.48 122.568 29.04 121.022 28.16C119.502 27.28 118.288 26.0667 117.382 24.52C116.502 22.9467 116.062 21.1333 116.062 19.08C116.062 17.0267 116.515 15.2267 117.422 13.68C118.328 12.1067 119.542 10.88 121.062 10C122.608 9.12 124.342 8.68 126.262 8.68C128.155 8.68 129.862 9.12 131.382 10C132.928 10.88 134.142 12.1067 135.022 13.68C135.928 15.2267 136.382 17.0267 136.382 19.08C136.382 21.1333 135.928 22.9467 135.022 24.52C134.142 26.0667 132.928 27.28 131.382 28.16C129.835 29.04 128.115 29.48 126.222 29.48ZM126.222 25.04C127.555 25.04 128.715 24.5467 129.702 23.56C130.688 22.5467 131.182 21.0533 131.182 19.08C131.182 17.1067 130.688 15.6267 129.702 14.64C128.715 13.6267 127.568 13.12 126.262 13.12C124.902 13.12 123.728 13.6267 122.742 14.64C121.782 15.6267 121.302 17.1067 121.302 19.08C121.302 21.0533 121.782 22.5467 122.742 23.56C123.728 24.5467 124.888 25.04 126.222 25.04ZM148.399 29.48C145.919 29.48 143.999 28.7067 142.639 27.16C141.306 25.6133 140.639 23.3467 140.639 20.36V9.16H145.719V19.88C145.719 21.5867 146.066 22.8933 146.759 23.8C147.453 24.7067 148.546 25.16 150.039 25.16C151.453 25.16 152.613 24.6533 153.519 23.64C154.453 22.6267 154.919 21.2133 154.919 19.4V9.16H160.039V29H155.519L155.119 25.64C154.506 26.8133 153.613 27.7467 152.439 28.44C151.293 29.1333 149.946 29.48 148.399 29.48ZM165.295 29V9.16H169.855L170.335 12.88C171.055 11.6 172.029 10.5867 173.255 9.84C174.509 9.06667 175.975 8.68 177.655 8.68V14.08H176.215C175.095 14.08 174.095 14.2533 173.215 14.6C172.335 14.9467 171.642 15.5467 171.135 16.4C170.655 17.2533 170.415 18.44 170.415 19.96V29H165.295ZM2.72 105V77H7.84V88.64H20.4V77H25.52V105H20.4V92.8H7.84V105H2.72ZM40.4822 105.48C38.4822 105.48 36.7089 105.053 35.1622 104.2C33.6155 103.347 32.4022 102.147 31.5222 100.6C30.6422 99.0533 30.2022 97.2667 30.2022 95.24C30.2022 93.1867 30.6289 91.36 31.4822 89.76C32.3622 88.16 33.5622 86.92 35.0822 86.04C36.6289 85.1333 38.4422 84.68 40.5222 84.68C42.4689 84.68 44.1889 85.1067 45.6822 85.96C47.1755 86.8133 48.3355 87.9867 49.1622 89.48C50.0155 90.9467 50.4422 92.5867 50.4422 94.4C50.4422 94.6933 50.4289 95 50.4022 95.32C50.4022 95.64 50.3889 95.9733 50.3622 96.32H35.2822C35.3889 97.8667 35.9222 99.08 36.8822 99.96C37.8689 100.84 39.0555 101.28 40.4422 101.28C41.4822 101.28 42.3489 101.053 43.0422 100.6C43.7622 100.12 44.2955 99.5067 44.6422 98.76H49.8422C49.4689 100.013 48.8422 101.16 47.9622 102.2C47.1089 103.213 46.0422 104.013 44.7622 104.6C43.5089 105.187 42.0822 105.48 40.4822 105.48ZM40.5222 88.84C39.2689 88.84 38.1622 89.2 37.2022 89.92C36.2422 90.6133 35.6289 91.68 35.3622 93.12H45.2422C45.1622 91.8133 44.6822 90.7733 43.8022 90C42.9222 89.2267 41.8289 88.84 40.5222 88.84ZM54.7484 105V85.16H59.3084L59.7884 88.88C60.5084 87.6 61.4818 86.5867 62.7084 85.84C63.9618 85.0667 65.4284 84.68 67.1084 84.68V90.08H65.6684C64.5484 90.08 63.5484 90.2533 62.6684 90.6C61.7884 90.9467 61.0951 91.5467 60.5884 92.4C60.1084 93.2533 59.8684 94.44 59.8684 95.96V105H54.7484ZM79.8963 105.48C77.8963 105.48 76.1229 105.053 74.5763 104.2C73.0296 103.347 71.8163 102.147 70.9363 100.6C70.0563 99.0533 69.6163 97.2667 69.6163 95.24C69.6163 93.1867 70.0429 91.36 70.8963 89.76C71.7763 88.16 72.9763 86.92 74.4963 86.04C76.0429 85.1333 77.8563 84.68 79.9363 84.68C81.8829 84.68 83.6029 85.1067 85.0963 85.96C86.5896 86.8133 87.7496 87.9867 88.5763 89.48C89.4296 90.9467 89.8563 92.5867 89.8563 94.4C89.8563 94.6933 89.8429 95 89.8163 95.32C89.8163 95.64 89.8029 95.9733 89.7763 96.32H74.6963C74.8029 97.8667 75.3363 99.08 76.2963 99.96C77.2829 100.84 78.4696 101.28 79.8563 101.28C80.8963 101.28 81.7629 101.053 82.4563 100.6C83.1763 100.12 83.7096 99.5067 84.0563 98.76H89.2563C88.8829 100.013 88.2563 101.16 87.3763 102.2C86.5229 103.213 85.4563 104.013 84.1763 104.6C82.9229 105.187 81.4963 105.48 79.8963 105.48ZM79.9363 88.84C78.6829 88.84 77.5763 89.2 76.6163 89.92C75.6563 90.6133 75.0429 91.68 74.7763 93.12H84.6563C84.5763 91.8133 84.0963 90.7733 83.2163 90C82.3363 89.2267 81.2429 88.84 79.9363 88.84ZM95.2425 96.16L94.6825 77H100.163L99.5625 96.16H95.2425ZM97.5225 105.28C96.5625 105.28 95.7758 104.987 95.1625 104.4C94.5758 103.813 94.2825 103.107 94.2825 102.28C94.2825 101.427 94.5758 100.707 95.1625 100.12C95.7758 99.5333 96.5625 99.24 97.5225 99.24C98.4292 99.24 99.1758 99.5333 99.7625 100.12C100.376 100.707 100.683 101.427 100.683 102.28C100.683 103.107 100.376 103.813 99.7625 104.4C99.1758 104.987 98.4292 105.28 97.5225 105.28Z" fill="black"/>
<path d="M2.72 67V39H12.28C15.56 39 18.2533 39.5867 20.36 40.76C22.4933 41.9067 24.0667 43.5333 25.08 45.64C26.12 47.72 26.64 50.1733 26.64 53C26.64 55.8267 26.12 58.2933 25.08 60.4C24.0667 62.48 22.4933 64.1067 20.36 65.28C18.2533 66.4267 15.56 67 12.28 67H2.72ZM7.84 62.6H12.04C14.3867 62.6 16.24 62.2267 17.6 61.48C18.96 60.7067 19.9333 59.6133 20.52 58.2C21.1067 56.76 21.4 55.0267 21.4 53C21.4 51 21.1067 49.28 20.52 47.84C19.9333 46.4 18.96 45.2933 17.6 44.52C16.24 43.7467 14.3867 43.36 12.04 43.36H7.84V62.6ZM31.0375 67V47.16H35.5975L36.0775 50.88C36.7975 49.6 37.7708 48.5867 38.9975 47.84C40.2508 47.0667 41.7175 46.68 43.3975 46.68V52.08H41.9575C40.8375 52.08 39.8375 52.2533 38.9575 52.6C38.0775 52.9467 37.3842 53.5467 36.8775 54.4C36.3975 55.2533 36.1575 56.44 36.1575 57.96V67H31.0375ZM56.1853 67.48C54.1853 67.48 52.412 67.0533 50.8653 66.2C49.3186 65.3467 48.1053 64.1467 47.2253 62.6C46.3453 61.0533 45.9053 59.2667 45.9053 57.24C45.9053 55.1867 46.332 53.36 47.1853 51.76C48.0653 50.16 49.2653 48.92 50.7853 48.04C52.332 47.1333 54.1453 46.68 56.2253 46.68C58.172 46.68 59.892 47.1067 61.3853 47.96C62.8786 48.8133 64.0386 49.9867 64.8653 51.48C65.7186 52.9467 66.1453 54.5867 66.1453 56.4C66.1453 56.6933 66.132 57 66.1053 57.32C66.1053 57.64 66.092 57.9733 66.0653 58.32H50.9853C51.092 59.8667 51.6253 61.08 52.5853 61.96C53.572 62.84 54.7586 63.28 56.1453 63.28C57.1853 63.28 58.052 63.0533 58.7453 62.6C59.4653 62.12 59.9986 61.5067 60.3453 60.76H65.5453C65.172 62.0133 64.5453 63.16 63.6653 64.2C62.812 65.2133 61.7453 66.0133 60.4653 66.6C59.212 67.1867 57.7853 67.48 56.1853 67.48ZM56.2253 50.84C54.972 50.84 53.8653 51.2 52.9053 51.92C51.9453 52.6133 51.332 53.68 51.0653 55.12H60.9453C60.8653 53.8133 60.3853 52.7733 59.5053 52C58.6253 51.2267 57.532 50.84 56.2253 50.84ZM77.2916 67.48C75.5849 67.48 74.1849 67.2133 73.0916 66.68C71.9982 66.12 71.1849 65.3867 70.6516 64.48C70.1182 63.5733 69.8516 62.5733 69.8516 61.48C69.8516 59.64 70.5716 58.1467 72.0116 57C73.4516 55.8533 75.6116 55.28 78.4916 55.28H83.5316V54.8C83.5316 53.44 83.1449 52.44 82.3716 51.8C81.5982 51.16 80.6382 50.84 79.4916 50.84C78.4516 50.84 77.5449 51.0933 76.7716 51.6C75.9982 52.08 75.5182 52.8 75.3316 53.76H70.3316C70.4649 52.32 70.9449 51.0667 71.7716 50C72.6249 48.9333 73.7182 48.12 75.0516 47.56C76.3849 46.9733 77.8782 46.68 79.5316 46.68C82.3582 46.68 84.5849 47.3867 86.2116 48.8C87.8382 50.2133 88.6516 52.2133 88.6516 54.8V67H84.2916L83.8116 63.8C83.2249 64.8667 82.3982 65.7467 81.3316 66.44C80.2916 67.1333 78.9449 67.48 77.2916 67.48ZM78.4516 63.48C79.9182 63.48 81.0516 63 81.8516 62.04C82.6782 61.08 83.1982 59.8933 83.4116 58.48H79.0516C77.6916 58.48 76.7182 58.7333 76.1316 59.24C75.5449 59.72 75.2516 60.32 75.2516 61.04C75.2516 61.8133 75.5449 62.4133 76.1316 62.84C76.7182 63.2667 77.4916 63.48 78.4516 63.48ZM93.5375 67V47.16H98.0575L98.4975 49.84C99.1375 48.88 99.9775 48.12 101.018 47.56C102.084 46.9733 103.311 46.68 104.698 46.68C107.764 46.68 109.938 47.8667 111.218 50.24C111.938 49.1467 112.898 48.28 114.098 47.64C115.324 47 116.658 46.68 118.098 46.68C120.684 46.68 122.671 47.4533 124.058 49C125.444 50.5467 126.138 52.8133 126.138 55.8V67H121.018V56.28C121.018 54.5733 120.684 53.2667 120.018 52.36C119.378 51.4533 118.378 51 117.018 51C115.631 51 114.511 51.5067 113.658 52.52C112.831 53.5333 112.418 54.9467 112.418 56.76V67H107.298V56.28C107.298 54.5733 106.964 53.2667 106.298 52.36C105.631 51.4533 104.604 51 103.218 51C101.858 51 100.751 51.5067 99.8975 52.52C99.0708 53.5333 98.6575 54.9467 98.6575 56.76V67H93.5375ZM147.97 67.48C145.25 67.48 143.063 66.72 141.41 65.2C139.783 63.6533 138.97 61.4667 138.97 58.64H144.09C144.116 59.9467 144.423 60.9867 145.01 61.76C145.596 62.5333 146.543 62.92 147.85 62.92C149.076 62.92 149.97 62.56 150.53 61.84C151.09 61.0933 151.37 60.12 151.37 58.92V39H156.49V58.92C156.49 61.6667 155.716 63.7867 154.17 65.28C152.65 66.7467 150.583 67.48 147.97 67.48ZM171.339 67.48C169.419 67.48 167.685 67.04 166.139 66.16C164.619 65.28 163.405 64.0667 162.499 62.52C161.619 60.9467 161.179 59.1333 161.179 57.08C161.179 55.0267 161.632 53.2267 162.539 51.68C163.445 50.1067 164.659 48.88 166.179 48C167.725 47.12 169.459 46.68 171.379 46.68C173.272 46.68 174.979 47.12 176.499 48C178.045 48.88 179.259 50.1067 180.139 51.68C181.045 53.2267 181.499 55.0267 181.499 57.08C181.499 59.1333 181.045 60.9467 180.139 62.52C179.259 64.0667 178.045 65.28 176.499 66.16C174.952 67.04 173.232 67.48 171.339 67.48ZM171.339 63.04C172.672 63.04 173.832 62.5467 174.819 61.56C175.805 60.5467 176.299 59.0533 176.299 57.08C176.299 55.1067 175.805 53.6267 174.819 52.64C173.832 51.6267 172.685 51.12 171.379 51.12C170.019 51.12 168.845 51.6267 167.859 52.64C166.899 53.6267 166.419 55.1067 166.419 57.08C166.419 59.0533 166.899 60.5467 167.859 61.56C168.845 62.5467 170.005 63.04 171.339 63.04ZM197.837 67.48C196.343 67.48 195.037 67.2 193.917 66.64C192.797 66.08 191.89 65.2933 191.197 64.28L190.637 67H186.077V38.2H191.197V50C191.837 49.12 192.677 48.3467 193.717 47.68C194.783 47.0133 196.157 46.68 197.837 46.68C199.703 46.68 201.37 47.1333 202.837 48.04C204.303 48.9467 205.463 50.1867 206.317 51.76C207.17 53.3333 207.597 55.12 207.597 57.12C207.597 59.12 207.17 60.9067 206.317 62.48C205.463 64.0267 204.303 65.2533 202.837 66.16C201.37 67.04 199.703 67.48 197.837 67.48ZM196.757 63C198.383 63 199.73 62.4533 200.797 61.36C201.863 60.2667 202.397 58.8533 202.397 57.12C202.397 55.3867 201.863 53.96 200.797 52.84C199.73 51.72 198.383 51.16 196.757 51.16C195.103 51.16 193.743 51.72 192.677 52.84C191.637 53.9333 191.117 55.3467 191.117 57.08C191.117 58.8133 191.637 60.24 192.677 61.36C193.743 62.4533 195.103 63 196.757 63Z" fill="#FCA34D"/>
<path d="M0 72H209.557V74H0V72Z" fill="#FCA34D"/>
</svg>
