<svg width="45" height="11" viewBox="0 0 45 11" fill="none" xmlns="http://www.w3.org/2000/svg">
<path d="M0.952 10V0.199999H2.744V8.6H7.084V10H0.952ZM13.2063 10.168C12.2263 10.168 11.3676 9.95333 10.6303 9.524C9.90227 9.09467 9.32827 8.502 8.90827 7.746C8.4976 6.98067 8.29227 6.09867 8.29227 5.1C8.29227 4.10133 8.4976 3.224 8.90827 2.468C9.32827 1.70267 9.90227 1.10533 10.6303 0.676C11.3676 0.246667 12.2263 0.0319998 13.2063 0.0319998C14.1769 0.0319998 15.0309 0.246667 15.7683 0.676C16.5056 1.10533 17.0796 1.70267 17.4903 2.468C17.9009 3.224 18.1063 4.10133 18.1063 5.1C18.1063 6.09867 17.9009 6.98067 17.4903 7.746C17.0796 8.502 16.5056 9.09467 15.7683 9.524C15.0309 9.95333 14.1769 10.168 13.2063 10.168ZM13.2063 8.558C14.1396 8.558 14.8816 8.25 15.4323 7.634C15.9923 7.018 16.2723 6.17333 16.2723 5.1C16.2723 4.02667 15.9923 3.182 15.4323 2.566C14.8816 1.95 14.1396 1.642 13.2063 1.642C12.2729 1.642 11.5263 1.95 10.9663 2.566C10.4063 3.182 10.1263 4.02667 10.1263 5.1C10.1263 6.17333 10.4063 7.018 10.9663 7.634C11.5263 8.25 12.2729 8.558 13.2063 8.558ZM24.8125 10.168C23.8885 10.168 23.0812 9.958 22.3905 9.538C21.6998 9.118 21.1632 8.53467 20.7805 7.788C20.3978 7.032 20.2065 6.15467 20.2065 5.156C20.2065 4.148 20.4025 3.26133 20.7945 2.496C21.1958 1.72133 21.7605 1.11933 22.4885 0.69C23.2258 0.251333 24.0985 0.0319998 25.1065 0.0319998C26.2545 0.0319998 27.2065 0.307333 27.9625 0.857999C28.7185 1.40867 29.2085 2.16933 29.4325 3.14H27.4305C27.2812 2.68267 27.0105 2.328 26.6185 2.076C26.2265 1.81467 25.7225 1.684 25.1065 1.684C24.1265 1.684 23.3705 1.99667 22.8385 2.622C22.3065 3.238 22.0405 4.08733 22.0405 5.17C22.0405 6.25267 22.3018 7.09267 22.8245 7.69C23.3565 8.278 24.0752 8.572 24.9805 8.572C25.8672 8.572 26.5345 8.334 26.9825 7.858C27.4398 7.37267 27.7152 6.738 27.8085 5.954H25.3305V4.61H29.6145V10H27.9625L27.8225 8.712C27.5052 9.17867 27.1085 9.538 26.6325 9.79C26.1565 10.042 25.5498 10.168 24.8125 10.168ZM32.1966 10V0.199999H33.9886V10H32.1966ZM36.728 10V0.199999H38.52L43.126 7.102V0.199999H44.918V10H43.126L38.52 3.112V10H36.728Z" fill="white"/>
</svg>
