<svg width="285" height="31" viewBox="0 0 285 31" fill="none" xmlns="http://www.w3.org/2000/svg">
<path d="M0.764953 9V0.599999H1.77295V8.196H5.68495V9H0.764953ZM9.46383 9.144C8.90383 9.144 8.39983 9.016 7.95183 8.76C7.50383 8.504 7.14783 8.144 6.88383 7.68C6.62783 7.208 6.49983 6.656 6.49983 6.024C6.49983 5.392 6.63183 4.844 6.89583 4.38C7.15983 3.908 7.51583 3.544 7.96383 3.288C8.41983 3.032 8.92783 2.904 9.48783 2.904C10.0478 2.904 10.5518 3.032 10.9998 3.288C11.4478 3.544 11.7998 3.908 12.0558 4.38C12.3198 4.844 12.4518 5.392 12.4518 6.024C12.4518 6.656 12.3198 7.208 12.0558 7.68C11.7918 8.144 11.4318 8.504 10.9758 8.76C10.5278 9.016 10.0238 9.144 9.46383 9.144ZM9.46383 8.28C9.80783 8.28 10.1278 8.196 10.4238 8.028C10.7198 7.86 10.9598 7.608 11.1438 7.272C11.3278 6.936 11.4198 6.52 11.4198 6.024C11.4198 5.528 11.3278 5.112 11.1438 4.776C10.9678 4.44 10.7318 4.188 10.4358 4.02C10.1398 3.852 9.82383 3.768 9.48783 3.768C9.14383 3.768 8.82383 3.852 8.52783 4.02C8.23183 4.188 7.99183 4.44 7.80783 4.776C7.62383 5.112 7.53183 5.528 7.53183 6.024C7.53183 6.52 7.62383 6.936 7.80783 7.272C7.99183 7.608 8.22783 7.86 8.51583 8.028C8.81183 8.196 9.12783 8.28 9.46383 8.28ZM13.8534 9V3.048H14.7654L14.8494 4.188C15.0334 3.796 15.3134 3.484 15.6894 3.252C16.0654 3.02 16.5294 2.904 17.0814 2.904V3.96H16.8054C16.4534 3.96 16.1294 4.024 15.8334 4.152C15.5374 4.272 15.3014 4.48 15.1254 4.776C14.9494 5.072 14.8614 5.48 14.8614 6V9H13.8534ZM20.6661 9.144C20.0981 9.144 19.5941 9.016 19.1541 8.76C18.7141 8.496 18.3661 8.132 18.1101 7.668C17.8621 7.204 17.7381 6.656 17.7381 6.024C17.7381 5.4 17.8621 4.856 18.1101 4.392C18.3581 3.92 18.7021 3.556 19.1421 3.3C19.5901 3.036 20.1061 2.904 20.6901 2.904C21.2661 2.904 21.7621 3.036 22.1781 3.3C22.6021 3.556 22.9261 3.896 23.1501 4.32C23.3741 4.744 23.4861 5.2 23.4861 5.688C23.4861 5.776 23.4821 5.864 23.4741 5.952C23.4741 6.04 23.4741 6.14 23.4741 6.252H18.7341C18.7581 6.708 18.8621 7.088 19.0461 7.392C19.2381 7.688 19.4741 7.912 19.7541 8.064C20.0421 8.216 20.3461 8.292 20.6661 8.292C21.0821 8.292 21.4301 8.196 21.7101 8.004C21.9901 7.812 22.1941 7.552 22.3221 7.224H23.3181C23.1581 7.776 22.8501 8.236 22.3941 8.604C21.9461 8.964 21.3701 9.144 20.6661 9.144ZM20.6661 3.756C20.1861 3.756 19.7581 3.904 19.3821 4.2C19.0141 4.488 18.8021 4.912 18.7461 5.472H22.4901C22.4661 4.936 22.2821 4.516 21.9381 4.212C21.5941 3.908 21.1701 3.756 20.6661 3.756ZM24.8221 9V3.048H25.7341L25.8061 3.912C25.9981 3.592 26.2541 3.344 26.5741 3.168C26.8941 2.992 27.2541 2.904 27.6541 2.904C28.1261 2.904 28.5301 3 28.8661 3.192C29.2101 3.384 29.4741 3.676 29.6581 4.068C29.8661 3.708 30.1501 3.424 30.5101 3.216C30.8781 3.008 31.2741 2.904 31.6981 2.904C32.4101 2.904 32.9781 3.12 33.4021 3.552C33.8261 3.976 34.0381 4.632 34.0381 5.52V9H33.0421V5.628C33.0421 5.012 32.9181 4.548 32.6701 4.236C32.4221 3.924 32.0661 3.768 31.6021 3.768C31.1221 3.768 30.7221 3.956 30.4021 4.332C30.0901 4.7 29.9341 5.228 29.9341 5.916V9H28.9261V5.628C28.9261 5.012 28.8021 4.548 28.5541 4.236C28.3061 3.924 27.9501 3.768 27.4861 3.768C27.0141 3.768 26.6181 3.956 26.2981 4.332C25.9861 4.7 25.8301 5.228 25.8301 5.916V9H24.8221ZM39.3443 1.728C39.1443 1.728 38.9763 1.664 38.8403 1.536C38.7123 1.4 38.6483 1.232 38.6483 1.032C38.6483 0.84 38.7123 0.68 38.8403 0.551999C38.9763 0.424 39.1443 0.36 39.3443 0.36C39.5363 0.36 39.7003 0.424 39.8363 0.551999C39.9723 0.68 40.0403 0.84 40.0403 1.032C40.0403 1.232 39.9723 1.4 39.8363 1.536C39.7003 1.664 39.5363 1.728 39.3443 1.728ZM38.8403 9V3.048H39.8483V9H38.8403ZM41.6034 11.64V3.048H42.5154L42.6114 4.032C42.8034 3.744 43.0754 3.484 43.4274 3.252C43.7874 3.02 44.2434 2.904 44.7954 2.904C45.3874 2.904 45.9034 3.04 46.3434 3.312C46.7834 3.584 47.1234 3.956 47.3634 4.428C47.6114 4.9 47.7354 5.436 47.7354 6.036C47.7354 6.636 47.6114 7.172 47.3634 7.644C47.1234 8.108 46.7794 8.476 46.3314 8.748C45.8914 9.012 45.3754 9.144 44.7834 9.144C44.2954 9.144 43.8594 9.044 43.4754 8.844C43.0994 8.644 42.8114 8.364 42.6114 8.004V11.64H41.6034ZM44.6754 8.268C45.0754 8.268 45.4274 8.176 45.7314 7.992C46.0354 7.8 46.2754 7.536 46.4514 7.2C46.6274 6.864 46.7154 6.472 46.7154 6.024C46.7154 5.576 46.6274 5.184 46.4514 4.848C46.2754 4.512 46.0354 4.252 45.7314 4.068C45.4274 3.876 45.0754 3.78 44.6754 3.78C44.2754 3.78 43.9234 3.876 43.6194 4.068C43.3154 4.252 43.0754 4.512 42.8994 4.848C42.7234 5.184 42.6354 5.576 42.6354 6.024C42.6354 6.472 42.7234 6.864 42.8994 7.2C43.0754 7.536 43.3154 7.8 43.6194 7.992C43.9234 8.176 44.2754 8.268 44.6754 8.268ZM51.4185 9.144C50.7065 9.144 50.1145 8.964 49.6425 8.604C49.1705 8.244 48.8945 7.756 48.8145 7.14H49.8465C49.9105 7.452 50.0745 7.724 50.3385 7.956C50.6105 8.18 50.9745 8.292 51.4305 8.292C51.8545 8.292 52.1665 8.204 52.3665 8.028C52.5665 7.844 52.6665 7.628 52.6665 7.38C52.6665 7.02 52.5345 6.78 52.2705 6.66C52.0145 6.54 51.6505 6.432 51.1785 6.336C50.8585 6.272 50.5385 6.18 50.2185 6.06C49.8985 5.94 49.6305 5.772 49.4145 5.556C49.1985 5.332 49.0905 5.04 49.0905 4.68C49.0905 4.16 49.2825 3.736 49.6665 3.408C50.0585 3.072 50.5865 2.904 51.2505 2.904C51.8825 2.904 52.3985 3.064 52.7985 3.384C53.2065 3.696 53.4425 4.144 53.5065 4.728H52.5105C52.4705 4.424 52.3385 4.188 52.1145 4.02C51.8985 3.844 51.6065 3.756 51.2385 3.756C50.8785 3.756 50.5985 3.832 50.3985 3.984C50.2065 4.136 50.1105 4.336 50.1105 4.584C50.1105 4.824 50.2345 5.012 50.4825 5.148C50.7385 5.284 51.0825 5.4 51.5145 5.496C51.8825 5.576 52.2305 5.676 52.5585 5.796C52.8945 5.908 53.1665 6.08 53.3745 6.312C53.5905 6.536 53.6985 6.864 53.6985 7.296C53.7065 7.832 53.5025 8.276 53.0865 8.628C52.6785 8.972 52.1225 9.144 51.4185 9.144ZM57.3105 9.144C56.6065 9.144 56.0465 8.932 55.6305 8.508C55.2145 8.076 55.0065 7.416 55.0065 6.528V3.048H56.0145V6.42C56.0145 7.66 56.5225 8.28 57.5385 8.28C58.0585 8.28 58.4865 8.096 58.8225 7.728C59.1665 7.352 59.3385 6.82 59.3385 6.132V3.048H60.3465V9H59.4345L59.3625 7.932C59.1785 8.308 58.9025 8.604 58.5345 8.82C58.1745 9.036 57.7665 9.144 57.3105 9.144ZM62.0057 9V3.048H62.9177L62.9897 3.912C63.1817 3.592 63.4377 3.344 63.7577 3.168C64.0777 2.992 64.4377 2.904 64.8377 2.904C65.3097 2.904 65.7137 3 66.0497 3.192C66.3937 3.384 66.6577 3.676 66.8417 4.068C67.0497 3.708 67.3337 3.424 67.6937 3.216C68.0617 3.008 68.4577 2.904 68.8817 2.904C69.5937 2.904 70.1617 3.12 70.5857 3.552C71.0097 3.976 71.2217 4.632 71.2217 5.52V9H70.2257V5.628C70.2257 5.012 70.1017 4.548 69.8537 4.236C69.6057 3.924 69.2497 3.768 68.7857 3.768C68.3057 3.768 67.9057 3.956 67.5857 4.332C67.2737 4.7 67.1177 5.228 67.1177 5.916V9H66.1097V5.628C66.1097 5.012 65.9857 4.548 65.7377 4.236C65.4897 3.924 65.1337 3.768 64.6697 3.768C64.1977 3.768 63.8017 3.956 63.4817 4.332C63.1697 4.7 63.0137 5.228 63.0137 5.916V9H62.0057ZM78.6159 9.144C78.0239 9.144 77.5039 9.008 77.0559 8.736C76.6159 8.464 76.2719 8.092 76.0239 7.62C75.7839 7.148 75.6639 6.612 75.6639 6.012C75.6639 5.412 75.7879 4.88 76.0359 4.416C76.2839 3.944 76.6279 3.576 77.0679 3.312C77.5079 3.04 78.0279 2.904 78.6279 2.904C79.1159 2.904 79.5479 3.004 79.9239 3.204C80.2999 3.404 80.5919 3.684 80.7999 4.044V0.36H81.8079V9H80.8959L80.7999 8.016C80.6079 8.304 80.3319 8.564 79.9719 8.796C79.6119 9.028 79.1599 9.144 78.6159 9.144ZM78.7239 8.268C79.1239 8.268 79.4759 8.176 79.7799 7.992C80.0919 7.8 80.3319 7.536 80.4999 7.2C80.6759 6.864 80.7639 6.472 80.7639 6.024C80.7639 5.576 80.6759 5.184 80.4999 4.848C80.3319 4.512 80.0919 4.252 79.7799 4.068C79.4759 3.876 79.1239 3.78 78.7239 3.78C78.3319 3.78 77.9799 3.876 77.6679 4.068C77.3639 4.252 77.1239 4.512 76.9479 4.848C76.7799 5.184 76.6959 5.576 76.6959 6.024C76.6959 6.472 76.7799 6.864 76.9479 7.2C77.1239 7.536 77.3639 7.8 77.6679 7.992C77.9799 8.176 78.3319 8.268 78.7239 8.268ZM86.163 9.144C85.603 9.144 85.099 9.016 84.651 8.76C84.203 8.504 83.847 8.144 83.583 7.68C83.327 7.208 83.199 6.656 83.199 6.024C83.199 5.392 83.331 4.844 83.595 4.38C83.859 3.908 84.215 3.544 84.663 3.288C85.119 3.032 85.627 2.904 86.187 2.904C86.747 2.904 87.251 3.032 87.699 3.288C88.147 3.544 88.499 3.908 88.755 4.38C89.019 4.844 89.151 5.392 89.151 6.024C89.151 6.656 89.019 7.208 88.755 7.68C88.491 8.144 88.131 8.504 87.675 8.76C87.227 9.016 86.723 9.144 86.163 9.144ZM86.163 8.28C86.507 8.28 86.827 8.196 87.123 8.028C87.419 7.86 87.659 7.608 87.843 7.272C88.027 6.936 88.119 6.52 88.119 6.024C88.119 5.528 88.027 5.112 87.843 4.776C87.667 4.44 87.431 4.188 87.135 4.02C86.839 3.852 86.523 3.768 86.187 3.768C85.843 3.768 85.523 3.852 85.227 4.02C84.931 4.188 84.691 4.44 84.507 4.776C84.323 5.112 84.231 5.528 84.231 6.024C84.231 6.52 84.323 6.936 84.507 7.272C84.691 7.608 84.927 7.86 85.215 8.028C85.511 8.196 85.827 8.28 86.163 8.28ZM90.5526 9V0.36H91.5606V9H90.5526ZM95.9248 9.144C95.3648 9.144 94.8608 9.016 94.4128 8.76C93.9648 8.504 93.6088 8.144 93.3448 7.68C93.0888 7.208 92.9608 6.656 92.9608 6.024C92.9608 5.392 93.0928 4.844 93.3568 4.38C93.6208 3.908 93.9768 3.544 94.4248 3.288C94.8808 3.032 95.3888 2.904 95.9488 2.904C96.5088 2.904 97.0128 3.032 97.4608 3.288C97.9088 3.544 98.2608 3.908 98.5168 4.38C98.7808 4.844 98.9128 5.392 98.9128 6.024C98.9128 6.656 98.7808 7.208 98.5168 7.68C98.2528 8.144 97.8928 8.504 97.4368 8.76C96.9888 9.016 96.4848 9.144 95.9248 9.144ZM95.9248 8.28C96.2688 8.28 96.5888 8.196 96.8848 8.028C97.1808 7.86 97.4208 7.608 97.6048 7.272C97.7888 6.936 97.8808 6.52 97.8808 6.024C97.8808 5.528 97.7888 5.112 97.6048 4.776C97.4288 4.44 97.1928 4.188 96.8968 4.02C96.6008 3.852 96.2848 3.768 95.9488 3.768C95.6048 3.768 95.2848 3.852 94.9888 4.02C94.6928 4.188 94.4528 4.44 94.2688 4.776C94.0848 5.112 93.9928 5.528 93.9928 6.024C93.9928 6.52 94.0848 6.936 94.2688 7.272C94.4528 7.608 94.6888 7.86 94.9768 8.028C95.2728 8.196 95.5888 8.28 95.9248 8.28ZM100.314 9V3.048H101.226L101.31 4.188C101.494 3.796 101.774 3.484 102.15 3.252C102.526 3.02 102.99 2.904 103.542 2.904V3.96H103.266C102.914 3.96 102.59 4.024 102.294 4.152C101.998 4.272 101.762 4.48 101.586 4.776C101.41 5.072 101.322 5.48 101.322 6V9H100.314ZM110.129 9.144C109.417 9.144 108.825 8.964 108.353 8.604C107.881 8.244 107.605 7.756 107.525 7.14H108.557C108.621 7.452 108.785 7.724 109.049 7.956C109.321 8.18 109.685 8.292 110.141 8.292C110.565 8.292 110.877 8.204 111.077 8.028C111.277 7.844 111.377 7.628 111.377 7.38C111.377 7.02 111.245 6.78 110.981 6.66C110.725 6.54 110.361 6.432 109.889 6.336C109.569 6.272 109.249 6.18 108.929 6.06C108.609 5.94 108.341 5.772 108.125 5.556C107.909 5.332 107.801 5.04 107.801 4.68C107.801 4.16 107.993 3.736 108.377 3.408C108.769 3.072 109.297 2.904 109.961 2.904C110.593 2.904 111.109 3.064 111.509 3.384C111.917 3.696 112.153 4.144 112.217 4.728H111.221C111.181 4.424 111.049 4.188 110.825 4.02C110.609 3.844 110.317 3.756 109.949 3.756C109.589 3.756 109.309 3.832 109.109 3.984C108.917 4.136 108.821 4.336 108.821 4.584C108.821 4.824 108.945 5.012 109.193 5.148C109.449 5.284 109.793 5.4 110.225 5.496C110.593 5.576 110.941 5.676 111.269 5.796C111.605 5.908 111.877 6.08 112.085 6.312C112.301 6.536 112.409 6.864 112.409 7.296C112.417 7.832 112.213 8.276 111.797 8.628C111.389 8.972 110.833 9.144 110.129 9.144ZM114.461 1.728C114.261 1.728 114.093 1.664 113.957 1.536C113.829 1.4 113.765 1.232 113.765 1.032C113.765 0.84 113.829 0.68 113.957 0.551999C114.093 0.424 114.261 0.36 114.461 0.36C114.653 0.36 114.817 0.424 114.953 0.551999C115.089 0.68 115.157 0.84 115.157 1.032C115.157 1.232 115.089 1.4 114.953 1.536C114.817 1.664 114.653 1.728 114.461 1.728ZM113.957 9V3.048H114.965V9H113.957ZM119.073 9C118.529 9 118.101 8.868 117.789 8.604C117.477 8.34 117.321 7.864 117.321 7.176V3.9H116.289V3.048H117.321L117.453 1.62H118.329V3.048H120.081V3.9H118.329V7.176C118.329 7.552 118.405 7.808 118.557 7.944C118.709 8.072 118.977 8.136 119.361 8.136H119.985V9H119.073ZM126.517 9.144C126.021 9.144 125.609 9.06 125.281 8.892C124.953 8.724 124.709 8.5 124.549 8.22C124.389 7.94 124.309 7.636 124.309 7.308C124.309 6.7 124.541 6.232 125.005 5.904C125.469 5.576 126.101 5.412 126.901 5.412H128.509V5.34C128.509 4.82 128.373 4.428 128.101 4.164C127.829 3.892 127.465 3.756 127.009 3.756C126.617 3.756 126.277 3.856 125.989 4.056C125.709 4.248 125.533 4.532 125.461 4.908H124.429C124.469 4.476 124.613 4.112 124.861 3.816C125.117 3.52 125.433 3.296 125.809 3.144C126.185 2.984 126.585 2.904 127.009 2.904C127.841 2.904 128.465 3.128 128.881 3.576C129.305 4.016 129.517 4.604 129.517 5.34V9H128.617L128.557 7.932C128.389 8.268 128.141 8.556 127.813 8.796C127.493 9.028 127.061 9.144 126.517 9.144ZM126.673 8.292C127.057 8.292 127.385 8.192 127.657 7.992C127.937 7.792 128.149 7.532 128.293 7.212C128.437 6.892 128.509 6.556 128.509 6.204V6.192H126.985C126.393 6.192 125.973 6.296 125.725 6.504C125.485 6.704 125.365 6.956 125.365 7.26C125.365 7.572 125.477 7.824 125.701 8.016C125.933 8.2 126.257 8.292 126.673 8.292ZM131.029 9V3.048H131.941L132.013 3.912C132.205 3.592 132.461 3.344 132.781 3.168C133.101 2.992 133.461 2.904 133.861 2.904C134.333 2.904 134.737 3 135.073 3.192C135.417 3.384 135.681 3.676 135.865 4.068C136.073 3.708 136.357 3.424 136.717 3.216C137.085 3.008 137.481 2.904 137.905 2.904C138.617 2.904 139.185 3.12 139.609 3.552C140.033 3.976 140.245 4.632 140.245 5.52V9H139.249V5.628C139.249 5.012 139.125 4.548 138.877 4.236C138.629 3.924 138.273 3.768 137.809 3.768C137.329 3.768 136.929 3.956 136.609 4.332C136.297 4.7 136.141 5.228 136.141 5.916V9H135.133V5.628C135.133 5.012 135.009 4.548 134.761 4.236C134.513 3.924 134.157 3.768 133.693 3.768C133.221 3.768 132.825 3.956 132.505 4.332C132.193 4.7 132.037 5.228 132.037 5.916V9H131.029ZM144.44 9.144C143.872 9.144 143.368 9.016 142.928 8.76C142.488 8.496 142.14 8.132 141.884 7.668C141.636 7.204 141.512 6.656 141.512 6.024C141.512 5.4 141.636 4.856 141.884 4.392C142.132 3.92 142.476 3.556 142.916 3.3C143.364 3.036 143.88 2.904 144.464 2.904C145.04 2.904 145.536 3.036 145.952 3.3C146.376 3.556 146.7 3.896 146.924 4.32C147.148 4.744 147.26 5.2 147.26 5.688C147.26 5.776 147.256 5.864 147.248 5.952C147.248 6.04 147.248 6.14 147.248 6.252H142.508C142.532 6.708 142.636 7.088 142.82 7.392C143.012 7.688 143.248 7.912 143.528 8.064C143.816 8.216 144.12 8.292 144.44 8.292C144.856 8.292 145.204 8.196 145.484 8.004C145.764 7.812 145.968 7.552 146.096 7.224H147.092C146.932 7.776 146.624 8.236 146.168 8.604C145.72 8.964 145.144 9.144 144.44 9.144ZM144.44 3.756C143.96 3.756 143.532 3.904 143.156 4.2C142.788 4.488 142.576 4.912 142.52 5.472H146.264C146.24 4.936 146.056 4.516 145.712 4.212C145.368 3.908 144.944 3.756 144.44 3.756ZM150.748 9C150.204 9 149.776 8.868 149.464 8.604C149.152 8.34 148.996 7.864 148.996 7.176V3.9H147.964V3.048H148.996L149.128 1.62H150.004V3.048H151.756V3.9H150.004V7.176C150.004 7.552 150.08 7.808 150.232 7.944C150.384 8.072 150.652 8.136 151.036 8.136H151.66V9H150.748ZM152.854 10.428L153.55 7.776H154.594L153.55 10.428H152.854ZM161.703 9.144C161.135 9.144 160.623 9.016 160.167 8.76C159.719 8.496 159.363 8.132 159.099 7.668C158.843 7.196 158.715 6.648 158.715 6.024C158.715 5.4 158.843 4.856 159.099 4.392C159.363 3.92 159.719 3.556 160.167 3.3C160.623 3.036 161.135 2.904 161.703 2.904C162.407 2.904 162.999 3.088 163.479 3.456C163.967 3.824 164.275 4.316 164.403 4.932H163.371C163.291 4.564 163.095 4.28 162.783 4.08C162.471 3.872 162.107 3.768 161.691 3.768C161.355 3.768 161.039 3.852 160.743 4.02C160.447 4.188 160.207 4.44 160.023 4.776C159.839 5.112 159.747 5.528 159.747 6.024C159.747 6.52 159.839 6.936 160.023 7.272C160.207 7.608 160.447 7.864 160.743 8.04C161.039 8.208 161.355 8.292 161.691 8.292C162.107 8.292 162.471 8.192 162.783 7.992C163.095 7.784 163.291 7.492 163.371 7.116H164.403C164.283 7.716 163.979 8.204 163.491 8.58C163.003 8.956 162.407 9.144 161.703 9.144ZM168.522 9.144C167.962 9.144 167.458 9.016 167.01 8.76C166.562 8.504 166.206 8.144 165.942 7.68C165.686 7.208 165.558 6.656 165.558 6.024C165.558 5.392 165.69 4.844 165.954 4.38C166.218 3.908 166.574 3.544 167.022 3.288C167.478 3.032 167.986 2.904 168.546 2.904C169.106 2.904 169.61 3.032 170.058 3.288C170.506 3.544 170.858 3.908 171.114 4.38C171.378 4.844 171.51 5.392 171.51 6.024C171.51 6.656 171.378 7.208 171.114 7.68C170.85 8.144 170.49 8.504 170.034 8.76C169.586 9.016 169.082 9.144 168.522 9.144ZM168.522 8.28C168.866 8.28 169.186 8.196 169.482 8.028C169.778 7.86 170.018 7.608 170.202 7.272C170.386 6.936 170.478 6.52 170.478 6.024C170.478 5.528 170.386 5.112 170.202 4.776C170.026 4.44 169.79 4.188 169.494 4.02C169.198 3.852 168.882 3.768 168.546 3.768C168.202 3.768 167.882 3.852 167.586 4.02C167.29 4.188 167.05 4.44 166.866 4.776C166.682 5.112 166.59 5.528 166.59 6.024C166.59 6.52 166.682 6.936 166.866 7.272C167.05 7.608 167.286 7.86 167.574 8.028C167.87 8.196 168.186 8.28 168.522 8.28ZM172.912 9V3.048H173.824L173.884 4.116C174.076 3.74 174.352 3.444 174.712 3.228C175.072 3.012 175.48 2.904 175.936 2.904C176.64 2.904 177.2 3.12 177.616 3.552C178.04 3.976 178.252 4.632 178.252 5.52V9H177.244V5.628C177.244 4.388 176.732 3.768 175.708 3.768C175.196 3.768 174.768 3.956 174.424 4.332C174.088 4.7 173.92 5.228 173.92 5.916V9H172.912ZM182.059 9.144C181.347 9.144 180.755 8.964 180.283 8.604C179.811 8.244 179.535 7.756 179.455 7.14H180.487C180.551 7.452 180.715 7.724 180.979 7.956C181.251 8.18 181.615 8.292 182.071 8.292C182.495 8.292 182.807 8.204 183.007 8.028C183.207 7.844 183.307 7.628 183.307 7.38C183.307 7.02 183.175 6.78 182.911 6.66C182.655 6.54 182.291 6.432 181.819 6.336C181.499 6.272 181.179 6.18 180.859 6.06C180.539 5.94 180.271 5.772 180.055 5.556C179.839 5.332 179.731 5.04 179.731 4.68C179.731 4.16 179.923 3.736 180.307 3.408C180.699 3.072 181.227 2.904 181.891 2.904C182.523 2.904 183.039 3.064 183.439 3.384C183.847 3.696 184.083 4.144 184.147 4.728H183.151C183.111 4.424 182.979 4.188 182.755 4.02C182.539 3.844 182.247 3.756 181.879 3.756C181.519 3.756 181.239 3.832 181.039 3.984C180.847 4.136 180.751 4.336 180.751 4.584C180.751 4.824 180.875 5.012 181.123 5.148C181.379 5.284 181.723 5.4 182.155 5.496C182.523 5.576 182.871 5.676 183.199 5.796C183.535 5.908 183.807 6.08 184.015 6.312C184.231 6.536 184.339 6.864 184.339 7.296C184.347 7.832 184.143 8.276 183.727 8.628C183.319 8.972 182.763 9.144 182.059 9.144ZM188.455 9.144C187.887 9.144 187.383 9.016 186.943 8.76C186.503 8.496 186.155 8.132 185.899 7.668C185.651 7.204 185.527 6.656 185.527 6.024C185.527 5.4 185.651 4.856 185.899 4.392C186.147 3.92 186.491 3.556 186.931 3.3C187.379 3.036 187.895 2.904 188.479 2.904C189.055 2.904 189.551 3.036 189.967 3.3C190.391 3.556 190.715 3.896 190.939 4.32C191.163 4.744 191.275 5.2 191.275 5.688C191.275 5.776 191.271 5.864 191.263 5.952C191.263 6.04 191.263 6.14 191.263 6.252H186.523C186.547 6.708 186.651 7.088 186.835 7.392C187.027 7.688 187.263 7.912 187.543 8.064C187.831 8.216 188.135 8.292 188.455 8.292C188.871 8.292 189.219 8.196 189.499 8.004C189.779 7.812 189.983 7.552 190.111 7.224H191.107C190.947 7.776 190.639 8.236 190.183 8.604C189.735 8.964 189.159 9.144 188.455 9.144ZM188.455 3.756C187.975 3.756 187.547 3.904 187.171 4.2C186.803 4.488 186.591 4.912 186.535 5.472H190.279C190.255 4.936 190.071 4.516 189.727 4.212C189.383 3.908 188.959 3.756 188.455 3.756ZM195.347 9.144C194.779 9.144 194.267 9.016 193.811 8.76C193.363 8.496 193.007 8.132 192.743 7.668C192.487 7.196 192.359 6.648 192.359 6.024C192.359 5.4 192.487 4.856 192.743 4.392C193.007 3.92 193.363 3.556 193.811 3.3C194.267 3.036 194.779 2.904 195.347 2.904C196.051 2.904 196.643 3.088 197.123 3.456C197.611 3.824 197.919 4.316 198.047 4.932H197.015C196.935 4.564 196.739 4.28 196.427 4.08C196.115 3.872 195.751 3.768 195.335 3.768C194.999 3.768 194.683 3.852 194.387 4.02C194.091 4.188 193.851 4.44 193.667 4.776C193.483 5.112 193.391 5.528 193.391 6.024C193.391 6.52 193.483 6.936 193.667 7.272C193.851 7.608 194.091 7.864 194.387 8.04C194.683 8.208 194.999 8.292 195.335 8.292C195.751 8.292 196.115 8.192 196.427 7.992C196.739 7.784 196.935 7.492 197.015 7.116H198.047C197.927 7.716 197.623 8.204 197.135 8.58C196.647 8.956 196.051 9.144 195.347 9.144ZM201.643 9C201.099 9 200.671 8.868 200.359 8.604C200.047 8.34 199.891 7.864 199.891 7.176V3.9H198.859V3.048H199.891L200.023 1.62H200.899V3.048H202.651V3.9H200.899V7.176C200.899 7.552 200.975 7.808 201.127 7.944C201.279 8.072 201.547 8.136 201.931 8.136H202.555V9H201.643ZM206.443 9.144C205.875 9.144 205.371 9.016 204.931 8.76C204.491 8.496 204.143 8.132 203.887 7.668C203.639 7.204 203.515 6.656 203.515 6.024C203.515 5.4 203.639 4.856 203.887 4.392C204.135 3.92 204.479 3.556 204.919 3.3C205.367 3.036 205.883 2.904 206.467 2.904C207.043 2.904 207.539 3.036 207.955 3.3C208.379 3.556 208.703 3.896 208.927 4.32C209.151 4.744 209.263 5.2 209.263 5.688C209.263 5.776 209.259 5.864 209.251 5.952C209.251 6.04 209.251 6.14 209.251 6.252H204.511C204.535 6.708 204.639 7.088 204.823 7.392C205.015 7.688 205.251 7.912 205.531 8.064C205.819 8.216 206.123 8.292 206.443 8.292C206.859 8.292 207.207 8.196 207.487 8.004C207.767 7.812 207.971 7.552 208.099 7.224H209.095C208.935 7.776 208.627 8.236 208.171 8.604C207.723 8.964 207.147 9.144 206.443 9.144ZM206.443 3.756C205.963 3.756 205.535 3.904 205.159 4.2C204.791 4.488 204.579 4.912 204.523 5.472H208.267C208.243 4.936 208.059 4.516 207.715 4.212C207.371 3.908 206.947 3.756 206.443 3.756ZM212.752 9C212.208 9 211.78 8.868 211.468 8.604C211.156 8.34 211 7.864 211 7.176V3.9H209.968V3.048H211L211.132 1.62H212.008V3.048H213.76V3.9H212.008V7.176C212.008 7.552 212.084 7.808 212.236 7.944C212.388 8.072 212.656 8.136 213.04 8.136H213.664V9H212.752ZM217.213 9.144C216.509 9.144 215.949 8.932 215.533 8.508C215.117 8.076 214.909 7.416 214.909 6.528V3.048H215.917V6.42C215.917 7.66 216.425 8.28 217.441 8.28C217.961 8.28 218.389 8.096 218.725 7.728C219.069 7.352 219.241 6.82 219.241 6.132V3.048H220.249V9H219.337L219.265 7.932C219.081 8.308 218.805 8.604 218.437 8.82C218.077 9.036 217.669 9.144 217.213 9.144ZM221.908 9V3.048H222.82L222.904 4.188C223.088 3.796 223.368 3.484 223.744 3.252C224.12 3.02 224.584 2.904 225.136 2.904V3.96H224.86C224.508 3.96 224.184 4.024 223.888 4.152C223.592 4.272 223.356 4.48 223.18 4.776C223.004 5.072 222.916 5.48 222.916 6V9H221.908ZM231.423 9.144C230.927 9.144 230.515 9.06 230.187 8.892C229.859 8.724 229.615 8.5 229.455 8.22C229.295 7.94 229.215 7.636 229.215 7.308C229.215 6.7 229.447 6.232 229.911 5.904C230.375 5.576 231.007 5.412 231.807 5.412H233.415V5.34C233.415 4.82 233.279 4.428 233.007 4.164C232.735 3.892 232.371 3.756 231.915 3.756C231.523 3.756 231.183 3.856 230.895 4.056C230.615 4.248 230.439 4.532 230.367 4.908H229.335C229.375 4.476 229.519 4.112 229.767 3.816C230.023 3.52 230.339 3.296 230.715 3.144C231.091 2.984 231.491 2.904 231.915 2.904C232.747 2.904 233.371 3.128 233.787 3.576C234.211 4.016 234.423 4.604 234.423 5.34V9H233.523L233.463 7.932C233.295 8.268 233.047 8.556 232.719 8.796C232.399 9.028 231.967 9.144 231.423 9.144ZM231.579 8.292C231.963 8.292 232.291 8.192 232.563 7.992C232.843 7.792 233.055 7.532 233.199 7.212C233.343 6.892 233.415 6.556 233.415 6.204V6.192H231.891C231.299 6.192 230.879 6.296 230.631 6.504C230.391 6.704 230.271 6.956 230.271 7.26C230.271 7.572 230.383 7.824 230.607 8.016C230.839 8.2 231.163 8.292 231.579 8.292ZM238.635 9.144C238.043 9.144 237.523 9.008 237.075 8.736C236.635 8.464 236.291 8.092 236.043 7.62C235.803 7.148 235.683 6.612 235.683 6.012C235.683 5.412 235.807 4.88 236.055 4.416C236.303 3.944 236.647 3.576 237.087 3.312C237.527 3.04 238.047 2.904 238.647 2.904C239.135 2.904 239.567 3.004 239.943 3.204C240.319 3.404 240.611 3.684 240.819 4.044V0.36H241.827V9H240.915L240.819 8.016C240.627 8.304 240.351 8.564 239.991 8.796C239.631 9.028 239.179 9.144 238.635 9.144ZM238.743 8.268C239.143 8.268 239.495 8.176 239.799 7.992C240.111 7.8 240.351 7.536 240.519 7.2C240.695 6.864 240.783 6.472 240.783 6.024C240.783 5.576 240.695 5.184 240.519 4.848C240.351 4.512 240.111 4.252 239.799 4.068C239.495 3.876 239.143 3.78 238.743 3.78C238.351 3.78 237.999 3.876 237.687 4.068C237.383 4.252 237.143 4.512 236.967 4.848C236.799 5.184 236.715 5.576 236.715 6.024C236.715 6.472 236.799 6.864 236.967 7.2C237.143 7.536 237.383 7.8 237.687 7.992C237.999 8.176 238.351 8.268 238.743 8.268ZM244.083 1.728C243.883 1.728 243.715 1.664 243.579 1.536C243.451 1.4 243.387 1.232 243.387 1.032C243.387 0.84 243.451 0.68 243.579 0.551999C243.715 0.424 243.883 0.36 244.083 0.36C244.275 0.36 244.439 0.424 244.575 0.551999C244.711 0.68 244.779 0.84 244.779 1.032C244.779 1.232 244.711 1.4 244.575 1.536C244.439 1.664 244.275 1.728 244.083 1.728ZM243.579 9V3.048H244.587V9H243.579ZM246.342 11.64V3.048H247.254L247.35 4.032C247.542 3.744 247.814 3.484 248.166 3.252C248.526 3.02 248.982 2.904 249.534 2.904C250.126 2.904 250.642 3.04 251.082 3.312C251.522 3.584 251.862 3.956 252.102 4.428C252.35 4.9 252.474 5.436 252.474 6.036C252.474 6.636 252.35 7.172 252.102 7.644C251.862 8.108 251.518 8.476 251.07 8.748C250.63 9.012 250.114 9.144 249.522 9.144C249.034 9.144 248.598 9.044 248.214 8.844C247.838 8.644 247.55 8.364 247.35 8.004V11.64H246.342ZM249.414 8.268C249.814 8.268 250.166 8.176 250.47 7.992C250.774 7.8 251.014 7.536 251.19 7.2C251.366 6.864 251.454 6.472 251.454 6.024C251.454 5.576 251.366 5.184 251.19 4.848C251.014 4.512 250.774 4.252 250.47 4.068C250.166 3.876 249.814 3.78 249.414 3.78C249.014 3.78 248.662 3.876 248.358 4.068C248.054 4.252 247.814 4.512 247.638 4.848C247.462 5.184 247.374 5.576 247.374 6.024C247.374 6.472 247.462 6.864 247.638 7.2C247.814 7.536 248.054 7.8 248.358 7.992C248.662 8.176 249.014 8.268 249.414 8.268ZM254.489 1.728C254.289 1.728 254.121 1.664 253.985 1.536C253.857 1.4 253.793 1.232 253.793 1.032C253.793 0.84 253.857 0.68 253.985 0.551999C254.121 0.424 254.289 0.36 254.489 0.36C254.681 0.36 254.845 0.424 254.981 0.551999C255.117 0.68 255.185 0.84 255.185 1.032C255.185 1.232 255.117 1.4 254.981 1.536C254.845 1.664 254.681 1.728 254.489 1.728ZM253.985 9V3.048H254.993V9H253.985ZM259.028 9.144C258.316 9.144 257.724 8.964 257.252 8.604C256.78 8.244 256.504 7.756 256.424 7.14H257.456C257.52 7.452 257.684 7.724 257.948 7.956C258.22 8.18 258.584 8.292 259.04 8.292C259.464 8.292 259.776 8.204 259.976 8.028C260.176 7.844 260.276 7.628 260.276 7.38C260.276 7.02 260.144 6.78 259.88 6.66C259.624 6.54 259.26 6.432 258.788 6.336C258.468 6.272 258.148 6.18 257.828 6.06C257.508 5.94 257.24 5.772 257.024 5.556C256.808 5.332 256.7 5.04 256.7 4.68C256.7 4.16 256.892 3.736 257.276 3.408C257.668 3.072 258.196 2.904 258.86 2.904C259.492 2.904 260.008 3.064 260.408 3.384C260.816 3.696 261.052 4.144 261.116 4.728H260.12C260.08 4.424 259.948 4.188 259.724 4.02C259.508 3.844 259.216 3.756 258.848 3.756C258.488 3.756 258.208 3.832 258.008 3.984C257.816 4.136 257.72 4.336 257.72 4.584C257.72 4.824 257.844 5.012 258.092 5.148C258.348 5.284 258.692 5.4 259.124 5.496C259.492 5.576 259.84 5.676 260.168 5.796C260.504 5.908 260.776 6.08 260.984 6.312C261.2 6.536 261.308 6.864 261.308 7.296C261.316 7.832 261.112 8.276 260.696 8.628C260.288 8.972 259.732 9.144 259.028 9.144ZM265.484 9.144C264.916 9.144 264.404 9.016 263.948 8.76C263.5 8.496 263.144 8.132 262.88 7.668C262.624 7.196 262.496 6.648 262.496 6.024C262.496 5.4 262.624 4.856 262.88 4.392C263.144 3.92 263.5 3.556 263.948 3.3C264.404 3.036 264.916 2.904 265.484 2.904C266.188 2.904 266.78 3.088 267.26 3.456C267.748 3.824 268.056 4.316 268.184 4.932H267.152C267.072 4.564 266.876 4.28 266.564 4.08C266.252 3.872 265.888 3.768 265.472 3.768C265.136 3.768 264.82 3.852 264.524 4.02C264.228 4.188 263.988 4.44 263.804 4.776C263.62 5.112 263.528 5.528 263.528 6.024C263.528 6.52 263.62 6.936 263.804 7.272C263.988 7.608 264.228 7.864 264.524 8.04C264.82 8.208 265.136 8.292 265.472 8.292C265.888 8.292 266.252 8.192 266.564 7.992C266.876 7.784 267.072 7.492 267.152 7.116H268.184C268.064 7.716 267.76 8.204 267.272 8.58C266.784 8.956 266.188 9.144 265.484 9.144ZM270.204 1.728C270.004 1.728 269.836 1.664 269.7 1.536C269.572 1.4 269.508 1.232 269.508 1.032C269.508 0.84 269.572 0.68 269.7 0.551999C269.836 0.424 270.004 0.36 270.204 0.36C270.396 0.36 270.56 0.424 270.696 0.551999C270.832 0.68 270.9 0.84 270.9 1.032C270.9 1.232 270.832 1.4 270.696 1.536C270.56 1.664 270.396 1.728 270.204 1.728ZM269.7 9V3.048H270.708V9H269.7ZM272.463 9V3.048H273.375L273.435 4.116C273.627 3.74 273.903 3.444 274.263 3.228C274.623 3.012 275.031 2.904 275.487 2.904C276.191 2.904 276.751 3.12 277.167 3.552C277.591 3.976 277.803 4.632 277.803 5.52V9H276.795V5.628C276.795 4.388 276.283 3.768 275.259 3.768C274.747 3.768 274.319 3.956 273.975 4.332C273.639 4.7 273.471 5.228 273.471 5.916V9H272.463ZM281.682 7.128C281.346 7.128 281.038 7.084 280.758 6.996L280.158 7.56C280.246 7.624 280.354 7.68 280.482 7.728C280.618 7.768 280.81 7.808 281.058 7.848C281.306 7.88 281.654 7.916 282.102 7.956C282.902 8.012 283.474 8.196 283.818 8.508C284.162 8.82 284.334 9.228 284.334 9.732C284.334 10.076 284.238 10.404 284.046 10.716C283.862 11.028 283.574 11.284 283.182 11.484C282.798 11.684 282.302 11.784 281.694 11.784C281.158 11.784 280.682 11.712 280.266 11.568C279.85 11.432 279.526 11.22 279.294 10.932C279.062 10.652 278.946 10.296 278.946 9.864C278.946 9.64 279.006 9.396 279.126 9.132C279.246 8.876 279.47 8.632 279.798 8.4C279.622 8.328 279.47 8.252 279.342 8.172C279.222 8.084 279.11 7.988 279.006 7.884V7.608L280.026 6.6C279.554 6.2 279.318 5.672 279.318 5.016C279.318 4.624 279.41 4.268 279.594 3.948C279.778 3.628 280.046 3.376 280.398 3.192C280.75 3 281.178 2.904 281.682 2.904C282.026 2.904 282.338 2.952 282.618 3.048H284.814V3.804L283.698 3.852C283.93 4.188 284.046 4.576 284.046 5.016C284.046 5.408 283.95 5.764 283.758 6.084C283.574 6.404 283.306 6.66 282.954 6.852C282.61 7.036 282.186 7.128 281.682 7.128ZM281.682 6.3C282.106 6.3 282.442 6.192 282.69 5.976C282.946 5.752 283.074 5.432 283.074 5.016C283.074 4.608 282.946 4.296 282.69 4.08C282.442 3.856 282.106 3.744 281.682 3.744C281.25 3.744 280.906 3.856 280.65 4.08C280.402 4.296 280.278 4.608 280.278 5.016C280.278 5.432 280.402 5.752 280.65 5.976C280.906 6.192 281.25 6.3 281.682 6.3ZM279.93 9.768C279.93 10.168 280.098 10.464 280.434 10.656C280.77 10.856 281.19 10.956 281.694 10.956C282.19 10.956 282.586 10.848 282.882 10.632C283.186 10.416 283.338 10.128 283.338 9.768C283.338 9.512 283.234 9.288 283.026 9.096C282.818 8.912 282.434 8.804 281.874 8.772C281.434 8.74 281.054 8.7 280.734 8.652C280.406 8.828 280.19 9.016 280.086 9.216C279.982 9.424 279.93 9.608 279.93 9.768ZM67.7813 28.144C67.2133 28.144 66.7093 28.016 66.2693 27.76C65.8293 27.496 65.4813 27.132 65.2253 26.668C64.9773 26.204 64.8533 25.656 64.8533 25.024C64.8533 24.4 64.9773 23.856 65.2253 23.392C65.4733 22.92 65.8173 22.556 66.2573 22.3C66.7053 22.036 67.2213 21.904 67.8053 21.904C68.3813 21.904 68.8773 22.036 69.2933 22.3C69.7173 22.556 70.0413 22.896 70.2653 23.32C70.4893 23.744 70.6013 24.2 70.6013 24.688C70.6013 24.776 70.5973 24.864 70.5893 24.952C70.5893 25.04 70.5893 25.14 70.5893 25.252H65.8493C65.8733 25.708 65.9773 26.088 66.1613 26.392C66.3533 26.688 66.5893 26.912 66.8693 27.064C67.1573 27.216 67.4613 27.292 67.7813 27.292C68.1973 27.292 68.5453 27.196 68.8253 27.004C69.1053 26.812 69.3093 26.552 69.4373 26.224H70.4333C70.2733 26.776 69.9653 27.236 69.5093 27.604C69.0613 27.964 68.4853 28.144 67.7813 28.144ZM67.7813 22.756C67.3013 22.756 66.8733 22.904 66.4973 23.2C66.1293 23.488 65.9173 23.912 65.8613 24.472H69.6053C69.5813 23.936 69.3973 23.516 69.0533 23.212C68.7093 22.908 68.2853 22.756 67.7813 22.756ZM71.9374 28V19.36H72.9454V28H71.9374ZM75.2095 20.728C75.0095 20.728 74.8415 20.664 74.7055 20.536C74.5775 20.4 74.5135 20.232 74.5135 20.032C74.5135 19.84 74.5775 19.68 74.7055 19.552C74.8415 19.424 75.0095 19.36 75.2095 19.36C75.4015 19.36 75.5655 19.424 75.7015 19.552C75.8375 19.68 75.9055 19.84 75.9055 20.032C75.9055 20.232 75.8375 20.4 75.7015 20.536C75.5655 20.664 75.4015 20.728 75.2095 20.728ZM74.7055 28V22.048H75.7135V28H74.7055ZM79.8206 28C79.2766 28 78.8486 27.868 78.5366 27.604C78.2246 27.34 78.0686 26.864 78.0686 26.176V22.9H77.0366V22.048H78.0686L78.2006 20.62H79.0766V22.048H80.8286V22.9H79.0766V26.176C79.0766 26.552 79.1526 26.808 79.3046 26.944C79.4566 27.072 79.7246 27.136 80.1086 27.136H80.7326V28H79.8206ZM81.9263 29.428L82.6223 26.776H83.6663L82.6223 29.428H81.9263ZM90.3189 28.144C89.6069 28.144 89.0149 27.964 88.5429 27.604C88.0709 27.244 87.7949 26.756 87.7149 26.14H88.7469C88.8109 26.452 88.9749 26.724 89.2389 26.956C89.5109 27.18 89.8749 27.292 90.3309 27.292C90.7549 27.292 91.0669 27.204 91.2669 27.028C91.4669 26.844 91.5669 26.628 91.5669 26.38C91.5669 26.02 91.4349 25.78 91.1709 25.66C90.9149 25.54 90.5509 25.432 90.0789 25.336C89.7589 25.272 89.4389 25.18 89.1189 25.06C88.7989 24.94 88.5309 24.772 88.3149 24.556C88.0989 24.332 87.9909 24.04 87.9909 23.68C87.9909 23.16 88.1829 22.736 88.5669 22.408C88.9589 22.072 89.4869 21.904 90.1509 21.904C90.7829 21.904 91.2989 22.064 91.6989 22.384C92.1069 22.696 92.3429 23.144 92.4069 23.728H91.4109C91.3709 23.424 91.2389 23.188 91.0149 23.02C90.7989 22.844 90.5069 22.756 90.1389 22.756C89.7789 22.756 89.4989 22.832 89.2989 22.984C89.1069 23.136 89.0109 23.336 89.0109 23.584C89.0109 23.824 89.1349 24.012 89.3829 24.148C89.6389 24.284 89.9829 24.4 90.4149 24.496C90.7829 24.576 91.1309 24.676 91.4589 24.796C91.7949 24.908 92.0669 25.08 92.2749 25.312C92.4909 25.536 92.5989 25.864 92.5989 26.296C92.6069 26.832 92.4029 27.276 91.9869 27.628C91.5789 27.972 91.0229 28.144 90.3189 28.144ZM96.7149 28.144C96.1469 28.144 95.6429 28.016 95.2029 27.76C94.7629 27.496 94.4149 27.132 94.1589 26.668C93.9109 26.204 93.7869 25.656 93.7869 25.024C93.7869 24.4 93.9109 23.856 94.1589 23.392C94.4069 22.92 94.7509 22.556 95.1909 22.3C95.6389 22.036 96.1549 21.904 96.7389 21.904C97.3149 21.904 97.8109 22.036 98.2269 22.3C98.6509 22.556 98.9749 22.896 99.1989 23.32C99.4229 23.744 99.5349 24.2 99.5349 24.688C99.5349 24.776 99.5309 24.864 99.5229 24.952C99.5229 25.04 99.5229 25.14 99.5229 25.252H94.7829C94.8069 25.708 94.9109 26.088 95.0949 26.392C95.2869 26.688 95.5229 26.912 95.8029 27.064C96.0909 27.216 96.3949 27.292 96.7149 27.292C97.1309 27.292 97.4789 27.196 97.7589 27.004C98.0389 26.812 98.2429 26.552 98.3709 26.224H99.3669C99.2069 26.776 98.8989 27.236 98.4429 27.604C97.9949 27.964 97.4189 28.144 96.7149 28.144ZM96.7149 22.756C96.2349 22.756 95.8069 22.904 95.4309 23.2C95.0629 23.488 94.8509 23.912 94.7949 24.472H98.5389C98.5149 23.936 98.3309 23.516 97.9869 23.212C97.6429 22.908 97.2189 22.756 96.7149 22.756ZM103.571 28.144C102.979 28.144 102.459 28.008 102.011 27.736C101.571 27.464 101.227 27.092 100.979 26.62C100.739 26.148 100.619 25.612 100.619 25.012C100.619 24.412 100.743 23.88 100.991 23.416C101.239 22.944 101.583 22.576 102.023 22.312C102.463 22.04 102.983 21.904 103.583 21.904C104.071 21.904 104.503 22.004 104.879 22.204C105.255 22.404 105.547 22.684 105.755 23.044V19.36H106.763V28H105.851L105.755 27.016C105.563 27.304 105.287 27.564 104.927 27.796C104.567 28.028 104.115 28.144 103.571 28.144ZM103.679 27.268C104.079 27.268 104.431 27.176 104.735 26.992C105.047 26.8 105.287 26.536 105.455 26.2C105.631 25.864 105.719 25.472 105.719 25.024C105.719 24.576 105.631 24.184 105.455 23.848C105.287 23.512 105.047 23.252 104.735 23.068C104.431 22.876 104.079 22.78 103.679 22.78C103.287 22.78 102.935 22.876 102.623 23.068C102.319 23.252 102.079 23.512 101.903 23.848C101.735 24.184 101.651 24.576 101.651 25.024C101.651 25.472 101.735 25.864 101.903 26.2C102.079 26.536 102.319 26.8 102.623 26.992C102.935 27.176 103.287 27.268 103.679 27.268ZM114.282 28.144C113.69 28.144 113.17 28.008 112.722 27.736C112.282 27.464 111.938 27.092 111.69 26.62C111.45 26.148 111.33 25.612 111.33 25.012C111.33 24.412 111.454 23.88 111.702 23.416C111.95 22.944 112.294 22.576 112.734 22.312C113.174 22.04 113.694 21.904 114.294 21.904C114.782 21.904 115.214 22.004 115.59 22.204C115.966 22.404 116.258 22.684 116.466 23.044V19.36H117.474V28H116.562L116.466 27.016C116.274 27.304 115.998 27.564 115.638 27.796C115.278 28.028 114.826 28.144 114.282 28.144ZM114.39 27.268C114.79 27.268 115.142 27.176 115.446 26.992C115.758 26.8 115.998 26.536 116.166 26.2C116.342 25.864 116.43 25.472 116.43 25.024C116.43 24.576 116.342 24.184 116.166 23.848C115.998 23.512 115.758 23.252 115.446 23.068C115.142 22.876 114.79 22.78 114.39 22.78C113.998 22.78 113.646 22.876 113.334 23.068C113.03 23.252 112.79 23.512 112.614 23.848C112.446 24.184 112.362 24.576 112.362 25.024C112.362 25.472 112.446 25.864 112.614 26.2C112.79 26.536 113.03 26.8 113.334 26.992C113.646 27.176 113.998 27.268 114.39 27.268ZM121.829 28.144C121.269 28.144 120.765 28.016 120.317 27.76C119.869 27.504 119.513 27.144 119.249 26.68C118.993 26.208 118.865 25.656 118.865 25.024C118.865 24.392 118.997 23.844 119.261 23.38C119.525 22.908 119.881 22.544 120.329 22.288C120.785 22.032 121.293 21.904 121.853 21.904C122.413 21.904 122.917 22.032 123.365 22.288C123.813 22.544 124.165 22.908 124.421 23.38C124.685 23.844 124.817 24.392 124.817 25.024C124.817 25.656 124.685 26.208 124.421 26.68C124.157 27.144 123.797 27.504 123.341 27.76C122.893 28.016 122.389 28.144 121.829 28.144ZM121.829 27.28C122.173 27.28 122.493 27.196 122.789 27.028C123.085 26.86 123.325 26.608 123.509 26.272C123.693 25.936 123.785 25.52 123.785 25.024C123.785 24.528 123.693 24.112 123.509 23.776C123.333 23.44 123.097 23.188 122.801 23.02C122.505 22.852 122.189 22.768 121.853 22.768C121.509 22.768 121.189 22.852 120.893 23.02C120.597 23.188 120.357 23.44 120.173 23.776C119.989 24.112 119.897 24.528 119.897 25.024C119.897 25.52 119.989 25.936 120.173 26.272C120.357 26.608 120.593 26.86 120.881 27.028C121.177 27.196 121.493 27.28 121.829 27.28ZM132.07 28.144C131.502 28.144 130.998 28.016 130.558 27.76C130.118 27.496 129.77 27.132 129.514 26.668C129.266 26.204 129.142 25.656 129.142 25.024C129.142 24.4 129.266 23.856 129.514 23.392C129.762 22.92 130.106 22.556 130.546 22.3C130.994 22.036 131.51 21.904 132.094 21.904C132.67 21.904 133.166 22.036 133.582 22.3C134.006 22.556 134.33 22.896 134.554 23.32C134.778 23.744 134.89 24.2 134.89 24.688C134.89 24.776 134.886 24.864 134.878 24.952C134.878 25.04 134.878 25.14 134.878 25.252H130.138C130.162 25.708 130.266 26.088 130.45 26.392C130.642 26.688 130.878 26.912 131.158 27.064C131.446 27.216 131.75 27.292 132.07 27.292C132.486 27.292 132.834 27.196 133.114 27.004C133.394 26.812 133.598 26.552 133.726 26.224H134.722C134.562 26.776 134.254 27.236 133.798 27.604C133.35 27.964 132.774 28.144 132.07 28.144ZM132.07 22.756C131.59 22.756 131.162 22.904 130.786 23.2C130.418 23.488 130.206 23.912 130.15 24.472H133.894C133.87 23.936 133.686 23.516 133.342 23.212C132.998 22.908 132.574 22.756 132.07 22.756ZM136.838 20.728C136.638 20.728 136.47 20.664 136.334 20.536C136.206 20.4 136.142 20.232 136.142 20.032C136.142 19.84 136.206 19.68 136.334 19.552C136.47 19.424 136.638 19.36 136.838 19.36C137.03 19.36 137.194 19.424 137.33 19.552C137.466 19.68 137.534 19.84 137.534 20.032C137.534 20.232 137.466 20.4 137.33 20.536C137.194 20.664 137.03 20.728 136.838 20.728ZM136.334 28V22.048H137.342V28H136.334ZM141.27 28.144C140.566 28.144 140.006 27.932 139.59 27.508C139.174 27.076 138.966 26.416 138.966 25.528V22.048H139.974V25.42C139.974 26.66 140.482 27.28 141.498 27.28C142.018 27.28 142.446 27.096 142.782 26.728C143.126 26.352 143.298 25.82 143.298 25.132V22.048H144.306V28H143.394L143.322 26.932C143.138 27.308 142.862 27.604 142.494 27.82C142.134 28.036 141.726 28.144 141.27 28.144ZM148.245 28.144C147.533 28.144 146.941 27.964 146.469 27.604C145.997 27.244 145.721 26.756 145.641 26.14H146.673C146.737 26.452 146.901 26.724 147.165 26.956C147.437 27.18 147.801 27.292 148.257 27.292C148.681 27.292 148.993 27.204 149.193 27.028C149.393 26.844 149.493 26.628 149.493 26.38C149.493 26.02 149.361 25.78 149.097 25.66C148.841 25.54 148.477 25.432 148.005 25.336C147.685 25.272 147.365 25.18 147.045 25.06C146.725 24.94 146.457 24.772 146.241 24.556C146.025 24.332 145.917 24.04 145.917 23.68C145.917 23.16 146.109 22.736 146.493 22.408C146.885 22.072 147.413 21.904 148.077 21.904C148.709 21.904 149.225 22.064 149.625 22.384C150.033 22.696 150.269 23.144 150.333 23.728H149.337C149.297 23.424 149.165 23.188 148.941 23.02C148.725 22.844 148.433 22.756 148.065 22.756C147.705 22.756 147.425 22.832 147.225 22.984C147.033 23.136 146.937 23.336 146.937 23.584C146.937 23.824 147.061 24.012 147.309 24.148C147.565 24.284 147.909 24.4 148.341 24.496C148.709 24.576 149.057 24.676 149.385 24.796C149.721 24.908 149.993 25.08 150.201 25.312C150.417 25.536 150.525 25.864 150.525 26.296C150.533 26.832 150.329 27.276 149.913 27.628C149.505 27.972 148.949 28.144 148.245 28.144ZM151.965 28V22.048H152.877L152.949 22.912C153.141 22.592 153.397 22.344 153.717 22.168C154.037 21.992 154.397 21.904 154.797 21.904C155.269 21.904 155.673 22 156.009 22.192C156.353 22.384 156.617 22.676 156.801 23.068C157.009 22.708 157.293 22.424 157.653 22.216C158.021 22.008 158.417 21.904 158.841 21.904C159.553 21.904 160.121 22.12 160.545 22.552C160.969 22.976 161.181 23.632 161.181 24.52V28H160.185V24.628C160.185 24.012 160.061 23.548 159.813 23.236C159.565 22.924 159.209 22.768 158.745 22.768C158.265 22.768 157.865 22.956 157.545 23.332C157.233 23.7 157.077 24.228 157.077 24.916V28H156.069V24.628C156.069 24.012 155.945 23.548 155.697 23.236C155.449 22.924 155.093 22.768 154.629 22.768C154.157 22.768 153.761 22.956 153.441 23.332C153.129 23.7 152.973 24.228 152.973 24.916V28H151.965ZM165.411 28.144C164.851 28.144 164.347 28.016 163.899 27.76C163.451 27.504 163.095 27.144 162.831 26.68C162.575 26.208 162.447 25.656 162.447 25.024C162.447 24.392 162.579 23.844 162.843 23.38C163.107 22.908 163.463 22.544 163.911 22.288C164.367 22.032 164.875 21.904 165.435 21.904C165.995 21.904 166.499 22.032 166.947 22.288C167.395 22.544 167.747 22.908 168.003 23.38C168.267 23.844 168.399 24.392 168.399 25.024C168.399 25.656 168.267 26.208 168.003 26.68C167.739 27.144 167.379 27.504 166.923 27.76C166.475 28.016 165.971 28.144 165.411 28.144ZM165.411 27.28C165.755 27.28 166.075 27.196 166.371 27.028C166.667 26.86 166.907 26.608 167.091 26.272C167.275 25.936 167.367 25.52 167.367 25.024C167.367 24.528 167.275 24.112 167.091 23.776C166.915 23.44 166.679 23.188 166.383 23.02C166.087 22.852 165.771 22.768 165.435 22.768C165.091 22.768 164.771 22.852 164.475 23.02C164.179 23.188 163.939 23.44 163.755 23.776C163.571 24.112 163.479 24.528 163.479 25.024C163.479 25.52 163.571 25.936 163.755 26.272C163.939 26.608 164.175 26.86 164.463 27.028C164.759 27.196 165.075 27.28 165.411 27.28ZM172.501 28.144C171.909 28.144 171.389 28.008 170.941 27.736C170.501 27.464 170.157 27.092 169.909 26.62C169.669 26.148 169.549 25.612 169.549 25.012C169.549 24.412 169.673 23.88 169.921 23.416C170.169 22.944 170.513 22.576 170.953 22.312C171.393 22.04 171.913 21.904 172.513 21.904C173.001 21.904 173.433 22.004 173.809 22.204C174.185 22.404 174.477 22.684 174.685 23.044V19.36H175.693V28H174.781L174.685 27.016C174.493 27.304 174.217 27.564 173.857 27.796C173.497 28.028 173.045 28.144 172.501 28.144ZM172.609 27.268C173.009 27.268 173.361 27.176 173.665 26.992C173.977 26.8 174.217 26.536 174.385 26.2C174.561 25.864 174.649 25.472 174.649 25.024C174.649 24.576 174.561 24.184 174.385 23.848C174.217 23.512 173.977 23.252 173.665 23.068C173.361 22.876 173.009 22.78 172.609 22.78C172.217 22.78 171.865 22.876 171.553 23.068C171.249 23.252 171.009 23.512 170.833 23.848C170.665 24.184 170.581 24.576 170.581 25.024C170.581 25.472 170.665 25.864 170.833 26.2C171.009 26.536 171.249 26.8 171.553 26.992C171.865 27.176 172.217 27.268 172.609 27.268ZM182.864 28C182.32 28 181.892 27.868 181.58 27.604C181.268 27.34 181.112 26.864 181.112 26.176V22.9H180.08V22.048H181.112L181.244 20.62H182.12V22.048H183.872V22.9H182.12V26.176C182.12 26.552 182.196 26.808 182.348 26.944C182.5 27.072 182.768 27.136 183.152 27.136H183.776V28H182.864ZM187.664 28.144C187.096 28.144 186.592 28.016 186.152 27.76C185.712 27.496 185.364 27.132 185.108 26.668C184.86 26.204 184.736 25.656 184.736 25.024C184.736 24.4 184.86 23.856 185.108 23.392C185.356 22.92 185.7 22.556 186.14 22.3C186.588 22.036 187.104 21.904 187.688 21.904C188.264 21.904 188.76 22.036 189.176 22.3C189.6 22.556 189.924 22.896 190.148 23.32C190.372 23.744 190.484 24.2 190.484 24.688C190.484 24.776 190.48 24.864 190.472 24.952C190.472 25.04 190.472 25.14 190.472 25.252H185.732C185.756 25.708 185.86 26.088 186.044 26.392C186.236 26.688 186.472 26.912 186.752 27.064C187.04 27.216 187.344 27.292 187.664 27.292C188.08 27.292 188.428 27.196 188.708 27.004C188.988 26.812 189.192 26.552 189.32 26.224H190.316C190.156 26.776 189.848 27.236 189.392 27.604C188.944 27.964 188.368 28.144 187.664 28.144ZM187.664 22.756C187.184 22.756 186.756 22.904 186.38 23.2C186.012 23.488 185.8 23.912 185.744 24.472H189.488C189.464 23.936 189.28 23.516 188.936 23.212C188.592 22.908 188.168 22.756 187.664 22.756ZM191.82 28V22.048H192.732L192.804 22.912C192.996 22.592 193.252 22.344 193.572 22.168C193.892 21.992 194.252 21.904 194.652 21.904C195.124 21.904 195.528 22 195.864 22.192C196.208 22.384 196.472 22.676 196.656 23.068C196.864 22.708 197.148 22.424 197.508 22.216C197.876 22.008 198.272 21.904 198.696 21.904C199.408 21.904 199.976 22.12 200.4 22.552C200.824 22.976 201.036 23.632 201.036 24.52V28H200.04V24.628C200.04 24.012 199.916 23.548 199.668 23.236C199.42 22.924 199.064 22.768 198.6 22.768C198.12 22.768 197.72 22.956 197.4 23.332C197.088 23.7 196.932 24.228 196.932 24.916V28H195.924V24.628C195.924 24.012 195.8 23.548 195.552 23.236C195.304 22.924 194.948 22.768 194.484 22.768C194.012 22.768 193.616 22.956 193.296 23.332C192.984 23.7 192.828 24.228 192.828 24.916V28H191.82ZM202.555 30.64V22.048H203.467L203.563 23.032C203.755 22.744 204.027 22.484 204.379 22.252C204.739 22.02 205.195 21.904 205.747 21.904C206.339 21.904 206.855 22.04 207.295 22.312C207.735 22.584 208.075 22.956 208.315 23.428C208.563 23.9 208.687 24.436 208.687 25.036C208.687 25.636 208.563 26.172 208.315 26.644C208.075 27.108 207.731 27.476 207.283 27.748C206.843 28.012 206.327 28.144 205.735 28.144C205.247 28.144 204.811 28.044 204.427 27.844C204.051 27.644 203.763 27.364 203.563 27.004V30.64H202.555ZM205.627 27.268C206.027 27.268 206.379 27.176 206.683 26.992C206.987 26.8 207.227 26.536 207.403 26.2C207.579 25.864 207.667 25.472 207.667 25.024C207.667 24.576 207.579 24.184 207.403 23.848C207.227 23.512 206.987 23.252 206.683 23.068C206.379 22.876 206.027 22.78 205.627 22.78C205.227 22.78 204.875 22.876 204.571 23.068C204.267 23.252 204.027 23.512 203.851 23.848C203.675 24.184 203.587 24.576 203.587 25.024C203.587 25.472 203.675 25.864 203.851 26.2C204.027 26.536 204.267 26.8 204.571 26.992C204.875 27.176 205.227 27.268 205.627 27.268ZM212.802 28.144C212.242 28.144 211.738 28.016 211.29 27.76C210.842 27.504 210.486 27.144 210.222 26.68C209.966 26.208 209.838 25.656 209.838 25.024C209.838 24.392 209.97 23.844 210.234 23.38C210.498 22.908 210.854 22.544 211.302 22.288C211.758 22.032 212.266 21.904 212.826 21.904C213.386 21.904 213.89 22.032 214.338 22.288C214.786 22.544 215.138 22.908 215.394 23.38C215.658 23.844 215.79 24.392 215.79 25.024C215.79 25.656 215.658 26.208 215.394 26.68C215.13 27.144 214.77 27.504 214.314 27.76C213.866 28.016 213.362 28.144 212.802 28.144ZM212.802 27.28C213.146 27.28 213.466 27.196 213.762 27.028C214.058 26.86 214.298 26.608 214.482 26.272C214.666 25.936 214.758 25.52 214.758 25.024C214.758 24.528 214.666 24.112 214.482 23.776C214.306 23.44 214.07 23.188 213.774 23.02C213.478 22.852 213.162 22.768 212.826 22.768C212.482 22.768 212.162 22.852 211.866 23.02C211.57 23.188 211.33 23.44 211.146 23.776C210.962 24.112 210.87 24.528 210.87 25.024C210.87 25.52 210.962 25.936 211.146 26.272C211.33 26.608 211.566 26.86 211.854 27.028C212.15 27.196 212.466 27.28 212.802 27.28ZM217.191 28V22.048H218.103L218.187 23.188C218.371 22.796 218.651 22.484 219.027 22.252C219.403 22.02 219.867 21.904 220.419 21.904V22.96H220.143C219.791 22.96 219.467 23.024 219.171 23.152C218.875 23.272 218.639 23.48 218.463 23.776C218.287 24.072 218.199 24.48 218.199 25V28H217.191Z" fill="#524B6B"/>
</svg>
