<svg width="135" height="11" viewBox="0 0 135 11" fill="none" xmlns="http://www.w3.org/2000/svg">
<path d="M5.544 10.168C4.564 10.168 3.70533 9.95333 2.968 9.524C2.24 9.09467 1.666 8.502 1.246 7.746C0.835333 6.98067 0.63 6.09867 0.63 5.1C0.63 4.10133 0.835333 3.224 1.246 2.468C1.666 1.70267 2.24 1.10533 2.968 0.676C3.70533 0.246667 4.564 0.0319998 5.544 0.0319998C6.51467 0.0319998 7.36867 0.246667 8.106 0.676C8.84333 1.10533 9.41733 1.70267 9.828 2.468C10.2387 3.224 10.444 4.10133 10.444 5.1C10.444 6.09867 10.2387 6.98067 9.828 7.746C9.41733 8.502 8.84333 9.09467 8.106 9.524C7.36867 9.95333 6.51467 10.168 5.544 10.168ZM5.544 8.558C6.47733 8.558 7.21933 8.25 7.77 7.634C8.33 7.018 8.61 6.17333 8.61 5.1C8.61 4.02667 8.33 3.182 7.77 2.566C7.21933 1.95 6.47733 1.642 5.544 1.642C4.61067 1.642 3.864 1.95 3.304 2.566C2.744 3.182 2.464 4.02667 2.464 5.1C2.464 6.17333 2.744 7.018 3.304 7.634C3.864 8.25 4.61067 8.558 5.544 8.558ZM12.8662 10V0.199999H16.4922C17.2762 0.199999 17.9249 0.330666 18.4382 0.591999C18.9516 0.853333 19.3342 1.21267 19.5862 1.67C19.8382 2.12733 19.9642 2.64067 19.9642 3.21C19.9642 3.75133 19.8429 4.25067 19.6002 4.708C19.3576 5.156 18.9796 5.52 18.4662 5.8C17.9529 6.07067 17.2949 6.206 16.4922 6.206H14.6582V10H12.8662ZM14.6582 4.75H16.3802C17.0056 4.75 17.4536 4.61467 17.7242 4.344C18.0042 4.064 18.1442 3.686 18.1442 3.21C18.1442 2.72467 18.0042 2.34667 17.7242 2.076C17.4536 1.796 17.0056 1.656 16.3802 1.656H14.6582V4.75ZM22.2101 10V0.199999H28.6081V1.642H24.0021V4.33H28.1881V5.73H24.0021V8.558H28.6081V10H22.2101ZM31.1439 10V0.199999H32.9359L37.5419 7.102V0.199999H39.3339V10H37.5419L32.9359 3.112V10H31.1439ZM48.7837 10V6.514L45.4937 0.199999H47.5237L49.6937 4.722L51.8497 0.199999H53.8517L50.5757 6.514V10H48.7837ZM59.8028 10.168C58.8228 10.168 57.9641 9.95333 57.2268 9.524C56.4988 9.09467 55.9248 8.502 55.5048 7.746C55.0941 6.98067 54.8888 6.09867 54.8888 5.1C54.8888 4.10133 55.0941 3.224 55.5048 2.468C55.9248 1.70267 56.4988 1.10533 57.2268 0.676C57.9641 0.246667 58.8228 0.0319998 59.8028 0.0319998C60.7734 0.0319998 61.6274 0.246667 62.3648 0.676C63.1021 1.10533 63.6761 1.70267 64.0868 2.468C64.4974 3.224 64.7028 4.10133 64.7028 5.1C64.7028 6.09867 64.4974 6.98067 64.0868 7.746C63.6761 8.502 63.1021 9.09467 62.3648 9.524C61.6274 9.95333 60.7734 10.168 59.8028 10.168ZM59.8028 8.558C60.7361 8.558 61.4781 8.25 62.0288 7.634C62.5888 7.018 62.8688 6.17333 62.8688 5.1C62.8688 4.02667 62.5888 3.182 62.0288 2.566C61.4781 1.95 60.7361 1.642 59.8028 1.642C58.8694 1.642 58.1228 1.95 57.5628 2.566C57.0028 3.182 56.7228 4.02667 56.7228 5.1C56.7228 6.17333 57.0028 7.018 57.5628 7.634C58.1228 8.25 58.8694 8.558 59.8028 8.558ZM70.905 10.168C70.1863 10.168 69.5376 10.028 68.959 9.748C68.3803 9.45867 67.9183 9.02467 67.573 8.446C67.237 7.86733 67.069 7.13467 67.069 6.248V0.199999H68.861V6.262C68.861 7.02733 69.043 7.59667 69.407 7.97C69.7803 8.34333 70.2936 8.53 70.947 8.53C71.591 8.53 72.0996 8.34333 72.473 7.97C72.8463 7.59667 73.033 7.02733 73.033 6.262V0.199999H74.825V6.248C74.825 7.13467 74.6476 7.86733 74.293 8.446C73.9383 9.02467 73.4623 9.45867 72.865 9.748C72.277 10.028 71.6236 10.168 70.905 10.168ZM77.4943 10V0.199999H81.0923C81.8763 0.199999 82.5203 0.335333 83.0243 0.606C83.5376 0.867333 83.9203 1.22667 84.1723 1.684C84.4243 2.132 84.5503 2.63133 84.5503 3.182C84.5503 3.77933 84.3916 4.32533 84.0743 4.82C83.7663 5.31467 83.2809 5.674 82.6183 5.898L84.6483 10H82.5903L80.7703 6.136H79.2863V10H77.4943ZM79.2863 4.82H80.9803C81.5776 4.82 82.0163 4.67533 82.2963 4.386C82.5763 4.09667 82.7163 3.714 82.7163 3.238C82.7163 2.77133 82.5763 2.398 82.2963 2.118C82.0256 1.838 81.5823 1.698 80.9663 1.698H79.2863V4.82ZM91.2329 10V0.199999H97.6309V1.642H93.0249V4.33H97.2109V5.73H93.0249V8.558H97.6309V10H91.2329ZM100.167 10V0.199999H102.295L105.417 6.416L108.497 0.199999H110.625V10H108.833V3.238L106.103 8.6H104.689L101.959 3.238V10H100.167ZM112.736 10L116.32 0.199999H118.336L121.92 10H120.016L119.232 7.732H115.41L114.612 10H112.736ZM115.9 6.332H118.742L117.314 2.258L115.9 6.332ZM124.022 10V0.199999H125.814V10H124.022ZM128.554 10V0.199999H130.346V8.6H134.686V10H128.554Z" fill="white"/>
</svg>
