<svg width="54" height="11" viewBox="0 0 54 11" fill="none" xmlns="http://www.w3.org/2000/svg">
<path d="M2.61523 1.43359C3.7207 1.43359 4.52734 1.66016 5.03516 2.11328C5.54297 2.56641 5.79688 3.20117 5.79688 4.01758C5.79688 4.38867 5.73828 4.74219 5.62109 5.07812C5.50781 5.41016 5.32031 5.70508 5.05859 5.96289C4.79688 6.2168 4.45117 6.41797 4.02148 6.56641C3.5957 6.71484 3.07031 6.78906 2.44531 6.78906H1.53125V10H0.125V1.43359H2.61523ZM2.52148 2.59961H1.53125V5.61719H2.29883C2.74023 5.61719 3.11523 5.56641 3.42383 5.46484C3.73242 5.35938 3.9668 5.19336 4.12695 4.9668C4.28711 4.74023 4.36719 4.44141 4.36719 4.07031C4.36719 3.57422 4.2168 3.20508 3.91602 2.96289C3.61914 2.7207 3.1543 2.59961 2.52148 2.59961ZM9.91016 3.39062C10.7305 3.39062 11.3496 3.57227 11.7676 3.93555C12.1895 4.29883 12.4004 4.86523 12.4004 5.63477V10H11.4219L11.1582 9.08008H11.1113C10.9277 9.31445 10.7383 9.50781 10.543 9.66016C10.3477 9.8125 10.1211 9.92578 9.86328 10C9.60938 10.0781 9.29883 10.1172 8.93164 10.1172C8.54492 10.1172 8.19922 10.0469 7.89453 9.90625C7.58984 9.76172 7.34961 9.54297 7.17383 9.25C6.99805 8.95703 6.91016 8.58594 6.91016 8.13672C6.91016 7.46875 7.1582 6.9668 7.6543 6.63086C8.1543 6.29492 8.9082 6.10938 9.91602 6.07422L11.041 6.0332V5.69336C11.041 5.24414 10.9355 4.92383 10.7246 4.73242C10.5176 4.54102 10.2246 4.44531 9.8457 4.44531C9.52148 4.44531 9.20703 4.49219 8.90234 4.58594C8.59766 4.67969 8.30078 4.79492 8.01172 4.93164L7.56641 3.95898C7.88281 3.79102 8.24219 3.6543 8.64453 3.54883C9.05078 3.44336 9.47266 3.39062 9.91016 3.39062ZM11.0352 6.90039L10.1973 6.92969C9.50977 6.95312 9.02734 7.07031 8.75 7.28125C8.47266 7.49219 8.33398 7.78125 8.33398 8.14844C8.33398 8.46875 8.42969 8.70312 8.62109 8.85156C8.8125 8.99609 9.06445 9.06836 9.37695 9.06836C9.85352 9.06836 10.248 8.93359 10.5605 8.66406C10.877 8.39062 11.0352 7.99023 11.0352 7.46289V6.90039ZM18.6875 8.14844C18.6875 8.57422 18.584 8.93359 18.377 9.22656C18.1699 9.51953 17.8672 9.74219 17.4688 9.89453C17.0742 10.043 16.5898 10.1172 16.0156 10.1172C15.5625 10.1172 15.1719 10.084 14.8438 10.0176C14.5195 9.95508 14.2129 9.85742 13.9238 9.72461V8.53516C14.2324 8.67969 14.5781 8.80469 14.9609 8.91016C15.3477 9.01562 15.7129 9.06836 16.0566 9.06836C16.5098 9.06836 16.8359 8.99805 17.0352 8.85742C17.2344 8.71289 17.334 8.52148 17.334 8.2832C17.334 8.14258 17.293 8.01758 17.2109 7.9082C17.1328 7.79492 16.9844 7.67969 16.7656 7.5625C16.5508 7.44141 16.2344 7.29688 15.8164 7.12891C15.4062 6.96484 15.0605 6.80078 14.7793 6.63672C14.498 6.47266 14.2852 6.27539 14.1406 6.04492C13.9961 5.81055 13.9238 5.51172 13.9238 5.14844C13.9238 4.57422 14.1504 4.13867 14.6035 3.8418C15.0605 3.54102 15.6641 3.39062 16.4141 3.39062C16.8125 3.39062 17.1875 3.43164 17.5391 3.51367C17.8945 3.5918 18.2422 3.70703 18.582 3.85938L18.1484 4.89648C17.8555 4.76758 17.5605 4.66211 17.2637 4.58008C16.9707 4.49414 16.6719 4.45117 16.3672 4.45117C16.0117 4.45117 15.7402 4.50586 15.5527 4.61523C15.3691 4.72461 15.2773 4.88086 15.2773 5.08398C15.2773 5.23633 15.3223 5.36523 15.4121 5.4707C15.502 5.57617 15.6562 5.68164 15.875 5.78711C16.0977 5.89258 16.4062 6.02344 16.8008 6.17969C17.1875 6.32812 17.5215 6.48438 17.8027 6.64844C18.0879 6.80859 18.3066 7.00586 18.459 7.24023C18.6113 7.47461 18.6875 7.77734 18.6875 8.14844ZM24.5352 8.14844C24.5352 8.57422 24.4316 8.93359 24.2246 9.22656C24.0176 9.51953 23.7148 9.74219 23.3164 9.89453C22.9219 10.043 22.4375 10.1172 21.8633 10.1172C21.4102 10.1172 21.0195 10.084 20.6914 10.0176C20.3672 9.95508 20.0605 9.85742 19.7715 9.72461V8.53516C20.0801 8.67969 20.4258 8.80469 20.8086 8.91016C21.1953 9.01562 21.5605 9.06836 21.9043 9.06836C22.3574 9.06836 22.6836 8.99805 22.8828 8.85742C23.082 8.71289 23.1816 8.52148 23.1816 8.2832C23.1816 8.14258 23.1406 8.01758 23.0586 7.9082C22.9805 7.79492 22.832 7.67969 22.6133 7.5625C22.3984 7.44141 22.082 7.29688 21.6641 7.12891C21.2539 6.96484 20.9082 6.80078 20.627 6.63672C20.3457 6.47266 20.1328 6.27539 19.9883 6.04492C19.8438 5.81055 19.7715 5.51172 19.7715 5.14844C19.7715 4.57422 19.998 4.13867 20.4512 3.8418C20.9082 3.54102 21.5117 3.39062 22.2617 3.39062C22.6602 3.39062 23.0352 3.43164 23.3867 3.51367C23.7422 3.5918 24.0898 3.70703 24.4297 3.85938L23.9961 4.89648C23.7031 4.76758 23.4082 4.66211 23.1113 4.58008C22.8184 4.49414 22.5195 4.45117 22.2148 4.45117C21.8594 4.45117 21.5879 4.50586 21.4004 4.61523C21.2168 4.72461 21.125 4.88086 21.125 5.08398C21.125 5.23633 21.1699 5.36523 21.2598 5.4707C21.3496 5.57617 21.5039 5.68164 21.7227 5.78711C21.9453 5.89258 22.2539 6.02344 22.6484 6.17969C23.0352 6.32812 23.3691 6.48438 23.6504 6.64844C23.9355 6.80859 24.1543 7.00586 24.3066 7.24023C24.459 7.47461 24.5352 7.77734 24.5352 8.14844ZM31.3262 9.99414L30.5059 6.97656C30.4668 6.82812 30.4199 6.64844 30.3652 6.4375C30.3105 6.22656 30.2559 6.00977 30.2012 5.78711C30.1465 5.56055 30.0957 5.35156 30.0488 5.16016C30.0059 4.96875 29.9727 4.82031 29.9492 4.71484H29.9023C29.8828 4.82031 29.8516 4.96875 29.8086 5.16016C29.7656 5.35156 29.7168 5.56055 29.6621 5.78711C29.6074 6.01367 29.5527 6.23438 29.498 6.44922C29.4473 6.66406 29.4004 6.84766 29.3574 7L28.4961 9.99414H26.9844L25.168 3.50781H26.5625L27.4062 6.73047C27.4609 6.94922 27.5137 7.18555 27.5645 7.43945C27.6191 7.69336 27.666 7.93555 27.7051 8.16602C27.7441 8.39648 27.7734 8.58594 27.793 8.73438H27.8398C27.8555 8.62891 27.877 8.49609 27.9043 8.33594C27.9316 8.17188 27.9629 8.00195 27.998 7.82617C28.0332 7.64648 28.0684 7.47852 28.1035 7.32227C28.1387 7.16211 28.1719 7.0332 28.2031 6.93555L29.1992 3.50781H30.7051L31.6602 6.93555C31.7031 7.08398 31.75 7.27148 31.8008 7.49805C31.8516 7.7207 31.8965 7.94531 31.9355 8.17188C31.9785 8.39453 32.0059 8.58008 32.0176 8.72852H32.0645C32.0801 8.5957 32.1074 8.41602 32.1465 8.18945C32.1895 7.95898 32.2383 7.71484 32.293 7.45703C32.3477 7.19531 32.4043 6.95312 32.4629 6.73047L33.3242 3.50781H34.6953L32.8672 9.99414H31.3262ZM41.5508 6.74219C41.5508 7.28125 41.4805 7.75977 41.3398 8.17773C41.1992 8.5957 40.9941 8.94922 40.7246 9.23828C40.4551 9.52344 40.1309 9.74219 39.752 9.89453C39.373 10.043 38.9453 10.1172 38.4688 10.1172C38.0234 10.1172 37.6152 10.043 37.2441 9.89453C36.873 9.74219 36.5508 9.52344 36.2773 9.23828C36.0078 8.94922 35.7988 8.5957 35.6504 8.17773C35.502 7.75977 35.4277 7.28125 35.4277 6.74219C35.4277 6.02734 35.5508 5.42188 35.7969 4.92578C36.0469 4.42578 36.4023 4.04492 36.8633 3.7832C37.3242 3.52148 37.873 3.39062 38.5098 3.39062C39.1074 3.39062 39.6348 3.52148 40.0918 3.7832C40.5488 4.04492 40.9062 4.42578 41.1641 4.92578C41.4219 5.42578 41.5508 6.03125 41.5508 6.74219ZM36.8457 6.74219C36.8457 7.21484 36.9023 7.61914 37.0156 7.95508C37.1328 8.29102 37.3125 8.54883 37.5547 8.72852C37.7969 8.9043 38.1094 8.99219 38.4922 8.99219C38.875 8.99219 39.1875 8.9043 39.4297 8.72852C39.6719 8.54883 39.8496 8.29102 39.9629 7.95508C40.0762 7.61914 40.1328 7.21484 40.1328 6.74219C40.1328 6.26953 40.0762 5.86914 39.9629 5.54102C39.8496 5.20898 39.6719 4.95703 39.4297 4.78516C39.1875 4.60938 38.873 4.52148 38.4863 4.52148C37.916 4.52148 37.5 4.71289 37.2383 5.0957C36.9766 5.47852 36.8457 6.02734 36.8457 6.74219ZM46.4199 3.39062C46.5293 3.39062 46.6484 3.39648 46.7773 3.4082C46.9062 3.41992 47.0176 3.43555 47.1113 3.45508L46.9824 4.74414C46.9004 4.7207 46.7988 4.70312 46.6777 4.69141C46.5605 4.67969 46.4551 4.67383 46.3613 4.67383C46.1152 4.67383 45.8809 4.71484 45.6582 4.79688C45.4355 4.875 45.2383 4.99609 45.0664 5.16016C44.8945 5.32031 44.7598 5.52148 44.6621 5.76367C44.5645 6.00586 44.5156 6.28711 44.5156 6.60742V10H43.1328V3.51367H44.2109L44.3984 4.65625H44.4629C44.5918 4.42578 44.752 4.21484 44.9434 4.02344C45.1348 3.83203 45.3535 3.67969 45.5996 3.56641C45.8496 3.44922 46.123 3.39062 46.4199 3.39062ZM50.4922 10.1172C49.7188 10.1172 49.0977 9.83594 48.6289 9.27344C48.1641 8.70703 47.9316 7.87305 47.9316 6.77148C47.9316 5.6582 48.168 4.81641 48.6406 4.24609C49.1172 3.67578 49.7441 3.39062 50.5215 3.39062C50.8496 3.39062 51.1367 3.43555 51.3828 3.52539C51.6289 3.61133 51.8398 3.72852 52.0156 3.87695C52.1953 4.02539 52.3477 4.19141 52.4727 4.375H52.5371C52.5176 4.25391 52.4941 4.08008 52.4668 3.85352C52.4434 3.62305 52.4316 3.41016 52.4316 3.21484V0.882812H53.8145V10H52.7363L52.4902 9.11523H52.4316C52.3145 9.30273 52.166 9.47266 51.9863 9.625C51.8105 9.77344 51.5996 9.89258 51.3535 9.98242C51.1113 10.0723 50.8242 10.1172 50.4922 10.1172ZM50.8789 8.99805C51.4688 8.99805 51.8848 8.82812 52.127 8.48828C52.3691 8.14844 52.4941 7.63867 52.502 6.95898V6.77734C52.502 6.05078 52.3848 5.49414 52.1504 5.10742C51.916 4.7168 51.4883 4.52148 50.8672 4.52148C50.3711 4.52148 49.9922 4.72266 49.7305 5.125C49.4727 5.52344 49.3438 6.08008 49.3438 6.79492C49.3438 7.50977 49.4727 8.05664 49.7305 8.43555C49.9922 8.81055 50.375 8.99805 50.8789 8.99805Z" fill="#0D0140"/>
</svg>
