<svg width="81" height="10" viewBox="0 0 81 10" fill="none" xmlns="http://www.w3.org/2000/svg">
<path d="M0.888 9V0.599999H3.6C4.256 0.599999 4.792 0.707999 5.208 0.924C5.624 1.14 5.932 1.436 6.132 1.812C6.332 2.188 6.432 2.604 6.432 3.06C6.432 3.588 6.288 4.064 6 4.488C5.72 4.912 5.28 5.212 4.68 5.388L6.516 9H5.328L3.624 5.532H3.552H1.896V9H0.888ZM1.896 4.74H3.528C4.176 4.74 4.648 4.584 4.944 4.272C5.24 3.96 5.388 3.56 5.388 3.072C5.388 2.576 5.24 2.184 4.944 1.896C4.656 1.6 4.18 1.452 3.516 1.452H1.896V4.74ZM10.254 9.144C9.686 9.144 9.182 9.016 8.742 8.76C8.302 8.496 7.954 8.132 7.698 7.668C7.45 7.204 7.326 6.656 7.326 6.024C7.326 5.4 7.45 4.856 7.698 4.392C7.946 3.92 8.29 3.556 8.73 3.3C9.178 3.036 9.694 2.904 10.278 2.904C10.854 2.904 11.35 3.036 11.766 3.3C12.19 3.556 12.514 3.896 12.738 4.32C12.962 4.744 13.074 5.2 13.074 5.688C13.074 5.776 13.07 5.864 13.062 5.952C13.062 6.04 13.062 6.14 13.062 6.252H8.322C8.346 6.708 8.45 7.088 8.634 7.392C8.826 7.688 9.062 7.912 9.342 8.064C9.63 8.216 9.934 8.292 10.254 8.292C10.67 8.292 11.018 8.196 11.298 8.004C11.578 7.812 11.782 7.552 11.91 7.224H12.906C12.746 7.776 12.438 8.236 11.982 8.604C11.534 8.964 10.958 9.144 10.254 9.144ZM10.254 3.756C9.774 3.756 9.346 3.904 8.97 4.2C8.602 4.488 8.39 4.912 8.334 5.472H12.078C12.054 4.936 11.87 4.516 11.526 4.212C11.182 3.908 10.758 3.756 10.254 3.756ZM14.41 9V3.048H15.322L15.394 3.912C15.586 3.592 15.842 3.344 16.162 3.168C16.482 2.992 16.842 2.904 17.242 2.904C17.714 2.904 18.118 3 18.454 3.192C18.798 3.384 19.062 3.676 19.246 4.068C19.454 3.708 19.738 3.424 20.098 3.216C20.466 3.008 20.862 2.904 21.286 2.904C21.998 2.904 22.566 3.12 22.99 3.552C23.414 3.976 23.626 4.632 23.626 5.52V9H22.63V5.628C22.63 5.012 22.506 4.548 22.258 4.236C22.01 3.924 21.654 3.768 21.19 3.768C20.71 3.768 20.31 3.956 19.99 4.332C19.678 4.7 19.522 5.228 19.522 5.916V9H18.514V5.628C18.514 5.012 18.39 4.548 18.142 4.236C17.894 3.924 17.538 3.768 17.074 3.768C16.602 3.768 16.206 3.956 15.886 4.332C15.574 4.7 15.418 5.228 15.418 5.916V9H14.41ZM27.8204 9.144C27.2524 9.144 26.7484 9.016 26.3084 8.76C25.8684 8.496 25.5204 8.132 25.2644 7.668C25.0164 7.204 24.8924 6.656 24.8924 6.024C24.8924 5.4 25.0164 4.856 25.2644 4.392C25.5124 3.92 25.8564 3.556 26.2964 3.3C26.7444 3.036 27.2604 2.904 27.8444 2.904C28.4204 2.904 28.9164 3.036 29.3324 3.3C29.7564 3.556 30.0804 3.896 30.3044 4.32C30.5284 4.744 30.6404 5.2 30.6404 5.688C30.6404 5.776 30.6364 5.864 30.6284 5.952C30.6284 6.04 30.6284 6.14 30.6284 6.252H25.8884C25.9124 6.708 26.0164 7.088 26.2004 7.392C26.3924 7.688 26.6284 7.912 26.9084 8.064C27.1964 8.216 27.5004 8.292 27.8204 8.292C28.2364 8.292 28.5844 8.196 28.8644 8.004C29.1444 7.812 29.3484 7.552 29.4764 7.224H30.4724C30.3124 7.776 30.0044 8.236 29.5484 8.604C29.1004 8.964 28.5244 9.144 27.8204 9.144ZM27.8204 3.756C27.3404 3.756 26.9124 3.904 26.5364 4.2C26.1684 4.488 25.9564 4.912 25.9004 5.472H29.6444C29.6204 4.936 29.4364 4.516 29.0924 4.212C28.7484 3.908 28.3244 3.756 27.8204 3.756ZM31.9764 9V3.048H32.8884L32.9604 3.912C33.1524 3.592 33.4084 3.344 33.7284 3.168C34.0484 2.992 34.4084 2.904 34.8084 2.904C35.2804 2.904 35.6844 3 36.0204 3.192C36.3644 3.384 36.6284 3.676 36.8124 4.068C37.0204 3.708 37.3044 3.424 37.6644 3.216C38.0324 3.008 38.4284 2.904 38.8524 2.904C39.5644 2.904 40.1324 3.12 40.5564 3.552C40.9804 3.976 41.1924 4.632 41.1924 5.52V9H40.1964V5.628C40.1964 5.012 40.0724 4.548 39.8244 4.236C39.5764 3.924 39.2204 3.768 38.7564 3.768C38.2764 3.768 37.8764 3.956 37.5564 4.332C37.2444 4.7 37.0884 5.228 37.0884 5.916V9H36.0804V5.628C36.0804 5.012 35.9564 4.548 35.7084 4.236C35.4604 3.924 35.1044 3.768 34.6404 3.768C34.1684 3.768 33.7724 3.956 33.4524 4.332C33.1404 4.7 32.9844 5.228 32.9844 5.916V9H31.9764ZM45.8908 9.144C45.4028 9.144 44.9668 9.044 44.5828 8.844C44.2068 8.644 43.9188 8.364 43.7188 8.004L43.6228 9H42.7108V0.36H43.7188V4.032C43.9108 3.744 44.1828 3.484 44.5348 3.252C44.8948 3.02 45.3508 2.904 45.9028 2.904C46.4948 2.904 47.0108 3.04 47.4508 3.312C47.8908 3.584 48.2308 3.956 48.4708 4.428C48.7188 4.9 48.8428 5.436 48.8428 6.036C48.8428 6.636 48.7188 7.172 48.4708 7.644C48.2308 8.108 47.8868 8.476 47.4388 8.748C46.9988 9.012 46.4828 9.144 45.8908 9.144ZM45.7828 8.268C46.1828 8.268 46.5348 8.176 46.8388 7.992C47.1428 7.8 47.3828 7.536 47.5588 7.2C47.7348 6.864 47.8228 6.472 47.8228 6.024C47.8228 5.576 47.7348 5.184 47.5588 4.848C47.3828 4.512 47.1428 4.252 46.8388 4.068C46.5348 3.876 46.1828 3.78 45.7828 3.78C45.3828 3.78 45.0308 3.876 44.7268 4.068C44.4228 4.252 44.1828 4.512 44.0068 4.848C43.8308 5.184 43.7428 5.576 43.7428 6.024C43.7428 6.472 43.8308 6.864 44.0068 7.2C44.1828 7.536 44.4228 7.8 44.7268 7.992C45.0308 8.176 45.3828 8.268 45.7828 8.268ZM52.922 9.144C52.354 9.144 51.85 9.016 51.41 8.76C50.97 8.496 50.622 8.132 50.366 7.668C50.118 7.204 49.994 6.656 49.994 6.024C49.994 5.4 50.118 4.856 50.366 4.392C50.614 3.92 50.958 3.556 51.398 3.3C51.846 3.036 52.362 2.904 52.946 2.904C53.522 2.904 54.018 3.036 54.434 3.3C54.858 3.556 55.182 3.896 55.406 4.32C55.63 4.744 55.742 5.2 55.742 5.688C55.742 5.776 55.738 5.864 55.73 5.952C55.73 6.04 55.73 6.14 55.73 6.252H50.99C51.014 6.708 51.118 7.088 51.302 7.392C51.494 7.688 51.73 7.912 52.01 8.064C52.298 8.216 52.602 8.292 52.922 8.292C53.338 8.292 53.686 8.196 53.966 8.004C54.246 7.812 54.45 7.552 54.578 7.224H55.574C55.414 7.776 55.106 8.236 54.65 8.604C54.202 8.964 53.626 9.144 52.922 9.144ZM52.922 3.756C52.442 3.756 52.014 3.904 51.638 4.2C51.27 4.488 51.058 4.912 51.002 5.472H54.746C54.722 4.936 54.538 4.516 54.194 4.212C53.85 3.908 53.426 3.756 52.922 3.756ZM57.078 9V3.048H57.99L58.074 4.188C58.258 3.796 58.538 3.484 58.914 3.252C59.29 3.02 59.754 2.904 60.306 2.904V3.96H60.03C59.678 3.96 59.354 4.024 59.058 4.152C58.762 4.272 58.526 4.48 58.35 4.776C58.174 5.072 58.086 5.48 58.086 6V9H57.078ZM64.6132 9V3.048H65.5252L65.5972 3.912C65.7892 3.592 66.0452 3.344 66.3652 3.168C66.6852 2.992 67.0452 2.904 67.4452 2.904C67.9172 2.904 68.3212 3 68.6572 3.192C69.0012 3.384 69.2652 3.676 69.4492 4.068C69.6572 3.708 69.9412 3.424 70.3012 3.216C70.6692 3.008 71.0652 2.904 71.4892 2.904C72.2012 2.904 72.7692 3.12 73.1932 3.552C73.6172 3.976 73.8292 4.632 73.8292 5.52V9H72.8332V5.628C72.8332 5.012 72.7092 4.548 72.4612 4.236C72.2132 3.924 71.8572 3.768 71.3932 3.768C70.9132 3.768 70.5132 3.956 70.1932 4.332C69.8812 4.7 69.7252 5.228 69.7252 5.916V9H68.7172V5.628C68.7172 5.012 68.5932 4.548 68.3452 4.236C68.0972 3.924 67.7412 3.768 67.2772 3.768C66.8052 3.768 66.4092 3.956 66.0892 4.332C65.7772 4.7 65.6212 5.228 65.6212 5.916V9H64.6132ZM78.0235 9.144C77.4555 9.144 76.9515 9.016 76.5115 8.76C76.0715 8.496 75.7235 8.132 75.4675 7.668C75.2195 7.204 75.0955 6.656 75.0955 6.024C75.0955 5.4 75.2195 4.856 75.4675 4.392C75.7155 3.92 76.0595 3.556 76.4995 3.3C76.9475 3.036 77.4635 2.904 78.0475 2.904C78.6235 2.904 79.1195 3.036 79.5355 3.3C79.9595 3.556 80.2835 3.896 80.5075 4.32C80.7315 4.744 80.8435 5.2 80.8435 5.688C80.8435 5.776 80.8395 5.864 80.8315 5.952C80.8315 6.04 80.8315 6.14 80.8315 6.252H76.0915C76.1155 6.708 76.2195 7.088 76.4035 7.392C76.5955 7.688 76.8315 7.912 77.1115 8.064C77.3995 8.216 77.7035 8.292 78.0235 8.292C78.4395 8.292 78.7875 8.196 79.0675 8.004C79.3475 7.812 79.5515 7.552 79.6795 7.224H80.6755C80.5155 7.776 80.2075 8.236 79.7515 8.604C79.3035 8.964 78.7275 9.144 78.0235 9.144ZM78.0235 3.756C77.5435 3.756 77.1155 3.904 76.7395 4.2C76.3715 4.488 76.1595 4.912 76.1035 5.472H79.8475C79.8235 4.936 79.6395 4.516 79.2955 4.212C78.9515 3.908 78.5275 3.756 78.0235 3.756Z" fill="#AAA6B9"/>
</svg>
