<svg width="133" height="11" viewBox="0 0 133 11" fill="none" xmlns="http://www.w3.org/2000/svg">
<path d="M0.952 10V0.199999H4.55C5.334 0.199999 5.978 0.335333 6.482 0.606C6.99533 0.867333 7.378 1.22667 7.63 1.684C7.882 2.132 8.008 2.63133 8.008 3.182C8.008 3.77933 7.84933 4.32533 7.532 4.82C7.224 5.31467 6.73867 5.674 6.076 5.898L8.106 10H6.048L4.228 6.136H2.744V10H0.952ZM2.744 4.82H4.438C5.03533 4.82 5.474 4.67533 5.754 4.386C6.034 4.09667 6.174 3.714 6.174 3.238C6.174 2.77133 6.034 2.398 5.754 2.118C5.48333 1.838 5.04 1.698 4.424 1.698H2.744V4.82ZM10.5147 10V0.199999H16.9127V1.642H12.3067V4.33H16.4927V5.73H12.3067V8.558H16.9127V10H10.5147ZM22.7944 10.168C22.0757 10.168 21.4411 10.0467 20.8904 9.804C20.3397 9.552 19.9057 9.19733 19.5884 8.74C19.2711 8.27333 19.1077 7.70867 19.0984 7.046H20.9884C21.0071 7.50333 21.1704 7.89067 21.4784 8.208C21.7957 8.516 22.2297 8.67 22.7804 8.67C23.2564 8.67 23.6344 8.558 23.9144 8.334C24.1944 8.10067 24.3344 7.79267 24.3344 7.41C24.3344 7.00867 24.2084 6.696 23.9564 6.472C23.7137 6.248 23.3871 6.066 22.9764 5.926C22.5657 5.786 22.1271 5.63667 21.6604 5.478C20.9044 5.21667 20.3257 4.88067 19.9244 4.47C19.5324 4.05933 19.3364 3.51333 19.3364 2.832C19.3271 2.25333 19.4624 1.75867 19.7424 1.348C20.0317 0.927999 20.4237 0.605999 20.9184 0.381999C21.4131 0.148666 21.9824 0.0319998 22.6264 0.0319998C23.2797 0.0319998 23.8537 0.148666 24.3484 0.381999C24.8524 0.615333 25.2444 0.941999 25.5244 1.362C25.8137 1.782 25.9677 2.28133 25.9864 2.86H24.0684C24.0591 2.51467 23.9237 2.21133 23.6624 1.95C23.4104 1.67933 23.0557 1.544 22.5984 1.544C22.2064 1.53467 21.8751 1.63267 21.6044 1.838C21.3431 2.034 21.2124 2.32333 21.2124 2.706C21.2124 3.03267 21.3151 3.294 21.5204 3.49C21.7257 3.67667 22.0057 3.83533 22.3604 3.966C22.7151 4.09667 23.1211 4.23667 23.5784 4.386C24.0637 4.554 24.5071 4.75 24.9084 4.974C25.3097 5.198 25.6317 5.49667 25.8744 5.87C26.1171 6.234 26.2384 6.70533 26.2384 7.284C26.2384 7.79733 26.1077 8.27333 25.8464 8.712C25.5851 9.15067 25.1977 9.50533 24.6844 9.776C24.1711 10.0373 23.5411 10.168 22.7944 10.168ZM28.6419 10V0.199999H35.0399V1.642H30.4339V4.33H34.6199V5.73H30.4339V8.558H35.0399V10H28.6419ZM39.8577 10V1.642H37.0017V0.199999H44.5197V1.642H41.6497V10H39.8577ZM50.8631 10V0.199999H54.4891C55.2731 0.199999 55.9218 0.330666 56.4351 0.591999C56.9484 0.853333 57.3311 1.21267 57.5831 1.67C57.8351 2.12733 57.9611 2.64067 57.9611 3.21C57.9611 3.75133 57.8398 4.25067 57.5971 4.708C57.3544 5.156 56.9764 5.52 56.4631 5.8C55.9498 6.07067 55.2918 6.206 54.4891 6.206H52.6551V10H50.8631ZM52.6551 4.75H54.3771C55.0024 4.75 55.4504 4.61467 55.7211 4.344C56.0011 4.064 56.1411 3.686 56.1411 3.21C56.1411 2.72467 56.0011 2.34667 55.7211 2.076C55.4504 1.796 55.0024 1.656 54.3771 1.656H52.6551V4.75ZM58.5243 10L62.1083 0.199999H64.1243L67.7083 10H65.8043L65.0203 7.732H61.1983L60.4003 10H58.5243ZM61.6883 6.332H64.5303L63.1023 2.258L61.6883 6.332ZM73.1567 10.168C72.438 10.168 71.8033 10.0467 71.2527 9.804C70.702 9.552 70.268 9.19733 69.9507 8.74C69.6333 8.27333 69.47 7.70867 69.4607 7.046H71.3507C71.3693 7.50333 71.5327 7.89067 71.8407 8.208C72.158 8.516 72.592 8.67 73.1427 8.67C73.6187 8.67 73.9967 8.558 74.2767 8.334C74.5567 8.10067 74.6967 7.79267 74.6967 7.41C74.6967 7.00867 74.5707 6.696 74.3187 6.472C74.076 6.248 73.7493 6.066 73.3387 5.926C72.928 5.786 72.4893 5.63667 72.0227 5.478C71.2667 5.21667 70.688 4.88067 70.2867 4.47C69.8947 4.05933 69.6987 3.51333 69.6987 2.832C69.6893 2.25333 69.8247 1.75867 70.1047 1.348C70.394 0.927999 70.786 0.605999 71.2807 0.381999C71.7753 0.148666 72.3447 0.0319998 72.9887 0.0319998C73.642 0.0319998 74.216 0.148666 74.7107 0.381999C75.2147 0.615333 75.6067 0.941999 75.8867 1.362C76.176 1.782 76.33 2.28133 76.3487 2.86H74.4307C74.4213 2.51467 74.286 2.21133 74.0247 1.95C73.7727 1.67933 73.418 1.544 72.9607 1.544C72.5687 1.53467 72.2373 1.63267 71.9667 1.838C71.7053 2.034 71.5747 2.32333 71.5747 2.706C71.5747 3.03267 71.6773 3.294 71.8827 3.49C72.088 3.67667 72.368 3.83533 72.7227 3.966C73.0773 4.09667 73.4833 4.23667 73.9407 4.386C74.426 4.554 74.8693 4.75 75.2707 4.974C75.672 5.198 75.994 5.49667 76.2367 5.87C76.4793 6.234 76.6007 6.70533 76.6007 7.284C76.6007 7.79733 76.47 8.27333 76.2087 8.712C75.9473 9.15067 75.56 9.50533 75.0467 9.776C74.5333 10.0373 73.9033 10.168 73.1567 10.168ZM82.3502 10.168C81.6315 10.168 80.9969 10.0467 80.4462 9.804C79.8955 9.552 79.4615 9.19733 79.1442 8.74C78.8269 8.27333 78.6635 7.70867 78.6542 7.046H80.5442C80.5629 7.50333 80.7262 7.89067 81.0342 8.208C81.3515 8.516 81.7855 8.67 82.3362 8.67C82.8122 8.67 83.1902 8.558 83.4702 8.334C83.7502 8.10067 83.8902 7.79267 83.8902 7.41C83.8902 7.00867 83.7642 6.696 83.5122 6.472C83.2695 6.248 82.9429 6.066 82.5322 5.926C82.1215 5.786 81.6829 5.63667 81.2162 5.478C80.4602 5.21667 79.8815 4.88067 79.4802 4.47C79.0882 4.05933 78.8922 3.51333 78.8922 2.832C78.8829 2.25333 79.0182 1.75867 79.2982 1.348C79.5875 0.927999 79.9795 0.605999 80.4742 0.381999C80.9689 0.148666 81.5382 0.0319998 82.1822 0.0319998C82.8355 0.0319998 83.4095 0.148666 83.9042 0.381999C84.4082 0.615333 84.8002 0.941999 85.0802 1.362C85.3695 1.782 85.5235 2.28133 85.5422 2.86H83.6242C83.6149 2.51467 83.4795 2.21133 83.2182 1.95C82.9662 1.67933 82.6115 1.544 82.1542 1.544C81.7622 1.53467 81.4309 1.63267 81.1602 1.838C80.8989 2.034 80.7682 2.32333 80.7682 2.706C80.7682 3.03267 80.8709 3.294 81.0762 3.49C81.2815 3.67667 81.5615 3.83533 81.9162 3.966C82.2709 4.09667 82.6769 4.23667 83.1342 4.386C83.6195 4.554 84.0629 4.75 84.4642 4.974C84.8655 5.198 85.1875 5.49667 85.4302 5.87C85.6729 6.234 85.7942 6.70533 85.7942 7.284C85.7942 7.79733 85.6635 8.27333 85.4022 8.712C85.1409 9.15067 84.7535 9.50533 84.2402 9.776C83.7269 10.0373 83.0969 10.168 82.3502 10.168ZM90.0627 10L87.4727 0.199999H89.3907L91.1547 7.998L93.2267 0.199999H95.2007L97.2167 7.998L98.9807 0.199999H100.913L98.2527 10H96.1247L94.1787 2.734L92.1767 10H90.0627ZM107.22 10.168C106.24 10.168 105.381 9.95333 104.644 9.524C103.916 9.09467 103.342 8.502 102.922 7.746C102.511 6.98067 102.306 6.09867 102.306 5.1C102.306 4.10133 102.511 3.224 102.922 2.468C103.342 1.70267 103.916 1.10533 104.644 0.676C105.381 0.246667 106.24 0.0319998 107.22 0.0319998C108.19 0.0319998 109.044 0.246667 109.782 0.676C110.519 1.10533 111.093 1.70267 111.504 2.468C111.914 3.224 112.12 4.10133 112.12 5.1C112.12 6.09867 111.914 6.98067 111.504 7.746C111.093 8.502 110.519 9.09467 109.782 9.524C109.044 9.95333 108.19 10.168 107.22 10.168ZM107.22 8.558C108.153 8.558 108.895 8.25 109.446 7.634C110.006 7.018 110.286 6.17333 110.286 5.1C110.286 4.02667 110.006 3.182 109.446 2.566C108.895 1.95 108.153 1.642 107.22 1.642C106.286 1.642 105.54 1.95 104.98 2.566C104.42 3.182 104.14 4.02667 104.14 5.1C104.14 6.17333 104.42 7.018 104.98 7.634C105.54 8.25 106.286 8.558 107.22 8.558ZM114.542 10V0.199999H118.14C118.924 0.199999 119.568 0.335333 120.072 0.606C120.585 0.867333 120.968 1.22667 121.22 1.684C121.472 2.132 121.598 2.63133 121.598 3.182C121.598 3.77933 121.439 4.32533 121.122 4.82C120.814 5.31467 120.328 5.674 119.666 5.898L121.696 10H119.638L117.818 6.136H116.334V10H114.542ZM116.334 4.82H118.028C118.625 4.82 119.064 4.67533 119.344 4.386C119.624 4.09667 119.764 3.714 119.764 3.238C119.764 2.77133 119.624 2.398 119.344 2.118C119.073 1.838 118.63 1.698 118.014 1.698H116.334V4.82ZM124.104 10V0.199999H127.45C128.598 0.199999 129.541 0.405333 130.278 0.816C131.025 1.21733 131.576 1.78667 131.93 2.524C132.294 3.252 132.476 4.11067 132.476 5.1C132.476 6.08933 132.294 6.95267 131.93 7.69C131.576 8.418 131.025 8.98733 130.278 9.398C129.541 9.79933 128.598 10 127.45 10H124.104ZM125.896 8.46H127.366C128.188 8.46 128.836 8.32933 129.312 8.068C129.788 7.79733 130.129 7.41467 130.334 6.92C130.54 6.416 130.642 5.80933 130.642 5.1C130.642 4.4 130.54 3.798 130.334 3.294C130.129 2.79 129.788 2.40267 129.312 2.132C128.836 1.86133 128.188 1.726 127.366 1.726H125.896V8.46Z" fill="white"/>
</svg>
