<svg width="42" height="15" viewBox="0 0 42 15" fill="none" xmlns="http://www.w3.org/2000/svg">
<path d="M7.08203 8.2793C7.08203 8.87174 6.9362 9.38216 6.64453 9.81055C6.35742 10.2389 5.94271 10.5671 5.40039 10.7949C4.86263 11.0228 4.22005 11.1367 3.47266 11.1367C3.10807 11.1367 2.75944 11.1162 2.42676 11.0752C2.09408 11.0342 1.77962 10.9749 1.4834 10.8975C1.19173 10.8154 0.92513 10.7174 0.683594 10.6035V9.05859C1.08919 9.23633 1.54264 9.39811 2.04395 9.54395C2.54525 9.68522 3.05566 9.75586 3.5752 9.75586C3.99902 9.75586 4.34993 9.70117 4.62793 9.5918C4.91048 9.47786 5.12012 9.31836 5.25684 9.11328C5.39355 8.90365 5.46191 8.65983 5.46191 8.38184C5.46191 8.08561 5.38216 7.83496 5.22266 7.62988C5.06315 7.4248 4.82161 7.23796 4.49805 7.06934C4.17904 6.89616 3.77799 6.71159 3.29492 6.51562C2.9668 6.38346 2.65234 6.23307 2.35156 6.06445C2.05534 5.89583 1.79102 5.69759 1.55859 5.46973C1.32617 5.24186 1.1416 4.97298 1.00488 4.66309C0.872721 4.34863 0.806641 3.97949 0.806641 3.55566C0.806641 2.99056 0.941081 2.50749 1.20996 2.10645C1.4834 1.7054 1.86621 1.39779 2.3584 1.18359C2.85514 0.969401 3.43392 0.862305 4.09473 0.862305C4.61882 0.862305 5.111 0.916992 5.57129 1.02637C6.03613 1.13574 6.49186 1.29069 6.93848 1.49121L6.41895 2.81055C6.00879 2.64193 5.61003 2.50749 5.22266 2.40723C4.83984 2.30697 4.44792 2.25684 4.04688 2.25684C3.70052 2.25684 3.40658 2.30924 3.16504 2.41406C2.9235 2.51888 2.73893 2.66699 2.61133 2.8584C2.48828 3.04525 2.42676 3.26855 2.42676 3.52832C2.42676 3.81999 2.4974 4.06608 2.63867 4.2666C2.78451 4.46257 3.00781 4.64258 3.30859 4.80664C3.61393 4.9707 4.00586 5.15299 4.48438 5.35352C5.03581 5.58138 5.50293 5.82064 5.88574 6.07129C6.27311 6.32194 6.56934 6.62272 6.77441 6.97363C6.97949 7.31999 7.08203 7.75521 7.08203 8.2793ZM11.8125 3.28906C12.7695 3.28906 13.4919 3.50098 13.9795 3.9248C14.4717 4.34863 14.7178 5.00944 14.7178 5.90723V11H13.5762L13.2686 9.92676H13.2139C12.9997 10.2002 12.7786 10.4258 12.5508 10.6035C12.3229 10.7812 12.0586 10.9134 11.7578 11C11.4616 11.0911 11.0993 11.1367 10.6709 11.1367C10.2197 11.1367 9.81641 11.0547 9.46094 10.8906C9.10547 10.722 8.8252 10.4668 8.62012 10.125C8.41504 9.7832 8.3125 9.35026 8.3125 8.82617C8.3125 8.04688 8.60189 7.46126 9.18066 7.06934C9.764 6.67741 10.6436 6.46094 11.8193 6.41992L13.1318 6.37207V5.97559C13.1318 5.4515 13.0088 5.0778 12.7627 4.85449C12.5212 4.63118 12.1794 4.51953 11.7373 4.51953C11.359 4.51953 10.9922 4.57422 10.6367 4.68359C10.2812 4.79297 9.9349 4.92741 9.59766 5.08691L9.07812 3.95215C9.44727 3.75618 9.86654 3.59668 10.3359 3.47363C10.8099 3.35059 11.3021 3.28906 11.8125 3.28906ZM13.125 7.38379L12.1475 7.41797C11.3454 7.44531 10.7826 7.58203 10.459 7.82812C10.1354 8.07422 9.97363 8.41146 9.97363 8.83984C9.97363 9.21354 10.0853 9.48698 10.3086 9.66016C10.5319 9.82878 10.8258 9.91309 11.1904 9.91309C11.7464 9.91309 12.2067 9.75586 12.5713 9.44141C12.9404 9.1224 13.125 8.65527 13.125 8.04004V7.38379ZM18.5801 11H16.9668V0.363281H18.5801V11ZM23.8438 3.28906C24.8008 3.28906 25.5231 3.50098 26.0107 3.9248C26.5029 4.34863 26.749 5.00944 26.749 5.90723V11H25.6074L25.2998 9.92676H25.2451C25.0309 10.2002 24.8099 10.4258 24.582 10.6035C24.3542 10.7812 24.0898 10.9134 23.7891 11C23.4928 11.0911 23.1305 11.1367 22.7021 11.1367C22.251 11.1367 21.8477 11.0547 21.4922 10.8906C21.1367 10.722 20.8564 10.4668 20.6514 10.125C20.4463 9.7832 20.3438 9.35026 20.3438 8.82617C20.3438 8.04688 20.6331 7.46126 21.2119 7.06934C21.7952 6.67741 22.6748 6.46094 23.8506 6.41992L25.1631 6.37207V5.97559C25.1631 5.4515 25.04 5.0778 24.7939 4.85449C24.5524 4.63118 24.2106 4.51953 23.7686 4.51953C23.3903 4.51953 23.0234 4.57422 22.668 4.68359C22.3125 4.79297 21.9661 4.92741 21.6289 5.08691L21.1094 3.95215C21.4785 3.75618 21.8978 3.59668 22.3672 3.47363C22.8411 3.35059 23.3333 3.28906 23.8438 3.28906ZM25.1562 7.38379L24.1787 7.41797C23.3766 7.44531 22.8138 7.58203 22.4902 7.82812C22.1667 8.07422 22.0049 8.41146 22.0049 8.83984C22.0049 9.21354 22.1165 9.48698 22.3398 9.66016C22.5632 9.82878 22.8571 9.91309 23.2217 9.91309C23.7777 9.91309 24.238 9.75586 24.6025 9.44141C24.9717 9.1224 25.1562 8.65527 25.1562 8.04004V7.38379ZM32.833 3.28906C32.9606 3.28906 33.0996 3.2959 33.25 3.30957C33.4004 3.32324 33.5303 3.34147 33.6396 3.36426L33.4893 4.86816C33.3936 4.84082 33.2751 4.82031 33.1338 4.80664C32.9971 4.79297 32.874 4.78613 32.7646 4.78613C32.4775 4.78613 32.2041 4.83398 31.9443 4.92969C31.6846 5.02083 31.4544 5.16211 31.2539 5.35352C31.0534 5.54036 30.8962 5.77507 30.7822 6.05762C30.6683 6.34017 30.6113 6.66829 30.6113 7.04199V11H28.998V3.43262H30.2559L30.4746 4.76562H30.5498C30.7002 4.49674 30.887 4.25065 31.1104 4.02734C31.3337 3.80404 31.5889 3.6263 31.876 3.49414C32.1676 3.35742 32.4867 3.28906 32.833 3.28906ZM33.8994 3.43262H35.6494L37.2012 7.75293C37.2695 7.94889 37.3311 8.14258 37.3857 8.33398C37.445 8.52083 37.4951 8.7054 37.5361 8.8877C37.5817 9.06999 37.6182 9.25228 37.6455 9.43457H37.6865C37.7321 9.19759 37.7959 8.93327 37.8779 8.6416C37.9645 8.34538 38.0602 8.04915 38.165 7.75293L39.6553 3.43262H41.3848L38.1377 12.0391C37.9508 12.5312 37.7207 12.9505 37.4473 13.2969C37.1784 13.6478 36.8594 13.9121 36.4902 14.0898C36.1211 14.2721 35.6995 14.3633 35.2256 14.3633C34.9977 14.3633 34.7995 14.3496 34.6309 14.3223C34.4622 14.2995 34.3187 14.2744 34.2002 14.2471V12.9619C34.2959 12.9847 34.4167 13.0052 34.5625 13.0234C34.7083 13.0417 34.8587 13.0508 35.0137 13.0508C35.3008 13.0508 35.5492 12.9938 35.7588 12.8799C35.9684 12.766 36.1462 12.6042 36.292 12.3945C36.4378 12.1895 36.5586 11.9548 36.6543 11.6904L36.9209 10.9795L33.8994 3.43262Z" fill="#150B3D"/>
</svg>
