<svg width="60" height="11" viewBox="0 0 60 11" fill="none" xmlns="http://www.w3.org/2000/svg">
<path d="M4.4689 10.168C3.75023 10.168 3.11557 10.0467 2.5649 9.804C2.01423 9.552 1.58023 9.19733 1.2629 8.74C0.945565 8.27333 0.782232 7.70867 0.772898 7.046H2.6629C2.68157 7.50333 2.8449 7.89067 3.1529 8.208C3.47023 8.516 3.90423 8.67 4.4549 8.67C4.9309 8.67 5.3089 8.558 5.5889 8.334C5.8689 8.10067 6.0089 7.79267 6.0089 7.41C6.0089 7.00867 5.8829 6.696 5.6309 6.472C5.38823 6.248 5.06157 6.066 4.6509 5.926C4.24023 5.786 3.80157 5.63667 3.3349 5.478C2.5789 5.21667 2.00023 4.88067 1.5989 4.47C1.2069 4.05933 1.0109 3.51333 1.0109 2.832C1.00157 2.25333 1.1369 1.75867 1.4169 1.348C1.70623 0.927999 2.09823 0.605999 2.5929 0.381999C3.08757 0.148666 3.6569 0.0319998 4.3009 0.0319998C4.95423 0.0319998 5.52823 0.148666 6.0229 0.381999C6.5269 0.615333 6.9189 0.941999 7.1989 1.362C7.48823 1.782 7.64223 2.28133 7.6609 2.86H5.7429C5.73357 2.51467 5.59823 2.21133 5.3369 1.95C5.0849 1.67933 4.73023 1.544 4.2729 1.544C3.8809 1.53467 3.54957 1.63267 3.2789 1.838C3.01757 2.034 2.8869 2.32333 2.8869 2.706C2.8869 3.03267 2.98957 3.294 3.1949 3.49C3.40023 3.67667 3.68023 3.83533 4.0349 3.966C4.38957 4.09667 4.79557 4.23667 5.2529 4.386C5.73823 4.554 6.18157 4.75 6.5829 4.974C6.98423 5.198 7.30623 5.49667 7.5489 5.87C7.79157 6.234 7.9129 6.70533 7.9129 7.284C7.9129 7.79733 7.78223 8.27333 7.5209 8.712C7.25957 9.15067 6.87223 9.50533 6.3589 9.776C5.84557 10.0373 5.21557 10.168 4.4689 10.168ZM10.3164 10V0.199999H12.1084V10H10.3164ZM19.1318 10.168C18.2078 10.168 17.4005 9.958 16.7098 9.538C16.0192 9.118 15.4825 8.53467 15.0998 7.788C14.7172 7.032 14.5258 6.15467 14.5258 5.156C14.5258 4.148 14.7218 3.26133 15.1138 2.496C15.5152 1.72133 16.0798 1.11933 16.8078 0.69C17.5452 0.251333 18.4178 0.0319998 19.4258 0.0319998C20.5738 0.0319998 21.5258 0.307333 22.2818 0.857999C23.0378 1.40867 23.5278 2.16933 23.7518 3.14H21.7498C21.6005 2.68267 21.3298 2.328 20.9378 2.076C20.5458 1.81467 20.0418 1.684 19.4258 1.684C18.4458 1.684 17.6898 1.99667 17.1578 2.622C16.6258 3.238 16.3598 4.08733 16.3598 5.17C16.3598 6.25267 16.6212 7.09267 17.1438 7.69C17.6758 8.278 18.3945 8.572 19.2998 8.572C20.1865 8.572 20.8538 8.334 21.3018 7.858C21.7592 7.37267 22.0345 6.738 22.1278 5.954H19.6498V4.61H23.9338V10H22.2818L22.1418 8.712C21.8245 9.17867 21.4278 9.538 20.9518 9.79C20.4758 10.042 19.8692 10.168 19.1318 10.168ZM26.5159 10V0.199999H28.3079L32.9139 7.102V0.199999H34.7059V10H32.9139L28.3079 3.112V10H26.5159ZM45.4017 10.168C44.6831 10.168 44.0344 10.028 43.4557 9.748C42.8771 9.45867 42.4151 9.02467 42.0697 8.446C41.7337 7.86733 41.5657 7.13467 41.5657 6.248V0.199999H43.3577V6.262C43.3577 7.02733 43.5397 7.59667 43.9037 7.97C44.2771 8.34333 44.7904 8.53 45.4437 8.53C46.0877 8.53 46.5964 8.34333 46.9697 7.97C47.3431 7.59667 47.5297 7.02733 47.5297 6.262V0.199999H49.3217V6.248C49.3217 7.13467 49.1444 7.86733 48.7897 8.446C48.4351 9.02467 47.9591 9.45867 47.3617 9.748C46.7737 10.028 46.1204 10.168 45.4017 10.168ZM51.991 10V0.199999H55.617C56.401 0.199999 57.0497 0.330666 57.563 0.591999C58.0764 0.853333 58.459 1.21267 58.711 1.67C58.963 2.12733 59.089 2.64067 59.089 3.21C59.089 3.75133 58.9677 4.25067 58.725 4.708C58.4824 5.156 58.1044 5.52 57.591 5.8C57.0777 6.07067 56.4197 6.206 55.617 6.206H53.783V10H51.991ZM53.783 4.75H55.505C56.1304 4.75 56.5784 4.61467 56.849 4.344C57.129 4.064 57.269 3.686 57.269 3.21C57.269 2.72467 57.129 2.34667 56.849 2.076C56.5784 1.796 56.1304 1.656 55.505 1.656H53.783V4.75Z" fill="white"/>
</svg>
