<svg width="171" height="11" viewBox="0 0 171 11" fill="none" xmlns="http://www.w3.org/2000/svg">
<path d="M4.298 10.168C3.57933 10.168 2.94467 10.0467 2.394 9.804C1.84333 9.552 1.40933 9.19733 1.092 8.74C0.774667 8.27333 0.611333 7.70867 0.602 7.046H2.492C2.51067 7.50333 2.674 7.89067 2.982 8.208C3.29933 8.516 3.73333 8.67 4.284 8.67C4.76 8.67 5.138 8.558 5.418 8.334C5.698 8.10067 5.838 7.79267 5.838 7.41C5.838 7.00867 5.712 6.696 5.46 6.472C5.21733 6.248 4.89067 6.066 4.48 5.926C4.06933 5.786 3.63067 5.63667 3.164 5.478C2.408 5.21667 1.82933 4.88067 1.428 4.47C1.036 4.05933 0.84 3.51333 0.84 2.832C0.830667 2.25333 0.966 1.75867 1.246 1.348C1.53533 0.927999 1.92733 0.605999 2.422 0.381999C2.91667 0.148666 3.486 0.0319998 4.13 0.0319998C4.78333 0.0319998 5.35733 0.148666 5.852 0.381999C6.356 0.615333 6.748 0.941999 7.028 1.362C7.31733 1.782 7.47133 2.28133 7.49 2.86H5.572C5.56267 2.51467 5.42733 2.21133 5.166 1.95C4.914 1.67933 4.55933 1.544 4.102 1.544C3.71 1.53467 3.37867 1.63267 3.108 1.838C2.84667 2.034 2.716 2.32333 2.716 2.706C2.716 3.03267 2.81867 3.294 3.024 3.49C3.22933 3.67667 3.50933 3.83533 3.864 3.966C4.21867 4.09667 4.62467 4.23667 5.082 4.386C5.56733 4.554 6.01067 4.75 6.412 4.974C6.81333 5.198 7.13533 5.49667 7.378 5.87C7.62067 6.234 7.742 6.70533 7.742 7.284C7.742 7.79733 7.61133 8.27333 7.35 8.712C7.08867 9.15067 6.70133 9.50533 6.188 9.776C5.67467 10.0373 5.04467 10.168 4.298 10.168ZM10.1455 10V0.199999H11.9375V10H10.1455ZM18.9609 10.168C18.0369 10.168 17.2296 9.958 16.5389 9.538C15.8483 9.118 15.3116 8.53467 14.9289 7.788C14.5463 7.032 14.3549 6.15467 14.3549 5.156C14.3549 4.148 14.5509 3.26133 14.9429 2.496C15.3443 1.72133 15.9089 1.11933 16.6369 0.69C17.3743 0.251333 18.2469 0.0319998 19.2549 0.0319998C20.4029 0.0319998 21.3549 0.307333 22.1109 0.857999C22.8669 1.40867 23.3569 2.16933 23.5809 3.14H21.5789C21.4296 2.68267 21.1589 2.328 20.7669 2.076C20.3749 1.81467 19.8709 1.684 19.2549 1.684C18.2749 1.684 17.5189 1.99667 16.9869 2.622C16.4549 3.238 16.1889 4.08733 16.1889 5.17C16.1889 6.25267 16.4503 7.09267 16.9729 7.69C17.5049 8.278 18.2236 8.572 19.1289 8.572C20.0156 8.572 20.6829 8.334 21.1309 7.858C21.5883 7.37267 21.8636 6.738 21.9569 5.954H19.4789V4.61H23.7629V10H22.1109L21.9709 8.712C21.6536 9.17867 21.2569 9.538 20.7809 9.79C20.3049 10.042 19.6983 10.168 18.9609 10.168ZM26.345 10V0.199999H28.137L32.743 7.102V0.199999H34.535V10H32.743L28.137 3.112V10H26.345ZM45.2308 10.168C44.5122 10.168 43.8635 10.028 43.2848 9.748C42.7062 9.45867 42.2442 9.02467 41.8988 8.446C41.5628 7.86733 41.3948 7.13467 41.3948 6.248V0.199999H43.1868V6.262C43.1868 7.02733 43.3688 7.59667 43.7328 7.97C44.1062 8.34333 44.6195 8.53 45.2728 8.53C45.9168 8.53 46.4255 8.34333 46.7988 7.97C47.1722 7.59667 47.3588 7.02733 47.3588 6.262V0.199999H49.1508V6.248C49.1508 7.13467 48.9735 7.86733 48.6188 8.446C48.2642 9.02467 47.7882 9.45867 47.1908 9.748C46.6028 10.028 45.9495 10.168 45.2308 10.168ZM51.8201 10V0.199999H55.4461C56.2301 0.199999 56.8788 0.330666 57.3921 0.591999C57.9055 0.853333 58.2881 1.21267 58.5401 1.67C58.7921 2.12733 58.9181 2.64067 58.9181 3.21C58.9181 3.75133 58.7968 4.25067 58.5541 4.708C58.3115 5.156 57.9335 5.52 57.4201 5.8C56.9068 6.07067 56.2488 6.206 55.4461 6.206H53.6121V10H51.8201ZM53.6121 4.75H55.3341C55.9595 4.75 56.4075 4.61467 56.6781 4.344C56.9581 4.064 57.0981 3.686 57.0981 3.21C57.0981 2.72467 56.9581 2.34667 56.6781 2.076C56.4075 1.796 55.9595 1.656 55.3341 1.656H53.6121V4.75ZM67.328 10L64.738 0.199999H66.656L68.42 7.998L70.492 0.199999H72.466L74.482 7.998L76.246 0.199999H78.178L75.518 10H73.39L71.444 2.734L69.442 10H67.328ZM80.3167 10V0.199999H82.1087V10H80.3167ZM87.1301 10V1.642H84.2741V0.199999H91.7921V1.642H88.9221V10H87.1301ZM93.9596 10V0.199999H95.7516V4.274H100.148V0.199999H101.94V10H100.148V5.73H95.7516V10H93.9596ZM113.144 10.168C112.22 10.168 111.413 9.958 110.722 9.538C110.032 9.118 109.495 8.53467 109.112 7.788C108.73 7.032 108.538 6.15467 108.538 5.156C108.538 4.148 108.734 3.26133 109.126 2.496C109.528 1.72133 110.092 1.11933 110.82 0.69C111.558 0.251333 112.43 0.0319998 113.438 0.0319998C114.586 0.0319998 115.538 0.307333 116.294 0.857999C117.05 1.40867 117.54 2.16933 117.764 3.14H115.762C115.613 2.68267 115.342 2.328 114.95 2.076C114.558 1.81467 114.054 1.684 113.438 1.684C112.458 1.684 111.702 1.99667 111.17 2.622C110.638 3.238 110.372 4.08733 110.372 5.17C110.372 6.25267 110.634 7.09267 111.156 7.69C111.688 8.278 112.407 8.572 113.312 8.572C114.199 8.572 114.866 8.334 115.314 7.858C115.772 7.37267 116.047 6.738 116.14 5.954H113.662V4.61H117.946V10H116.294L116.154 8.712C115.837 9.17867 115.44 9.538 114.964 9.79C114.488 10.042 113.882 10.168 113.144 10.168ZM125.12 10.168C124.14 10.168 123.282 9.95333 122.544 9.524C121.816 9.09467 121.242 8.502 120.822 7.746C120.412 6.98067 120.206 6.09867 120.206 5.1C120.206 4.10133 120.412 3.224 120.822 2.468C121.242 1.70267 121.816 1.10533 122.544 0.676C123.282 0.246667 124.14 0.0319998 125.12 0.0319998C126.091 0.0319998 126.945 0.246667 127.682 0.676C128.42 1.10533 128.994 1.70267 129.404 2.468C129.815 3.224 130.02 4.10133 130.02 5.1C130.02 6.09867 129.815 6.98067 129.404 7.746C128.994 8.502 128.42 9.09467 127.682 9.524C126.945 9.95333 126.091 10.168 125.12 10.168ZM125.12 8.558C126.054 8.558 126.796 8.25 127.346 7.634C127.906 7.018 128.186 6.17333 128.186 5.1C128.186 4.02667 127.906 3.182 127.346 2.566C126.796 1.95 126.054 1.642 125.12 1.642C124.187 1.642 123.44 1.95 122.88 2.566C122.32 3.182 122.04 4.02667 122.04 5.1C122.04 6.17333 122.32 7.018 122.88 7.634C123.44 8.25 124.187 8.558 125.12 8.558ZM137.035 10.168C136.055 10.168 135.196 9.95333 134.459 9.524C133.731 9.09467 133.157 8.502 132.737 7.746C132.326 6.98067 132.121 6.09867 132.121 5.1C132.121 4.10133 132.326 3.224 132.737 2.468C133.157 1.70267 133.731 1.10533 134.459 0.676C135.196 0.246667 136.055 0.0319998 137.035 0.0319998C138.005 0.0319998 138.859 0.246667 139.597 0.676C140.334 1.10533 140.908 1.70267 141.319 2.468C141.729 3.224 141.935 4.10133 141.935 5.1C141.935 6.09867 141.729 6.98067 141.319 7.746C140.908 8.502 140.334 9.09467 139.597 9.524C138.859 9.95333 138.005 10.168 137.035 10.168ZM137.035 8.558C137.968 8.558 138.71 8.25 139.261 7.634C139.821 7.018 140.101 6.17333 140.101 5.1C140.101 4.02667 139.821 3.182 139.261 2.566C138.71 1.95 137.968 1.642 137.035 1.642C136.101 1.642 135.355 1.95 134.795 2.566C134.235 3.182 133.955 4.02667 133.955 5.1C133.955 6.17333 134.235 7.018 134.795 7.634C135.355 8.25 136.101 8.558 137.035 8.558ZM148.641 10.168C147.717 10.168 146.91 9.958 146.219 9.538C145.528 9.118 144.992 8.53467 144.609 7.788C144.226 7.032 144.035 6.15467 144.035 5.156C144.035 4.148 144.231 3.26133 144.623 2.496C145.024 1.72133 145.589 1.11933 146.317 0.69C147.054 0.251333 147.927 0.0319998 148.935 0.0319998C150.083 0.0319998 151.035 0.307333 151.791 0.857999C152.547 1.40867 153.037 2.16933 153.261 3.14H151.259C151.11 2.68267 150.839 2.328 150.447 2.076C150.055 1.81467 149.551 1.684 148.935 1.684C147.955 1.684 147.199 1.99667 146.667 2.622C146.135 3.238 145.869 4.08733 145.869 5.17C145.869 6.25267 146.13 7.09267 146.653 7.69C147.185 8.278 147.904 8.572 148.809 8.572C149.696 8.572 150.363 8.334 150.811 7.858C151.268 7.37267 151.544 6.738 151.637 5.954H149.159V4.61H153.443V10H151.791L151.651 8.712C151.334 9.17867 150.937 9.538 150.461 9.79C149.985 10.042 149.378 10.168 148.641 10.168ZM156.025 10V0.199999H157.817V8.6H162.157V10H156.025ZM164.576 10V0.199999H170.974V1.642H166.368V4.33H170.554V5.73H166.368V8.558H170.974V10H164.576Z" fill="white"/>
</svg>
