<svg width="167" height="11" viewBox="0 0 167 11" fill="none" xmlns="http://www.w3.org/2000/svg">
<path d="M4.298 10.168C3.57933 10.168 2.94467 10.0467 2.394 9.804C1.84333 9.552 1.40933 9.19733 1.092 8.74C0.774667 8.27333 0.611333 7.70867 0.602 7.046H2.492C2.51067 7.50333 2.674 7.89067 2.982 8.208C3.29933 8.516 3.73333 8.67 4.284 8.67C4.76 8.67 5.138 8.558 5.418 8.334C5.698 8.10067 5.838 7.79267 5.838 7.41C5.838 7.00867 5.712 6.696 5.46 6.472C5.21733 6.248 4.89067 6.066 4.48 5.926C4.06933 5.786 3.63067 5.63667 3.164 5.478C2.408 5.21667 1.82933 4.88067 1.428 4.47C1.036 4.05933 0.84 3.51333 0.84 2.832C0.830667 2.25333 0.966 1.75867 1.246 1.348C1.53533 0.927999 1.92733 0.605999 2.422 0.381999C2.91667 0.148666 3.486 0.0319998 4.13 0.0319998C4.78333 0.0319998 5.35733 0.148666 5.852 0.381999C6.356 0.615333 6.748 0.941999 7.028 1.362C7.31733 1.782 7.47133 2.28133 7.49 2.86H5.572C5.56267 2.51467 5.42733 2.21133 5.166 1.95C4.914 1.67933 4.55933 1.544 4.102 1.544C3.71 1.53467 3.37867 1.63267 3.108 1.838C2.84667 2.034 2.716 2.32333 2.716 2.706C2.716 3.03267 2.81867 3.294 3.024 3.49C3.22933 3.67667 3.50933 3.83533 3.864 3.966C4.21867 4.09667 4.62467 4.23667 5.082 4.386C5.56733 4.554 6.01067 4.75 6.412 4.974C6.81333 5.198 7.13533 5.49667 7.378 5.87C7.62067 6.234 7.742 6.70533 7.742 7.284C7.742 7.79733 7.61133 8.27333 7.35 8.712C7.08867 9.15067 6.70133 9.50533 6.188 9.776C5.67467 10.0373 5.04467 10.168 4.298 10.168ZM10.1455 10V0.199999H11.9375V10H10.1455ZM18.9609 10.168C18.0369 10.168 17.2296 9.958 16.5389 9.538C15.8483 9.118 15.3116 8.53467 14.9289 7.788C14.5463 7.032 14.3549 6.15467 14.3549 5.156C14.3549 4.148 14.5509 3.26133 14.9429 2.496C15.3443 1.72133 15.9089 1.11933 16.6369 0.69C17.3743 0.251333 18.2469 0.0319998 19.2549 0.0319998C20.4029 0.0319998 21.3549 0.307333 22.1109 0.857999C22.8669 1.40867 23.3569 2.16933 23.5809 3.14H21.5789C21.4296 2.68267 21.1589 2.328 20.7669 2.076C20.3749 1.81467 19.8709 1.684 19.2549 1.684C18.2749 1.684 17.5189 1.99667 16.9869 2.622C16.4549 3.238 16.1889 4.08733 16.1889 5.17C16.1889 6.25267 16.4503 7.09267 16.9729 7.69C17.5049 8.278 18.2236 8.572 19.1289 8.572C20.0156 8.572 20.6829 8.334 21.1309 7.858C21.5883 7.37267 21.8636 6.738 21.9569 5.954H19.4789V4.61H23.7629V10H22.1109L21.9709 8.712C21.6536 9.17867 21.2569 9.538 20.7809 9.79C20.3049 10.042 19.6983 10.168 18.9609 10.168ZM26.345 10V0.199999H28.137L32.743 7.102V0.199999H34.535V10H32.743L28.137 3.112V10H26.345ZM41.4508 10V0.199999H43.2428V10H41.4508ZM45.9822 10V0.199999H47.7742L52.3802 7.102V0.199999H54.1722V10H52.3802L47.7742 3.112V10H45.9822ZM63.076 10L60.486 0.199999H62.404L64.168 7.998L66.24 0.199999H68.214L70.23 7.998L71.994 0.199999H73.926L71.266 10H69.138L67.192 2.734L65.19 10H63.076ZM76.0647 10V0.199999H77.8567V10H76.0647ZM82.8781 10V1.642H80.0221V0.199999H87.5401V1.642H84.6701V10H82.8781ZM89.7076 10V0.199999H91.4996V4.274H95.8956V0.199999H97.6876V10H95.8956V5.73H91.4996V10H89.7076ZM108.892 10.168C107.968 10.168 107.161 9.958 106.47 9.538C105.78 9.118 105.243 8.53467 104.86 7.788C104.478 7.032 104.286 6.15467 104.286 5.156C104.286 4.148 104.482 3.26133 104.874 2.496C105.276 1.72133 105.84 1.11933 106.568 0.69C107.306 0.251333 108.178 0.0319998 109.186 0.0319998C110.334 0.0319998 111.286 0.307333 112.042 0.857999C112.798 1.40867 113.288 2.16933 113.512 3.14H111.51C111.361 2.68267 111.09 2.328 110.698 2.076C110.306 1.81467 109.802 1.684 109.186 1.684C108.206 1.684 107.45 1.99667 106.918 2.622C106.386 3.238 106.12 4.08733 106.12 5.17C106.12 6.25267 106.382 7.09267 106.904 7.69C107.436 8.278 108.155 8.572 109.06 8.572C109.947 8.572 110.614 8.334 111.062 7.858C111.52 7.37267 111.795 6.738 111.888 5.954H109.41V4.61H113.694V10H112.042L111.902 8.712C111.585 9.17867 111.188 9.538 110.712 9.79C110.236 10.042 109.63 10.168 108.892 10.168ZM120.868 10.168C119.888 10.168 119.03 9.95333 118.292 9.524C117.564 9.09467 116.99 8.502 116.57 7.746C116.16 6.98067 115.954 6.09867 115.954 5.1C115.954 4.10133 116.16 3.224 116.57 2.468C116.99 1.70267 117.564 1.10533 118.292 0.676C119.03 0.246667 119.888 0.0319998 120.868 0.0319998C121.839 0.0319998 122.693 0.246667 123.43 0.676C124.168 1.10533 124.742 1.70267 125.152 2.468C125.563 3.224 125.768 4.10133 125.768 5.1C125.768 6.09867 125.563 6.98067 125.152 7.746C124.742 8.502 124.168 9.09467 123.43 9.524C122.693 9.95333 121.839 10.168 120.868 10.168ZM120.868 8.558C121.802 8.558 122.544 8.25 123.094 7.634C123.654 7.018 123.934 6.17333 123.934 5.1C123.934 4.02667 123.654 3.182 123.094 2.566C122.544 1.95 121.802 1.642 120.868 1.642C119.935 1.642 119.188 1.95 118.628 2.566C118.068 3.182 117.788 4.02667 117.788 5.1C117.788 6.17333 118.068 7.018 118.628 7.634C119.188 8.25 119.935 8.558 120.868 8.558ZM132.783 10.168C131.803 10.168 130.944 9.95333 130.207 9.524C129.479 9.09467 128.905 8.502 128.485 7.746C128.074 6.98067 127.869 6.09867 127.869 5.1C127.869 4.10133 128.074 3.224 128.485 2.468C128.905 1.70267 129.479 1.10533 130.207 0.676C130.944 0.246667 131.803 0.0319998 132.783 0.0319998C133.753 0.0319998 134.607 0.246667 135.345 0.676C136.082 1.10533 136.656 1.70267 137.067 2.468C137.477 3.224 137.683 4.10133 137.683 5.1C137.683 6.09867 137.477 6.98067 137.067 7.746C136.656 8.502 136.082 9.09467 135.345 9.524C134.607 9.95333 133.753 10.168 132.783 10.168ZM132.783 8.558C133.716 8.558 134.458 8.25 135.009 7.634C135.569 7.018 135.849 6.17333 135.849 5.1C135.849 4.02667 135.569 3.182 135.009 2.566C134.458 1.95 133.716 1.642 132.783 1.642C131.849 1.642 131.103 1.95 130.543 2.566C129.983 3.182 129.703 4.02667 129.703 5.1C129.703 6.17333 129.983 7.018 130.543 7.634C131.103 8.25 131.849 8.558 132.783 8.558ZM144.389 10.168C143.465 10.168 142.658 9.958 141.967 9.538C141.276 9.118 140.74 8.53467 140.357 7.788C139.974 7.032 139.783 6.15467 139.783 5.156C139.783 4.148 139.979 3.26133 140.371 2.496C140.772 1.72133 141.337 1.11933 142.065 0.69C142.802 0.251333 143.675 0.0319998 144.683 0.0319998C145.831 0.0319998 146.783 0.307333 147.539 0.857999C148.295 1.40867 148.785 2.16933 149.009 3.14H147.007C146.858 2.68267 146.587 2.328 146.195 2.076C145.803 1.81467 145.299 1.684 144.683 1.684C143.703 1.684 142.947 1.99667 142.415 2.622C141.883 3.238 141.617 4.08733 141.617 5.17C141.617 6.25267 141.878 7.09267 142.401 7.69C142.933 8.278 143.652 8.572 144.557 8.572C145.444 8.572 146.111 8.334 146.559 7.858C147.016 7.37267 147.292 6.738 147.385 5.954H144.907V4.61H149.191V10H147.539L147.399 8.712C147.082 9.17867 146.685 9.538 146.209 9.79C145.733 10.042 145.126 10.168 144.389 10.168ZM151.773 10V0.199999H153.565V8.6H157.905V10H151.773ZM160.324 10V0.199999H166.722V1.642H162.116V4.33H166.302V5.73H162.116V8.558H166.722V10H160.324Z" fill="#130160"/>
</svg>
