<svg width="183" height="29" viewBox="0 0 183 29" fill="none" xmlns="http://www.w3.org/2000/svg">
<path d="M8.21 22.36C6.67 22.36 5.31 22.1 4.13 21.58C2.95 21.04 2.02 20.28 1.34 19.3C0.66 18.3 0.31 17.09 0.29 15.67H4.34C4.38 16.65 4.73 17.48 5.39 18.16C6.07 18.82 7 19.15 8.18 19.15C9.2 19.15 10.01 18.91 10.61 18.43C11.21 17.93 11.51 17.27 11.51 16.45C11.51 15.59 11.24 14.92 10.7 14.44C10.18 13.96 9.48 13.57 8.6 13.27C7.72 12.97 6.78 12.65 5.78 12.31C4.16 11.75 2.92 11.03 2.06 10.15C1.22 9.27 0.8 8.1 0.8 6.64C0.78 5.4 1.07 4.34 1.67 3.46C2.29 2.56 3.13 1.87 4.19 1.39C5.25 0.889999 6.47 0.64 7.85 0.64C9.25 0.64 10.48 0.889999 11.54 1.39C12.62 1.89 13.46 2.59 14.06 3.49C14.68 4.39 15.01 5.46 15.05 6.7H10.94C10.92 5.96 10.63 5.31 10.07 4.75C9.53 4.17 8.77 3.88 7.79 3.88C6.95 3.86 6.24 4.07 5.66 4.51C5.1 4.93 4.82 5.55 4.82 6.37C4.82 7.07 5.04 7.63 5.48 8.05C5.92 8.45 6.52 8.79 7.28 9.07C8.04 9.35 8.91 9.65 9.89 9.97C10.93 10.33 11.88 10.75 12.74 11.23C13.6 11.71 14.29 12.35 14.81 13.15C15.33 13.93 15.59 14.94 15.59 16.18C15.59 17.28 15.31 18.3 14.75 19.24C14.19 20.18 13.36 20.94 12.26 21.52C11.16 22.08 9.81 22.36 8.21 22.36ZM24.4304 22.36C22.5704 22.36 21.1304 21.78 20.1104 20.62C19.1104 19.46 18.6104 17.76 18.6104 15.52V7.12H22.4204V15.16C22.4204 16.44 22.6804 17.42 23.2004 18.1C23.7204 18.78 24.5404 19.12 25.6604 19.12C26.7204 19.12 27.5904 18.74 28.2704 17.98C28.9704 17.22 29.3204 16.16 29.3204 14.8V7.12H33.1604V22H29.7704L29.4704 19.48C29.0104 20.36 28.3404 21.06 27.4604 21.58C26.6004 22.1 25.5904 22.36 24.4304 22.36ZM44.3923 22.36C42.8723 22.36 41.5323 22.03 40.3723 21.37C39.2123 20.71 38.2923 19.79 37.6123 18.61C36.9523 17.43 36.6223 16.08 36.6223 14.56C36.6223 13.04 36.9523 11.69 37.6123 10.51C38.2923 9.33 39.2123 8.41 40.3723 7.75C41.5323 7.09 42.8723 6.76 44.3923 6.76C46.2923 6.76 47.8923 7.26 49.1923 8.26C50.4923 9.24 51.3223 10.6 51.6823 12.34H47.6323C47.4323 11.62 47.0323 11.06 46.4323 10.66C45.8523 10.24 45.1623 10.03 44.3623 10.03C43.3023 10.03 42.4023 10.43 41.6623 11.23C40.9223 12.03 40.5523 13.14 40.5523 14.56C40.5523 15.98 40.9223 17.09 41.6623 17.89C42.4023 18.69 43.3023 19.09 44.3623 19.09C45.1623 19.09 45.8523 18.89 46.4323 18.49C47.0323 18.09 47.4323 17.52 47.6323 16.78H51.6823C51.3223 18.46 50.4923 19.81 49.1923 20.83C47.8923 21.85 46.2923 22.36 44.3923 22.36ZM62.3806 22.36C60.8606 22.36 59.5206 22.03 58.3606 21.37C57.2006 20.71 56.2806 19.79 55.6006 18.61C54.9406 17.43 54.6106 16.08 54.6106 14.56C54.6106 13.04 54.9406 11.69 55.6006 10.51C56.2806 9.33 57.2006 8.41 58.3606 7.75C59.5206 7.09 60.8606 6.76 62.3806 6.76C64.2806 6.76 65.8806 7.26 67.1806 8.26C68.4806 9.24 69.3106 10.6 69.6706 12.34H65.6206C65.4206 11.62 65.0206 11.06 64.4206 10.66C63.8406 10.24 63.1506 10.03 62.3506 10.03C61.2906 10.03 60.3906 10.43 59.6506 11.23C58.9106 12.03 58.5406 13.14 58.5406 14.56C58.5406 15.98 58.9106 17.09 59.6506 17.89C60.3906 18.69 61.2906 19.09 62.3506 19.09C63.1506 19.09 63.8406 18.89 64.4206 18.49C65.0206 18.09 65.4206 17.52 65.6206 16.78H69.6706C69.3106 18.46 68.4806 19.81 67.1806 20.83C65.8806 21.85 64.2806 22.36 62.3806 22.36ZM80.3089 22.36C78.8089 22.36 77.4789 22.04 76.3189 21.4C75.1589 20.76 74.2489 19.86 73.5889 18.7C72.9289 17.54 72.5989 16.2 72.5989 14.68C72.5989 13.14 72.9189 11.77 73.5589 10.57C74.2189 9.37 75.1189 8.44 76.2589 7.78C77.4189 7.1 78.7789 6.76 80.3389 6.76C81.7989 6.76 83.0889 7.08 84.2089 7.72C85.3289 8.36 86.1989 9.24 86.8189 10.36C87.4589 11.46 87.7789 12.69 87.7789 14.05C87.7789 14.27 87.7689 14.5 87.7489 14.74C87.7489 14.98 87.7389 15.23 87.7189 15.49H76.4089C76.4889 16.65 76.8889 17.56 77.6089 18.22C78.3489 18.88 79.2389 19.21 80.2789 19.21C81.0589 19.21 81.7089 19.04 82.2289 18.7C82.7689 18.34 83.1689 17.88 83.4289 17.32H87.3289C87.0489 18.26 86.5789 19.12 85.9189 19.9C85.2789 20.66 84.4789 21.26 83.5189 21.7C82.5789 22.14 81.5089 22.36 80.3089 22.36ZM80.3389 9.88C79.3989 9.88 78.5689 10.15 77.8489 10.69C77.1289 11.21 76.6689 12.01 76.4689 13.09H83.8789C83.8189 12.11 83.4589 11.33 82.7989 10.75C82.1389 10.17 81.3189 9.88 80.3389 9.88ZM97.1586 22.36C95.8386 22.36 94.6786 22.15 93.6786 21.73C92.6786 21.29 91.8786 20.69 91.2786 19.93C90.6786 19.17 90.3186 18.29 90.1986 17.29H94.0686C94.1886 17.87 94.5086 18.37 95.0286 18.79C95.5686 19.19 96.2586 19.39 97.0986 19.39C97.9386 19.39 98.5486 19.22 98.9286 18.88C99.3286 18.54 99.5286 18.15 99.5286 17.71C99.5286 17.07 99.2486 16.64 98.6886 16.42C98.1286 16.18 97.3486 15.95 96.3486 15.73C95.7086 15.59 95.0586 15.42 94.3986 15.22C93.7386 15.02 93.1286 14.77 92.5686 14.47C92.0286 14.15 91.5886 13.75 91.2486 13.27C90.9086 12.77 90.7386 12.16 90.7386 11.44C90.7386 10.12 91.2586 9.01 92.2986 8.11C93.3586 7.21 94.8386 6.76 96.7386 6.76C98.4986 6.76 99.8986 7.17 100.939 7.99C101.999 8.81 102.629 9.94 102.829 11.38H99.1986C98.9786 10.28 98.1486 9.73 96.7086 9.73C95.9886 9.73 95.4286 9.87 95.0286 10.15C94.6486 10.43 94.4586 10.78 94.4586 11.2C94.4586 11.64 94.7486 11.99 95.3286 12.25C95.9086 12.51 96.6786 12.75 97.6386 12.97C98.6786 13.21 99.6286 13.48 100.489 13.78C101.369 14.06 102.069 14.49 102.589 15.07C103.109 15.63 103.369 16.44 103.369 17.5C103.389 18.42 103.149 19.25 102.649 19.99C102.149 20.73 101.429 21.31 100.489 21.73C99.5486 22.15 98.4386 22.36 97.1586 22.36ZM112.92 22.36C111.6 22.36 110.44 22.15 109.44 21.73C108.44 21.29 107.64 20.69 107.04 19.93C106.44 19.17 106.08 18.29 105.96 17.29H109.83C109.95 17.87 110.27 18.37 110.79 18.79C111.33 19.19 112.02 19.39 112.86 19.39C113.7 19.39 114.31 19.22 114.69 18.88C115.09 18.54 115.29 18.15 115.29 17.71C115.29 17.07 115.01 16.64 114.45 16.42C113.89 16.18 113.11 15.95 112.11 15.73C111.47 15.59 110.82 15.42 110.16 15.22C109.5 15.02 108.89 14.77 108.33 14.47C107.79 14.15 107.35 13.75 107.01 13.27C106.67 12.77 106.5 12.16 106.5 11.44C106.5 10.12 107.02 9.01 108.06 8.11C109.12 7.21 110.6 6.76 112.5 6.76C114.26 6.76 115.66 7.17 116.7 7.99C117.76 8.81 118.39 9.94 118.59 11.38H114.96C114.74 10.28 113.91 9.73 112.47 9.73C111.75 9.73 111.19 9.87 110.79 10.15C110.41 10.43 110.22 10.78 110.22 11.2C110.22 11.64 110.51 11.99 111.09 12.25C111.67 12.51 112.44 12.75 113.4 12.97C114.44 13.21 115.39 13.48 116.25 13.78C117.13 14.06 117.83 14.49 118.35 15.07C118.87 15.63 119.13 16.44 119.13 17.5C119.15 18.42 118.91 19.25 118.41 19.99C117.91 20.73 117.19 21.31 116.25 21.73C115.31 22.15 114.2 22.36 112.92 22.36ZM123.222 22V10.33H121.182V7.12H123.222V5.38C123.222 3.58 123.672 2.3 124.572 1.54C125.492 0.779999 126.732 0.399999 128.292 0.399999H129.942V3.67H128.892C128.232 3.67 127.762 3.8 127.482 4.06C127.202 4.32 127.062 4.76 127.062 5.38V7.12H130.272V10.33H127.062V22H123.222ZM138.893 22.36C137.033 22.36 135.593 21.78 134.573 20.62C133.573 19.46 133.073 17.76 133.073 15.52V7.12H136.883V15.16C136.883 16.44 137.143 17.42 137.663 18.1C138.183 18.78 139.003 19.12 140.123 19.12C141.183 19.12 142.053 18.74 142.733 17.98C143.433 17.22 143.783 16.16 143.783 14.8V7.12H147.623V22H144.233L143.933 19.48C143.473 20.36 142.803 21.06 141.923 21.58C141.063 22.1 140.053 22.36 138.893 22.36ZM151.565 22V0.399999H155.405V22H151.565ZM159.329 22V0.399999H163.169V22H159.329ZM168.953 28.6L172.403 21.01H171.503L165.713 7.12H169.883L174.053 17.59L178.403 7.12H182.483L173.033 28.6H168.953Z" fill="#0D0140"/>
</svg>
