<svg width="301" height="29" viewBox="0 0 301 29" fill="none" xmlns="http://www.w3.org/2000/svg">
<path d="M3.41069 9V1.428H0.902688V0.599999H6.92669V1.428H4.41869V9H3.41069ZM9.73141 9.144C9.17141 9.144 8.66741 9.016 8.21941 8.76C7.77141 8.504 7.41541 8.144 7.15141 7.68C6.89541 7.208 6.76741 6.656 6.76741 6.024C6.76741 5.392 6.89941 4.844 7.16341 4.38C7.42741 3.908 7.78341 3.544 8.23141 3.288C8.68741 3.032 9.19541 2.904 9.75541 2.904C10.3154 2.904 10.8194 3.032 11.2674 3.288C11.7154 3.544 12.0674 3.908 12.3234 4.38C12.5874 4.844 12.7194 5.392 12.7194 6.024C12.7194 6.656 12.5874 7.208 12.3234 7.68C12.0594 8.144 11.6994 8.504 11.2434 8.76C10.7954 9.016 10.2914 9.144 9.73141 9.144ZM9.73141 8.28C10.0754 8.28 10.3954 8.196 10.6914 8.028C10.9874 7.86 11.2274 7.608 11.4114 7.272C11.5954 6.936 11.6874 6.52 11.6874 6.024C11.6874 5.528 11.5954 5.112 11.4114 4.776C11.2354 4.44 10.9994 4.188 10.7034 4.02C10.4074 3.852 10.0914 3.768 9.75541 3.768C9.41141 3.768 9.09141 3.852 8.79541 4.02C8.49941 4.188 8.25941 4.44 8.07541 4.776C7.89141 5.112 7.79941 5.528 7.79941 6.024C7.79941 6.52 7.89141 6.936 8.07541 7.272C8.25941 7.608 8.49541 7.86 8.78341 8.028C9.07941 8.196 9.39541 8.28 9.73141 8.28ZM17.2968 9V3.048H18.2088L18.2928 4.188C18.4768 3.796 18.7568 3.484 19.1328 3.252C19.5088 3.02 19.9728 2.904 20.5248 2.904V3.96H20.2488C19.8968 3.96 19.5728 4.024 19.2768 4.152C18.9808 4.272 18.7448 4.48 18.5688 4.776C18.3928 5.072 18.3048 5.48 18.3048 6V9H17.2968ZM24.1095 9.144C23.5415 9.144 23.0375 9.016 22.5975 8.76C22.1575 8.496 21.8095 8.132 21.5535 7.668C21.3055 7.204 21.1815 6.656 21.1815 6.024C21.1815 5.4 21.3055 4.856 21.5535 4.392C21.8015 3.92 22.1455 3.556 22.5855 3.3C23.0335 3.036 23.5495 2.904 24.1335 2.904C24.7095 2.904 25.2055 3.036 25.6215 3.3C26.0455 3.556 26.3695 3.896 26.5935 4.32C26.8175 4.744 26.9295 5.2 26.9295 5.688C26.9295 5.776 26.9255 5.864 26.9175 5.952C26.9175 6.04 26.9175 6.14 26.9175 6.252H22.1775C22.2015 6.708 22.3055 7.088 22.4895 7.392C22.6815 7.688 22.9175 7.912 23.1975 8.064C23.4855 8.216 23.7895 8.292 24.1095 8.292C24.5255 8.292 24.8735 8.196 25.1535 8.004C25.4335 7.812 25.6375 7.552 25.7655 7.224H26.7615C26.6015 7.776 26.2935 8.236 25.8375 8.604C25.3895 8.964 24.8135 9.144 24.1095 9.144ZM24.1095 3.756C23.6295 3.756 23.2015 3.904 22.8255 4.2C22.4575 4.488 22.2455 4.912 22.1895 5.472H25.9335C25.9095 4.936 25.7255 4.516 25.3815 4.212C25.0375 3.908 24.6135 3.756 24.1095 3.756ZM30.5455 9.144C29.8335 9.144 29.2415 8.964 28.7695 8.604C28.2975 8.244 28.0215 7.756 27.9415 7.14H28.9735C29.0375 7.452 29.2015 7.724 29.4655 7.956C29.7375 8.18 30.1015 8.292 30.5575 8.292C30.9815 8.292 31.2935 8.204 31.4935 8.028C31.6935 7.844 31.7935 7.628 31.7935 7.38C31.7935 7.02 31.6615 6.78 31.3975 6.66C31.1415 6.54 30.7775 6.432 30.3055 6.336C29.9855 6.272 29.6655 6.18 29.3455 6.06C29.0255 5.94 28.7575 5.772 28.5415 5.556C28.3255 5.332 28.2175 5.04 28.2175 4.68C28.2175 4.16 28.4095 3.736 28.7935 3.408C29.1855 3.072 29.7135 2.904 30.3775 2.904C31.0095 2.904 31.5255 3.064 31.9255 3.384C32.3335 3.696 32.5695 4.144 32.6335 4.728H31.6375C31.5975 4.424 31.4655 4.188 31.2415 4.02C31.0255 3.844 30.7335 3.756 30.3655 3.756C30.0055 3.756 29.7255 3.832 29.5255 3.984C29.3335 4.136 29.2375 4.336 29.2375 4.584C29.2375 4.824 29.3615 5.012 29.6095 5.148C29.8655 5.284 30.2095 5.4 30.6415 5.496C31.0095 5.576 31.3575 5.676 31.6855 5.796C32.0215 5.908 32.2935 6.08 32.5015 6.312C32.7175 6.536 32.8255 6.864 32.8255 7.296C32.8335 7.832 32.6295 8.276 32.2135 8.628C31.8055 8.972 31.2495 9.144 30.5455 9.144ZM36.9415 9.144C36.3735 9.144 35.8695 9.016 35.4295 8.76C34.9895 8.496 34.6415 8.132 34.3855 7.668C34.1375 7.204 34.0135 6.656 34.0135 6.024C34.0135 5.4 34.1375 4.856 34.3855 4.392C34.6335 3.92 34.9775 3.556 35.4175 3.3C35.8655 3.036 36.3815 2.904 36.9655 2.904C37.5415 2.904 38.0375 3.036 38.4535 3.3C38.8775 3.556 39.2015 3.896 39.4255 4.32C39.6495 4.744 39.7615 5.2 39.7615 5.688C39.7615 5.776 39.7575 5.864 39.7495 5.952C39.7495 6.04 39.7495 6.14 39.7495 6.252H35.0095C35.0335 6.708 35.1375 7.088 35.3215 7.392C35.5135 7.688 35.7495 7.912 36.0295 8.064C36.3175 8.216 36.6215 8.292 36.9415 8.292C37.3575 8.292 37.7055 8.196 37.9855 8.004C38.2655 7.812 38.4695 7.552 38.5975 7.224H39.5935C39.4335 7.776 39.1255 8.236 38.6695 8.604C38.2215 8.964 37.6455 9.144 36.9415 9.144ZM36.9415 3.756C36.4615 3.756 36.0335 3.904 35.6575 4.2C35.2895 4.488 35.0775 4.912 35.0215 5.472H38.7655C38.7415 4.936 38.5575 4.516 38.2135 4.212C37.8695 3.908 37.4455 3.756 36.9415 3.756ZM43.2503 9C42.7063 9 42.2783 8.868 41.9663 8.604C41.6543 8.34 41.4983 7.864 41.4983 7.176V3.9H40.4663V3.048H41.4983L41.6303 1.62H42.5063V3.048H44.2583V3.9H42.5063V7.176C42.5063 7.552 42.5823 7.808 42.7343 7.944C42.8863 8.072 43.1543 8.136 43.5383 8.136H44.1623V9H43.2503ZM49.3627 11.64L50.8387 8.424H50.4907L48.1267 3.048H49.2187L51.1867 7.68L53.2747 3.048H54.3187L50.4187 11.64H49.3627ZM57.5322 9.144C56.9722 9.144 56.4682 9.016 56.0202 8.76C55.5722 8.504 55.2162 8.144 54.9522 7.68C54.6962 7.208 54.5682 6.656 54.5682 6.024C54.5682 5.392 54.7002 4.844 54.9642 4.38C55.2282 3.908 55.5842 3.544 56.0322 3.288C56.4882 3.032 56.9962 2.904 57.5562 2.904C58.1162 2.904 58.6202 3.032 59.0682 3.288C59.5162 3.544 59.8682 3.908 60.1242 4.38C60.3882 4.844 60.5202 5.392 60.5202 6.024C60.5202 6.656 60.3882 7.208 60.1242 7.68C59.8602 8.144 59.5002 8.504 59.0442 8.76C58.5962 9.016 58.0922 9.144 57.5322 9.144ZM57.5322 8.28C57.8762 8.28 58.1962 8.196 58.4922 8.028C58.7882 7.86 59.0282 7.608 59.2122 7.272C59.3962 6.936 59.4882 6.52 59.4882 6.024C59.4882 5.528 59.3962 5.112 59.2122 4.776C59.0362 4.44 58.8002 4.188 58.5042 4.02C58.2082 3.852 57.8922 3.768 57.5562 3.768C57.2122 3.768 56.8922 3.852 56.5962 4.02C56.3002 4.188 56.0602 4.44 55.8762 4.776C55.6922 5.112 55.6002 5.528 55.6002 6.024C55.6002 6.52 55.6922 6.936 55.8762 7.272C56.0602 7.608 56.2962 7.86 56.5842 8.028C56.8802 8.196 57.1962 8.28 57.5322 8.28ZM64.0938 9.144C63.3898 9.144 62.8298 8.932 62.4138 8.508C61.9978 8.076 61.7898 7.416 61.7898 6.528V3.048H62.7978V6.42C62.7978 7.66 63.3058 8.28 64.3218 8.28C64.8418 8.28 65.2698 8.096 65.6058 7.728C65.9498 7.352 66.1218 6.82 66.1218 6.132V3.048H67.1298V9H66.2178L66.1458 7.932C65.9618 8.308 65.6858 8.604 65.3178 8.82C64.9578 9.036 64.5498 9.144 64.0938 9.144ZM68.7889 9V3.048H69.7009L69.7849 4.188C69.9689 3.796 70.2489 3.484 70.6249 3.252C71.0009 3.02 71.4649 2.904 72.0169 2.904V3.96H71.7409C71.3889 3.96 71.0649 4.024 70.7689 4.152C70.4729 4.272 70.2369 4.48 70.0609 4.776C69.8849 5.072 69.7969 5.48 69.7969 6V9H68.7889ZM76.3241 11.64V3.048H77.2361L77.3321 4.032C77.5241 3.744 77.7961 3.484 78.1481 3.252C78.5081 3.02 78.9641 2.904 79.5161 2.904C80.1081 2.904 80.6241 3.04 81.0641 3.312C81.5041 3.584 81.8441 3.956 82.0841 4.428C82.3321 4.9 82.4561 5.436 82.4561 6.036C82.4561 6.636 82.3321 7.172 82.0841 7.644C81.8441 8.108 81.5001 8.476 81.0521 8.748C80.6121 9.012 80.0961 9.144 79.5041 9.144C79.0161 9.144 78.5801 9.044 78.1961 8.844C77.8201 8.644 77.5321 8.364 77.3321 8.004V11.64H76.3241ZM79.3961 8.268C79.7961 8.268 80.1481 8.176 80.4521 7.992C80.7561 7.8 80.9961 7.536 81.1721 7.2C81.3481 6.864 81.4361 6.472 81.4361 6.024C81.4361 5.576 81.3481 5.184 81.1721 4.848C80.9961 4.512 80.7561 4.252 80.4521 4.068C80.1481 3.876 79.7961 3.78 79.3961 3.78C78.9961 3.78 78.6441 3.876 78.3401 4.068C78.0361 4.252 77.7961 4.512 77.6201 4.848C77.4441 5.184 77.3561 5.576 77.3561 6.024C77.3561 6.472 77.4441 6.864 77.6201 7.2C77.7961 7.536 78.0361 7.8 78.3401 7.992C78.6441 8.176 78.9961 8.268 79.3961 8.268ZM85.8393 9.144C85.3433 9.144 84.9313 9.06 84.6033 8.892C84.2753 8.724 84.0313 8.5 83.8713 8.22C83.7113 7.94 83.6313 7.636 83.6313 7.308C83.6313 6.7 83.8633 6.232 84.3273 5.904C84.7913 5.576 85.4233 5.412 86.2233 5.412H87.8313V5.34C87.8313 4.82 87.6953 4.428 87.4233 4.164C87.1513 3.892 86.7873 3.756 86.3313 3.756C85.9393 3.756 85.5993 3.856 85.3113 4.056C85.0313 4.248 84.8553 4.532 84.7833 4.908H83.7513C83.7913 4.476 83.9353 4.112 84.1833 3.816C84.4393 3.52 84.7553 3.296 85.1313 3.144C85.5073 2.984 85.9073 2.904 86.3313 2.904C87.1633 2.904 87.7873 3.128 88.2033 3.576C88.6273 4.016 88.8393 4.604 88.8393 5.34V9H87.9393L87.8793 7.932C87.7113 8.268 87.4633 8.556 87.1353 8.796C86.8153 9.028 86.3833 9.144 85.8393 9.144ZM85.9953 8.292C86.3793 8.292 86.7073 8.192 86.9793 7.992C87.2593 7.792 87.4713 7.532 87.6153 7.212C87.7593 6.892 87.8313 6.556 87.8313 6.204V6.192H86.3073C85.7153 6.192 85.2953 6.296 85.0473 6.504C84.8073 6.704 84.6873 6.956 84.6873 7.26C84.6873 7.572 84.7993 7.824 85.0233 8.016C85.2553 8.2 85.5793 8.292 85.9953 8.292ZM92.6314 9.144C91.9194 9.144 91.3274 8.964 90.8554 8.604C90.3834 8.244 90.1074 7.756 90.0274 7.14H91.0594C91.1234 7.452 91.2874 7.724 91.5514 7.956C91.8234 8.18 92.1874 8.292 92.6434 8.292C93.0674 8.292 93.3794 8.204 93.5794 8.028C93.7794 7.844 93.8794 7.628 93.8794 7.38C93.8794 7.02 93.7474 6.78 93.4834 6.66C93.2274 6.54 92.8634 6.432 92.3914 6.336C92.0714 6.272 91.7514 6.18 91.4314 6.06C91.1114 5.94 90.8434 5.772 90.6274 5.556C90.4114 5.332 90.3034 5.04 90.3034 4.68C90.3034 4.16 90.4954 3.736 90.8794 3.408C91.2714 3.072 91.7994 2.904 92.4634 2.904C93.0954 2.904 93.6114 3.064 94.0114 3.384C94.4194 3.696 94.6554 4.144 94.7194 4.728H93.7234C93.6834 4.424 93.5514 4.188 93.3274 4.02C93.1114 3.844 92.8194 3.756 92.4514 3.756C92.0914 3.756 91.8114 3.832 91.6114 3.984C91.4194 4.136 91.3234 4.336 91.3234 4.584C91.3234 4.824 91.4474 5.012 91.6954 5.148C91.9514 5.284 92.2954 5.4 92.7274 5.496C93.0954 5.576 93.4434 5.676 93.7714 5.796C94.1074 5.908 94.3794 6.08 94.5874 6.312C94.8034 6.536 94.9114 6.864 94.9114 7.296C94.9194 7.832 94.7154 8.276 94.2994 8.628C93.8914 8.972 93.3354 9.144 92.6314 9.144ZM98.6314 9.144C97.9194 9.144 97.3274 8.964 96.8554 8.604C96.3834 8.244 96.1074 7.756 96.0274 7.14H97.0594C97.1234 7.452 97.2874 7.724 97.5514 7.956C97.8234 8.18 98.1874 8.292 98.6434 8.292C99.0674 8.292 99.3794 8.204 99.5794 8.028C99.7794 7.844 99.8794 7.628 99.8794 7.38C99.8794 7.02 99.7474 6.78 99.4834 6.66C99.2274 6.54 98.8634 6.432 98.3914 6.336C98.0714 6.272 97.7514 6.18 97.4314 6.06C97.1114 5.94 96.8434 5.772 96.6274 5.556C96.4114 5.332 96.3034 5.04 96.3034 4.68C96.3034 4.16 96.4954 3.736 96.8794 3.408C97.2714 3.072 97.7994 2.904 98.4634 2.904C99.0954 2.904 99.6114 3.064 100.011 3.384C100.419 3.696 100.655 4.144 100.719 4.728H99.7234C99.6834 4.424 99.5514 4.188 99.3274 4.02C99.1114 3.844 98.8194 3.756 98.4514 3.756C98.0914 3.756 97.8114 3.832 97.6114 3.984C97.4194 4.136 97.3234 4.336 97.3234 4.584C97.3234 4.824 97.4474 5.012 97.6954 5.148C97.9514 5.284 98.2954 5.4 98.7274 5.496C99.0954 5.576 99.4434 5.676 99.7714 5.796C100.107 5.908 100.379 6.08 100.587 6.312C100.803 6.536 100.911 6.864 100.911 7.296C100.919 7.832 100.715 8.276 100.299 8.628C99.8914 8.972 99.3354 9.144 98.6314 9.144ZM103.329 9L101.589 3.048H102.597L103.857 7.716L105.249 3.048H106.389L107.793 7.716L109.041 3.048H110.061L108.321 9H107.289L105.825 4.092L104.361 9H103.329ZM113.665 9.144C113.105 9.144 112.601 9.016 112.153 8.76C111.705 8.504 111.349 8.144 111.085 7.68C110.829 7.208 110.701 6.656 110.701 6.024C110.701 5.392 110.833 4.844 111.097 4.38C111.361 3.908 111.717 3.544 112.165 3.288C112.621 3.032 113.129 2.904 113.689 2.904C114.249 2.904 114.753 3.032 115.201 3.288C115.649 3.544 116.001 3.908 116.257 4.38C116.521 4.844 116.653 5.392 116.653 6.024C116.653 6.656 116.521 7.208 116.257 7.68C115.993 8.144 115.633 8.504 115.177 8.76C114.729 9.016 114.225 9.144 113.665 9.144ZM113.665 8.28C114.009 8.28 114.329 8.196 114.625 8.028C114.921 7.86 115.161 7.608 115.345 7.272C115.529 6.936 115.621 6.52 115.621 6.024C115.621 5.528 115.529 5.112 115.345 4.776C115.169 4.44 114.933 4.188 114.637 4.02C114.341 3.852 114.025 3.768 113.689 3.768C113.345 3.768 113.025 3.852 112.729 4.02C112.433 4.188 112.193 4.44 112.009 4.776C111.825 5.112 111.733 5.528 111.733 6.024C111.733 6.52 111.825 6.936 112.009 7.272C112.193 7.608 112.429 7.86 112.717 8.028C113.013 8.196 113.329 8.28 113.665 8.28ZM118.055 9V3.048H118.967L119.051 4.188C119.235 3.796 119.515 3.484 119.891 3.252C120.267 3.02 120.731 2.904 121.283 2.904V3.96H121.007C120.655 3.96 120.331 4.024 120.035 4.152C119.739 4.272 119.503 4.48 119.327 4.776C119.151 5.072 119.063 5.48 119.063 6V9H118.055ZM124.891 9.144C124.299 9.144 123.779 9.008 123.331 8.736C122.891 8.464 122.547 8.092 122.299 7.62C122.059 7.148 121.939 6.612 121.939 6.012C121.939 5.412 122.063 4.88 122.311 4.416C122.559 3.944 122.903 3.576 123.343 3.312C123.783 3.04 124.303 2.904 124.903 2.904C125.391 2.904 125.823 3.004 126.199 3.204C126.575 3.404 126.867 3.684 127.075 4.044V0.36H128.083V9H127.171L127.075 8.016C126.883 8.304 126.607 8.564 126.247 8.796C125.887 9.028 125.435 9.144 124.891 9.144ZM124.999 8.268C125.399 8.268 125.751 8.176 126.055 7.992C126.367 7.8 126.607 7.536 126.775 7.2C126.951 6.864 127.039 6.472 127.039 6.024C127.039 5.576 126.951 5.184 126.775 4.848C126.607 4.512 126.367 4.252 126.055 4.068C125.751 3.876 125.399 3.78 124.999 3.78C124.607 3.78 124.255 3.876 123.943 4.068C123.639 4.252 123.399 4.512 123.223 4.848C123.055 5.184 122.971 5.576 122.971 6.024C122.971 6.472 123.055 6.864 123.223 7.2C123.399 7.536 123.639 7.8 123.943 7.992C124.255 8.176 124.607 8.268 124.999 8.268ZM128.922 10.428L129.618 7.776H130.662L129.618 10.428H128.922ZM135.683 11.64L137.159 8.424H136.811L134.447 3.048H135.539L137.507 7.68L139.595 3.048H140.639L136.739 11.64H135.683ZM143.853 9.144C143.293 9.144 142.789 9.016 142.341 8.76C141.893 8.504 141.537 8.144 141.273 7.68C141.017 7.208 140.889 6.656 140.889 6.024C140.889 5.392 141.021 4.844 141.285 4.38C141.549 3.908 141.905 3.544 142.353 3.288C142.809 3.032 143.317 2.904 143.877 2.904C144.437 2.904 144.941 3.032 145.389 3.288C145.837 3.544 146.189 3.908 146.445 4.38C146.709 4.844 146.841 5.392 146.841 6.024C146.841 6.656 146.709 7.208 146.445 7.68C146.181 8.144 145.821 8.504 145.365 8.76C144.917 9.016 144.413 9.144 143.853 9.144ZM143.853 8.28C144.197 8.28 144.517 8.196 144.813 8.028C145.109 7.86 145.349 7.608 145.533 7.272C145.717 6.936 145.809 6.52 145.809 6.024C145.809 5.528 145.717 5.112 145.533 4.776C145.357 4.44 145.121 4.188 144.825 4.02C144.529 3.852 144.213 3.768 143.877 3.768C143.533 3.768 143.213 3.852 142.917 4.02C142.621 4.188 142.381 4.44 142.197 4.776C142.013 5.112 141.921 5.528 141.921 6.024C141.921 6.52 142.013 6.936 142.197 7.272C142.381 7.608 142.617 7.86 142.905 8.028C143.201 8.196 143.517 8.28 143.853 8.28ZM150.414 9.144C149.71 9.144 149.15 8.932 148.734 8.508C148.318 8.076 148.11 7.416 148.11 6.528V3.048H149.118V6.42C149.118 7.66 149.626 8.28 150.642 8.28C151.162 8.28 151.59 8.096 151.926 7.728C152.27 7.352 152.442 6.82 152.442 6.132V3.048H153.45V9H152.538L152.466 7.932C152.282 8.308 152.006 8.604 151.638 8.82C151.278 9.036 150.87 9.144 150.414 9.144ZM158.285 9V3.048H159.197L159.257 4.116C159.449 3.74 159.725 3.444 160.085 3.228C160.445 3.012 160.853 2.904 161.309 2.904C162.013 2.904 162.573 3.12 162.989 3.552C163.413 3.976 163.625 4.632 163.625 5.52V9H162.617V5.628C162.617 4.388 162.105 3.768 161.081 3.768C160.569 3.768 160.141 3.956 159.797 4.332C159.461 4.7 159.293 5.228 159.293 5.916V9H158.285ZM167.828 9.144C167.26 9.144 166.756 9.016 166.316 8.76C165.876 8.496 165.528 8.132 165.272 7.668C165.024 7.204 164.9 6.656 164.9 6.024C164.9 5.4 165.024 4.856 165.272 4.392C165.52 3.92 165.864 3.556 166.304 3.3C166.752 3.036 167.268 2.904 167.852 2.904C168.428 2.904 168.924 3.036 169.34 3.3C169.764 3.556 170.088 3.896 170.312 4.32C170.536 4.744 170.648 5.2 170.648 5.688C170.648 5.776 170.644 5.864 170.636 5.952C170.636 6.04 170.636 6.14 170.636 6.252H165.896C165.92 6.708 166.024 7.088 166.208 7.392C166.4 7.688 166.636 7.912 166.916 8.064C167.204 8.216 167.508 8.292 167.828 8.292C168.244 8.292 168.592 8.196 168.872 8.004C169.152 7.812 169.356 7.552 169.484 7.224H170.48C170.32 7.776 170.012 8.236 169.556 8.604C169.108 8.964 168.532 9.144 167.828 9.144ZM167.828 3.756C167.348 3.756 166.92 3.904 166.544 4.2C166.176 4.488 165.964 4.912 165.908 5.472H169.652C169.628 4.936 169.444 4.516 169.1 4.212C168.756 3.908 168.332 3.756 167.828 3.756ZM174.66 9.144C174.092 9.144 173.588 9.016 173.148 8.76C172.708 8.496 172.36 8.132 172.104 7.668C171.856 7.204 171.732 6.656 171.732 6.024C171.732 5.4 171.856 4.856 172.104 4.392C172.352 3.92 172.696 3.556 173.136 3.3C173.584 3.036 174.1 2.904 174.684 2.904C175.26 2.904 175.756 3.036 176.172 3.3C176.596 3.556 176.92 3.896 177.144 4.32C177.368 4.744 177.48 5.2 177.48 5.688C177.48 5.776 177.476 5.864 177.468 5.952C177.468 6.04 177.468 6.14 177.468 6.252H172.728C172.752 6.708 172.856 7.088 173.04 7.392C173.232 7.688 173.468 7.912 173.748 8.064C174.036 8.216 174.34 8.292 174.66 8.292C175.076 8.292 175.424 8.196 175.704 8.004C175.984 7.812 176.188 7.552 176.316 7.224H177.312C177.152 7.776 176.844 8.236 176.388 8.604C175.94 8.964 175.364 9.144 174.66 9.144ZM174.66 3.756C174.18 3.756 173.752 3.904 173.376 4.2C173.008 4.488 172.796 4.912 172.74 5.472H176.484C176.46 4.936 176.276 4.516 175.932 4.212C175.588 3.908 175.164 3.756 174.66 3.756ZM181.516 9.144C180.924 9.144 180.404 9.008 179.956 8.736C179.516 8.464 179.172 8.092 178.924 7.62C178.684 7.148 178.564 6.612 178.564 6.012C178.564 5.412 178.688 4.88 178.936 4.416C179.184 3.944 179.528 3.576 179.968 3.312C180.408 3.04 180.928 2.904 181.528 2.904C182.016 2.904 182.448 3.004 182.824 3.204C183.2 3.404 183.492 3.684 183.7 4.044V0.36H184.708V9H183.796L183.7 8.016C183.508 8.304 183.232 8.564 182.872 8.796C182.512 9.028 182.06 9.144 181.516 9.144ZM181.624 8.268C182.024 8.268 182.376 8.176 182.68 7.992C182.992 7.8 183.232 7.536 183.4 7.2C183.576 6.864 183.664 6.472 183.664 6.024C183.664 5.576 183.576 5.184 183.4 4.848C183.232 4.512 182.992 4.252 182.68 4.068C182.376 3.876 182.024 3.78 181.624 3.78C181.232 3.78 180.88 3.876 180.568 4.068C180.264 4.252 180.024 4.512 179.848 4.848C179.68 5.184 179.596 5.576 179.596 6.024C179.596 6.472 179.68 6.864 179.848 7.2C180.024 7.536 180.264 7.8 180.568 7.992C180.88 8.176 181.232 8.268 181.624 8.268ZM190.175 11.64L191.651 8.424H191.303L188.939 3.048H190.031L191.999 7.68L194.087 3.048H195.131L191.231 11.64H190.175ZM198.345 9.144C197.785 9.144 197.281 9.016 196.833 8.76C196.385 8.504 196.029 8.144 195.765 7.68C195.509 7.208 195.381 6.656 195.381 6.024C195.381 5.392 195.513 4.844 195.777 4.38C196.041 3.908 196.397 3.544 196.845 3.288C197.301 3.032 197.809 2.904 198.369 2.904C198.929 2.904 199.433 3.032 199.881 3.288C200.329 3.544 200.681 3.908 200.937 4.38C201.201 4.844 201.333 5.392 201.333 6.024C201.333 6.656 201.201 7.208 200.937 7.68C200.673 8.144 200.313 8.504 199.857 8.76C199.409 9.016 198.905 9.144 198.345 9.144ZM198.345 8.28C198.689 8.28 199.009 8.196 199.305 8.028C199.601 7.86 199.841 7.608 200.025 7.272C200.209 6.936 200.301 6.52 200.301 6.024C200.301 5.528 200.209 5.112 200.025 4.776C199.849 4.44 199.613 4.188 199.317 4.02C199.021 3.852 198.705 3.768 198.369 3.768C198.025 3.768 197.705 3.852 197.409 4.02C197.113 4.188 196.873 4.44 196.689 4.776C196.505 5.112 196.413 5.528 196.413 6.024C196.413 6.52 196.505 6.936 196.689 7.272C196.873 7.608 197.109 7.86 197.397 8.028C197.693 8.196 198.009 8.28 198.345 8.28ZM204.906 9.144C204.202 9.144 203.642 8.932 203.226 8.508C202.81 8.076 202.602 7.416 202.602 6.528V3.048H203.61V6.42C203.61 7.66 204.118 8.28 205.134 8.28C205.654 8.28 206.082 8.096 206.418 7.728C206.762 7.352 206.934 6.82 206.934 6.132V3.048H207.942V9H207.03L206.958 7.932C206.774 8.308 206.498 8.604 206.13 8.82C205.77 9.036 205.362 9.144 204.906 9.144ZM209.601 9V3.048H210.513L210.597 4.188C210.781 3.796 211.061 3.484 211.437 3.252C211.813 3.02 212.277 2.904 212.829 2.904V3.96H212.553C212.201 3.96 211.877 4.024 211.581 4.152C211.285 4.272 211.049 4.48 210.873 4.776C210.697 5.072 210.609 5.48 210.609 6V9H209.601ZM219.813 9.144C219.245 9.144 218.741 9.016 218.301 8.76C217.861 8.496 217.513 8.132 217.257 7.668C217.009 7.204 216.885 6.656 216.885 6.024C216.885 5.4 217.009 4.856 217.257 4.392C217.505 3.92 217.849 3.556 218.289 3.3C218.737 3.036 219.253 2.904 219.837 2.904C220.413 2.904 220.909 3.036 221.325 3.3C221.749 3.556 222.073 3.896 222.297 4.32C222.521 4.744 222.633 5.2 222.633 5.688C222.633 5.776 222.629 5.864 222.621 5.952C222.621 6.04 222.621 6.14 222.621 6.252H217.881C217.905 6.708 218.009 7.088 218.193 7.392C218.385 7.688 218.621 7.912 218.901 8.064C219.189 8.216 219.493 8.292 219.813 8.292C220.229 8.292 220.577 8.196 220.857 8.004C221.137 7.812 221.341 7.552 221.469 7.224H222.465C222.305 7.776 221.997 8.236 221.541 8.604C221.093 8.964 220.517 9.144 219.813 9.144ZM219.813 3.756C219.333 3.756 218.905 3.904 218.529 4.2C218.161 4.488 217.949 4.912 217.893 5.472H221.637C221.613 4.936 221.429 4.516 221.085 4.212C220.741 3.908 220.317 3.756 219.813 3.756ZM223.969 9V3.048H224.881L224.953 3.912C225.145 3.592 225.401 3.344 225.721 3.168C226.041 2.992 226.401 2.904 226.801 2.904C227.273 2.904 227.677 3 228.013 3.192C228.357 3.384 228.621 3.676 228.805 4.068C229.013 3.708 229.297 3.424 229.657 3.216C230.025 3.008 230.421 2.904 230.845 2.904C231.557 2.904 232.125 3.12 232.549 3.552C232.973 3.976 233.185 4.632 233.185 5.52V9H232.189V5.628C232.189 5.012 232.065 4.548 231.817 4.236C231.569 3.924 231.213 3.768 230.749 3.768C230.269 3.768 229.869 3.956 229.549 4.332C229.237 4.7 229.081 5.228 229.081 5.916V9H228.073V5.628C228.073 5.012 227.949 4.548 227.701 4.236C227.453 3.924 227.097 3.768 226.633 3.768C226.161 3.768 225.765 3.956 225.445 4.332C225.133 4.7 224.977 5.228 224.977 5.916V9H223.969ZM236.683 9.144C236.187 9.144 235.775 9.06 235.447 8.892C235.119 8.724 234.875 8.5 234.715 8.22C234.555 7.94 234.475 7.636 234.475 7.308C234.475 6.7 234.707 6.232 235.171 5.904C235.635 5.576 236.267 5.412 237.067 5.412H238.675V5.34C238.675 4.82 238.539 4.428 238.267 4.164C237.995 3.892 237.631 3.756 237.175 3.756C236.783 3.756 236.443 3.856 236.155 4.056C235.875 4.248 235.699 4.532 235.627 4.908H234.595C234.635 4.476 234.779 4.112 235.027 3.816C235.283 3.52 235.599 3.296 235.975 3.144C236.351 2.984 236.751 2.904 237.175 2.904C238.007 2.904 238.631 3.128 239.047 3.576C239.471 4.016 239.683 4.604 239.683 5.34V9H238.783L238.723 7.932C238.555 8.268 238.307 8.556 237.979 8.796C237.659 9.028 237.227 9.144 236.683 9.144ZM236.839 8.292C237.223 8.292 237.551 8.192 237.823 7.992C238.103 7.792 238.315 7.532 238.459 7.212C238.603 6.892 238.675 6.556 238.675 6.204V6.192H237.151C236.559 6.192 236.139 6.296 235.891 6.504C235.651 6.704 235.531 6.956 235.531 7.26C235.531 7.572 235.643 7.824 235.867 8.016C236.099 8.2 236.423 8.292 236.839 8.292ZM241.807 1.728C241.607 1.728 241.439 1.664 241.303 1.536C241.175 1.4 241.111 1.232 241.111 1.032C241.111 0.84 241.175 0.68 241.303 0.551999C241.439 0.424 241.607 0.36 241.807 0.36C241.999 0.36 242.163 0.424 242.299 0.551999C242.435 0.68 242.503 0.84 242.503 1.032C242.503 1.232 242.435 1.4 242.299 1.536C242.163 1.664 241.999 1.728 241.807 1.728ZM241.303 9V3.048H242.311V9H241.303ZM244.066 9V0.36H245.074V9H244.066ZM252.614 9.144C252.054 9.144 251.55 9.016 251.102 8.76C250.654 8.504 250.298 8.144 250.034 7.68C249.778 7.208 249.65 6.656 249.65 6.024C249.65 5.392 249.782 4.844 250.046 4.38C250.31 3.908 250.666 3.544 251.114 3.288C251.57 3.032 252.078 2.904 252.638 2.904C253.198 2.904 253.702 3.032 254.15 3.288C254.598 3.544 254.95 3.908 255.206 4.38C255.47 4.844 255.602 5.392 255.602 6.024C255.602 6.656 255.47 7.208 255.206 7.68C254.942 8.144 254.582 8.504 254.126 8.76C253.678 9.016 253.174 9.144 252.614 9.144ZM252.614 8.28C252.958 8.28 253.278 8.196 253.574 8.028C253.87 7.86 254.11 7.608 254.294 7.272C254.478 6.936 254.57 6.52 254.57 6.024C254.57 5.528 254.478 5.112 254.294 4.776C254.118 4.44 253.882 4.188 253.586 4.02C253.29 3.852 252.974 3.768 252.638 3.768C252.294 3.768 251.974 3.852 251.678 4.02C251.382 4.188 251.142 4.44 250.958 4.776C250.774 5.112 250.682 5.528 250.682 6.024C250.682 6.52 250.774 6.936 250.958 7.272C251.142 7.608 251.378 7.86 251.666 8.028C251.962 8.196 252.278 8.28 252.614 8.28ZM257.004 9V3.048H257.916L258 4.188C258.184 3.796 258.464 3.484 258.84 3.252C259.216 3.02 259.68 2.904 260.232 2.904V3.96H259.956C259.604 3.96 259.28 4.024 258.984 4.152C258.688 4.272 258.452 4.48 258.276 4.776C258.1 5.072 258.012 5.48 258.012 6V9H257.004ZM264.539 9V3.048H265.451L265.523 3.912C265.715 3.592 265.971 3.344 266.291 3.168C266.611 2.992 266.971 2.904 267.371 2.904C267.843 2.904 268.247 3 268.583 3.192C268.927 3.384 269.191 3.676 269.375 4.068C269.583 3.708 269.867 3.424 270.227 3.216C270.595 3.008 270.991 2.904 271.415 2.904C272.127 2.904 272.695 3.12 273.119 3.552C273.543 3.976 273.755 4.632 273.755 5.52V9H272.759V5.628C272.759 5.012 272.635 4.548 272.387 4.236C272.139 3.924 271.783 3.768 271.319 3.768C270.839 3.768 270.439 3.956 270.119 4.332C269.807 4.7 269.651 5.228 269.651 5.916V9H268.643V5.628C268.643 5.012 268.519 4.548 268.271 4.236C268.023 3.924 267.667 3.768 267.203 3.768C266.731 3.768 266.335 3.956 266.015 4.332C265.703 4.7 265.547 5.228 265.547 5.916V9H264.539ZM277.985 9.144C277.425 9.144 276.921 9.016 276.473 8.76C276.025 8.504 275.669 8.144 275.405 7.68C275.149 7.208 275.021 6.656 275.021 6.024C275.021 5.392 275.153 4.844 275.417 4.38C275.681 3.908 276.037 3.544 276.485 3.288C276.941 3.032 277.449 2.904 278.009 2.904C278.569 2.904 279.073 3.032 279.521 3.288C279.969 3.544 280.321 3.908 280.577 4.38C280.841 4.844 280.973 5.392 280.973 6.024C280.973 6.656 280.841 7.208 280.577 7.68C280.313 8.144 279.953 8.504 279.497 8.76C279.049 9.016 278.545 9.144 277.985 9.144ZM277.985 8.28C278.329 8.28 278.649 8.196 278.945 8.028C279.241 7.86 279.481 7.608 279.665 7.272C279.849 6.936 279.941 6.52 279.941 6.024C279.941 5.528 279.849 5.112 279.665 4.776C279.489 4.44 279.253 4.188 278.957 4.02C278.661 3.852 278.345 3.768 278.009 3.768C277.665 3.768 277.345 3.852 277.049 4.02C276.753 4.188 276.513 4.44 276.329 4.776C276.145 5.112 276.053 5.528 276.053 6.024C276.053 6.52 276.145 6.936 276.329 7.272C276.513 7.608 276.749 7.86 277.037 8.028C277.333 8.196 277.649 8.28 277.985 8.28ZM285.555 9.144C285.067 9.144 284.631 9.044 284.247 8.844C283.871 8.644 283.583 8.364 283.383 8.004L283.287 9H282.375V0.36H283.383V4.032C283.575 3.744 283.847 3.484 284.199 3.252C284.559 3.02 285.015 2.904 285.567 2.904C286.159 2.904 286.675 3.04 287.115 3.312C287.555 3.584 287.895 3.956 288.135 4.428C288.383 4.9 288.507 5.436 288.507 6.036C288.507 6.636 288.383 7.172 288.135 7.644C287.895 8.108 287.551 8.476 287.103 8.748C286.663 9.012 286.147 9.144 285.555 9.144ZM285.447 8.268C285.847 8.268 286.199 8.176 286.503 7.992C286.807 7.8 287.047 7.536 287.223 7.2C287.399 6.864 287.487 6.472 287.487 6.024C287.487 5.576 287.399 5.184 287.223 4.848C287.047 4.512 286.807 4.252 286.503 4.068C286.199 3.876 285.847 3.78 285.447 3.78C285.047 3.78 284.695 3.876 284.391 4.068C284.087 4.252 283.847 4.512 283.671 4.848C283.495 5.184 283.407 5.576 283.407 6.024C283.407 6.472 283.495 6.864 283.671 7.2C283.847 7.536 284.087 7.8 284.391 7.992C284.695 8.176 285.047 8.268 285.447 8.268ZM290.522 1.728C290.322 1.728 290.154 1.664 290.018 1.536C289.89 1.4 289.826 1.232 289.826 1.032C289.826 0.84 289.89 0.68 290.018 0.551999C290.154 0.424 290.322 0.36 290.522 0.36C290.714 0.36 290.878 0.424 291.014 0.551999C291.15 0.68 291.218 0.84 291.218 1.032C291.218 1.232 291.15 1.4 291.014 1.536C290.878 1.664 290.714 1.728 290.522 1.728ZM290.018 9V3.048H291.026V9H290.018ZM292.781 9V0.36H293.789V9H292.781ZM298.117 9.144C297.549 9.144 297.045 9.016 296.605 8.76C296.165 8.496 295.817 8.132 295.561 7.668C295.313 7.204 295.189 6.656 295.189 6.024C295.189 5.4 295.313 4.856 295.561 4.392C295.809 3.92 296.153 3.556 296.593 3.3C297.041 3.036 297.557 2.904 298.141 2.904C298.717 2.904 299.213 3.036 299.629 3.3C300.053 3.556 300.377 3.896 300.601 4.32C300.825 4.744 300.937 5.2 300.937 5.688C300.937 5.776 300.933 5.864 300.925 5.952C300.925 6.04 300.925 6.14 300.925 6.252H296.185C296.209 6.708 296.313 7.088 296.497 7.392C296.689 7.688 296.925 7.912 297.205 8.064C297.493 8.216 297.797 8.292 298.117 8.292C298.533 8.292 298.881 8.196 299.161 8.004C299.441 7.812 299.645 7.552 299.773 7.224H300.769C300.609 7.776 300.301 8.236 299.845 8.604C299.397 8.964 298.821 9.144 298.117 9.144ZM298.117 3.756C297.637 3.756 297.209 3.904 296.833 4.2C296.465 4.488 296.253 4.912 296.197 5.472H299.941C299.917 4.936 299.733 4.516 299.389 4.212C299.045 3.908 298.621 3.756 298.117 3.756ZM56.3085 28V22.048H57.2205L57.2805 23.116C57.4725 22.74 57.7485 22.444 58.1085 22.228C58.4685 22.012 58.8765 21.904 59.3325 21.904C60.0365 21.904 60.5965 22.12 61.0125 22.552C61.4365 22.976 61.6485 23.632 61.6485 24.52V28H60.6405V24.628C60.6405 23.388 60.1285 22.768 59.1045 22.768C58.5925 22.768 58.1645 22.956 57.8205 23.332C57.4845 23.7 57.3165 24.228 57.3165 24.916V28H56.3085ZM65.3477 28.144C64.6437 28.144 64.0837 27.932 63.6677 27.508C63.2517 27.076 63.0437 26.416 63.0437 25.528V22.048H64.0517V25.42C64.0517 26.66 64.5597 27.28 65.5757 27.28C66.0957 27.28 66.5237 27.096 66.8597 26.728C67.2037 26.352 67.3757 25.82 67.3757 25.132V22.048H68.3837V28H67.4717L67.3997 26.932C67.2157 27.308 66.9397 27.604 66.5717 27.82C66.2117 28.036 65.8037 28.144 65.3477 28.144ZM70.0428 28V22.048H70.9548L71.0268 22.912C71.2188 22.592 71.4748 22.344 71.7948 22.168C72.1148 21.992 72.4748 21.904 72.8748 21.904C73.3468 21.904 73.7508 22 74.0868 22.192C74.4308 22.384 74.6948 22.676 74.8788 23.068C75.0868 22.708 75.3708 22.424 75.7308 22.216C76.0988 22.008 76.4948 21.904 76.9188 21.904C77.6308 21.904 78.1988 22.12 78.6228 22.552C79.0468 22.976 79.2588 23.632 79.2588 24.52V28H78.2628V24.628C78.2628 24.012 78.1388 23.548 77.8908 23.236C77.6428 22.924 77.2868 22.768 76.8228 22.768C76.3428 22.768 75.9428 22.956 75.6228 23.332C75.3108 23.7 75.1548 24.228 75.1548 24.916V28H74.1468V24.628C74.1468 24.012 74.0228 23.548 73.7748 23.236C73.5268 22.924 73.1708 22.768 72.7068 22.768C72.2348 22.768 71.8388 22.956 71.5188 23.332C71.2068 23.7 71.0508 24.228 71.0508 24.916V28H70.0428ZM83.9572 28.144C83.4692 28.144 83.0332 28.044 82.6492 27.844C82.2732 27.644 81.9852 27.364 81.7852 27.004L81.6892 28H80.7772V19.36H81.7852V23.032C81.9772 22.744 82.2492 22.484 82.6012 22.252C82.9612 22.02 83.4172 21.904 83.9692 21.904C84.5612 21.904 85.0772 22.04 85.5172 22.312C85.9572 22.584 86.2972 22.956 86.5372 23.428C86.7852 23.9 86.9092 24.436 86.9092 25.036C86.9092 25.636 86.7852 26.172 86.5372 26.644C86.2972 27.108 85.9532 27.476 85.5052 27.748C85.0652 28.012 84.5492 28.144 83.9572 28.144ZM83.8492 27.268C84.2492 27.268 84.6012 27.176 84.9052 26.992C85.2092 26.8 85.4492 26.536 85.6252 26.2C85.8012 25.864 85.8892 25.472 85.8892 25.024C85.8892 24.576 85.8012 24.184 85.6252 23.848C85.4492 23.512 85.2092 23.252 84.9052 23.068C84.6012 22.876 84.2492 22.78 83.8492 22.78C83.4492 22.78 83.0972 22.876 82.7932 23.068C82.4892 23.252 82.2492 23.512 82.0732 23.848C81.8972 24.184 81.8092 24.576 81.8092 25.024C81.8092 25.472 81.8972 25.864 82.0732 26.2C82.2492 26.536 82.4892 26.8 82.7932 26.992C83.0972 27.176 83.4492 27.268 83.8492 27.268ZM90.9884 28.144C90.4204 28.144 89.9164 28.016 89.4764 27.76C89.0364 27.496 88.6884 27.132 88.4324 26.668C88.1844 26.204 88.0604 25.656 88.0604 25.024C88.0604 24.4 88.1844 23.856 88.4324 23.392C88.6804 22.92 89.0244 22.556 89.4644 22.3C89.9124 22.036 90.4284 21.904 91.0124 21.904C91.5884 21.904 92.0844 22.036 92.5004 22.3C92.9244 22.556 93.2484 22.896 93.4724 23.32C93.6964 23.744 93.8084 24.2 93.8084 24.688C93.8084 24.776 93.8044 24.864 93.7964 24.952C93.7964 25.04 93.7964 25.14 93.7964 25.252H89.0564C89.0804 25.708 89.1844 26.088 89.3684 26.392C89.5604 26.688 89.7964 26.912 90.0764 27.064C90.3644 27.216 90.6684 27.292 90.9884 27.292C91.4044 27.292 91.7524 27.196 92.0324 27.004C92.3124 26.812 92.5164 26.552 92.6444 26.224H93.6404C93.4804 26.776 93.1724 27.236 92.7164 27.604C92.2684 27.964 91.6924 28.144 90.9884 28.144ZM90.9884 22.756C90.5084 22.756 90.0804 22.904 89.7044 23.2C89.3364 23.488 89.1244 23.912 89.0684 24.472H92.8124C92.7884 23.936 92.6044 23.516 92.2604 23.212C91.9164 22.908 91.4924 22.756 90.9884 22.756ZM95.1444 28V22.048H96.0564L96.1404 23.188C96.3244 22.796 96.6044 22.484 96.9804 22.252C97.3564 22.02 97.8204 21.904 98.3724 21.904V22.96H98.0964C97.7444 22.96 97.4204 23.024 97.1244 23.152C96.8284 23.272 96.5924 23.48 96.4164 23.776C96.2404 24.072 96.1524 24.48 96.1524 25V28H95.1444ZM105.032 28C104.488 28 104.06 27.868 103.748 27.604C103.436 27.34 103.28 26.864 103.28 26.176V22.9H102.248V22.048H103.28L103.412 20.62H104.288V22.048H106.04V22.9H104.288V26.176C104.288 26.552 104.364 26.808 104.516 26.944C104.668 27.072 104.936 27.136 105.32 27.136H105.944V28H105.032ZM107.32 28V19.36H108.328V23.068C108.528 22.7 108.812 22.416 109.18 22.216C109.548 22.008 109.948 21.904 110.38 21.904C111.068 21.904 111.62 22.12 112.036 22.552C112.452 22.976 112.66 23.632 112.66 24.52V28H111.664V24.628C111.664 23.388 111.164 22.768 110.164 22.768C109.644 22.768 109.208 22.956 108.856 23.332C108.504 23.7 108.328 24.228 108.328 24.916V28H107.32ZM116.167 28.144C115.671 28.144 115.259 28.06 114.931 27.892C114.603 27.724 114.359 27.5 114.199 27.22C114.039 26.94 113.959 26.636 113.959 26.308C113.959 25.7 114.191 25.232 114.655 24.904C115.119 24.576 115.751 24.412 116.551 24.412H118.159V24.34C118.159 23.82 118.023 23.428 117.751 23.164C117.479 22.892 117.115 22.756 116.659 22.756C116.267 22.756 115.927 22.856 115.639 23.056C115.359 23.248 115.183 23.532 115.111 23.908H114.079C114.119 23.476 114.263 23.112 114.511 22.816C114.767 22.52 115.083 22.296 115.459 22.144C115.835 21.984 116.235 21.904 116.659 21.904C117.491 21.904 118.115 22.128 118.531 22.576C118.955 23.016 119.167 23.604 119.167 24.34V28H118.267L118.207 26.932C118.039 27.268 117.791 27.556 117.463 27.796C117.143 28.028 116.711 28.144 116.167 28.144ZM116.323 27.292C116.707 27.292 117.035 27.192 117.307 26.992C117.587 26.792 117.799 26.532 117.943 26.212C118.087 25.892 118.159 25.556 118.159 25.204V25.192H116.635C116.043 25.192 115.623 25.296 115.375 25.504C115.135 25.704 115.015 25.956 115.015 26.26C115.015 26.572 115.127 26.824 115.351 27.016C115.583 27.2 115.907 27.292 116.323 27.292ZM122.868 28C122.324 28 121.896 27.868 121.584 27.604C121.272 27.34 121.116 26.864 121.116 26.176V22.9H120.083V22.048H121.116L121.248 20.62H122.124V22.048H123.876V22.9H122.124V26.176C122.124 26.552 122.2 26.808 122.352 26.944C122.504 27.072 122.772 27.136 123.156 27.136H123.78V28H122.868ZM131.068 28.144C130.5 28.144 129.988 28.016 129.532 27.76C129.084 27.496 128.728 27.132 128.464 26.668C128.208 26.196 128.08 25.648 128.08 25.024C128.08 24.4 128.208 23.856 128.464 23.392C128.728 22.92 129.084 22.556 129.532 22.3C129.988 22.036 130.5 21.904 131.068 21.904C131.772 21.904 132.364 22.088 132.844 22.456C133.332 22.824 133.64 23.316 133.768 23.932H132.736C132.656 23.564 132.46 23.28 132.148 23.08C131.836 22.872 131.472 22.768 131.056 22.768C130.72 22.768 130.404 22.852 130.108 23.02C129.812 23.188 129.572 23.44 129.388 23.776C129.204 24.112 129.112 24.528 129.112 25.024C129.112 25.52 129.204 25.936 129.388 26.272C129.572 26.608 129.812 26.864 130.108 27.04C130.404 27.208 130.72 27.292 131.056 27.292C131.472 27.292 131.836 27.192 132.148 26.992C132.46 26.784 132.656 26.492 132.736 26.116H133.768C133.648 26.716 133.344 27.204 132.856 27.58C132.368 27.956 131.772 28.144 131.068 28.144ZM137.156 28.144C136.66 28.144 136.248 28.06 135.92 27.892C135.592 27.724 135.348 27.5 135.188 27.22C135.028 26.94 134.948 26.636 134.948 26.308C134.948 25.7 135.18 25.232 135.644 24.904C136.108 24.576 136.74 24.412 137.54 24.412H139.148V24.34C139.148 23.82 139.012 23.428 138.74 23.164C138.468 22.892 138.104 22.756 137.648 22.756C137.256 22.756 136.916 22.856 136.628 23.056C136.348 23.248 136.172 23.532 136.1 23.908H135.068C135.108 23.476 135.252 23.112 135.5 22.816C135.756 22.52 136.072 22.296 136.448 22.144C136.824 21.984 137.224 21.904 137.648 21.904C138.48 21.904 139.104 22.128 139.52 22.576C139.944 23.016 140.156 23.604 140.156 24.34V28H139.256L139.196 26.932C139.028 27.268 138.78 27.556 138.452 27.796C138.132 28.028 137.7 28.144 137.156 28.144ZM137.312 27.292C137.696 27.292 138.024 27.192 138.296 26.992C138.576 26.792 138.788 26.532 138.932 26.212C139.076 25.892 139.148 25.556 139.148 25.204V25.192H137.624C137.032 25.192 136.612 25.296 136.364 25.504C136.124 25.704 136.004 25.956 136.004 26.26C136.004 26.572 136.116 26.824 136.34 27.016C136.572 27.2 136.896 27.292 137.312 27.292ZM141.668 28V22.048H142.58L142.64 23.116C142.832 22.74 143.108 22.444 143.468 22.228C143.828 22.012 144.236 21.904 144.692 21.904C145.396 21.904 145.956 22.12 146.372 22.552C146.796 22.976 147.008 23.632 147.008 24.52V28H146V24.628C146 23.388 145.488 22.768 144.464 22.768C143.952 22.768 143.524 22.956 143.18 23.332C142.844 23.7 142.676 24.228 142.676 24.916V28H141.668ZM154.891 28.144C154.403 28.144 153.967 28.044 153.583 27.844C153.207 27.644 152.919 27.364 152.719 27.004L152.623 28H151.711V19.36H152.719V23.032C152.911 22.744 153.183 22.484 153.535 22.252C153.895 22.02 154.351 21.904 154.903 21.904C155.495 21.904 156.011 22.04 156.451 22.312C156.891 22.584 157.231 22.956 157.471 23.428C157.719 23.9 157.843 24.436 157.843 25.036C157.843 25.636 157.719 26.172 157.471 26.644C157.231 27.108 156.887 27.476 156.439 27.748C155.999 28.012 155.483 28.144 154.891 28.144ZM154.783 27.268C155.183 27.268 155.535 27.176 155.839 26.992C156.143 26.8 156.383 26.536 156.559 26.2C156.735 25.864 156.823 25.472 156.823 25.024C156.823 24.576 156.735 24.184 156.559 23.848C156.383 23.512 156.143 23.252 155.839 23.068C155.535 22.876 155.183 22.78 154.783 22.78C154.383 22.78 154.031 22.876 153.727 23.068C153.423 23.252 153.183 23.512 153.007 23.848C152.831 24.184 152.743 24.576 152.743 25.024C152.743 25.472 152.831 25.864 153.007 26.2C153.183 26.536 153.423 26.8 153.727 26.992C154.031 27.176 154.383 27.268 154.783 27.268ZM161.922 28.144C161.354 28.144 160.85 28.016 160.41 27.76C159.97 27.496 159.622 27.132 159.366 26.668C159.118 26.204 158.994 25.656 158.994 25.024C158.994 24.4 159.118 23.856 159.366 23.392C159.614 22.92 159.958 22.556 160.398 22.3C160.846 22.036 161.362 21.904 161.946 21.904C162.522 21.904 163.018 22.036 163.434 22.3C163.858 22.556 164.182 22.896 164.406 23.32C164.63 23.744 164.742 24.2 164.742 24.688C164.742 24.776 164.738 24.864 164.73 24.952C164.73 25.04 164.73 25.14 164.73 25.252H159.99C160.014 25.708 160.118 26.088 160.302 26.392C160.494 26.688 160.73 26.912 161.01 27.064C161.298 27.216 161.602 27.292 161.922 27.292C162.338 27.292 162.686 27.196 162.966 27.004C163.246 26.812 163.45 26.552 163.578 26.224H164.574C164.414 26.776 164.106 27.236 163.65 27.604C163.202 27.964 162.626 28.144 161.922 28.144ZM161.922 22.756C161.442 22.756 161.014 22.904 160.638 23.2C160.27 23.488 160.058 23.912 160.002 24.472H163.746C163.722 23.936 163.538 23.516 163.194 23.212C162.85 22.908 162.426 22.756 161.922 22.756ZM171.234 28.144C170.738 28.144 170.326 28.06 169.998 27.892C169.67 27.724 169.426 27.5 169.266 27.22C169.106 26.94 169.026 26.636 169.026 26.308C169.026 25.7 169.258 25.232 169.722 24.904C170.186 24.576 170.818 24.412 171.618 24.412H173.226V24.34C173.226 23.82 173.09 23.428 172.818 23.164C172.546 22.892 172.182 22.756 171.726 22.756C171.334 22.756 170.994 22.856 170.706 23.056C170.426 23.248 170.25 23.532 170.178 23.908H169.146C169.186 23.476 169.33 23.112 169.578 22.816C169.834 22.52 170.15 22.296 170.526 22.144C170.902 21.984 171.302 21.904 171.726 21.904C172.558 21.904 173.182 22.128 173.598 22.576C174.022 23.016 174.234 23.604 174.234 24.34V28H173.334L173.274 26.932C173.106 27.268 172.858 27.556 172.53 27.796C172.21 28.028 171.778 28.144 171.234 28.144ZM171.39 27.292C171.774 27.292 172.102 27.192 172.374 26.992C172.654 26.792 172.866 26.532 173.01 26.212C173.154 25.892 173.226 25.556 173.226 25.204V25.192H171.702C171.11 25.192 170.69 25.296 170.442 25.504C170.202 25.704 170.082 25.956 170.082 26.26C170.082 26.572 170.194 26.824 170.418 27.016C170.65 27.2 170.974 27.292 171.39 27.292ZM177.918 28.144C177.214 28.144 176.654 27.932 176.238 27.508C175.822 27.076 175.614 26.416 175.614 25.528V22.048H176.622V25.42C176.622 26.66 177.13 27.28 178.146 27.28C178.666 27.28 179.094 27.096 179.43 26.728C179.774 26.352 179.946 25.82 179.946 25.132V22.048H180.954V28H180.042L179.97 26.932C179.786 27.308 179.51 27.604 179.142 27.82C178.782 28.036 178.374 28.144 177.918 28.144ZM184.965 28C184.421 28 183.993 27.868 183.681 27.604C183.369 27.34 183.213 26.864 183.213 26.176V22.9H182.181V22.048H183.213L183.345 20.62H184.221V22.048H185.973V22.9H184.221V26.176C184.221 26.552 184.297 26.808 184.449 26.944C184.601 27.072 184.869 27.136 185.253 27.136H185.877V28H184.965ZM187.254 28V19.36H188.262V23.068C188.462 22.7 188.746 22.416 189.114 22.216C189.482 22.008 189.882 21.904 190.314 21.904C191.002 21.904 191.554 22.12 191.97 22.552C192.386 22.976 192.594 23.632 192.594 24.52V28H191.598V24.628C191.598 23.388 191.098 22.768 190.098 22.768C189.578 22.768 189.142 22.956 188.79 23.332C188.438 23.7 188.262 24.228 188.262 24.916V28H187.254ZM196.797 28.144C196.229 28.144 195.725 28.016 195.285 27.76C194.845 27.496 194.497 27.132 194.241 26.668C193.993 26.204 193.869 25.656 193.869 25.024C193.869 24.4 193.993 23.856 194.241 23.392C194.489 22.92 194.833 22.556 195.273 22.3C195.721 22.036 196.237 21.904 196.821 21.904C197.397 21.904 197.893 22.036 198.309 22.3C198.733 22.556 199.057 22.896 199.281 23.32C199.505 23.744 199.617 24.2 199.617 24.688C199.617 24.776 199.613 24.864 199.605 24.952C199.605 25.04 199.605 25.14 199.605 25.252H194.865C194.889 25.708 194.993 26.088 195.177 26.392C195.369 26.688 195.605 26.912 195.885 27.064C196.173 27.216 196.477 27.292 196.797 27.292C197.213 27.292 197.561 27.196 197.841 27.004C198.121 26.812 198.325 26.552 198.453 26.224H199.449C199.289 26.776 198.981 27.236 198.525 27.604C198.077 27.964 197.501 28.144 196.797 28.144ZM196.797 22.756C196.317 22.756 195.889 22.904 195.513 23.2C195.145 23.488 194.933 23.912 194.877 24.472H198.621C198.597 23.936 198.413 23.516 198.069 23.212C197.725 22.908 197.301 22.756 196.797 22.756ZM200.953 28V22.048H201.865L201.925 23.116C202.117 22.74 202.393 22.444 202.753 22.228C203.113 22.012 203.521 21.904 203.977 21.904C204.681 21.904 205.241 22.12 205.657 22.552C206.081 22.976 206.293 23.632 206.293 24.52V28H205.285V24.628C205.285 23.388 204.773 22.768 203.749 22.768C203.237 22.768 202.809 22.956 202.465 23.332C202.129 23.7 201.961 24.228 201.961 24.916V28H200.953ZM210.172 28C209.628 28 209.2 27.868 208.888 27.604C208.576 27.34 208.42 26.864 208.42 26.176V22.9H207.388V22.048H208.42L208.552 20.62H209.428V22.048H211.18V22.9H209.428V26.176C209.428 26.552 209.504 26.808 209.656 26.944C209.808 27.072 210.076 27.136 210.46 27.136H211.084V28H210.172ZM213.073 20.728C212.873 20.728 212.705 20.664 212.569 20.536C212.441 20.4 212.377 20.232 212.377 20.032C212.377 19.84 212.441 19.68 212.569 19.552C212.705 19.424 212.873 19.36 213.073 19.36C213.265 19.36 213.429 19.424 213.565 19.552C213.701 19.68 213.769 19.84 213.769 20.032C213.769 20.232 213.701 20.4 213.565 20.536C213.429 20.664 213.265 20.728 213.073 20.728ZM212.569 28V22.048H213.577V28H212.569ZM218.068 28.144C217.5 28.144 216.988 28.016 216.532 27.76C216.084 27.496 215.728 27.132 215.464 26.668C215.208 26.196 215.08 25.648 215.08 25.024C215.08 24.4 215.208 23.856 215.464 23.392C215.728 22.92 216.084 22.556 216.532 22.3C216.988 22.036 217.5 21.904 218.068 21.904C218.772 21.904 219.364 22.088 219.844 22.456C220.332 22.824 220.64 23.316 220.768 23.932H219.736C219.656 23.564 219.46 23.28 219.148 23.08C218.836 22.872 218.472 22.768 218.056 22.768C217.72 22.768 217.404 22.852 217.108 23.02C216.812 23.188 216.572 23.44 216.388 23.776C216.204 24.112 216.112 24.528 216.112 25.024C216.112 25.52 216.204 25.936 216.388 26.272C216.572 26.608 216.812 26.864 217.108 27.04C217.404 27.208 217.72 27.292 218.056 27.292C218.472 27.292 218.836 27.192 219.148 26.992C219.46 26.784 219.656 26.492 219.736 26.116H220.768C220.648 26.716 220.344 27.204 219.856 27.58C219.368 27.956 218.772 28.144 218.068 28.144ZM224.156 28.144C223.66 28.144 223.248 28.06 222.92 27.892C222.592 27.724 222.348 27.5 222.188 27.22C222.028 26.94 221.948 26.636 221.948 26.308C221.948 25.7 222.18 25.232 222.644 24.904C223.108 24.576 223.74 24.412 224.54 24.412H226.148V24.34C226.148 23.82 226.012 23.428 225.74 23.164C225.468 22.892 225.104 22.756 224.648 22.756C224.256 22.756 223.916 22.856 223.628 23.056C223.348 23.248 223.172 23.532 223.1 23.908H222.068C222.108 23.476 222.252 23.112 222.5 22.816C222.756 22.52 223.072 22.296 223.448 22.144C223.824 21.984 224.224 21.904 224.648 21.904C225.48 21.904 226.104 22.128 226.52 22.576C226.944 23.016 227.156 23.604 227.156 24.34V28H226.256L226.196 26.932C226.028 27.268 225.78 27.556 225.452 27.796C225.132 28.028 224.7 28.144 224.156 28.144ZM224.312 27.292C224.696 27.292 225.024 27.192 225.296 26.992C225.576 26.792 225.788 26.532 225.932 26.212C226.076 25.892 226.148 25.556 226.148 25.204V25.192H224.624C224.032 25.192 223.612 25.296 223.364 25.504C223.124 25.704 223.004 25.956 223.004 26.26C223.004 26.572 223.116 26.824 223.34 27.016C223.572 27.2 223.896 27.292 224.312 27.292ZM230.856 28C230.312 28 229.884 27.868 229.572 27.604C229.26 27.34 229.104 26.864 229.104 26.176V22.9H228.072V22.048H229.104L229.236 20.62H230.112V22.048H231.864V22.9H230.112V26.176C230.112 26.552 230.188 26.808 230.34 26.944C230.492 27.072 230.76 27.136 231.144 27.136H231.768V28H230.856ZM235.656 28.144C235.088 28.144 234.584 28.016 234.144 27.76C233.704 27.496 233.356 27.132 233.1 26.668C232.852 26.204 232.728 25.656 232.728 25.024C232.728 24.4 232.852 23.856 233.1 23.392C233.348 22.92 233.692 22.556 234.132 22.3C234.58 22.036 235.096 21.904 235.68 21.904C236.256 21.904 236.752 22.036 237.168 22.3C237.592 22.556 237.916 22.896 238.14 23.32C238.364 23.744 238.476 24.2 238.476 24.688C238.476 24.776 238.472 24.864 238.464 24.952C238.464 25.04 238.464 25.14 238.464 25.252H233.724C233.748 25.708 233.852 26.088 234.036 26.392C234.228 26.688 234.464 26.912 234.744 27.064C235.032 27.216 235.336 27.292 235.656 27.292C236.072 27.292 236.42 27.196 236.7 27.004C236.98 26.812 237.184 26.552 237.312 26.224H238.308C238.148 26.776 237.84 27.236 237.384 27.604C236.936 27.964 236.36 28.144 235.656 28.144ZM235.656 22.756C235.176 22.756 234.748 22.904 234.372 23.2C234.004 23.488 233.792 23.912 233.736 24.472H237.48C237.456 23.936 237.272 23.516 236.928 23.212C236.584 22.908 236.16 22.756 235.656 22.756ZM242.512 28.144C241.92 28.144 241.4 28.008 240.952 27.736C240.512 27.464 240.168 27.092 239.92 26.62C239.68 26.148 239.56 25.612 239.56 25.012C239.56 24.412 239.684 23.88 239.932 23.416C240.18 22.944 240.524 22.576 240.964 22.312C241.404 22.04 241.924 21.904 242.524 21.904C243.012 21.904 243.444 22.004 243.82 22.204C244.196 22.404 244.488 22.684 244.696 23.044V19.36H245.704V28H244.792L244.696 27.016C244.504 27.304 244.228 27.564 243.868 27.796C243.508 28.028 243.056 28.144 242.512 28.144ZM242.62 27.268C243.02 27.268 243.372 27.176 243.676 26.992C243.988 26.8 244.228 26.536 244.396 26.2C244.572 25.864 244.66 25.472 244.66 25.024C244.66 24.576 244.572 24.184 244.396 23.848C244.228 23.512 243.988 23.252 243.676 23.068C243.372 22.876 243.02 22.78 242.62 22.78C242.228 22.78 241.876 22.876 241.564 23.068C241.26 23.252 241.02 23.512 240.844 23.848C240.676 24.184 240.592 24.576 240.592 25.024C240.592 25.472 240.676 25.864 240.844 26.2C241.02 26.536 241.26 26.8 241.564 26.992C241.876 27.176 242.228 27.268 242.62 27.268Z" fill="#524B6B"/>
</svg>
