<svg width="301" height="31" viewBox="0 0 301 31" fill="none" xmlns="http://www.w3.org/2000/svg">
<path d="M3.2703 9.012L0.966297 0.599999H2.0463L3.8583 7.812L5.9223 0.599999H7.0383L9.0423 7.812L10.8783 0.599999H11.9583L9.6063 9H8.4543L6.4503 2.064L4.3983 9L3.2703 9.012ZM15.1505 9.144C14.5825 9.144 14.0785 9.016 13.6385 8.76C13.1985 8.496 12.8505 8.132 12.5945 7.668C12.3465 7.204 12.2225 6.656 12.2225 6.024C12.2225 5.4 12.3465 4.856 12.5945 4.392C12.8425 3.92 13.1865 3.556 13.6265 3.3C14.0745 3.036 14.5905 2.904 15.1745 2.904C15.7505 2.904 16.2465 3.036 16.6625 3.3C17.0865 3.556 17.4105 3.896 17.6345 4.32C17.8585 4.744 17.9705 5.2 17.9705 5.688C17.9705 5.776 17.9665 5.864 17.9585 5.952C17.9585 6.04 17.9585 6.14 17.9585 6.252H13.2185C13.2425 6.708 13.3465 7.088 13.5305 7.392C13.7225 7.688 13.9585 7.912 14.2385 8.064C14.5265 8.216 14.8305 8.292 15.1505 8.292C15.5665 8.292 15.9145 8.196 16.1945 8.004C16.4745 7.812 16.6785 7.552 16.8065 7.224H17.8025C17.6425 7.776 17.3345 8.236 16.8785 8.604C16.4305 8.964 15.8545 9.144 15.1505 9.144ZM15.1505 3.756C14.6705 3.756 14.2425 3.904 13.8665 4.2C13.4985 4.488 13.2865 4.912 13.2305 5.472H16.9745C16.9505 4.936 16.7665 4.516 16.4225 4.212C16.0785 3.908 15.6545 3.756 15.1505 3.756ZM22.4823 9V0.36H23.4903V4.068C23.6903 3.7 23.9743 3.416 24.3423 3.216C24.7103 3.008 25.1103 2.904 25.5423 2.904C26.2303 2.904 26.7823 3.12 27.1983 3.552C27.6143 3.976 27.8223 4.632 27.8223 5.52V9H26.8263V5.628C26.8263 4.388 26.3263 3.768 25.3263 3.768C24.8063 3.768 24.3703 3.956 24.0183 4.332C23.6663 4.7 23.4903 5.228 23.4903 5.916V9H22.4823ZM31.3295 9.144C30.8335 9.144 30.4215 9.06 30.0935 8.892C29.7655 8.724 29.5215 8.5 29.3615 8.22C29.2015 7.94 29.1215 7.636 29.1215 7.308C29.1215 6.7 29.3535 6.232 29.8175 5.904C30.2815 5.576 30.9135 5.412 31.7135 5.412H33.3215V5.34C33.3215 4.82 33.1855 4.428 32.9135 4.164C32.6415 3.892 32.2775 3.756 31.8215 3.756C31.4295 3.756 31.0895 3.856 30.8015 4.056C30.5215 4.248 30.3455 4.532 30.2735 4.908H29.2415C29.2815 4.476 29.4255 4.112 29.6735 3.816C29.9295 3.52 30.2455 3.296 30.6215 3.144C30.9975 2.984 31.3975 2.904 31.8215 2.904C32.6535 2.904 33.2775 3.128 33.6935 3.576C34.1175 4.016 34.3295 4.604 34.3295 5.34V9H33.4295L33.3695 7.932C33.2015 8.268 32.9535 8.556 32.6255 8.796C32.3055 9.028 31.8735 9.144 31.3295 9.144ZM31.4855 8.292C31.8695 8.292 32.1975 8.192 32.4695 7.992C32.7495 7.792 32.9615 7.532 33.1055 7.212C33.2495 6.892 33.3215 6.556 33.3215 6.204V6.192H31.7975C31.2055 6.192 30.7855 6.296 30.5375 6.504C30.2975 6.704 30.1775 6.956 30.1775 7.26C30.1775 7.572 30.2895 7.824 30.5135 8.016C30.7455 8.2 31.0695 8.292 31.4855 8.292ZM37.335 9L35.079 3.048H36.135L37.923 8.028L39.723 3.048H40.755L38.499 9H37.335ZM44.2481 9.144C43.6801 9.144 43.1761 9.016 42.7361 8.76C42.2961 8.496 41.9481 8.132 41.6921 7.668C41.4441 7.204 41.3201 6.656 41.3201 6.024C41.3201 5.4 41.4441 4.856 41.6921 4.392C41.9401 3.92 42.2841 3.556 42.7241 3.3C43.1721 3.036 43.6881 2.904 44.2721 2.904C44.8481 2.904 45.3441 3.036 45.7601 3.3C46.1841 3.556 46.5081 3.896 46.7321 4.32C46.9561 4.744 47.0681 5.2 47.0681 5.688C47.0681 5.776 47.0641 5.864 47.0561 5.952C47.0561 6.04 47.0561 6.14 47.0561 6.252H42.3161C42.3401 6.708 42.4441 7.088 42.6281 7.392C42.8201 7.688 43.0561 7.912 43.3361 8.064C43.6241 8.216 43.9281 8.292 44.2481 8.292C44.6641 8.292 45.0121 8.196 45.2921 8.004C45.5721 7.812 45.7761 7.552 45.9041 7.224H46.9001C46.7401 7.776 46.4321 8.236 45.9761 8.604C45.5281 8.964 44.9521 9.144 44.2481 9.144ZM44.2481 3.756C43.7681 3.756 43.3401 3.904 42.9641 4.2C42.5961 4.488 42.3841 4.912 42.3281 5.472H46.0721C46.0481 4.936 45.8641 4.516 45.5201 4.212C45.1761 3.908 44.7521 3.756 44.2481 3.756ZM53.86 9.144C53.148 9.144 52.556 8.964 52.084 8.604C51.612 8.244 51.336 7.756 51.256 7.14H52.288C52.352 7.452 52.516 7.724 52.78 7.956C53.052 8.18 53.416 8.292 53.872 8.292C54.296 8.292 54.608 8.204 54.808 8.028C55.008 7.844 55.108 7.628 55.108 7.38C55.108 7.02 54.976 6.78 54.712 6.66C54.456 6.54 54.092 6.432 53.62 6.336C53.3 6.272 52.98 6.18 52.66 6.06C52.34 5.94 52.072 5.772 51.856 5.556C51.64 5.332 51.532 5.04 51.532 4.68C51.532 4.16 51.724 3.736 52.108 3.408C52.5 3.072 53.028 2.904 53.692 2.904C54.324 2.904 54.84 3.064 55.24 3.384C55.648 3.696 55.884 4.144 55.948 4.728H54.952C54.912 4.424 54.78 4.188 54.556 4.02C54.34 3.844 54.048 3.756 53.68 3.756C53.32 3.756 53.04 3.832 52.84 3.984C52.648 4.136 52.552 4.336 52.552 4.584C52.552 4.824 52.676 5.012 52.924 5.148C53.18 5.284 53.524 5.4 53.956 5.496C54.324 5.576 54.672 5.676 55 5.796C55.336 5.908 55.608 6.08 55.816 6.312C56.032 6.536 56.14 6.864 56.14 7.296C56.148 7.832 55.944 8.276 55.528 8.628C55.12 8.972 54.564 9.144 53.86 9.144ZM60.256 9.144C59.688 9.144 59.184 9.016 58.744 8.76C58.304 8.496 57.956 8.132 57.7 7.668C57.452 7.204 57.328 6.656 57.328 6.024C57.328 5.4 57.452 4.856 57.7 4.392C57.948 3.92 58.292 3.556 58.732 3.3C59.18 3.036 59.696 2.904 60.28 2.904C60.856 2.904 61.352 3.036 61.768 3.3C62.192 3.556 62.516 3.896 62.74 4.32C62.964 4.744 63.076 5.2 63.076 5.688C63.076 5.776 63.072 5.864 63.064 5.952C63.064 6.04 63.064 6.14 63.064 6.252H58.324C58.348 6.708 58.452 7.088 58.636 7.392C58.828 7.688 59.064 7.912 59.344 8.064C59.632 8.216 59.936 8.292 60.256 8.292C60.672 8.292 61.02 8.196 61.3 8.004C61.58 7.812 61.784 7.552 61.912 7.224H62.908C62.748 7.776 62.44 8.236 61.984 8.604C61.536 8.964 60.96 9.144 60.256 9.144ZM60.256 3.756C59.776 3.756 59.348 3.904 58.972 4.2C58.604 4.488 58.392 4.912 58.336 5.472H62.08C62.056 4.936 61.872 4.516 61.528 4.212C61.184 3.908 60.76 3.756 60.256 3.756ZM64.412 9V3.048H65.324L65.384 4.116C65.576 3.74 65.852 3.444 66.212 3.228C66.572 3.012 66.98 2.904 67.436 2.904C68.14 2.904 68.7 3.12 69.116 3.552C69.54 3.976 69.752 4.632 69.752 5.52V9H68.744V5.628C68.744 4.388 68.232 3.768 67.208 3.768C66.696 3.768 66.268 3.956 65.924 4.332C65.588 4.7 65.42 5.228 65.42 5.916V9H64.412ZM73.6312 9C73.0872 9 72.6592 8.868 72.3472 8.604C72.0352 8.34 71.8792 7.864 71.8792 7.176V3.9H70.8472V3.048H71.8792L72.0112 1.62H72.8872V3.048H74.6392V3.9H72.8872V7.176C72.8872 7.552 72.9632 7.808 73.1152 7.944C73.2672 8.072 73.5352 8.136 73.9192 8.136H74.5432V9H73.6312ZM81.4476 9C80.9036 9 80.4756 8.868 80.1636 8.604C79.8516 8.34 79.6956 7.864 79.6956 7.176V3.9H78.6636V3.048H79.6956L79.8276 1.62H80.7036V3.048H82.4556V3.9H80.7036V7.176C80.7036 7.552 80.7796 7.808 80.9316 7.944C81.0836 8.072 81.3516 8.136 81.7356 8.136H82.3596V9H81.4476ZM83.7362 9V0.36H84.7442V4.068C84.9442 3.7 85.2282 3.416 85.5962 3.216C85.9642 3.008 86.3642 2.904 86.7962 2.904C87.4842 2.904 88.0362 3.12 88.4522 3.552C88.8682 3.976 89.0762 4.632 89.0762 5.52V9H88.0802V5.628C88.0802 4.388 87.5802 3.768 86.5802 3.768C86.0602 3.768 85.6242 3.956 85.2722 4.332C84.9202 4.7 84.7442 5.228 84.7442 5.916V9H83.7362ZM93.2794 9.144C92.7114 9.144 92.2074 9.016 91.7674 8.76C91.3274 8.496 90.9794 8.132 90.7234 7.668C90.4754 7.204 90.3514 6.656 90.3514 6.024C90.3514 5.4 90.4754 4.856 90.7234 4.392C90.9714 3.92 91.3154 3.556 91.7554 3.3C92.2034 3.036 92.7194 2.904 93.3034 2.904C93.8794 2.904 94.3754 3.036 94.7914 3.3C95.2154 3.556 95.5394 3.896 95.7634 4.32C95.9874 4.744 96.0994 5.2 96.0994 5.688C96.0994 5.776 96.0954 5.864 96.0874 5.952C96.0874 6.04 96.0874 6.14 96.0874 6.252H91.3474C91.3714 6.708 91.4754 7.088 91.6594 7.392C91.8514 7.688 92.0874 7.912 92.3674 8.064C92.6554 8.216 92.9594 8.292 93.2794 8.292C93.6954 8.292 94.0434 8.196 94.3234 8.004C94.6034 7.812 94.8074 7.552 94.9354 7.224H95.9314C95.7714 7.776 95.4634 8.236 95.0074 8.604C94.5594 8.964 93.9834 9.144 93.2794 9.144ZM93.2794 3.756C92.7994 3.756 92.3714 3.904 91.9954 4.2C91.6274 4.488 91.4154 4.912 91.3594 5.472H95.1034C95.0794 4.936 94.8954 4.516 94.5514 4.212C94.2074 3.908 93.7834 3.756 93.2794 3.756ZM100.611 9V3.048H101.523L101.607 4.188C101.791 3.796 102.071 3.484 102.447 3.252C102.823 3.02 103.287 2.904 103.839 2.904V3.96H103.563C103.211 3.96 102.887 4.024 102.591 4.152C102.295 4.272 102.059 4.48 101.883 4.776C101.707 5.072 101.619 5.48 101.619 6V9H100.611ZM107.424 9.144C106.856 9.144 106.352 9.016 105.912 8.76C105.472 8.496 105.124 8.132 104.868 7.668C104.62 7.204 104.496 6.656 104.496 6.024C104.496 5.4 104.62 4.856 104.868 4.392C105.116 3.92 105.46 3.556 105.9 3.3C106.348 3.036 106.864 2.904 107.448 2.904C108.024 2.904 108.52 3.036 108.936 3.3C109.36 3.556 109.684 3.896 109.908 4.32C110.132 4.744 110.244 5.2 110.244 5.688C110.244 5.776 110.24 5.864 110.232 5.952C110.232 6.04 110.232 6.14 110.232 6.252H105.492C105.516 6.708 105.62 7.088 105.804 7.392C105.996 7.688 106.232 7.912 106.512 8.064C106.8 8.216 107.104 8.292 107.424 8.292C107.84 8.292 108.188 8.196 108.468 8.004C108.748 7.812 108.952 7.552 109.08 7.224H110.076C109.916 7.776 109.608 8.236 109.152 8.604C108.704 8.964 108.128 9.144 107.424 9.144ZM107.424 3.756C106.944 3.756 106.516 3.904 106.14 4.2C105.772 4.488 105.56 4.912 105.504 5.472H109.248C109.224 4.936 109.04 4.516 108.696 4.212C108.352 3.908 107.928 3.756 107.424 3.756ZM113.86 9.144C113.148 9.144 112.556 8.964 112.084 8.604C111.612 8.244 111.336 7.756 111.256 7.14H112.288C112.352 7.452 112.516 7.724 112.78 7.956C113.052 8.18 113.416 8.292 113.872 8.292C114.296 8.292 114.608 8.204 114.808 8.028C115.008 7.844 115.108 7.628 115.108 7.38C115.108 7.02 114.976 6.78 114.712 6.66C114.456 6.54 114.092 6.432 113.62 6.336C113.3 6.272 112.98 6.18 112.66 6.06C112.34 5.94 112.072 5.772 111.856 5.556C111.64 5.332 111.532 5.04 111.532 4.68C111.532 4.16 111.724 3.736 112.108 3.408C112.5 3.072 113.028 2.904 113.692 2.904C114.324 2.904 114.84 3.064 115.24 3.384C115.648 3.696 115.884 4.144 115.948 4.728H114.952C114.912 4.424 114.78 4.188 114.556 4.02C114.34 3.844 114.048 3.756 113.68 3.756C113.32 3.756 113.04 3.832 112.84 3.984C112.648 4.136 112.552 4.336 112.552 4.584C112.552 4.824 112.676 5.012 112.924 5.148C113.18 5.284 113.524 5.4 113.956 5.496C114.324 5.576 114.672 5.676 115 5.796C115.336 5.908 115.608 6.08 115.816 6.312C116.032 6.536 116.14 6.864 116.14 7.296C116.148 7.832 115.944 8.276 115.528 8.628C115.12 8.972 114.564 9.144 113.86 9.144ZM120.256 9.144C119.688 9.144 119.184 9.016 118.744 8.76C118.304 8.496 117.956 8.132 117.7 7.668C117.452 7.204 117.328 6.656 117.328 6.024C117.328 5.4 117.452 4.856 117.7 4.392C117.948 3.92 118.292 3.556 118.732 3.3C119.18 3.036 119.696 2.904 120.28 2.904C120.856 2.904 121.352 3.036 121.768 3.3C122.192 3.556 122.516 3.896 122.74 4.32C122.964 4.744 123.076 5.2 123.076 5.688C123.076 5.776 123.072 5.864 123.064 5.952C123.064 6.04 123.064 6.14 123.064 6.252H118.324C118.348 6.708 118.452 7.088 118.636 7.392C118.828 7.688 119.064 7.912 119.344 8.064C119.632 8.216 119.936 8.292 120.256 8.292C120.672 8.292 121.02 8.196 121.3 8.004C121.58 7.812 121.784 7.552 121.912 7.224H122.908C122.748 7.776 122.44 8.236 121.984 8.604C121.536 8.964 120.96 9.144 120.256 9.144ZM120.256 3.756C119.776 3.756 119.348 3.904 118.972 4.2C118.604 4.488 118.392 4.912 118.336 5.472H122.08C122.056 4.936 121.872 4.516 121.528 4.212C121.184 3.908 120.76 3.756 120.256 3.756ZM126.565 9C126.021 9 125.593 8.868 125.281 8.604C124.969 8.34 124.813 7.864 124.813 7.176V3.9H123.781V3.048H124.813L124.945 1.62H125.821V3.048H127.573V3.9H125.821V7.176C125.821 7.552 125.897 7.808 126.049 7.944C126.201 8.072 126.469 8.136 126.853 8.136H127.477V9H126.565ZM132.029 11.64V3.048H132.941L133.037 4.032C133.229 3.744 133.501 3.484 133.853 3.252C134.213 3.02 134.669 2.904 135.221 2.904C135.813 2.904 136.329 3.04 136.769 3.312C137.209 3.584 137.549 3.956 137.789 4.428C138.037 4.9 138.161 5.436 138.161 6.036C138.161 6.636 138.037 7.172 137.789 7.644C137.549 8.108 137.205 8.476 136.757 8.748C136.317 9.012 135.801 9.144 135.209 9.144C134.721 9.144 134.285 9.044 133.901 8.844C133.525 8.644 133.237 8.364 133.037 8.004V11.64H132.029ZM135.101 8.268C135.501 8.268 135.853 8.176 136.157 7.992C136.461 7.8 136.701 7.536 136.877 7.2C137.053 6.864 137.141 6.472 137.141 6.024C137.141 5.576 137.053 5.184 136.877 4.848C136.701 4.512 136.461 4.252 136.157 4.068C135.853 3.876 135.501 3.78 135.101 3.78C134.701 3.78 134.349 3.876 134.045 4.068C133.741 4.252 133.501 4.512 133.325 4.848C133.149 5.184 133.061 5.576 133.061 6.024C133.061 6.472 133.149 6.864 133.325 7.2C133.501 7.536 133.741 7.8 134.045 7.992C134.349 8.176 134.701 8.268 135.101 8.268ZM141.544 9.144C141.048 9.144 140.636 9.06 140.308 8.892C139.98 8.724 139.736 8.5 139.576 8.22C139.416 7.94 139.336 7.636 139.336 7.308C139.336 6.7 139.568 6.232 140.032 5.904C140.496 5.576 141.128 5.412 141.928 5.412H143.536V5.34C143.536 4.82 143.4 4.428 143.128 4.164C142.856 3.892 142.492 3.756 142.036 3.756C141.644 3.756 141.304 3.856 141.016 4.056C140.736 4.248 140.56 4.532 140.488 4.908H139.456C139.496 4.476 139.64 4.112 139.888 3.816C140.144 3.52 140.46 3.296 140.836 3.144C141.212 2.984 141.612 2.904 142.036 2.904C142.868 2.904 143.492 3.128 143.908 3.576C144.332 4.016 144.544 4.604 144.544 5.34V9H143.644L143.584 7.932C143.416 8.268 143.168 8.556 142.84 8.796C142.52 9.028 142.088 9.144 141.544 9.144ZM141.7 8.292C142.084 8.292 142.412 8.192 142.684 7.992C142.964 7.792 143.176 7.532 143.32 7.212C143.464 6.892 143.536 6.556 143.536 6.204V6.192H142.012C141.42 6.192 141 6.296 140.752 6.504C140.512 6.704 140.392 6.956 140.392 7.26C140.392 7.572 140.504 7.824 140.728 8.016C140.96 8.2 141.284 8.292 141.7 8.292ZM148.337 9.144C147.625 9.144 147.033 8.964 146.561 8.604C146.089 8.244 145.813 7.756 145.733 7.14H146.765C146.829 7.452 146.993 7.724 147.257 7.956C147.529 8.18 147.893 8.292 148.349 8.292C148.773 8.292 149.085 8.204 149.285 8.028C149.485 7.844 149.585 7.628 149.585 7.38C149.585 7.02 149.453 6.78 149.189 6.66C148.933 6.54 148.569 6.432 148.097 6.336C147.777 6.272 147.457 6.18 147.137 6.06C146.817 5.94 146.549 5.772 146.333 5.556C146.117 5.332 146.009 5.04 146.009 4.68C146.009 4.16 146.201 3.736 146.585 3.408C146.977 3.072 147.505 2.904 148.169 2.904C148.801 2.904 149.317 3.064 149.717 3.384C150.125 3.696 150.361 4.144 150.425 4.728H149.429C149.389 4.424 149.257 4.188 149.033 4.02C148.817 3.844 148.525 3.756 148.157 3.756C147.797 3.756 147.517 3.832 147.317 3.984C147.125 4.136 147.029 4.336 147.029 4.584C147.029 4.824 147.153 5.012 147.401 5.148C147.657 5.284 148.001 5.4 148.433 5.496C148.801 5.576 149.149 5.676 149.477 5.796C149.813 5.908 150.085 6.08 150.293 6.312C150.509 6.536 150.617 6.864 150.617 7.296C150.625 7.832 150.421 8.276 150.005 8.628C149.597 8.972 149.041 9.144 148.337 9.144ZM154.337 9.144C153.625 9.144 153.033 8.964 152.561 8.604C152.089 8.244 151.813 7.756 151.733 7.14H152.765C152.829 7.452 152.993 7.724 153.257 7.956C153.529 8.18 153.893 8.292 154.349 8.292C154.773 8.292 155.085 8.204 155.285 8.028C155.485 7.844 155.585 7.628 155.585 7.38C155.585 7.02 155.453 6.78 155.189 6.66C154.933 6.54 154.569 6.432 154.097 6.336C153.777 6.272 153.457 6.18 153.137 6.06C152.817 5.94 152.549 5.772 152.333 5.556C152.117 5.332 152.009 5.04 152.009 4.68C152.009 4.16 152.201 3.736 152.585 3.408C152.977 3.072 153.505 2.904 154.169 2.904C154.801 2.904 155.317 3.064 155.717 3.384C156.125 3.696 156.361 4.144 156.425 4.728H155.429C155.389 4.424 155.257 4.188 155.033 4.02C154.817 3.844 154.525 3.756 154.157 3.756C153.797 3.756 153.517 3.832 153.317 3.984C153.125 4.136 153.029 4.336 153.029 4.584C153.029 4.824 153.153 5.012 153.401 5.148C153.657 5.284 154.001 5.4 154.433 5.496C154.801 5.576 155.149 5.676 155.477 5.796C155.813 5.908 156.085 6.08 156.293 6.312C156.509 6.536 156.617 6.864 156.617 7.296C156.625 7.832 156.421 8.276 156.005 8.628C155.597 8.972 155.041 9.144 154.337 9.144ZM159.034 9L157.294 3.048H158.302L159.562 7.716L160.954 3.048H162.094L163.498 7.716L164.746 3.048H165.766L164.026 9H162.994L161.53 4.092L160.066 9H159.034ZM169.37 9.144C168.81 9.144 168.306 9.016 167.858 8.76C167.41 8.504 167.054 8.144 166.79 7.68C166.534 7.208 166.406 6.656 166.406 6.024C166.406 5.392 166.538 4.844 166.802 4.38C167.066 3.908 167.422 3.544 167.87 3.288C168.326 3.032 168.834 2.904 169.394 2.904C169.954 2.904 170.458 3.032 170.906 3.288C171.354 3.544 171.706 3.908 171.962 4.38C172.226 4.844 172.358 5.392 172.358 6.024C172.358 6.656 172.226 7.208 171.962 7.68C171.698 8.144 171.338 8.504 170.882 8.76C170.434 9.016 169.93 9.144 169.37 9.144ZM169.37 8.28C169.714 8.28 170.034 8.196 170.33 8.028C170.626 7.86 170.866 7.608 171.05 7.272C171.234 6.936 171.326 6.52 171.326 6.024C171.326 5.528 171.234 5.112 171.05 4.776C170.874 4.44 170.638 4.188 170.342 4.02C170.046 3.852 169.73 3.768 169.394 3.768C169.05 3.768 168.73 3.852 168.434 4.02C168.138 4.188 167.898 4.44 167.714 4.776C167.53 5.112 167.438 5.528 167.438 6.024C167.438 6.52 167.53 6.936 167.714 7.272C167.898 7.608 168.134 7.86 168.422 8.028C168.718 8.196 169.034 8.28 169.37 8.28ZM173.76 9V3.048H174.672L174.756 4.188C174.94 3.796 175.22 3.484 175.596 3.252C175.972 3.02 176.436 2.904 176.988 2.904V3.96H176.712C176.36 3.96 176.036 4.024 175.74 4.152C175.444 4.272 175.208 4.48 175.032 4.776C174.856 5.072 174.768 5.48 174.768 6V9H173.76ZM180.596 9.144C180.004 9.144 179.484 9.008 179.036 8.736C178.596 8.464 178.252 8.092 178.004 7.62C177.764 7.148 177.644 6.612 177.644 6.012C177.644 5.412 177.768 4.88 178.016 4.416C178.264 3.944 178.608 3.576 179.048 3.312C179.488 3.04 180.008 2.904 180.608 2.904C181.096 2.904 181.528 3.004 181.904 3.204C182.28 3.404 182.572 3.684 182.78 4.044V0.36H183.788V9H182.876L182.78 8.016C182.588 8.304 182.312 8.564 181.952 8.796C181.592 9.028 181.14 9.144 180.596 9.144ZM180.704 8.268C181.104 8.268 181.456 8.176 181.76 7.992C182.072 7.8 182.312 7.536 182.48 7.2C182.656 6.864 182.744 6.472 182.744 6.024C182.744 5.576 182.656 5.184 182.48 4.848C182.312 4.512 182.072 4.252 181.76 4.068C181.456 3.876 181.104 3.78 180.704 3.78C180.312 3.78 179.96 3.876 179.648 4.068C179.344 4.252 179.104 4.512 178.928 4.848C178.76 5.184 178.676 5.576 178.676 6.024C178.676 6.472 178.76 6.864 178.928 7.2C179.104 7.536 179.344 7.8 179.648 7.992C179.96 8.176 180.312 8.268 180.704 8.268ZM190.959 9C190.415 9 189.987 8.868 189.675 8.604C189.363 8.34 189.207 7.864 189.207 7.176V3.9H188.175V3.048H189.207L189.339 1.62H190.215V3.048H191.967V3.9H190.215V7.176C190.215 7.552 190.291 7.808 190.443 7.944C190.595 8.072 190.863 8.136 191.247 8.136H191.871V9H190.959ZM195.796 9.144C195.236 9.144 194.732 9.016 194.284 8.76C193.836 8.504 193.48 8.144 193.216 7.68C192.96 7.208 192.832 6.656 192.832 6.024C192.832 5.392 192.964 4.844 193.228 4.38C193.492 3.908 193.848 3.544 194.296 3.288C194.752 3.032 195.26 2.904 195.82 2.904C196.38 2.904 196.884 3.032 197.332 3.288C197.78 3.544 198.132 3.908 198.388 4.38C198.652 4.844 198.784 5.392 198.784 6.024C198.784 6.656 198.652 7.208 198.388 7.68C198.124 8.144 197.764 8.504 197.308 8.76C196.86 9.016 196.356 9.144 195.796 9.144ZM195.796 8.28C196.14 8.28 196.46 8.196 196.756 8.028C197.052 7.86 197.292 7.608 197.476 7.272C197.66 6.936 197.752 6.52 197.752 6.024C197.752 5.528 197.66 5.112 197.476 4.776C197.3 4.44 197.064 4.188 196.768 4.02C196.472 3.852 196.156 3.768 195.82 3.768C195.476 3.768 195.156 3.852 194.86 4.02C194.564 4.188 194.324 4.44 194.14 4.776C193.956 5.112 193.864 5.528 193.864 6.024C193.864 6.52 193.956 6.936 194.14 7.272C194.324 7.608 194.56 7.86 194.848 8.028C195.144 8.196 195.46 8.28 195.796 8.28ZM205.713 9C205.169 9 204.741 8.868 204.429 8.604C204.117 8.34 203.961 7.864 203.961 7.176V3.9H202.929V3.048H203.961L204.093 1.62H204.969V3.048H206.721V3.9H204.969V7.176C204.969 7.552 205.045 7.808 205.197 7.944C205.349 8.072 205.617 8.136 206.001 8.136H206.625V9H205.713ZM208.002 9V0.36H209.01V4.068C209.21 3.7 209.494 3.416 209.862 3.216C210.23 3.008 210.63 2.904 211.062 2.904C211.75 2.904 212.302 3.12 212.718 3.552C213.134 3.976 213.342 4.632 213.342 5.52V9H212.346V5.628C212.346 4.388 211.846 3.768 210.846 3.768C210.326 3.768 209.89 3.956 209.538 4.332C209.186 4.7 209.01 5.228 209.01 5.916V9H208.002ZM217.545 9.144C216.977 9.144 216.473 9.016 216.033 8.76C215.593 8.496 215.245 8.132 214.989 7.668C214.741 7.204 214.617 6.656 214.617 6.024C214.617 5.4 214.741 4.856 214.989 4.392C215.237 3.92 215.581 3.556 216.021 3.3C216.469 3.036 216.985 2.904 217.569 2.904C218.145 2.904 218.641 3.036 219.057 3.3C219.481 3.556 219.805 3.896 220.029 4.32C220.253 4.744 220.365 5.2 220.365 5.688C220.365 5.776 220.361 5.864 220.353 5.952C220.353 6.04 220.353 6.14 220.353 6.252H215.613C215.637 6.708 215.741 7.088 215.925 7.392C216.117 7.688 216.353 7.912 216.633 8.064C216.921 8.216 217.225 8.292 217.545 8.292C217.961 8.292 218.309 8.196 218.589 8.004C218.869 7.812 219.073 7.552 219.201 7.224H220.197C220.037 7.776 219.729 8.236 219.273 8.604C218.825 8.964 218.249 9.144 217.545 9.144ZM217.545 3.756C217.065 3.756 216.637 3.904 216.261 4.2C215.893 4.488 215.681 4.912 215.625 5.472H219.369C219.345 4.936 219.161 4.516 218.817 4.212C218.473 3.908 218.049 3.756 217.545 3.756ZM227.553 9.144C226.985 9.144 226.481 9.016 226.041 8.76C225.601 8.496 225.253 8.132 224.997 7.668C224.749 7.204 224.625 6.656 224.625 6.024C224.625 5.4 224.749 4.856 224.997 4.392C225.245 3.92 225.589 3.556 226.029 3.3C226.477 3.036 226.993 2.904 227.577 2.904C228.153 2.904 228.649 3.036 229.065 3.3C229.489 3.556 229.813 3.896 230.037 4.32C230.261 4.744 230.373 5.2 230.373 5.688C230.373 5.776 230.369 5.864 230.361 5.952C230.361 6.04 230.361 6.14 230.361 6.252H225.621C225.645 6.708 225.749 7.088 225.933 7.392C226.125 7.688 226.361 7.912 226.641 8.064C226.929 8.216 227.233 8.292 227.553 8.292C227.969 8.292 228.317 8.196 228.597 8.004C228.877 7.812 229.081 7.552 229.209 7.224H230.205C230.045 7.776 229.737 8.236 229.281 8.604C228.833 8.964 228.257 9.144 227.553 9.144ZM227.553 3.756C227.073 3.756 226.645 3.904 226.269 4.2C225.901 4.488 225.689 4.912 225.633 5.472H229.377C229.353 4.936 229.169 4.516 228.825 4.212C228.481 3.908 228.057 3.756 227.553 3.756ZM231.709 9V3.048H232.621L232.693 3.912C232.885 3.592 233.141 3.344 233.461 3.168C233.781 2.992 234.141 2.904 234.541 2.904C235.013 2.904 235.417 3 235.753 3.192C236.097 3.384 236.361 3.676 236.545 4.068C236.753 3.708 237.037 3.424 237.397 3.216C237.765 3.008 238.161 2.904 238.585 2.904C239.297 2.904 239.865 3.12 240.289 3.552C240.713 3.976 240.925 4.632 240.925 5.52V9H239.929V5.628C239.929 5.012 239.805 4.548 239.557 4.236C239.309 3.924 238.953 3.768 238.489 3.768C238.009 3.768 237.609 3.956 237.289 4.332C236.977 4.7 236.821 5.228 236.821 5.916V9H235.813V5.628C235.813 5.012 235.689 4.548 235.441 4.236C235.193 3.924 234.837 3.768 234.373 3.768C233.901 3.768 233.505 3.956 233.185 4.332C232.873 4.7 232.717 5.228 232.717 5.916V9H231.709ZM244.423 9.144C243.927 9.144 243.515 9.06 243.187 8.892C242.859 8.724 242.615 8.5 242.455 8.22C242.295 7.94 242.215 7.636 242.215 7.308C242.215 6.7 242.447 6.232 242.911 5.904C243.375 5.576 244.007 5.412 244.807 5.412H246.415V5.34C246.415 4.82 246.279 4.428 246.007 4.164C245.735 3.892 245.371 3.756 244.915 3.756C244.523 3.756 244.183 3.856 243.895 4.056C243.615 4.248 243.439 4.532 243.367 4.908H242.335C242.375 4.476 242.519 4.112 242.767 3.816C243.023 3.52 243.339 3.296 243.715 3.144C244.091 2.984 244.491 2.904 244.915 2.904C245.747 2.904 246.371 3.128 246.787 3.576C247.211 4.016 247.423 4.604 247.423 5.34V9H246.523L246.463 7.932C246.295 8.268 246.047 8.556 245.719 8.796C245.399 9.028 244.967 9.144 244.423 9.144ZM244.579 8.292C244.963 8.292 245.291 8.192 245.563 7.992C245.843 7.792 246.055 7.532 246.199 7.212C246.343 6.892 246.415 6.556 246.415 6.204V6.192H244.891C244.299 6.192 243.879 6.296 243.631 6.504C243.391 6.704 243.271 6.956 243.271 7.26C243.271 7.572 243.383 7.824 243.607 8.016C243.839 8.2 244.163 8.292 244.579 8.292ZM249.547 1.728C249.347 1.728 249.179 1.664 249.043 1.536C248.915 1.4 248.851 1.232 248.851 1.032C248.851 0.84 248.915 0.68 249.043 0.551999C249.179 0.424 249.347 0.36 249.547 0.36C249.739 0.36 249.903 0.424 250.039 0.551999C250.175 0.68 250.243 0.84 250.243 1.032C250.243 1.232 250.175 1.4 250.039 1.536C249.903 1.664 249.739 1.728 249.547 1.728ZM249.043 9V3.048H250.051V9H249.043ZM251.807 9V0.36H252.815V9H251.807ZM259.622 9.144C259.126 9.144 258.714 9.06 258.386 8.892C258.058 8.724 257.814 8.5 257.654 8.22C257.494 7.94 257.414 7.636 257.414 7.308C257.414 6.7 257.646 6.232 258.11 5.904C258.574 5.576 259.206 5.412 260.006 5.412H261.614V5.34C261.614 4.82 261.478 4.428 261.206 4.164C260.934 3.892 260.57 3.756 260.114 3.756C259.722 3.756 259.382 3.856 259.094 4.056C258.814 4.248 258.638 4.532 258.566 4.908H257.534C257.574 4.476 257.718 4.112 257.966 3.816C258.222 3.52 258.538 3.296 258.914 3.144C259.29 2.984 259.69 2.904 260.114 2.904C260.946 2.904 261.57 3.128 261.986 3.576C262.41 4.016 262.622 4.604 262.622 5.34V9H261.722L261.662 7.932C261.494 8.268 261.246 8.556 260.918 8.796C260.598 9.028 260.166 9.144 259.622 9.144ZM259.778 8.292C260.162 8.292 260.49 8.192 260.762 7.992C261.042 7.792 261.254 7.532 261.398 7.212C261.542 6.892 261.614 6.556 261.614 6.204V6.192H260.09C259.498 6.192 259.078 6.296 258.83 6.504C258.59 6.704 258.47 6.956 258.47 7.26C258.47 7.572 258.582 7.824 258.806 8.016C259.038 8.2 259.362 8.292 259.778 8.292ZM266.835 9.144C266.243 9.144 265.723 9.008 265.275 8.736C264.835 8.464 264.491 8.092 264.243 7.62C264.003 7.148 263.883 6.612 263.883 6.012C263.883 5.412 264.007 4.88 264.255 4.416C264.503 3.944 264.847 3.576 265.287 3.312C265.727 3.04 266.247 2.904 266.847 2.904C267.335 2.904 267.767 3.004 268.143 3.204C268.519 3.404 268.811 3.684 269.019 4.044V0.36H270.027V9H269.115L269.019 8.016C268.827 8.304 268.551 8.564 268.191 8.796C267.831 9.028 267.379 9.144 266.835 9.144ZM266.943 8.268C267.343 8.268 267.695 8.176 267.999 7.992C268.311 7.8 268.551 7.536 268.719 7.2C268.895 6.864 268.983 6.472 268.983 6.024C268.983 5.576 268.895 5.184 268.719 4.848C268.551 4.512 268.311 4.252 267.999 4.068C267.695 3.876 267.343 3.78 266.943 3.78C266.551 3.78 266.199 3.876 265.887 4.068C265.583 4.252 265.343 4.512 265.167 4.848C264.999 5.184 264.915 5.576 264.915 6.024C264.915 6.472 264.999 6.864 265.167 7.2C265.343 7.536 265.583 7.8 265.887 7.992C266.199 8.176 266.551 8.268 266.943 8.268ZM274.37 9.144C273.778 9.144 273.258 9.008 272.81 8.736C272.37 8.464 272.026 8.092 271.778 7.62C271.538 7.148 271.418 6.612 271.418 6.012C271.418 5.412 271.542 4.88 271.79 4.416C272.038 3.944 272.382 3.576 272.822 3.312C273.262 3.04 273.782 2.904 274.382 2.904C274.87 2.904 275.302 3.004 275.678 3.204C276.054 3.404 276.346 3.684 276.554 4.044V0.36H277.562V9H276.65L276.554 8.016C276.362 8.304 276.086 8.564 275.726 8.796C275.366 9.028 274.914 9.144 274.37 9.144ZM274.478 8.268C274.878 8.268 275.23 8.176 275.534 7.992C275.846 7.8 276.086 7.536 276.254 7.2C276.43 6.864 276.518 6.472 276.518 6.024C276.518 5.576 276.43 5.184 276.254 4.848C276.086 4.512 275.846 4.252 275.534 4.068C275.23 3.876 274.878 3.78 274.478 3.78C274.086 3.78 273.734 3.876 273.422 4.068C273.118 4.252 272.878 4.512 272.702 4.848C272.534 5.184 272.45 5.576 272.45 6.024C272.45 6.472 272.534 6.864 272.702 7.2C272.878 7.536 273.118 7.8 273.422 7.992C273.734 8.176 274.086 8.268 274.478 8.268ZM279.205 9V3.048H280.117L280.201 4.188C280.385 3.796 280.665 3.484 281.041 3.252C281.417 3.02 281.881 2.904 282.433 2.904V3.96H282.157C281.805 3.96 281.481 4.024 281.185 4.152C280.889 4.272 280.653 4.48 280.477 4.776C280.301 5.072 280.213 5.48 280.213 6V9H279.205ZM286.018 9.144C285.45 9.144 284.946 9.016 284.506 8.76C284.066 8.496 283.718 8.132 283.462 7.668C283.214 7.204 283.09 6.656 283.09 6.024C283.09 5.4 283.214 4.856 283.462 4.392C283.71 3.92 284.054 3.556 284.494 3.3C284.942 3.036 285.458 2.904 286.042 2.904C286.618 2.904 287.114 3.036 287.53 3.3C287.954 3.556 288.278 3.896 288.502 4.32C288.726 4.744 288.838 5.2 288.838 5.688C288.838 5.776 288.834 5.864 288.826 5.952C288.826 6.04 288.826 6.14 288.826 6.252H284.086C284.11 6.708 284.214 7.088 284.398 7.392C284.59 7.688 284.826 7.912 285.106 8.064C285.394 8.216 285.698 8.292 286.018 8.292C286.434 8.292 286.782 8.196 287.062 8.004C287.342 7.812 287.546 7.552 287.674 7.224H288.67C288.51 7.776 288.202 8.236 287.746 8.604C287.298 8.964 286.722 9.144 286.018 9.144ZM286.018 3.756C285.538 3.756 285.11 3.904 284.734 4.2C284.366 4.488 284.154 4.912 284.098 5.472H287.842C287.818 4.936 287.634 4.516 287.29 4.212C286.946 3.908 286.522 3.756 286.018 3.756ZM292.454 9.144C291.742 9.144 291.15 8.964 290.678 8.604C290.206 8.244 289.93 7.756 289.85 7.14H290.882C290.946 7.452 291.11 7.724 291.374 7.956C291.646 8.18 292.01 8.292 292.466 8.292C292.89 8.292 293.202 8.204 293.402 8.028C293.602 7.844 293.702 7.628 293.702 7.38C293.702 7.02 293.57 6.78 293.306 6.66C293.05 6.54 292.686 6.432 292.214 6.336C291.894 6.272 291.574 6.18 291.254 6.06C290.934 5.94 290.666 5.772 290.45 5.556C290.234 5.332 290.126 5.04 290.126 4.68C290.126 4.16 290.318 3.736 290.702 3.408C291.094 3.072 291.622 2.904 292.286 2.904C292.918 2.904 293.434 3.064 293.834 3.384C294.242 3.696 294.478 4.144 294.542 4.728H293.546C293.506 4.424 293.374 4.188 293.15 4.02C292.934 3.844 292.642 3.756 292.274 3.756C291.914 3.756 291.634 3.832 291.434 3.984C291.242 4.136 291.146 4.336 291.146 4.584C291.146 4.824 291.27 5.012 291.518 5.148C291.774 5.284 292.118 5.4 292.55 5.496C292.918 5.576 293.266 5.676 293.594 5.796C293.93 5.908 294.202 6.08 294.41 6.312C294.626 6.536 294.734 6.864 294.734 7.296C294.742 7.832 294.538 8.276 294.122 8.628C293.714 8.972 293.158 9.144 292.454 9.144ZM298.454 9.144C297.742 9.144 297.15 8.964 296.678 8.604C296.206 8.244 295.93 7.756 295.85 7.14H296.882C296.946 7.452 297.11 7.724 297.374 7.956C297.646 8.18 298.01 8.292 298.466 8.292C298.89 8.292 299.202 8.204 299.402 8.028C299.602 7.844 299.702 7.628 299.702 7.38C299.702 7.02 299.57 6.78 299.306 6.66C299.05 6.54 298.686 6.432 298.214 6.336C297.894 6.272 297.574 6.18 297.254 6.06C296.934 5.94 296.666 5.772 296.45 5.556C296.234 5.332 296.126 5.04 296.126 4.68C296.126 4.16 296.318 3.736 296.702 3.408C297.094 3.072 297.622 2.904 298.286 2.904C298.918 2.904 299.434 3.064 299.834 3.384C300.242 3.696 300.478 4.144 300.542 4.728H299.546C299.506 4.424 299.374 4.188 299.15 4.02C298.934 3.844 298.642 3.756 298.274 3.756C297.914 3.756 297.634 3.832 297.434 3.984C297.242 4.136 297.146 4.336 297.146 4.584C297.146 4.824 297.27 5.012 297.518 5.148C297.774 5.284 298.118 5.4 298.55 5.496C298.918 5.576 299.266 5.676 299.594 5.796C299.93 5.908 300.202 6.08 300.41 6.312C300.626 6.536 300.734 6.864 300.734 7.296C300.742 7.832 300.538 8.276 300.122 8.628C299.714 8.972 299.158 9.144 298.454 9.144Z" fill="#524B6B"/>
<path d="M81.1857 28.144C80.6977 28.144 80.2617 28.044 79.8777 27.844C79.5017 27.644 79.2137 27.364 79.0137 27.004L78.9177 28H78.0057V19.36H79.0137V23.032C79.2057 22.744 79.4777 22.484 79.8297 22.252C80.1897 22.02 80.6457 21.904 81.1977 21.904C81.7897 21.904 82.3057 22.04 82.7457 22.312C83.1857 22.584 83.5257 22.956 83.7657 23.428C84.0137 23.9 84.1377 24.436 84.1377 25.036C84.1377 25.636 84.0137 26.172 83.7657 26.644C83.5257 27.108 83.1817 27.476 82.7337 27.748C82.2937 28.012 81.7777 28.144 81.1857 28.144ZM81.0777 27.268C81.4777 27.268 81.8297 27.176 82.1337 26.992C82.4377 26.8 82.6777 26.536 82.8537 26.2C83.0297 25.864 83.1177 25.472 83.1177 25.024C83.1177 24.576 83.0297 24.184 82.8537 23.848C82.6777 23.512 82.4377 23.252 82.1337 23.068C81.8297 22.876 81.4777 22.78 81.0777 22.78C80.6777 22.78 80.3257 22.876 80.0217 23.068C79.7177 23.252 79.4777 23.512 79.3017 23.848C79.1257 24.184 79.0377 24.576 79.0377 25.024C79.0377 25.472 79.1257 25.864 79.3017 26.2C79.4777 26.536 79.7177 26.8 80.0217 26.992C80.3257 27.176 80.6777 27.268 81.0777 27.268ZM85.5409 28V22.048H86.4529L86.5369 23.188C86.7209 22.796 87.0009 22.484 87.3769 22.252C87.7529 22.02 88.2169 21.904 88.7689 21.904V22.96H88.4929C88.1409 22.96 87.8169 23.024 87.5209 23.152C87.2249 23.272 86.9889 23.48 86.8129 23.776C86.6369 24.072 86.5489 24.48 86.5489 25V28H85.5409ZM91.8803 28.144C91.3843 28.144 90.9723 28.06 90.6443 27.892C90.3163 27.724 90.0723 27.5 89.9123 27.22C89.7523 26.94 89.6723 26.636 89.6723 26.308C89.6723 25.7 89.9043 25.232 90.3683 24.904C90.8323 24.576 91.4643 24.412 92.2643 24.412H93.8723V24.34C93.8723 23.82 93.7363 23.428 93.4643 23.164C93.1923 22.892 92.8283 22.756 92.3723 22.756C91.9803 22.756 91.6403 22.856 91.3523 23.056C91.0723 23.248 90.8963 23.532 90.8243 23.908H89.7923C89.8323 23.476 89.9763 23.112 90.2243 22.816C90.4803 22.52 90.7963 22.296 91.1723 22.144C91.5483 21.984 91.9483 21.904 92.3723 21.904C93.2043 21.904 93.8283 22.128 94.2443 22.576C94.6683 23.016 94.8803 23.604 94.8803 24.34V28H93.9803L93.9203 26.932C93.7523 27.268 93.5043 27.556 93.1763 27.796C92.8563 28.028 92.4243 28.144 91.8803 28.144ZM92.0363 27.292C92.4203 27.292 92.7483 27.192 93.0203 26.992C93.3003 26.792 93.5123 26.532 93.6563 26.212C93.8003 25.892 93.8723 25.556 93.8723 25.204V25.192H92.3483C91.7563 25.192 91.3363 25.296 91.0883 25.504C90.8483 25.704 90.7283 25.956 90.7283 26.26C90.7283 26.572 90.8403 26.824 91.0643 27.016C91.2963 27.2 91.6203 27.292 92.0363 27.292ZM96.3925 28V22.048H97.3045L97.3645 23.116C97.5565 22.74 97.8325 22.444 98.1925 22.228C98.5525 22.012 98.9605 21.904 99.4165 21.904C100.12 21.904 100.68 22.12 101.096 22.552C101.52 22.976 101.732 23.632 101.732 24.52V28H100.724V24.628C100.724 23.388 100.212 22.768 99.1885 22.768C98.6765 22.768 98.2485 22.956 97.9045 23.332C97.5685 23.7 97.4005 24.228 97.4005 24.916V28H96.3925ZM105.96 28.144C105.368 28.144 104.848 28.008 104.4 27.736C103.96 27.464 103.616 27.092 103.368 26.62C103.128 26.148 103.008 25.612 103.008 25.012C103.008 24.412 103.132 23.88 103.38 23.416C103.628 22.944 103.972 22.576 104.412 22.312C104.852 22.04 105.372 21.904 105.972 21.904C106.46 21.904 106.892 22.004 107.268 22.204C107.644 22.404 107.936 22.684 108.144 23.044V19.36H109.152V28H108.24L108.144 27.016C107.952 27.304 107.676 27.564 107.316 27.796C106.956 28.028 106.504 28.144 105.96 28.144ZM106.068 27.268C106.468 27.268 106.82 27.176 107.124 26.992C107.436 26.8 107.676 26.536 107.844 26.2C108.02 25.864 108.108 25.472 108.108 25.024C108.108 24.576 108.02 24.184 107.844 23.848C107.676 23.512 107.436 23.252 107.124 23.068C106.82 22.876 106.468 22.78 106.068 22.78C105.676 22.78 105.324 22.876 105.012 23.068C104.708 23.252 104.468 23.512 104.292 23.848C104.124 24.184 104.04 24.576 104.04 25.024C104.04 25.472 104.124 25.864 104.292 26.2C104.468 26.536 104.708 26.8 105.012 26.992C105.324 27.176 105.676 27.268 106.068 27.268ZM113.507 28.144C112.947 28.144 112.443 28.016 111.995 27.76C111.547 27.504 111.191 27.144 110.927 26.68C110.671 26.208 110.543 25.656 110.543 25.024C110.543 24.392 110.675 23.844 110.939 23.38C111.203 22.908 111.559 22.544 112.007 22.288C112.463 22.032 112.971 21.904 113.531 21.904C114.091 21.904 114.595 22.032 115.043 22.288C115.491 22.544 115.843 22.908 116.099 23.38C116.363 23.844 116.495 24.392 116.495 25.024C116.495 25.656 116.363 26.208 116.099 26.68C115.835 27.144 115.475 27.504 115.019 27.76C114.571 28.016 114.067 28.144 113.507 28.144ZM113.507 27.28C113.851 27.28 114.171 27.196 114.467 27.028C114.763 26.86 115.003 26.608 115.187 26.272C115.371 25.936 115.463 25.52 115.463 25.024C115.463 24.528 115.371 24.112 115.187 23.776C115.011 23.44 114.775 23.188 114.479 23.02C114.183 22.852 113.867 22.768 113.531 22.768C113.187 22.768 112.867 22.852 112.571 23.02C112.275 23.188 112.035 23.44 111.851 23.776C111.667 24.112 111.575 24.528 111.575 25.024C111.575 25.52 111.667 25.936 111.851 26.272C112.035 26.608 112.271 26.86 112.559 27.028C112.855 27.196 113.171 27.28 113.507 27.28ZM117.896 28V22.048H118.808L118.868 23.116C119.06 22.74 119.336 22.444 119.696 22.228C120.056 22.012 120.464 21.904 120.92 21.904C121.624 21.904 122.184 22.12 122.6 22.552C123.024 22.976 123.236 23.632 123.236 24.52V28H122.228V24.628C122.228 23.388 121.716 22.768 120.692 22.768C120.18 22.768 119.752 22.956 119.408 23.332C119.072 23.7 118.904 24.228 118.904 24.916V28H117.896ZM127.44 28.144C126.872 28.144 126.368 28.016 125.928 27.76C125.488 27.496 125.14 27.132 124.884 26.668C124.636 26.204 124.512 25.656 124.512 25.024C124.512 24.4 124.636 23.856 124.884 23.392C125.132 22.92 125.476 22.556 125.916 22.3C126.364 22.036 126.88 21.904 127.464 21.904C128.04 21.904 128.536 22.036 128.952 22.3C129.376 22.556 129.7 22.896 129.924 23.32C130.148 23.744 130.26 24.2 130.26 24.688C130.26 24.776 130.256 24.864 130.248 24.952C130.248 25.04 130.248 25.14 130.248 25.252H125.508C125.532 25.708 125.636 26.088 125.82 26.392C126.012 26.688 126.248 26.912 126.528 27.064C126.816 27.216 127.12 27.292 127.44 27.292C127.856 27.292 128.204 27.196 128.484 27.004C128.764 26.812 128.968 26.552 129.096 26.224H130.092C129.932 26.776 129.624 27.236 129.168 27.604C128.72 27.964 128.144 28.144 127.44 28.144ZM127.44 22.756C126.96 22.756 126.532 22.904 126.156 23.2C125.788 23.488 125.576 23.912 125.52 24.472H129.264C129.24 23.936 129.056 23.516 128.712 23.212C128.368 22.908 127.944 22.756 127.44 22.756ZM131.596 28V19.36H132.604V28H131.596ZM136.968 28.144C136.408 28.144 135.904 28.016 135.456 27.76C135.008 27.504 134.652 27.144 134.388 26.68C134.132 26.208 134.004 25.656 134.004 25.024C134.004 24.392 134.136 23.844 134.4 23.38C134.664 22.908 135.02 22.544 135.468 22.288C135.924 22.032 136.432 21.904 136.992 21.904C137.552 21.904 138.056 22.032 138.504 22.288C138.952 22.544 139.304 22.908 139.56 23.38C139.824 23.844 139.956 24.392 139.956 25.024C139.956 25.656 139.824 26.208 139.56 26.68C139.296 27.144 138.936 27.504 138.48 27.76C138.032 28.016 137.528 28.144 136.968 28.144ZM136.968 27.28C137.312 27.28 137.632 27.196 137.928 27.028C138.224 26.86 138.464 26.608 138.648 26.272C138.832 25.936 138.924 25.52 138.924 25.024C138.924 24.528 138.832 24.112 138.648 23.776C138.472 23.44 138.236 23.188 137.94 23.02C137.644 22.852 137.328 22.768 136.992 22.768C136.648 22.768 136.328 22.852 136.032 23.02C135.736 23.188 135.496 23.44 135.312 23.776C135.128 24.112 135.036 24.528 135.036 25.024C135.036 25.52 135.128 25.936 135.312 26.272C135.496 26.608 135.732 26.86 136.02 27.028C136.316 27.196 136.632 27.28 136.968 27.28ZM143.529 28.144C142.825 28.144 142.265 27.932 141.849 27.508C141.433 27.076 141.225 26.416 141.225 25.528V22.048H142.233V25.42C142.233 26.66 142.741 27.28 143.757 27.28C144.277 27.28 144.705 27.096 145.041 26.728C145.385 26.352 145.557 25.82 145.557 25.132V22.048H146.565V28H145.653L145.581 26.932C145.397 27.308 145.121 27.604 144.753 27.82C144.393 28.036 143.985 28.144 143.529 28.144ZM148.836 20.728C148.636 20.728 148.468 20.664 148.332 20.536C148.204 20.4 148.14 20.232 148.14 20.032C148.14 19.84 148.204 19.68 148.332 19.552C148.468 19.424 148.636 19.36 148.836 19.36C149.028 19.36 149.192 19.424 149.328 19.552C149.464 19.68 149.532 19.84 149.532 20.032C149.532 20.232 149.464 20.4 149.328 20.536C149.192 20.664 149.028 20.728 148.836 20.728ZM148.332 28V22.048H149.34V28H148.332ZM153.376 28.144C152.664 28.144 152.072 27.964 151.6 27.604C151.128 27.244 150.852 26.756 150.772 26.14H151.804C151.868 26.452 152.032 26.724 152.296 26.956C152.568 27.18 152.932 27.292 153.388 27.292C153.812 27.292 154.124 27.204 154.324 27.028C154.524 26.844 154.624 26.628 154.624 26.38C154.624 26.02 154.492 25.78 154.228 25.66C153.972 25.54 153.608 25.432 153.136 25.336C152.816 25.272 152.496 25.18 152.176 25.06C151.856 24.94 151.588 24.772 151.372 24.556C151.156 24.332 151.048 24.04 151.048 23.68C151.048 23.16 151.24 22.736 151.624 22.408C152.016 22.072 152.544 21.904 153.208 21.904C153.84 21.904 154.356 22.064 154.756 22.384C155.164 22.696 155.4 23.144 155.464 23.728H154.468C154.428 23.424 154.296 23.188 154.072 23.02C153.856 22.844 153.564 22.756 153.196 22.756C152.836 22.756 152.556 22.832 152.356 22.984C152.164 23.136 152.068 23.336 152.068 23.584C152.068 23.824 152.192 24.012 152.44 24.148C152.696 24.284 153.04 24.4 153.472 24.496C153.84 24.576 154.188 24.676 154.516 24.796C154.852 24.908 155.124 25.08 155.332 25.312C155.548 25.536 155.656 25.864 155.656 26.296C155.664 26.832 155.46 27.276 155.044 27.628C154.636 27.972 154.08 28.144 153.376 28.144ZM161.452 30.388C160.596 30.388 159.844 30.224 159.196 29.896C158.556 29.568 158.056 29.104 157.696 28.504C157.344 27.904 157.168 27.192 157.168 26.368C157.168 25.52 157.316 24.728 157.612 23.992C157.908 23.256 158.324 22.612 158.86 22.06C159.396 21.508 160.028 21.08 160.756 20.776C161.484 20.472 162.284 20.32 163.156 20.32C164.044 20.32 164.816 20.492 165.472 20.836C166.128 21.172 166.632 21.644 166.984 22.252C167.344 22.852 167.524 23.552 167.524 24.352C167.524 24.808 167.468 25.26 167.356 25.708C167.244 26.148 167.076 26.548 166.852 26.908C166.636 27.26 166.368 27.544 166.048 27.76C165.736 27.968 165.376 28.072 164.968 28.072C164.56 28.072 164.248 27.968 164.032 27.76C163.824 27.552 163.708 27.272 163.684 26.92C163.436 27.28 163.12 27.564 162.736 27.772C162.36 27.972 161.96 28.072 161.536 28.072C160.928 28.072 160.452 27.888 160.108 27.52C159.772 27.152 159.604 26.656 159.604 26.032C159.604 25.592 159.672 25.172 159.808 24.772C159.952 24.364 160.152 24.004 160.408 23.692C160.664 23.372 160.968 23.12 161.32 22.936C161.672 22.752 162.064 22.66 162.496 22.66C163.304 22.66 163.828 22.992 164.068 23.656L164.224 22.792H165.076L164.476 26.224C164.42 26.568 164.436 26.848 164.524 27.064C164.62 27.272 164.816 27.376 165.112 27.376C165.368 27.376 165.596 27.288 165.796 27.112C165.996 26.928 166.164 26.688 166.3 26.392C166.436 26.088 166.536 25.764 166.6 25.42C166.672 25.068 166.708 24.728 166.708 24.4C166.708 23.352 166.38 22.528 165.724 21.928C165.076 21.328 164.18 21.028 163.036 21.028C162.308 21.028 161.636 21.164 161.02 21.436C160.412 21.708 159.88 22.084 159.424 22.564C158.968 23.044 158.612 23.6 158.356 24.232C158.108 24.864 157.984 25.548 157.984 26.284C157.984 27.004 158.132 27.616 158.428 28.12C158.724 28.624 159.144 29.008 159.688 29.272C160.232 29.536 160.88 29.668 161.632 29.668C161.976 29.668 162.32 29.632 162.664 29.56C163.008 29.496 163.328 29.396 163.624 29.26L163.792 29.944C163.072 30.24 162.292 30.388 161.452 30.388ZM161.836 27.304C162.18 27.304 162.496 27.212 162.784 27.028C163.072 26.844 163.308 26.592 163.492 26.272C163.676 25.944 163.788 25.568 163.828 25.144C163.884 24.672 163.8 24.268 163.576 23.932C163.36 23.596 163.008 23.428 162.52 23.428C162.112 23.428 161.756 23.548 161.452 23.788C161.156 24.02 160.928 24.324 160.768 24.7C160.608 25.076 160.528 25.468 160.528 25.876C160.528 26.308 160.636 26.656 160.852 26.92C161.076 27.176 161.404 27.304 161.836 27.304ZM171.6 26.128C171.264 26.128 170.956 26.084 170.676 25.996L170.076 26.56C170.164 26.624 170.272 26.68 170.4 26.728C170.536 26.768 170.728 26.808 170.976 26.848C171.224 26.88 171.572 26.916 172.02 26.956C172.82 27.012 173.392 27.196 173.736 27.508C174.08 27.82 174.252 28.228 174.252 28.732C174.252 29.076 174.156 29.404 173.964 29.716C173.78 30.028 173.492 30.284 173.1 30.484C172.716 30.684 172.22 30.784 171.612 30.784C171.076 30.784 170.6 30.712 170.184 30.568C169.768 30.432 169.444 30.22 169.212 29.932C168.98 29.652 168.864 29.296 168.864 28.864C168.864 28.64 168.924 28.396 169.044 28.132C169.164 27.876 169.388 27.632 169.716 27.4C169.54 27.328 169.388 27.252 169.26 27.172C169.14 27.084 169.028 26.988 168.924 26.884V26.608L169.944 25.6C169.472 25.2 169.236 24.672 169.236 24.016C169.236 23.624 169.328 23.268 169.512 22.948C169.696 22.628 169.964 22.376 170.316 22.192C170.668 22 171.096 21.904 171.6 21.904C171.944 21.904 172.256 21.952 172.536 22.048H174.732V22.804L173.616 22.852C173.848 23.188 173.964 23.576 173.964 24.016C173.964 24.408 173.868 24.764 173.676 25.084C173.492 25.404 173.224 25.66 172.872 25.852C172.528 26.036 172.104 26.128 171.6 26.128ZM171.6 25.3C172.024 25.3 172.36 25.192 172.608 24.976C172.864 24.752 172.992 24.432 172.992 24.016C172.992 23.608 172.864 23.296 172.608 23.08C172.36 22.856 172.024 22.744 171.6 22.744C171.168 22.744 170.824 22.856 170.568 23.08C170.32 23.296 170.196 23.608 170.196 24.016C170.196 24.432 170.32 24.752 170.568 24.976C170.824 25.192 171.168 25.3 171.6 25.3ZM169.848 28.768C169.848 29.168 170.016 29.464 170.352 29.656C170.688 29.856 171.108 29.956 171.612 29.956C172.108 29.956 172.504 29.848 172.8 29.632C173.104 29.416 173.256 29.128 173.256 28.768C173.256 28.512 173.152 28.288 172.944 28.096C172.736 27.912 172.352 27.804 171.792 27.772C171.352 27.74 170.972 27.7 170.652 27.652C170.324 27.828 170.108 28.016 170.004 28.216C169.9 28.424 169.848 28.608 169.848 28.768ZM175.869 28V22.048H176.781L176.853 22.912C177.045 22.592 177.301 22.344 177.621 22.168C177.941 21.992 178.301 21.904 178.701 21.904C179.173 21.904 179.577 22 179.913 22.192C180.257 22.384 180.521 22.676 180.705 23.068C180.913 22.708 181.197 22.424 181.557 22.216C181.925 22.008 182.321 21.904 182.745 21.904C183.457 21.904 184.025 22.12 184.449 22.552C184.873 22.976 185.085 23.632 185.085 24.52V28H184.089V24.628C184.089 24.012 183.965 23.548 183.717 23.236C183.469 22.924 183.113 22.768 182.649 22.768C182.169 22.768 181.769 22.956 181.449 23.332C181.137 23.7 180.981 24.228 180.981 24.916V28H179.973V24.628C179.973 24.012 179.849 23.548 179.601 23.236C179.353 22.924 178.997 22.768 178.533 22.768C178.061 22.768 177.665 22.956 177.345 23.332C177.033 23.7 176.877 24.228 176.877 24.916V28H175.869ZM187.215 20.728C187.015 20.728 186.847 20.664 186.711 20.536C186.583 20.4 186.519 20.232 186.519 20.032C186.519 19.84 186.583 19.68 186.711 19.552C186.847 19.424 187.015 19.36 187.215 19.36C187.407 19.36 187.571 19.424 187.707 19.552C187.843 19.68 187.911 19.84 187.911 20.032C187.911 20.232 187.843 20.4 187.707 20.536C187.571 20.664 187.407 20.728 187.215 20.728ZM186.711 28V22.048H187.719V28H186.711ZM191.454 28.144C190.958 28.144 190.546 28.06 190.218 27.892C189.89 27.724 189.646 27.5 189.486 27.22C189.326 26.94 189.246 26.636 189.246 26.308C189.246 25.7 189.478 25.232 189.942 24.904C190.406 24.576 191.038 24.412 191.838 24.412H193.446V24.34C193.446 23.82 193.31 23.428 193.038 23.164C192.766 22.892 192.402 22.756 191.946 22.756C191.554 22.756 191.214 22.856 190.926 23.056C190.646 23.248 190.47 23.532 190.398 23.908H189.366C189.406 23.476 189.55 23.112 189.798 22.816C190.054 22.52 190.37 22.296 190.746 22.144C191.122 21.984 191.522 21.904 191.946 21.904C192.778 21.904 193.402 22.128 193.818 22.576C194.242 23.016 194.454 23.604 194.454 24.34V28H193.554L193.494 26.932C193.326 27.268 193.078 27.556 192.75 27.796C192.43 28.028 191.998 28.144 191.454 28.144ZM191.61 27.292C191.994 27.292 192.322 27.192 192.594 26.992C192.874 26.792 193.086 26.532 193.23 26.212C193.374 25.892 193.446 25.556 193.446 25.204V25.192H191.922C191.33 25.192 190.91 25.296 190.662 25.504C190.422 25.704 190.302 25.956 190.302 26.26C190.302 26.572 190.414 26.824 190.638 27.016C190.87 27.2 191.194 27.292 191.61 27.292ZM195.967 28V19.36H196.975V28H195.967ZM198.975 28.06C198.775 28.06 198.607 27.996 198.471 27.868C198.343 27.732 198.279 27.568 198.279 27.376C198.279 27.184 198.343 27.024 198.471 26.896C198.607 26.76 198.775 26.692 198.975 26.692C199.167 26.692 199.327 26.76 199.455 26.896C199.591 27.024 199.659 27.184 199.659 27.376C199.659 27.568 199.591 27.732 199.455 27.868C199.327 27.996 199.167 28.06 198.975 28.06ZM203.707 28.144C203.139 28.144 202.627 28.016 202.171 27.76C201.723 27.496 201.367 27.132 201.103 26.668C200.847 26.196 200.719 25.648 200.719 25.024C200.719 24.4 200.847 23.856 201.103 23.392C201.367 22.92 201.723 22.556 202.171 22.3C202.627 22.036 203.139 21.904 203.707 21.904C204.411 21.904 205.003 22.088 205.483 22.456C205.971 22.824 206.279 23.316 206.407 23.932H205.375C205.295 23.564 205.099 23.28 204.787 23.08C204.475 22.872 204.111 22.768 203.695 22.768C203.359 22.768 203.043 22.852 202.747 23.02C202.451 23.188 202.211 23.44 202.027 23.776C201.843 24.112 201.751 24.528 201.751 25.024C201.751 25.52 201.843 25.936 202.027 26.272C202.211 26.608 202.451 26.864 202.747 27.04C203.043 27.208 203.359 27.292 203.695 27.292C204.111 27.292 204.475 27.192 204.787 26.992C205.099 26.784 205.295 26.492 205.375 26.116H206.407C206.287 26.716 205.983 27.204 205.495 27.58C205.007 27.956 204.411 28.144 203.707 28.144ZM210.526 28.144C209.966 28.144 209.462 28.016 209.014 27.76C208.566 27.504 208.21 27.144 207.946 26.68C207.69 26.208 207.562 25.656 207.562 25.024C207.562 24.392 207.694 23.844 207.958 23.38C208.222 22.908 208.578 22.544 209.026 22.288C209.482 22.032 209.99 21.904 210.55 21.904C211.11 21.904 211.614 22.032 212.062 22.288C212.51 22.544 212.862 22.908 213.118 23.38C213.382 23.844 213.514 24.392 213.514 25.024C213.514 25.656 213.382 26.208 213.118 26.68C212.854 27.144 212.494 27.504 212.038 27.76C211.59 28.016 211.086 28.144 210.526 28.144ZM210.526 27.28C210.87 27.28 211.19 27.196 211.486 27.028C211.782 26.86 212.022 26.608 212.206 26.272C212.39 25.936 212.482 25.52 212.482 25.024C212.482 24.528 212.39 24.112 212.206 23.776C212.03 23.44 211.794 23.188 211.498 23.02C211.202 22.852 210.886 22.768 210.55 22.768C210.206 22.768 209.886 22.852 209.59 23.02C209.294 23.188 209.054 23.44 208.87 23.776C208.686 24.112 208.594 24.528 208.594 25.024C208.594 25.52 208.686 25.936 208.87 26.272C209.054 26.608 209.29 26.86 209.578 27.028C209.874 27.196 210.19 27.28 210.526 27.28ZM214.916 28V22.048H215.828L215.9 22.912C216.092 22.592 216.348 22.344 216.668 22.168C216.988 21.992 217.348 21.904 217.748 21.904C218.22 21.904 218.624 22 218.96 22.192C219.304 22.384 219.568 22.676 219.752 23.068C219.96 22.708 220.244 22.424 220.604 22.216C220.972 22.008 221.368 21.904 221.792 21.904C222.504 21.904 223.072 22.12 223.496 22.552C223.92 22.976 224.132 23.632 224.132 24.52V28H223.136V24.628C223.136 24.012 223.012 23.548 222.764 23.236C222.516 22.924 222.16 22.768 221.696 22.768C221.216 22.768 220.816 22.956 220.496 23.332C220.184 23.7 220.028 24.228 220.028 24.916V28H219.02V24.628C219.02 24.012 218.896 23.548 218.648 23.236C218.4 22.924 218.044 22.768 217.58 22.768C217.108 22.768 216.712 22.956 216.392 23.332C216.08 23.7 215.924 24.228 215.924 24.916V28H214.916Z" fill="#150B3D"/>
</svg>
