<svg width="215" height="23" viewBox="0 0 215 23" fill="none" xmlns="http://www.w3.org/2000/svg">
<path d="M6.3 22L0.75 0.999999H4.86L8.64 17.71L13.08 0.999999H17.31L21.63 17.71L25.41 0.999999H29.55L23.85 22H19.29L15.12 6.43L10.83 22H6.3ZM37.8909 22.36C36.3909 22.36 35.0609 22.04 33.9009 21.4C32.7409 20.76 31.8309 19.86 31.1709 18.7C30.5109 17.54 30.1809 16.2 30.1809 14.68C30.1809 13.14 30.5009 11.77 31.1409 10.57C31.8009 9.37 32.7009 8.44 33.8409 7.78C35.0009 7.1 36.3609 6.76 37.9209 6.76C39.3809 6.76 40.6709 7.08 41.7909 7.72C42.9109 8.36 43.7809 9.24 44.4009 10.36C45.0409 11.46 45.3609 12.69 45.3609 14.05C45.3609 14.27 45.3509 14.5 45.3309 14.74C45.3309 14.98 45.3209 15.23 45.3009 15.49H33.9909C34.0709 16.65 34.4709 17.56 35.1909 18.22C35.9309 18.88 36.8209 19.21 37.8609 19.21C38.6409 19.21 39.2909 19.04 39.8109 18.7C40.3509 18.34 40.7509 17.88 41.0109 17.32H44.9109C44.6309 18.26 44.1609 19.12 43.5009 19.9C42.8609 20.66 42.0609 21.26 41.1009 21.7C40.1609 22.14 39.0909 22.36 37.8909 22.36ZM37.9209 9.88C36.9809 9.88 36.1509 10.15 35.4309 10.69C34.7109 11.21 34.2509 12.01 34.0509 13.09H41.4609C41.4009 12.11 41.0409 11.33 40.3809 10.75C39.7209 10.17 38.9009 9.88 37.9209 9.88ZM48.5906 22V0.399999H52.4306V22H48.5906ZM63.6443 22.36C62.1243 22.36 60.7843 22.03 59.6243 21.37C58.4643 20.71 57.5443 19.79 56.8643 18.61C56.2043 17.43 55.8743 16.08 55.8743 14.56C55.8743 13.04 56.2043 11.69 56.8643 10.51C57.5443 9.33 58.4643 8.41 59.6243 7.75C60.7843 7.09 62.1243 6.76 63.6443 6.76C65.5443 6.76 67.1443 7.26 68.4443 8.26C69.7443 9.24 70.5743 10.6 70.9343 12.34H66.8843C66.6843 11.62 66.2843 11.06 65.6843 10.66C65.1043 10.24 64.4143 10.03 63.6143 10.03C62.5543 10.03 61.6543 10.43 60.9143 11.23C60.1743 12.03 59.8043 13.14 59.8043 14.56C59.8043 15.98 60.1743 17.09 60.9143 17.89C61.6543 18.69 62.5543 19.09 63.6143 19.09C64.4143 19.09 65.1043 18.89 65.6843 18.49C66.2843 18.09 66.6843 17.52 66.8843 16.78H70.9343C70.5743 18.46 69.7443 19.81 68.4443 20.83C67.1443 21.85 65.5443 22.36 63.6443 22.36ZM81.4826 22.36C80.0426 22.36 78.7426 22.03 77.5826 21.37C76.4426 20.71 75.5326 19.8 74.8526 18.64C74.1926 17.46 73.8626 16.1 73.8626 14.56C73.8626 13.02 74.2026 11.67 74.8826 10.51C75.5626 9.33 76.4726 8.41 77.6126 7.75C78.7726 7.09 80.0726 6.76 81.5126 6.76C82.9326 6.76 84.2126 7.09 85.3526 7.75C86.5126 8.41 87.4226 9.33 88.0826 10.51C88.7626 11.67 89.1026 13.02 89.1026 14.56C89.1026 16.1 88.7626 17.46 88.0826 18.64C87.4226 19.8 86.5126 20.71 85.3526 21.37C84.1926 22.03 82.9026 22.36 81.4826 22.36ZM81.4826 19.03C82.4826 19.03 83.3526 18.66 84.0926 17.92C84.8326 17.16 85.2026 16.04 85.2026 14.56C85.2026 13.08 84.8326 11.97 84.0926 11.23C83.3526 10.47 82.4926 10.09 81.5126 10.09C80.4926 10.09 79.6126 10.47 78.8726 11.23C78.1526 11.97 77.7926 13.08 77.7926 14.56C77.7926 16.04 78.1526 17.16 78.8726 17.92C79.6126 18.66 80.4826 19.03 81.4826 19.03ZM92.5359 22V7.12H95.9259L96.2559 9.13C96.7359 8.41 97.3659 7.84 98.1459 7.42C98.9459 6.98 99.8659 6.76 100.906 6.76C103.206 6.76 104.836 7.65 105.796 9.43C106.336 8.61 107.056 7.96 107.956 7.48C108.876 7 109.876 6.76 110.956 6.76C112.896 6.76 114.386 7.34 115.426 8.5C116.466 9.66 116.986 11.36 116.986 13.6V22H113.146V13.96C113.146 12.68 112.896 11.7 112.396 11.02C111.916 10.34 111.166 10 110.146 10C109.106 10 108.266 10.38 107.626 11.14C107.006 11.9 106.696 12.96 106.696 14.32V22H102.856V13.96C102.856 12.68 102.606 11.7 102.106 11.02C101.606 10.34 100.836 10 99.7959 10C98.7759 10 97.9459 10.38 97.3059 11.14C96.6859 11.9 96.3759 12.96 96.3759 14.32V22H92.5359ZM127.862 22.36C126.362 22.36 125.032 22.04 123.872 21.4C122.712 20.76 121.802 19.86 121.142 18.7C120.482 17.54 120.152 16.2 120.152 14.68C120.152 13.14 120.472 11.77 121.112 10.57C121.772 9.37 122.672 8.44 123.812 7.78C124.972 7.1 126.332 6.76 127.892 6.76C129.352 6.76 130.642 7.08 131.762 7.72C132.882 8.36 133.752 9.24 134.372 10.36C135.012 11.46 135.332 12.69 135.332 14.05C135.332 14.27 135.322 14.5 135.302 14.74C135.302 14.98 135.292 15.23 135.272 15.49H123.962C124.042 16.65 124.442 17.56 125.162 18.22C125.902 18.88 126.792 19.21 127.832 19.21C128.612 19.21 129.262 19.04 129.782 18.7C130.322 18.34 130.722 17.88 130.982 17.32H134.882C134.602 18.26 134.132 19.12 133.472 19.9C132.832 20.66 132.032 21.26 131.072 21.7C130.132 22.14 129.062 22.36 127.862 22.36ZM127.892 9.88C126.952 9.88 126.122 10.15 125.402 10.69C124.682 11.21 124.222 12.01 124.022 13.09H131.432C131.372 12.11 131.012 11.33 130.352 10.75C129.692 10.17 128.872 9.88 127.892 9.88ZM145.8 22V0.999999H154.23C156.41 0.999999 158.07 1.51 159.21 2.53C160.37 3.53 160.95 4.82 160.95 6.4C160.95 7.72 160.59 8.78 159.87 9.58C159.17 10.36 158.31 10.89 157.29 11.17C158.49 11.41 159.48 12.01 160.26 12.97C161.04 13.91 161.43 15.01 161.43 16.27C161.43 17.93 160.83 19.3 159.63 20.38C158.43 21.46 156.73 22 154.53 22H145.8ZM149.64 9.82H153.66C154.74 9.82 155.57 9.57 156.15 9.07C156.73 8.57 157.02 7.86 157.02 6.94C157.02 6.06 156.73 5.37 156.15 4.87C155.59 4.35 154.74 4.09 153.6 4.09H149.64V9.82ZM149.64 18.88H153.93C155.07 18.88 155.95 18.62 156.57 18.1C157.21 17.56 157.53 16.81 157.53 15.85C157.53 14.87 157.2 14.1 156.54 13.54C155.88 12.98 154.99 12.7 153.87 12.7H149.64V18.88ZM169.766 22.36C168.486 22.36 167.436 22.16 166.616 21.76C165.796 21.34 165.186 20.79 164.786 20.11C164.386 19.43 164.186 18.68 164.186 17.86C164.186 16.48 164.726 15.36 165.806 14.5C166.886 13.64 168.506 13.21 170.666 13.21H174.446V12.85C174.446 11.83 174.156 11.08 173.576 10.6C172.996 10.12 172.276 9.88 171.416 9.88C170.636 9.88 169.956 10.07 169.376 10.45C168.796 10.81 168.436 11.35 168.296 12.07H164.546C164.646 10.99 165.006 10.05 165.626 9.25C166.266 8.45 167.086 7.84 168.086 7.42C169.086 6.98 170.206 6.76 171.446 6.76C173.566 6.76 175.236 7.29 176.456 8.35C177.676 9.41 178.286 10.91 178.286 12.85V22H175.016L174.656 19.6C174.216 20.4 173.596 21.06 172.796 21.58C172.016 22.1 171.006 22.36 169.766 22.36ZM170.636 19.36C171.736 19.36 172.586 19 173.186 18.28C173.806 17.56 174.196 16.67 174.356 15.61H171.086C170.066 15.61 169.336 15.8 168.896 16.18C168.456 16.54 168.236 16.99 168.236 17.53C168.236 18.11 168.456 18.56 168.896 18.88C169.336 19.2 169.916 19.36 170.636 19.36ZM189.24 22.36C187.72 22.36 186.38 22.03 185.22 21.37C184.06 20.71 183.14 19.79 182.46 18.61C181.8 17.43 181.47 16.08 181.47 14.56C181.47 13.04 181.8 11.69 182.46 10.51C183.14 9.33 184.06 8.41 185.22 7.75C186.38 7.09 187.72 6.76 189.24 6.76C191.14 6.76 192.74 7.26 194.04 8.26C195.34 9.24 196.17 10.6 196.53 12.34H192.48C192.28 11.62 191.88 11.06 191.28 10.66C190.7 10.24 190.01 10.03 189.21 10.03C188.15 10.03 187.25 10.43 186.51 11.23C185.77 12.03 185.4 13.14 185.4 14.56C185.4 15.98 185.77 17.09 186.51 17.89C187.25 18.69 188.15 19.09 189.21 19.09C190.01 19.09 190.7 18.89 191.28 18.49C191.88 18.09 192.28 17.52 192.48 16.78H196.53C196.17 18.46 195.34 19.81 194.04 20.83C192.74 21.85 191.14 22.36 189.24 22.36ZM199.938 22V0.399999H203.778V13.15L209.058 7.12H213.618L207.528 13.9L214.608 22H209.808L203.778 14.53V22H199.938Z" fill="#0D0140"/>
</svg>
