<svg width="230" height="12" viewBox="0 0 230 12" fill="none" xmlns="http://www.w3.org/2000/svg">
<path d="M3.39006 9V5.808L0.654063 0.599999H1.79406L3.89406 4.848L5.99406 0.599999H7.12206L4.39806 5.808V9H3.39006ZM9.86031 9.144C9.30031 9.144 8.79631 9.016 8.34831 8.76C7.90031 8.504 7.54431 8.144 7.28031 7.68C7.02431 7.208 6.89631 6.656 6.89631 6.024C6.89631 5.392 7.02831 4.844 7.29231 4.38C7.55631 3.908 7.91231 3.544 8.36031 3.288C8.81631 3.032 9.32431 2.904 9.88431 2.904C10.4443 2.904 10.9483 3.032 11.3963 3.288C11.8443 3.544 12.1963 3.908 12.4523 4.38C12.7163 4.844 12.8483 5.392 12.8483 6.024C12.8483 6.656 12.7163 7.208 12.4523 7.68C12.1883 8.144 11.8283 8.504 11.3723 8.76C10.9243 9.016 10.4203 9.144 9.86031 9.144ZM9.86031 8.28C10.2043 8.28 10.5243 8.196 10.8203 8.028C11.1163 7.86 11.3563 7.608 11.5403 7.272C11.7243 6.936 11.8163 6.52 11.8163 6.024C11.8163 5.528 11.7243 5.112 11.5403 4.776C11.3643 4.44 11.1283 4.188 10.8323 4.02C10.5363 3.852 10.2203 3.768 9.88431 3.768C9.54031 3.768 9.22031 3.852 8.92431 4.02C8.62831 4.188 8.38831 4.44 8.20431 4.776C8.02031 5.112 7.92831 5.528 7.92831 6.024C7.92831 6.52 8.02031 6.936 8.20431 7.272C8.38831 7.608 8.62431 7.86 8.91231 8.028C9.20831 8.196 9.52431 8.28 9.86031 8.28ZM16.4219 9.144C15.7179 9.144 15.1579 8.932 14.7419 8.508C14.3259 8.076 14.1179 7.416 14.1179 6.528V3.048H15.1259V6.42C15.1259 7.66 15.6339 8.28 16.6499 8.28C17.1699 8.28 17.5979 8.096 17.9339 7.728C18.2779 7.352 18.4499 6.82 18.4499 6.132V3.048H19.4579V9H18.5459L18.4739 7.932C18.2899 8.308 18.0139 8.604 17.6459 8.82C17.2859 9.036 16.8779 9.144 16.4219 9.144ZM24.2928 9V0.36H25.3008V4.068C25.5008 3.7 25.7848 3.416 26.1528 3.216C26.5208 3.008 26.9208 2.904 27.3528 2.904C28.0408 2.904 28.5928 3.12 29.0088 3.552C29.4248 3.976 29.6328 4.632 29.6328 5.52V9H28.6368V5.628C28.6368 4.388 28.1368 3.768 27.1368 3.768C26.6168 3.768 26.1808 3.956 25.8288 4.332C25.4768 4.7 25.3008 5.228 25.3008 5.916V9H24.2928ZM33.14 9.144C32.644 9.144 32.232 9.06 31.904 8.892C31.576 8.724 31.332 8.5 31.172 8.22C31.012 7.94 30.932 7.636 30.932 7.308C30.932 6.7 31.164 6.232 31.628 5.904C32.092 5.576 32.724 5.412 33.524 5.412H35.132V5.34C35.132 4.82 34.996 4.428 34.724 4.164C34.452 3.892 34.088 3.756 33.632 3.756C33.24 3.756 32.9 3.856 32.612 4.056C32.332 4.248 32.156 4.532 32.084 4.908H31.052C31.092 4.476 31.236 4.112 31.484 3.816C31.74 3.52 32.056 3.296 32.432 3.144C32.808 2.984 33.208 2.904 33.632 2.904C34.464 2.904 35.088 3.128 35.504 3.576C35.928 4.016 36.14 4.604 36.14 5.34V9H35.24L35.18 7.932C35.012 8.268 34.764 8.556 34.436 8.796C34.116 9.028 33.684 9.144 33.14 9.144ZM33.296 8.292C33.68 8.292 34.008 8.192 34.28 7.992C34.56 7.792 34.772 7.532 34.916 7.212C35.06 6.892 35.132 6.556 35.132 6.204V6.192H33.608C33.016 6.192 32.596 6.296 32.348 6.504C32.108 6.704 31.988 6.956 31.988 7.26C31.988 7.572 32.1 7.824 32.324 8.016C32.556 8.2 32.88 8.292 33.296 8.292ZM39.1456 9L36.8896 3.048H37.9456L39.7336 8.028L41.5336 3.048H42.5656L40.3096 9H39.1456ZM46.0587 9.144C45.4907 9.144 44.9867 9.016 44.5467 8.76C44.1067 8.496 43.7587 8.132 43.5027 7.668C43.2547 7.204 43.1307 6.656 43.1307 6.024C43.1307 5.4 43.2547 4.856 43.5027 4.392C43.7507 3.92 44.0947 3.556 44.5347 3.3C44.9827 3.036 45.4987 2.904 46.0827 2.904C46.6587 2.904 47.1547 3.036 47.5707 3.3C47.9947 3.556 48.3187 3.896 48.5427 4.32C48.7667 4.744 48.8787 5.2 48.8787 5.688C48.8787 5.776 48.8747 5.864 48.8667 5.952C48.8667 6.04 48.8667 6.14 48.8667 6.252H44.1267C44.1507 6.708 44.2547 7.088 44.4387 7.392C44.6307 7.688 44.8667 7.912 45.1467 8.064C45.4347 8.216 45.7387 8.292 46.0587 8.292C46.4747 8.292 46.8227 8.196 47.1027 8.004C47.3827 7.812 47.5867 7.552 47.7147 7.224H48.7107C48.5507 7.776 48.2427 8.236 47.7867 8.604C47.3387 8.964 46.7627 9.144 46.0587 9.144ZM46.0587 3.756C45.5787 3.756 45.1507 3.904 44.7747 4.2C44.4067 4.488 44.1947 4.912 44.1387 5.472H47.8827C47.8587 4.936 47.6747 4.516 47.3307 4.212C46.9867 3.908 46.5627 3.756 46.0587 3.756ZM53.3905 9V3.048H54.3025L54.3625 4.116C54.5545 3.74 54.8305 3.444 55.1905 3.228C55.5505 3.012 55.9585 2.904 56.4145 2.904C57.1185 2.904 57.6785 3.12 58.0945 3.552C58.5185 3.976 58.7305 4.632 58.7305 5.52V9H57.7225V5.628C57.7225 4.388 57.2105 3.768 56.1865 3.768C55.6745 3.768 55.2465 3.956 54.9025 4.332C54.5665 4.7 54.3985 5.228 54.3985 5.916V9H53.3905ZM62.9697 9.144C62.4097 9.144 61.9057 9.016 61.4577 8.76C61.0097 8.504 60.6537 8.144 60.3897 7.68C60.1337 7.208 60.0057 6.656 60.0057 6.024C60.0057 5.392 60.1377 4.844 60.4017 4.38C60.6657 3.908 61.0217 3.544 61.4697 3.288C61.9257 3.032 62.4337 2.904 62.9937 2.904C63.5537 2.904 64.0577 3.032 64.5057 3.288C64.9537 3.544 65.3057 3.908 65.5617 4.38C65.8257 4.844 65.9577 5.392 65.9577 6.024C65.9577 6.656 65.8257 7.208 65.5617 7.68C65.2977 8.144 64.9377 8.504 64.4817 8.76C64.0337 9.016 63.5297 9.144 62.9697 9.144ZM62.9697 8.28C63.3137 8.28 63.6337 8.196 63.9297 8.028C64.2257 7.86 64.4657 7.608 64.6497 7.272C64.8337 6.936 64.9257 6.52 64.9257 6.024C64.9257 5.528 64.8337 5.112 64.6497 4.776C64.4737 4.44 64.2377 4.188 63.9417 4.02C63.6457 3.852 63.3297 3.768 62.9937 3.768C62.6497 3.768 62.3297 3.852 62.0337 4.02C61.7377 4.188 61.4977 4.44 61.3137 4.776C61.1297 5.112 61.0377 5.528 61.0377 6.024C61.0377 6.52 61.1297 6.936 61.3137 7.272C61.4977 7.608 61.7337 7.86 62.0217 8.028C62.3177 8.196 62.6337 8.28 62.9697 8.28ZM69.4769 9C68.9329 9 68.5049 8.868 68.1929 8.604C67.8809 8.34 67.7249 7.864 67.7249 7.176V3.9H66.6929V3.048H67.7249L67.8569 1.62H68.7329V3.048H70.4849V3.9H68.7329V7.176C68.7329 7.552 68.8089 7.808 68.9609 7.944C69.1129 8.072 69.3809 8.136 69.7649 8.136H70.3889V9H69.4769ZM74.9413 9V3.048H75.8533L75.9373 4.188C76.1213 3.796 76.4013 3.484 76.7773 3.252C77.1533 3.02 77.6173 2.904 78.1693 2.904V3.96H77.8933C77.5413 3.96 77.2173 4.024 76.9213 4.152C76.6253 4.272 76.3893 4.48 76.2133 4.776C76.0373 5.072 75.9493 5.48 75.9493 6V9H74.9413ZM81.754 9.144C81.186 9.144 80.682 9.016 80.242 8.76C79.802 8.496 79.454 8.132 79.198 7.668C78.95 7.204 78.826 6.656 78.826 6.024C78.826 5.4 78.95 4.856 79.198 4.392C79.446 3.92 79.79 3.556 80.23 3.3C80.678 3.036 81.194 2.904 81.778 2.904C82.354 2.904 82.85 3.036 83.266 3.3C83.69 3.556 84.014 3.896 84.238 4.32C84.462 4.744 84.574 5.2 84.574 5.688C84.574 5.776 84.57 5.864 84.562 5.952C84.562 6.04 84.562 6.14 84.562 6.252H79.822C79.846 6.708 79.95 7.088 80.134 7.392C80.326 7.688 80.562 7.912 80.842 8.064C81.13 8.216 81.434 8.292 81.754 8.292C82.17 8.292 82.518 8.196 82.798 8.004C83.078 7.812 83.282 7.552 83.41 7.224H84.406C84.246 7.776 83.938 8.236 83.482 8.604C83.034 8.964 82.458 9.144 81.754 9.144ZM81.754 3.756C81.274 3.756 80.846 3.904 80.47 4.2C80.102 4.488 79.89 4.912 79.834 5.472H83.578C83.554 4.936 83.37 4.516 83.026 4.212C82.682 3.908 82.258 3.756 81.754 3.756ZM88.646 9.144C88.078 9.144 87.566 9.016 87.11 8.76C86.662 8.496 86.306 8.132 86.042 7.668C85.786 7.196 85.658 6.648 85.658 6.024C85.658 5.4 85.786 4.856 86.042 4.392C86.306 3.92 86.662 3.556 87.11 3.3C87.566 3.036 88.078 2.904 88.646 2.904C89.35 2.904 89.942 3.088 90.422 3.456C90.91 3.824 91.218 4.316 91.346 4.932H90.314C90.234 4.564 90.038 4.28 89.726 4.08C89.414 3.872 89.05 3.768 88.634 3.768C88.298 3.768 87.982 3.852 87.686 4.02C87.39 4.188 87.15 4.44 86.966 4.776C86.782 5.112 86.69 5.528 86.69 6.024C86.69 6.52 86.782 6.936 86.966 7.272C87.15 7.608 87.39 7.864 87.686 8.04C87.982 8.208 88.298 8.292 88.634 8.292C89.05 8.292 89.414 8.192 89.726 7.992C90.038 7.784 90.234 7.492 90.314 7.116H91.346C91.226 7.716 90.922 8.204 90.434 8.58C89.946 8.956 89.35 9.144 88.646 9.144ZM95.4298 9.144C94.8618 9.144 94.3578 9.016 93.9178 8.76C93.4778 8.496 93.1298 8.132 92.8738 7.668C92.6258 7.204 92.5018 6.656 92.5018 6.024C92.5018 5.4 92.6258 4.856 92.8738 4.392C93.1218 3.92 93.4658 3.556 93.9058 3.3C94.3538 3.036 94.8698 2.904 95.4538 2.904C96.0298 2.904 96.5258 3.036 96.9418 3.3C97.3658 3.556 97.6898 3.896 97.9138 4.32C98.1378 4.744 98.2498 5.2 98.2498 5.688C98.2498 5.776 98.2458 5.864 98.2378 5.952C98.2378 6.04 98.2378 6.14 98.2378 6.252H93.4978C93.5218 6.708 93.6258 7.088 93.8098 7.392C94.0018 7.688 94.2378 7.912 94.5178 8.064C94.8058 8.216 95.1098 8.292 95.4298 8.292C95.8458 8.292 96.1938 8.196 96.4738 8.004C96.7538 7.812 96.9578 7.552 97.0858 7.224H98.0818C97.9218 7.776 97.6138 8.236 97.1578 8.604C96.7098 8.964 96.1338 9.144 95.4298 9.144ZM95.4298 3.756C94.9498 3.756 94.5218 3.904 94.1458 4.2C93.7778 4.488 93.5658 4.912 93.5098 5.472H97.2538C97.2298 4.936 97.0458 4.516 96.7018 4.212C96.3578 3.908 95.9338 3.756 95.4298 3.756ZM100.198 1.728C99.9978 1.728 99.8298 1.664 99.6938 1.536C99.5658 1.4 99.5018 1.232 99.5018 1.032C99.5018 0.84 99.5658 0.68 99.6938 0.551999C99.8298 0.424 99.9978 0.36 100.198 0.36C100.39 0.36 100.554 0.424 100.69 0.551999C100.826 0.68 100.894 0.84 100.894 1.032C100.894 1.232 100.826 1.4 100.69 1.536C100.554 1.664 100.39 1.728 100.198 1.728ZM99.6938 9V3.048H100.702V9H99.6938ZM104.173 9L101.917 3.048H102.973L104.761 8.028L106.561 3.048H107.593L105.337 9H104.173ZM111.086 9.144C110.518 9.144 110.014 9.016 109.574 8.76C109.134 8.496 108.786 8.132 108.53 7.668C108.282 7.204 108.158 6.656 108.158 6.024C108.158 5.4 108.282 4.856 108.53 4.392C108.778 3.92 109.122 3.556 109.562 3.3C110.01 3.036 110.526 2.904 111.11 2.904C111.686 2.904 112.182 3.036 112.598 3.3C113.022 3.556 113.346 3.896 113.57 4.32C113.794 4.744 113.906 5.2 113.906 5.688C113.906 5.776 113.902 5.864 113.894 5.952C113.894 6.04 113.894 6.14 113.894 6.252H109.154C109.178 6.708 109.282 7.088 109.466 7.392C109.658 7.688 109.894 7.912 110.174 8.064C110.462 8.216 110.766 8.292 111.086 8.292C111.502 8.292 111.85 8.196 112.13 8.004C112.41 7.812 112.614 7.552 112.742 7.224H113.738C113.578 7.776 113.27 8.236 112.814 8.604C112.366 8.964 111.79 9.144 111.086 9.144ZM111.086 3.756C110.606 3.756 110.178 3.904 109.802 4.2C109.434 4.488 109.222 4.912 109.166 5.472H112.91C112.886 4.936 112.702 4.516 112.358 4.212C112.014 3.908 111.59 3.756 111.086 3.756ZM117.942 9.144C117.35 9.144 116.83 9.008 116.382 8.736C115.942 8.464 115.598 8.092 115.35 7.62C115.11 7.148 114.99 6.612 114.99 6.012C114.99 5.412 115.114 4.88 115.362 4.416C115.61 3.944 115.954 3.576 116.394 3.312C116.834 3.04 117.354 2.904 117.954 2.904C118.442 2.904 118.874 3.004 119.25 3.204C119.626 3.404 119.918 3.684 120.126 4.044V0.36H121.134V9H120.222L120.126 8.016C119.934 8.304 119.658 8.564 119.298 8.796C118.938 9.028 118.486 9.144 117.942 9.144ZM118.05 8.268C118.45 8.268 118.802 8.176 119.106 7.992C119.418 7.8 119.658 7.536 119.826 7.2C120.002 6.864 120.09 6.472 120.09 6.024C120.09 5.576 120.002 5.184 119.826 4.848C119.658 4.512 119.418 4.252 119.106 4.068C118.802 3.876 118.45 3.78 118.05 3.78C117.658 3.78 117.306 3.876 116.994 4.068C116.69 4.252 116.45 4.512 116.274 4.848C116.106 5.184 116.022 5.576 116.022 6.024C116.022 6.472 116.106 6.864 116.274 7.2C116.45 7.536 116.69 7.8 116.994 7.992C117.306 8.176 117.658 8.268 118.05 8.268ZM128.305 9C127.761 9 127.333 8.868 127.021 8.604C126.709 8.34 126.553 7.864 126.553 7.176V3.9H125.521V3.048H126.553L126.685 1.62H127.561V3.048H129.313V3.9H127.561V7.176C127.561 7.552 127.637 7.808 127.789 7.944C127.941 8.072 128.209 8.136 128.593 8.136H129.217V9H128.305ZM130.594 9V0.36H131.602V4.068C131.802 3.7 132.086 3.416 132.454 3.216C132.822 3.008 133.222 2.904 133.654 2.904C134.342 2.904 134.894 3.12 135.31 3.552C135.726 3.976 135.934 4.632 135.934 5.52V9H134.938V5.628C134.938 4.388 134.438 3.768 133.438 3.768C132.918 3.768 132.482 3.956 132.13 4.332C131.778 4.7 131.602 5.228 131.602 5.916V9H130.594ZM140.137 9.144C139.569 9.144 139.065 9.016 138.625 8.76C138.185 8.496 137.837 8.132 137.581 7.668C137.333 7.204 137.209 6.656 137.209 6.024C137.209 5.4 137.333 4.856 137.581 4.392C137.829 3.92 138.173 3.556 138.613 3.3C139.061 3.036 139.577 2.904 140.161 2.904C140.737 2.904 141.233 3.036 141.649 3.3C142.073 3.556 142.397 3.896 142.621 4.32C142.845 4.744 142.957 5.2 142.957 5.688C142.957 5.776 142.953 5.864 142.945 5.952C142.945 6.04 142.945 6.14 142.945 6.252H138.205C138.229 6.708 138.333 7.088 138.517 7.392C138.709 7.688 138.945 7.912 139.225 8.064C139.513 8.216 139.817 8.292 140.137 8.292C140.553 8.292 140.901 8.196 141.181 8.004C141.461 7.812 141.665 7.552 141.793 7.224H142.789C142.629 7.776 142.321 8.236 141.865 8.604C141.417 8.964 140.841 9.144 140.137 9.144ZM140.137 3.756C139.657 3.756 139.229 3.904 138.853 4.2C138.485 4.488 138.273 4.912 138.217 5.472H141.961C141.937 4.936 141.753 4.516 141.409 4.212C141.065 3.908 140.641 3.756 140.137 3.756ZM150.145 9.144C149.577 9.144 149.073 9.016 148.633 8.76C148.193 8.496 147.845 8.132 147.589 7.668C147.341 7.204 147.217 6.656 147.217 6.024C147.217 5.4 147.341 4.856 147.589 4.392C147.837 3.92 148.181 3.556 148.621 3.3C149.069 3.036 149.585 2.904 150.169 2.904C150.745 2.904 151.241 3.036 151.657 3.3C152.081 3.556 152.405 3.896 152.629 4.32C152.853 4.744 152.965 5.2 152.965 5.688C152.965 5.776 152.961 5.864 152.953 5.952C152.953 6.04 152.953 6.14 152.953 6.252H148.213C148.237 6.708 148.341 7.088 148.525 7.392C148.717 7.688 148.953 7.912 149.233 8.064C149.521 8.216 149.825 8.292 150.145 8.292C150.561 8.292 150.909 8.196 151.189 8.004C151.469 7.812 151.673 7.552 151.801 7.224H152.797C152.637 7.776 152.329 8.236 151.873 8.604C151.425 8.964 150.849 9.144 150.145 9.144ZM150.145 3.756C149.665 3.756 149.237 3.904 148.861 4.2C148.493 4.488 148.281 4.912 148.225 5.472H151.969C151.945 4.936 151.761 4.516 151.417 4.212C151.073 3.908 150.649 3.756 150.145 3.756ZM154.301 9V3.048H155.213L155.285 3.912C155.477 3.592 155.733 3.344 156.053 3.168C156.373 2.992 156.733 2.904 157.133 2.904C157.605 2.904 158.009 3 158.345 3.192C158.689 3.384 158.953 3.676 159.137 4.068C159.345 3.708 159.629 3.424 159.989 3.216C160.357 3.008 160.753 2.904 161.177 2.904C161.889 2.904 162.457 3.12 162.881 3.552C163.305 3.976 163.517 4.632 163.517 5.52V9H162.521V5.628C162.521 5.012 162.397 4.548 162.149 4.236C161.901 3.924 161.545 3.768 161.081 3.768C160.601 3.768 160.201 3.956 159.881 4.332C159.569 4.7 159.413 5.228 159.413 5.916V9H158.405V5.628C158.405 5.012 158.281 4.548 158.033 4.236C157.785 3.924 157.429 3.768 156.965 3.768C156.493 3.768 156.097 3.956 155.777 4.332C155.465 4.7 155.309 5.228 155.309 5.916V9H154.301ZM167.015 9.144C166.519 9.144 166.107 9.06 165.779 8.892C165.451 8.724 165.207 8.5 165.047 8.22C164.887 7.94 164.807 7.636 164.807 7.308C164.807 6.7 165.039 6.232 165.503 5.904C165.967 5.576 166.599 5.412 167.399 5.412H169.007V5.34C169.007 4.82 168.871 4.428 168.599 4.164C168.327 3.892 167.963 3.756 167.507 3.756C167.115 3.756 166.775 3.856 166.487 4.056C166.207 4.248 166.031 4.532 165.959 4.908H164.927C164.967 4.476 165.111 4.112 165.359 3.816C165.615 3.52 165.931 3.296 166.307 3.144C166.683 2.984 167.083 2.904 167.507 2.904C168.339 2.904 168.963 3.128 169.379 3.576C169.803 4.016 170.015 4.604 170.015 5.34V9H169.115L169.055 7.932C168.887 8.268 168.639 8.556 168.311 8.796C167.991 9.028 167.559 9.144 167.015 9.144ZM167.171 8.292C167.555 8.292 167.883 8.192 168.155 7.992C168.435 7.792 168.647 7.532 168.791 7.212C168.935 6.892 169.007 6.556 169.007 6.204V6.192H167.483C166.891 6.192 166.471 6.296 166.223 6.504C165.983 6.704 165.863 6.956 165.863 7.26C165.863 7.572 165.975 7.824 166.199 8.016C166.431 8.2 166.755 8.292 167.171 8.292ZM172.139 1.728C171.939 1.728 171.771 1.664 171.635 1.536C171.507 1.4 171.443 1.232 171.443 1.032C171.443 0.84 171.507 0.68 171.635 0.551999C171.771 0.424 171.939 0.36 172.139 0.36C172.331 0.36 172.495 0.424 172.631 0.551999C172.767 0.68 172.835 0.84 172.835 1.032C172.835 1.232 172.767 1.4 172.631 1.536C172.495 1.664 172.331 1.728 172.139 1.728ZM171.635 9V3.048H172.643V9H171.635ZM174.398 9V0.36H175.406V9H174.398ZM178.042 6.648L177.994 4.716H178.366C178.814 4.716 179.23 4.672 179.614 4.584C180.006 4.496 180.322 4.324 180.562 4.068C180.802 3.812 180.922 3.428 180.922 2.916C180.922 2.42 180.766 2.028 180.454 1.74C180.15 1.452 179.746 1.308 179.242 1.308C178.73 1.308 178.326 1.448 178.03 1.728C177.734 2.008 177.586 2.384 177.586 2.856H176.626C176.626 2.376 176.734 1.956 176.95 1.596C177.174 1.236 177.482 0.955999 177.874 0.756C178.266 0.556 178.722 0.456 179.242 0.456C179.762 0.456 180.222 0.556 180.622 0.756C181.022 0.955999 181.334 1.24 181.558 1.608C181.782 1.976 181.894 2.412 181.894 2.916C181.894 3.508 181.766 3.988 181.51 4.356C181.262 4.724 180.914 4.992 180.466 5.16C180.026 5.328 179.522 5.412 178.954 5.412L178.918 6.648H178.042ZM178.474 9.06C178.274 9.06 178.106 8.996 177.97 8.868C177.842 8.732 177.778 8.568 177.778 8.376C177.778 8.184 177.842 8.024 177.97 7.896C178.106 7.76 178.274 7.692 178.474 7.692C178.674 7.692 178.838 7.76 178.966 7.896C179.094 8.024 179.158 8.184 179.158 8.376C179.158 8.568 179.094 8.732 178.966 8.868C178.838 8.996 178.674 9.06 178.474 9.06Z" fill="#150B3D"/>
<path d="M189.658 9V0.599999H192.37C193.026 0.599999 193.562 0.707999 193.978 0.924C194.394 1.14 194.702 1.436 194.902 1.812C195.102 2.188 195.202 2.604 195.202 3.06C195.202 3.588 195.058 4.064 194.77 4.488C194.49 4.912 194.05 5.212 193.45 5.388L195.286 9H194.098L192.394 5.532H192.322H190.666V9H189.658ZM190.666 4.74H192.298C192.946 4.74 193.418 4.584 193.714 4.272C194.01 3.96 194.158 3.56 194.158 3.072C194.158 2.576 194.01 2.184 193.714 1.896C193.426 1.6 192.95 1.452 192.286 1.452H190.666V4.74ZM199.024 9.144C198.456 9.144 197.952 9.016 197.512 8.76C197.072 8.496 196.724 8.132 196.468 7.668C196.22 7.204 196.096 6.656 196.096 6.024C196.096 5.4 196.22 4.856 196.468 4.392C196.716 3.92 197.06 3.556 197.5 3.3C197.948 3.036 198.464 2.904 199.048 2.904C199.624 2.904 200.12 3.036 200.536 3.3C200.96 3.556 201.284 3.896 201.508 4.32C201.732 4.744 201.844 5.2 201.844 5.688C201.844 5.776 201.84 5.864 201.832 5.952C201.832 6.04 201.832 6.14 201.832 6.252H197.092C197.116 6.708 197.22 7.088 197.404 7.392C197.596 7.688 197.832 7.912 198.112 8.064C198.4 8.216 198.704 8.292 199.024 8.292C199.44 8.292 199.788 8.196 200.068 8.004C200.348 7.812 200.552 7.552 200.68 7.224H201.676C201.516 7.776 201.208 8.236 200.752 8.604C200.304 8.964 199.728 9.144 199.024 9.144ZM199.024 3.756C198.544 3.756 198.116 3.904 197.74 4.2C197.372 4.488 197.16 4.912 197.104 5.472H200.848C200.824 4.936 200.64 4.516 200.296 4.212C199.952 3.908 199.528 3.756 199.024 3.756ZM205.46 9.144C204.748 9.144 204.156 8.964 203.684 8.604C203.212 8.244 202.936 7.756 202.856 7.14H203.888C203.952 7.452 204.116 7.724 204.38 7.956C204.652 8.18 205.016 8.292 205.472 8.292C205.896 8.292 206.208 8.204 206.408 8.028C206.608 7.844 206.708 7.628 206.708 7.38C206.708 7.02 206.576 6.78 206.312 6.66C206.056 6.54 205.692 6.432 205.22 6.336C204.9 6.272 204.58 6.18 204.26 6.06C203.94 5.94 203.672 5.772 203.456 5.556C203.24 5.332 203.132 5.04 203.132 4.68C203.132 4.16 203.324 3.736 203.708 3.408C204.1 3.072 204.628 2.904 205.292 2.904C205.924 2.904 206.44 3.064 206.84 3.384C207.248 3.696 207.484 4.144 207.548 4.728H206.552C206.512 4.424 206.38 4.188 206.156 4.02C205.94 3.844 205.648 3.756 205.28 3.756C204.92 3.756 204.64 3.832 204.44 3.984C204.248 4.136 204.152 4.336 204.152 4.584C204.152 4.824 204.276 5.012 204.524 5.148C204.78 5.284 205.124 5.4 205.556 5.496C205.924 5.576 206.272 5.676 206.6 5.796C206.936 5.908 207.208 6.08 207.416 6.312C207.632 6.536 207.74 6.864 207.74 7.296C207.748 7.832 207.544 8.276 207.128 8.628C206.72 8.972 206.164 9.144 205.46 9.144ZM211.856 9.144C211.288 9.144 210.784 9.016 210.344 8.76C209.904 8.496 209.556 8.132 209.3 7.668C209.052 7.204 208.928 6.656 208.928 6.024C208.928 5.4 209.052 4.856 209.3 4.392C209.548 3.92 209.892 3.556 210.332 3.3C210.78 3.036 211.296 2.904 211.88 2.904C212.456 2.904 212.952 3.036 213.368 3.3C213.792 3.556 214.116 3.896 214.34 4.32C214.564 4.744 214.676 5.2 214.676 5.688C214.676 5.776 214.672 5.864 214.664 5.952C214.664 6.04 214.664 6.14 214.664 6.252H209.924C209.948 6.708 210.052 7.088 210.236 7.392C210.428 7.688 210.664 7.912 210.944 8.064C211.232 8.216 211.536 8.292 211.856 8.292C212.272 8.292 212.62 8.196 212.9 8.004C213.18 7.812 213.384 7.552 213.512 7.224H214.508C214.348 7.776 214.04 8.236 213.584 8.604C213.136 8.964 212.56 9.144 211.856 9.144ZM211.856 3.756C211.376 3.756 210.948 3.904 210.572 4.2C210.204 4.488 209.992 4.912 209.936 5.472H213.68C213.656 4.936 213.472 4.516 213.128 4.212C212.784 3.908 212.36 3.756 211.856 3.756ZM216.012 9V3.048H216.924L216.984 4.116C217.176 3.74 217.452 3.444 217.812 3.228C218.172 3.012 218.58 2.904 219.036 2.904C219.74 2.904 220.3 3.12 220.716 3.552C221.14 3.976 221.352 4.632 221.352 5.52V9H220.344V5.628C220.344 4.388 219.832 3.768 218.808 3.768C218.296 3.768 217.868 3.956 217.524 4.332C217.188 4.7 217.02 5.228 217.02 5.916V9H216.012ZM225.579 9.144C224.987 9.144 224.467 9.008 224.019 8.736C223.579 8.464 223.235 8.092 222.987 7.62C222.747 7.148 222.627 6.612 222.627 6.012C222.627 5.412 222.751 4.88 222.999 4.416C223.247 3.944 223.591 3.576 224.031 3.312C224.471 3.04 224.991 2.904 225.591 2.904C226.079 2.904 226.511 3.004 226.887 3.204C227.263 3.404 227.555 3.684 227.763 4.044V0.36H228.771V9H227.859L227.763 8.016C227.571 8.304 227.295 8.564 226.935 8.796C226.575 9.028 226.123 9.144 225.579 9.144ZM225.687 8.268C226.087 8.268 226.439 8.176 226.743 7.992C227.055 7.8 227.295 7.536 227.463 7.2C227.639 6.864 227.727 6.472 227.727 6.024C227.727 5.576 227.639 5.184 227.463 4.848C227.295 4.512 227.055 4.252 226.743 4.068C226.439 3.876 226.087 3.78 225.687 3.78C225.295 3.78 224.943 3.876 224.631 4.068C224.327 4.252 224.087 4.512 223.911 4.848C223.743 5.184 223.659 5.576 223.659 6.024C223.659 6.472 223.743 6.864 223.911 7.2C224.087 7.536 224.327 7.8 224.631 7.992C224.943 8.176 225.295 8.268 225.687 8.268Z" fill="#FF9228"/>
<path d="M188.77 10.5H229.587V11.1H188.77V10.5Z" fill="#FF9228"/>
</svg>
