<svg width="219" height="13" viewBox="0 0 219 13" fill="none" xmlns="http://www.w3.org/2000/svg">
<path d="M2.976 10V6.808L0.24 1.6H1.38L3.48 5.848L5.58 1.6H6.708L3.984 6.808V10H2.976ZM9.44625 10.144C8.88625 10.144 8.38225 10.016 7.93425 9.76C7.48625 9.504 7.13025 9.144 6.86625 8.68C6.61025 8.208 6.48225 7.656 6.48225 7.024C6.48225 6.392 6.61425 5.844 6.87825 5.38C7.14225 4.908 7.49825 4.544 7.94625 4.288C8.40225 4.032 8.91025 3.904 9.47025 3.904C10.0303 3.904 10.5343 4.032 10.9823 4.288C11.4303 4.544 11.7823 4.908 12.0383 5.38C12.3023 5.844 12.4343 6.392 12.4343 7.024C12.4343 7.656 12.3023 8.208 12.0383 8.68C11.7743 9.144 11.4143 9.504 10.9583 9.76C10.5103 10.016 10.0063 10.144 9.44625 10.144ZM9.44625 9.28C9.79025 9.28 10.1103 9.196 10.4063 9.028C10.7023 8.86 10.9423 8.608 11.1263 8.272C11.3103 7.936 11.4023 7.52 11.4023 7.024C11.4023 6.528 11.3103 6.112 11.1263 5.776C10.9503 5.44 10.7143 5.188 10.4183 5.02C10.1223 4.852 9.80625 4.768 9.47025 4.768C9.12625 4.768 8.80625 4.852 8.51025 5.02C8.21425 5.188 7.97425 5.44 7.79025 5.776C7.60625 6.112 7.51425 6.528 7.51425 7.024C7.51425 7.52 7.60625 7.936 7.79025 8.272C7.97425 8.608 8.21025 8.86 8.49825 9.028C8.79425 9.196 9.11025 9.28 9.44625 9.28ZM16.0078 10.144C15.3038 10.144 14.7438 9.932 14.3278 9.508C13.9118 9.076 13.7038 8.416 13.7038 7.528V4.048H14.7118V7.42C14.7118 8.66 15.2198 9.28 16.2358 9.28C16.7558 9.28 17.1838 9.096 17.5198 8.728C17.8638 8.352 18.0358 7.82 18.0358 7.132V4.048H19.0438V10H18.1318L18.0598 8.932C17.8758 9.308 17.5998 9.604 17.2318 9.82C16.8718 10.036 16.4638 10.144 16.0078 10.144ZM26.5788 10.144C25.9868 10.144 25.4668 10.008 25.0188 9.736C24.5788 9.464 24.2348 9.092 23.9868 8.62C23.7468 8.148 23.6268 7.612 23.6268 7.012C23.6268 6.412 23.7508 5.88 23.9988 5.416C24.2468 4.944 24.5908 4.576 25.0308 4.312C25.4708 4.04 25.9908 3.904 26.5908 3.904C27.0788 3.904 27.5108 4.004 27.8868 4.204C28.2628 4.404 28.5548 4.684 28.7628 5.044V1.36H29.7708V10H28.8588L28.7628 9.016C28.5708 9.304 28.2948 9.564 27.9348 9.796C27.5748 10.028 27.1228 10.144 26.5788 10.144ZM26.6868 9.268C27.0868 9.268 27.4388 9.176 27.7428 8.992C28.0548 8.8 28.2948 8.536 28.4628 8.2C28.6388 7.864 28.7268 7.472 28.7268 7.024C28.7268 6.576 28.6388 6.184 28.4628 5.848C28.2948 5.512 28.0548 5.252 27.7428 5.068C27.4388 4.876 27.0868 4.78 26.6868 4.78C26.2948 4.78 25.9428 4.876 25.6308 5.068C25.3268 5.252 25.0868 5.512 24.9108 5.848C24.7428 6.184 24.6588 6.576 24.6588 7.024C24.6588 7.472 24.7428 7.864 24.9108 8.2C25.0868 8.536 25.3268 8.8 25.6308 8.992C25.9428 9.176 26.2948 9.268 26.6868 9.268ZM34.1259 10.144C33.5659 10.144 33.0619 10.016 32.6139 9.76C32.1659 9.504 31.8099 9.144 31.5459 8.68C31.2899 8.208 31.1619 7.656 31.1619 7.024C31.1619 6.392 31.2939 5.844 31.5579 5.38C31.8219 4.908 32.1779 4.544 32.6259 4.288C33.0819 4.032 33.5899 3.904 34.1499 3.904C34.7099 3.904 35.2139 4.032 35.6619 4.288C36.1099 4.544 36.4619 4.908 36.7179 5.38C36.9819 5.844 37.1139 6.392 37.1139 7.024C37.1139 7.656 36.9819 8.208 36.7179 8.68C36.4539 9.144 36.0939 9.504 35.6379 9.76C35.1899 10.016 34.6859 10.144 34.1259 10.144ZM34.1259 9.28C34.4699 9.28 34.7899 9.196 35.0859 9.028C35.3819 8.86 35.6219 8.608 35.8059 8.272C35.9899 7.936 36.0819 7.52 36.0819 7.024C36.0819 6.528 35.9899 6.112 35.8059 5.776C35.6299 5.44 35.3939 5.188 35.0979 5.02C34.8019 4.852 34.4859 4.768 34.1499 4.768C33.8059 4.768 33.4859 4.852 33.1899 5.02C32.8939 5.188 32.6539 5.44 32.4699 5.776C32.2859 6.112 32.1939 6.528 32.1939 7.024C32.1939 7.52 32.2859 7.936 32.4699 8.272C32.6539 8.608 32.8899 8.86 33.1779 9.028C33.4739 9.196 33.7899 9.28 34.1259 9.28ZM38.5155 10V4.048H39.4275L39.4875 5.116C39.6795 4.74 39.9555 4.444 40.3155 4.228C40.6755 4.012 41.0835 3.904 41.5395 3.904C42.2435 3.904 42.8035 4.12 43.2195 4.552C43.6435 4.976 43.8555 5.632 43.8555 6.52V10H42.8475V6.628C42.8475 5.388 42.3355 4.768 41.3115 4.768C40.7995 4.768 40.3715 4.956 40.0275 5.332C39.6915 5.7 39.5235 6.228 39.5235 6.916V10H38.5155ZM44.557 3.304L44.401 0.939999H45.397L45.253 3.304H44.557ZM49.0238 10C48.4798 10 48.0518 9.868 47.7398 9.604C47.4278 9.34 47.2718 8.864 47.2718 8.176V4.9H46.2397V4.048H47.2718L47.4038 2.62H48.2798V4.048H50.0318V4.9H48.2798V8.176C48.2798 8.552 48.3558 8.808 48.5078 8.944C48.6598 9.072 48.9278 9.136 49.3118 9.136H49.9358V10H49.0238ZM54.4882 10V1.36H55.4962V5.068C55.6962 4.7 55.9802 4.416 56.3482 4.216C56.7162 4.008 57.1162 3.904 57.5482 3.904C58.2362 3.904 58.7882 4.12 59.2042 4.552C59.6202 4.976 59.8282 5.632 59.8282 6.52V10H58.8322V6.628C58.8322 5.388 58.3322 4.768 57.3322 4.768C56.8122 4.768 56.3762 4.956 56.0242 5.332C55.6722 5.7 55.4962 6.228 55.4962 6.916V10H54.4882ZM63.3353 10.144C62.8393 10.144 62.4273 10.06 62.0993 9.892C61.7713 9.724 61.5273 9.5 61.3673 9.22C61.2073 8.94 61.1273 8.636 61.1273 8.308C61.1273 7.7 61.3593 7.232 61.8233 6.904C62.2873 6.576 62.9193 6.412 63.7193 6.412H65.3273V6.34C65.3273 5.82 65.1913 5.428 64.9193 5.164C64.6473 4.892 64.2833 4.756 63.8273 4.756C63.4353 4.756 63.0953 4.856 62.8073 5.056C62.5273 5.248 62.3513 5.532 62.2793 5.908H61.2473C61.2873 5.476 61.4313 5.112 61.6793 4.816C61.9353 4.52 62.2513 4.296 62.6273 4.144C63.0033 3.984 63.4033 3.904 63.8273 3.904C64.6593 3.904 65.2833 4.128 65.6993 4.576C66.1233 5.016 66.3353 5.604 66.3353 6.34V10H65.4353L65.3753 8.932C65.2073 9.268 64.9593 9.556 64.6313 9.796C64.3113 10.028 63.8793 10.144 63.3353 10.144ZM63.4913 9.292C63.8753 9.292 64.2033 9.192 64.4753 8.992C64.7553 8.792 64.9673 8.532 65.1113 8.212C65.2553 7.892 65.3273 7.556 65.3273 7.204V7.192H63.8033C63.2113 7.192 62.7913 7.296 62.5433 7.504C62.3033 7.704 62.1833 7.956 62.1833 8.26C62.1833 8.572 62.2953 8.824 62.5193 9.016C62.7513 9.2 63.0753 9.292 63.4913 9.292ZM69.3409 10L67.0849 4.048H68.1409L69.9289 9.028L71.7289 4.048H72.7609L70.5049 10H69.3409ZM76.254 10.144C75.686 10.144 75.182 10.016 74.742 9.76C74.302 9.496 73.954 9.132 73.698 8.668C73.45 8.204 73.326 7.656 73.326 7.024C73.326 6.4 73.45 5.856 73.698 5.392C73.946 4.92 74.29 4.556 74.73 4.3C75.178 4.036 75.694 3.904 76.278 3.904C76.854 3.904 77.35 4.036 77.766 4.3C78.19 4.556 78.514 4.896 78.738 5.32C78.962 5.744 79.074 6.2 79.074 6.688C79.074 6.776 79.07 6.864 79.062 6.952C79.062 7.04 79.062 7.14 79.062 7.252H74.322C74.346 7.708 74.45 8.088 74.634 8.392C74.826 8.688 75.062 8.912 75.342 9.064C75.63 9.216 75.934 9.292 76.254 9.292C76.67 9.292 77.018 9.196 77.298 9.004C77.578 8.812 77.782 8.552 77.91 8.224H78.906C78.746 8.776 78.438 9.236 77.982 9.604C77.534 9.964 76.958 10.144 76.254 10.144ZM76.254 4.756C75.774 4.756 75.346 4.904 74.97 5.2C74.602 5.488 74.39 5.912 74.334 6.472H78.078C78.054 5.936 77.87 5.516 77.526 5.212C77.182 4.908 76.758 4.756 76.254 4.756ZM85.5658 10.144C85.0698 10.144 84.6578 10.06 84.3298 9.892C84.0018 9.724 83.7578 9.5 83.5978 9.22C83.4378 8.94 83.3578 8.636 83.3578 8.308C83.3578 7.7 83.5898 7.232 84.0538 6.904C84.5178 6.576 85.1498 6.412 85.9498 6.412H87.5578V6.34C87.5578 5.82 87.4218 5.428 87.1498 5.164C86.8778 4.892 86.5138 4.756 86.0578 4.756C85.6658 4.756 85.3258 4.856 85.0378 5.056C84.7578 5.248 84.5818 5.532 84.5098 5.908H83.4778C83.5178 5.476 83.6618 5.112 83.9098 4.816C84.1658 4.52 84.4818 4.296 84.8578 4.144C85.2338 3.984 85.6338 3.904 86.0578 3.904C86.8898 3.904 87.5138 4.128 87.9298 4.576C88.3538 5.016 88.5658 5.604 88.5658 6.34V10H87.6658L87.6058 8.932C87.4378 9.268 87.1898 9.556 86.8618 9.796C86.5418 10.028 86.1098 10.144 85.5658 10.144ZM85.7218 9.292C86.1058 9.292 86.4338 9.192 86.7058 8.992C86.9858 8.792 87.1978 8.532 87.3418 8.212C87.4858 7.892 87.5578 7.556 87.5578 7.204V7.192H86.0338C85.4418 7.192 85.0218 7.296 84.7738 7.504C84.5338 7.704 84.4138 7.956 84.4138 8.26C84.4138 8.572 84.5258 8.824 84.7498 9.016C84.9818 9.2 85.3058 9.292 85.7218 9.292ZM90.078 10V4.048H90.99L91.05 5.116C91.242 4.74 91.518 4.444 91.878 4.228C92.238 4.012 92.646 3.904 93.102 3.904C93.806 3.904 94.366 4.12 94.782 4.552C95.206 4.976 95.418 5.632 95.418 6.52V10H94.41V6.628C94.41 5.388 93.898 4.768 92.874 4.768C92.362 4.768 91.934 4.956 91.59 5.332C91.254 5.7 91.086 6.228 91.086 6.916V10H90.078ZM102.101 10.144C101.605 10.144 101.193 10.06 100.865 9.892C100.537 9.724 100.293 9.5 100.133 9.22C99.973 8.94 99.893 8.636 99.893 8.308C99.893 7.7 100.125 7.232 100.589 6.904C101.053 6.576 101.685 6.412 102.485 6.412H104.093V6.34C104.093 5.82 103.957 5.428 103.685 5.164C103.413 4.892 103.049 4.756 102.593 4.756C102.201 4.756 101.861 4.856 101.573 5.056C101.293 5.248 101.117 5.532 101.045 5.908H100.013C100.053 5.476 100.197 5.112 100.445 4.816C100.701 4.52 101.017 4.296 101.393 4.144C101.769 3.984 102.169 3.904 102.593 3.904C103.425 3.904 104.049 4.128 104.465 4.576C104.889 5.016 105.101 5.604 105.101 6.34V10H104.201L104.141 8.932C103.973 9.268 103.725 9.556 103.397 9.796C103.077 10.028 102.645 10.144 102.101 10.144ZM102.257 9.292C102.641 9.292 102.969 9.192 103.241 8.992C103.521 8.792 103.733 8.532 103.877 8.212C104.021 7.892 104.093 7.556 104.093 7.204V7.192H102.569C101.977 7.192 101.557 7.296 101.309 7.504C101.069 7.704 100.949 7.956 100.949 8.26C100.949 8.572 101.061 8.824 101.285 9.016C101.517 9.2 101.841 9.292 102.257 9.292ZM109.349 10.144C108.781 10.144 108.269 10.016 107.813 9.76C107.365 9.496 107.009 9.132 106.745 8.668C106.489 8.196 106.361 7.648 106.361 7.024C106.361 6.4 106.489 5.856 106.745 5.392C107.009 4.92 107.365 4.556 107.813 4.3C108.269 4.036 108.781 3.904 109.349 3.904C110.053 3.904 110.645 4.088 111.125 4.456C111.613 4.824 111.921 5.316 112.049 5.932H111.017C110.937 5.564 110.741 5.28 110.429 5.08C110.117 4.872 109.753 4.768 109.337 4.768C109.001 4.768 108.685 4.852 108.389 5.02C108.093 5.188 107.853 5.44 107.669 5.776C107.485 6.112 107.393 6.528 107.393 7.024C107.393 7.52 107.485 7.936 107.669 8.272C107.853 8.608 108.093 8.864 108.389 9.04C108.685 9.208 109.001 9.292 109.337 9.292C109.753 9.292 110.117 9.192 110.429 8.992C110.741 8.784 110.937 8.492 111.017 8.116H112.049C111.929 8.716 111.625 9.204 111.137 9.58C110.649 9.956 110.053 10.144 109.349 10.144ZM116.193 10.144C115.625 10.144 115.113 10.016 114.657 9.76C114.209 9.496 113.853 9.132 113.589 8.668C113.333 8.196 113.205 7.648 113.205 7.024C113.205 6.4 113.333 5.856 113.589 5.392C113.853 4.92 114.209 4.556 114.657 4.3C115.113 4.036 115.625 3.904 116.193 3.904C116.897 3.904 117.489 4.088 117.969 4.456C118.457 4.824 118.765 5.316 118.893 5.932H117.861C117.781 5.564 117.585 5.28 117.273 5.08C116.961 4.872 116.597 4.768 116.181 4.768C115.845 4.768 115.529 4.852 115.233 5.02C114.937 5.188 114.697 5.44 114.513 5.776C114.329 6.112 114.237 6.528 114.237 7.024C114.237 7.52 114.329 7.936 114.513 8.272C114.697 8.608 114.937 8.864 115.233 9.04C115.529 9.208 115.845 9.292 116.181 9.292C116.597 9.292 116.961 9.192 117.273 8.992C117.585 8.784 117.781 8.492 117.861 8.116H118.893C118.773 8.716 118.469 9.204 117.981 9.58C117.493 9.956 116.897 10.144 116.193 10.144ZM123.013 10.144C122.453 10.144 121.949 10.016 121.501 9.76C121.053 9.504 120.697 9.144 120.433 8.68C120.177 8.208 120.049 7.656 120.049 7.024C120.049 6.392 120.181 5.844 120.445 5.38C120.709 4.908 121.065 4.544 121.513 4.288C121.969 4.032 122.477 3.904 123.037 3.904C123.597 3.904 124.101 4.032 124.549 4.288C124.997 4.544 125.349 4.908 125.605 5.38C125.869 5.844 126.001 6.392 126.001 7.024C126.001 7.656 125.869 8.208 125.605 8.68C125.341 9.144 124.981 9.504 124.525 9.76C124.077 10.016 123.573 10.144 123.013 10.144ZM123.013 9.28C123.357 9.28 123.677 9.196 123.973 9.028C124.269 8.86 124.509 8.608 124.693 8.272C124.877 7.936 124.969 7.52 124.969 7.024C124.969 6.528 124.877 6.112 124.693 5.776C124.517 5.44 124.281 5.188 123.985 5.02C123.689 4.852 123.373 4.768 123.037 4.768C122.693 4.768 122.373 4.852 122.077 5.02C121.781 5.188 121.541 5.44 121.357 5.776C121.173 6.112 121.081 6.528 121.081 7.024C121.081 7.52 121.173 7.936 121.357 8.272C121.541 8.608 121.777 8.86 122.065 9.028C122.361 9.196 122.677 9.28 123.013 9.28ZM129.574 10.144C128.87 10.144 128.31 9.932 127.894 9.508C127.478 9.076 127.27 8.416 127.27 7.528V4.048H128.278V7.42C128.278 8.66 128.786 9.28 129.802 9.28C130.322 9.28 130.75 9.096 131.086 8.728C131.43 8.352 131.602 7.82 131.602 7.132V4.048H132.61V10H131.698L131.626 8.932C131.442 9.308 131.166 9.604 130.798 9.82C130.438 10.036 130.03 10.144 129.574 10.144ZM134.269 10V4.048H135.181L135.241 5.116C135.433 4.74 135.709 4.444 136.069 4.228C136.429 4.012 136.837 3.904 137.293 3.904C137.997 3.904 138.557 4.12 138.973 4.552C139.397 4.976 139.609 5.632 139.609 6.52V10H138.601V6.628C138.601 5.388 138.089 4.768 137.065 4.768C136.553 4.768 136.125 4.956 135.781 5.332C135.445 5.7 135.277 6.228 135.277 6.916V10H134.269ZM143.489 10C142.945 10 142.517 9.868 142.205 9.604C141.893 9.34 141.737 8.864 141.737 8.176V4.9H140.705V4.048H141.737L141.869 2.62H142.745V4.048H144.497V4.9H142.745V8.176C142.745 8.552 142.821 8.808 142.973 8.944C143.125 9.072 143.393 9.136 143.777 9.136H144.401V10H143.489ZM149.601 12.64L151.077 9.424H150.729L148.365 4.048H149.457L151.425 8.68L153.513 4.048H154.557L150.657 12.64H149.601ZM157.734 10.144C157.166 10.144 156.662 10.016 156.222 9.76C155.782 9.496 155.434 9.132 155.178 8.668C154.93 8.204 154.806 7.656 154.806 7.024C154.806 6.4 154.93 5.856 155.178 5.392C155.426 4.92 155.77 4.556 156.21 4.3C156.658 4.036 157.174 3.904 157.758 3.904C158.334 3.904 158.83 4.036 159.246 4.3C159.67 4.556 159.994 4.896 160.218 5.32C160.442 5.744 160.554 6.2 160.554 6.688C160.554 6.776 160.55 6.864 160.542 6.952C160.542 7.04 160.542 7.14 160.542 7.252H155.802C155.826 7.708 155.93 8.088 156.114 8.392C156.306 8.688 156.542 8.912 156.822 9.064C157.11 9.216 157.414 9.292 157.734 9.292C158.15 9.292 158.498 9.196 158.778 9.004C159.058 8.812 159.262 8.552 159.39 8.224H160.386C160.226 8.776 159.918 9.236 159.462 9.604C159.014 9.964 158.438 10.144 157.734 10.144ZM157.734 4.756C157.254 4.756 156.826 4.904 156.45 5.2C156.082 5.488 155.87 5.912 155.814 6.472H159.558C159.534 5.936 159.35 5.516 159.006 5.212C158.662 4.908 158.238 4.756 157.734 4.756ZM164.043 10C163.499 10 163.071 9.868 162.759 9.604C162.447 9.34 162.291 8.864 162.291 8.176V4.9H161.259V4.048H162.291L162.423 2.62H163.299V4.048H165.051V4.9H163.299V8.176C163.299 8.552 163.375 8.808 163.527 8.944C163.679 9.072 163.947 9.136 164.331 9.136H164.955V10H164.043ZM167.316 7.648L167.268 5.716H167.64C168.088 5.716 168.504 5.672 168.888 5.584C169.28 5.496 169.596 5.324 169.836 5.068C170.076 4.812 170.196 4.428 170.196 3.916C170.196 3.42 170.04 3.028 169.728 2.74C169.424 2.452 169.02 2.308 168.516 2.308C168.004 2.308 167.6 2.448 167.304 2.728C167.008 3.008 166.86 3.384 166.86 3.856H165.9C165.9 3.376 166.008 2.956 166.224 2.596C166.448 2.236 166.756 1.956 167.148 1.756C167.54 1.556 167.996 1.456 168.516 1.456C169.036 1.456 169.496 1.556 169.896 1.756C170.296 1.956 170.608 2.24 170.832 2.608C171.056 2.976 171.168 3.412 171.168 3.916C171.168 4.508 171.04 4.988 170.784 5.356C170.536 5.724 170.188 5.992 169.74 6.16C169.3 6.328 168.796 6.412 168.228 6.412L168.192 7.648H167.316ZM167.748 10.06C167.548 10.06 167.38 9.996 167.244 9.868C167.116 9.732 167.052 9.568 167.052 9.376C167.052 9.184 167.116 9.024 167.244 8.896C167.38 8.76 167.548 8.692 167.748 8.692C167.948 8.692 168.112 8.76 168.24 8.896C168.368 9.024 168.432 9.184 168.432 9.376C168.432 9.568 168.368 9.732 168.24 9.868C168.112 9.996 167.948 10.06 167.748 10.06Z" fill="#524B6B"/>
<path d="M181.607 10.144C180.991 10.144 180.455 10.032 179.999 9.808C179.543 9.584 179.191 9.272 178.943 8.872C178.695 8.472 178.571 8.008 178.571 7.48H179.627C179.627 7.808 179.703 8.112 179.855 8.392C180.007 8.664 180.227 8.884 180.515 9.052C180.811 9.212 181.175 9.292 181.607 9.292C182.175 9.292 182.615 9.156 182.927 8.884C183.239 8.612 183.395 8.272 183.395 7.864C183.395 7.528 183.323 7.26 183.179 7.06C183.035 6.852 182.839 6.684 182.591 6.556C182.351 6.428 182.071 6.316 181.751 6.22C181.439 6.124 181.111 6.016 180.767 5.896C180.119 5.672 179.639 5.396 179.327 5.068C179.015 4.732 178.859 4.296 178.859 3.76C178.851 3.312 178.955 2.916 179.171 2.572C179.387 2.22 179.691 1.948 180.083 1.756C180.483 1.556 180.955 1.456 181.499 1.456C182.035 1.456 182.499 1.556 182.891 1.756C183.291 1.956 183.599 2.232 183.815 2.584C184.039 2.936 184.155 3.336 184.163 3.784H183.107C183.107 3.552 183.047 3.324 182.927 3.1C182.807 2.868 182.623 2.68 182.375 2.536C182.135 2.392 181.831 2.32 181.463 2.32C181.007 2.312 180.631 2.428 180.335 2.668C180.047 2.908 179.903 3.24 179.903 3.664C179.903 4.024 180.003 4.3 180.203 4.492C180.411 4.684 180.699 4.844 181.067 4.972C181.435 5.092 181.859 5.232 182.339 5.392C182.739 5.536 183.099 5.704 183.419 5.896C183.739 6.088 183.987 6.336 184.163 6.64C184.347 6.944 184.439 7.332 184.439 7.804C184.439 8.204 184.335 8.584 184.127 8.944C183.919 9.296 183.603 9.584 183.179 9.808C182.763 10.032 182.239 10.144 181.607 10.144ZM186.42 2.728C186.22 2.728 186.052 2.664 185.916 2.536C185.788 2.4 185.724 2.232 185.724 2.032C185.724 1.84 185.788 1.68 185.916 1.552C186.052 1.424 186.22 1.36 186.42 1.36C186.612 1.36 186.776 1.424 186.912 1.552C187.048 1.68 187.116 1.84 187.116 2.032C187.116 2.232 187.048 2.4 186.912 2.536C186.776 2.664 186.612 2.728 186.42 2.728ZM185.916 10V4.048H186.924V10H185.916ZM191.032 8.128C190.696 8.128 190.388 8.084 190.108 7.996L189.508 8.56C189.596 8.624 189.704 8.68 189.832 8.728C189.968 8.768 190.16 8.808 190.408 8.848C190.656 8.88 191.004 8.916 191.452 8.956C192.252 9.012 192.824 9.196 193.168 9.508C193.512 9.82 193.684 10.228 193.684 10.732C193.684 11.076 193.588 11.404 193.396 11.716C193.212 12.028 192.924 12.284 192.532 12.484C192.148 12.684 191.652 12.784 191.044 12.784C190.508 12.784 190.032 12.712 189.616 12.568C189.2 12.432 188.876 12.22 188.644 11.932C188.412 11.652 188.296 11.296 188.296 10.864C188.296 10.64 188.356 10.396 188.476 10.132C188.596 9.876 188.82 9.632 189.148 9.4C188.972 9.328 188.82 9.252 188.692 9.172C188.572 9.084 188.46 8.988 188.356 8.884V8.608L189.376 7.6C188.904 7.2 188.668 6.672 188.668 6.016C188.668 5.624 188.76 5.268 188.944 4.948C189.128 4.628 189.396 4.376 189.748 4.192C190.1 4 190.528 3.904 191.032 3.904C191.376 3.904 191.688 3.952 191.968 4.048H194.164V4.804L193.048 4.852C193.28 5.188 193.396 5.576 193.396 6.016C193.396 6.408 193.3 6.764 193.108 7.084C192.924 7.404 192.656 7.66 192.304 7.852C191.96 8.036 191.536 8.128 191.032 8.128ZM191.032 7.3C191.456 7.3 191.792 7.192 192.04 6.976C192.296 6.752 192.424 6.432 192.424 6.016C192.424 5.608 192.296 5.296 192.04 5.08C191.792 4.856 191.456 4.744 191.032 4.744C190.6 4.744 190.256 4.856 190 5.08C189.752 5.296 189.628 5.608 189.628 6.016C189.628 6.432 189.752 6.752 190 6.976C190.256 7.192 190.6 7.3 191.032 7.3ZM189.28 10.768C189.28 11.168 189.448 11.464 189.784 11.656C190.12 11.856 190.54 11.956 191.044 11.956C191.54 11.956 191.936 11.848 192.232 11.632C192.536 11.416 192.688 11.128 192.688 10.768C192.688 10.512 192.584 10.288 192.376 10.096C192.168 9.912 191.784 9.804 191.224 9.772C190.784 9.74 190.404 9.7 190.084 9.652C189.756 9.828 189.54 10.016 189.436 10.216C189.332 10.424 189.28 10.608 189.28 10.768ZM195.301 10V4.048H196.213L196.273 5.116C196.465 4.74 196.741 4.444 197.101 4.228C197.461 4.012 197.869 3.904 198.325 3.904C199.029 3.904 199.589 4.12 200.005 4.552C200.429 4.976 200.641 5.632 200.641 6.52V10H199.633V6.628C199.633 5.388 199.121 4.768 198.097 4.768C197.585 4.768 197.157 4.956 196.813 5.332C196.477 5.7 196.309 6.228 196.309 6.916V10H195.301ZM207.516 10.144C206.812 10.144 206.252 9.932 205.836 9.508C205.42 9.076 205.212 8.416 205.212 7.528V4.048H206.22V7.42C206.22 8.66 206.728 9.28 207.744 9.28C208.264 9.28 208.692 9.096 209.028 8.728C209.372 8.352 209.544 7.82 209.544 7.132V4.048H210.552V10H209.64L209.568 8.932C209.384 9.308 209.108 9.604 208.74 9.82C208.38 10.036 207.972 10.144 207.516 10.144ZM212.211 12.64V4.048H213.123L213.219 5.032C213.411 4.744 213.683 4.484 214.035 4.252C214.395 4.02 214.851 3.904 215.403 3.904C215.995 3.904 216.511 4.04 216.951 4.312C217.391 4.584 217.731 4.956 217.971 5.428C218.219 5.9 218.343 6.436 218.343 7.036C218.343 7.636 218.219 8.172 217.971 8.644C217.731 9.108 217.387 9.476 216.939 9.748C216.499 10.012 215.983 10.144 215.391 10.144C214.903 10.144 214.467 10.044 214.083 9.844C213.707 9.644 213.419 9.364 213.219 9.004V12.64H212.211ZM215.283 9.268C215.683 9.268 216.035 9.176 216.339 8.992C216.643 8.8 216.883 8.536 217.059 8.2C217.235 7.864 217.323 7.472 217.323 7.024C217.323 6.576 217.235 6.184 217.059 5.848C216.883 5.512 216.643 5.252 216.339 5.068C216.035 4.876 215.683 4.78 215.283 4.78C214.883 4.78 214.531 4.876 214.227 5.068C213.923 5.252 213.683 5.512 213.507 5.848C213.331 6.184 213.243 6.576 213.243 7.024C213.243 7.472 213.331 7.864 213.507 8.2C213.683 8.536 213.923 8.8 214.227 8.992C214.531 9.176 214.883 9.268 215.283 9.268Z" fill="#FF9228"/>
<path d="M178.043 11.5H218.919V12.1H178.043V11.5Z" fill="#FF9228"/>
</svg>
