<svg width="298" height="31" viewBox="0 0 298 31" fill="none" xmlns="http://www.w3.org/2000/svg">
<path d="M3.67131 9V5.808L0.935313 0.599999H2.07531L4.17531 4.848L6.27531 0.599999H7.40331L4.67931 5.808V9H3.67131ZM10.1416 9.144C9.58156 9.144 9.07756 9.016 8.62956 8.76C8.18156 8.504 7.82556 8.144 7.56156 7.68C7.30556 7.208 7.17756 6.656 7.17756 6.024C7.17756 5.392 7.30956 4.844 7.57356 4.38C7.83756 3.908 8.19356 3.544 8.64156 3.288C9.09756 3.032 9.60556 2.904 10.1656 2.904C10.7256 2.904 11.2296 3.032 11.6776 3.288C12.1256 3.544 12.4776 3.908 12.7336 4.38C12.9976 4.844 13.1296 5.392 13.1296 6.024C13.1296 6.656 12.9976 7.208 12.7336 7.68C12.4696 8.144 12.1096 8.504 11.6536 8.76C11.2056 9.016 10.7016 9.144 10.1416 9.144ZM10.1416 8.28C10.4856 8.28 10.8056 8.196 11.1016 8.028C11.3976 7.86 11.6376 7.608 11.8216 7.272C12.0056 6.936 12.0976 6.52 12.0976 6.024C12.0976 5.528 12.0056 5.112 11.8216 4.776C11.6456 4.44 11.4096 4.188 11.1136 4.02C10.8176 3.852 10.5016 3.768 10.1656 3.768C9.82156 3.768 9.50156 3.852 9.20556 4.02C8.90956 4.188 8.66956 4.44 8.48556 4.776C8.30156 5.112 8.20956 5.528 8.20956 6.024C8.20956 6.52 8.30156 6.936 8.48556 7.272C8.66956 7.608 8.90556 7.86 9.19356 8.028C9.48956 8.196 9.80556 8.28 10.1416 8.28ZM16.7031 9.144C15.9991 9.144 15.4391 8.932 15.0231 8.508C14.6071 8.076 14.3991 7.416 14.3991 6.528V3.048H15.4071V6.42C15.4071 7.66 15.9151 8.28 16.9311 8.28C17.4511 8.28 17.8791 8.096 18.2151 7.728C18.5591 7.352 18.7311 6.82 18.7311 6.132V3.048H19.7391V9H18.8271L18.7551 7.932C18.5711 8.308 18.2951 8.604 17.9271 8.82C17.5671 9.036 17.1591 9.144 16.7031 9.144ZM21.3983 9V3.048H22.3103L22.3943 4.188C22.5783 3.796 22.8583 3.484 23.2343 3.252C23.6103 3.02 24.0743 2.904 24.6263 2.904V3.96H24.3503C23.9983 3.96 23.6743 4.024 23.3783 4.152C23.0823 4.272 22.8463 4.48 22.6703 4.776C22.4943 5.072 22.4063 5.48 22.4063 6V9H21.3983ZM28.9335 11.64V3.048H29.8455L29.9415 4.032C30.1335 3.744 30.4055 3.484 30.7575 3.252C31.1175 3.02 31.5735 2.904 32.1255 2.904C32.7175 2.904 33.2335 3.04 33.6735 3.312C34.1135 3.584 34.4535 3.956 34.6935 4.428C34.9415 4.9 35.0655 5.436 35.0655 6.036C35.0655 6.636 34.9415 7.172 34.6935 7.644C34.4535 8.108 34.1095 8.476 33.6615 8.748C33.2215 9.012 32.7055 9.144 32.1135 9.144C31.6255 9.144 31.1895 9.044 30.8055 8.844C30.4295 8.644 30.1415 8.364 29.9415 8.004V11.64H28.9335ZM32.0055 8.268C32.4055 8.268 32.7575 8.176 33.0615 7.992C33.3655 7.8 33.6055 7.536 33.7815 7.2C33.9575 6.864 34.0455 6.472 34.0455 6.024C34.0455 5.576 33.9575 5.184 33.7815 4.848C33.6055 4.512 33.3655 4.252 33.0615 4.068C32.7575 3.876 32.4055 3.78 32.0055 3.78C31.6055 3.78 31.2535 3.876 30.9495 4.068C30.6455 4.252 30.4055 4.512 30.2295 4.848C30.0535 5.184 29.9655 5.576 29.9655 6.024C29.9655 6.472 30.0535 6.864 30.2295 7.2C30.4055 7.536 30.6455 7.8 30.9495 7.992C31.2535 8.176 31.6055 8.268 32.0055 8.268ZM38.4486 9.144C37.9526 9.144 37.5406 9.06 37.2126 8.892C36.8846 8.724 36.6406 8.5 36.4806 8.22C36.3206 7.94 36.2406 7.636 36.2406 7.308C36.2406 6.7 36.4726 6.232 36.9366 5.904C37.4006 5.576 38.0326 5.412 38.8326 5.412H40.4406V5.34C40.4406 4.82 40.3046 4.428 40.0326 4.164C39.7606 3.892 39.3966 3.756 38.9406 3.756C38.5486 3.756 38.2086 3.856 37.9206 4.056C37.6406 4.248 37.4646 4.532 37.3926 4.908H36.3606C36.4006 4.476 36.5446 4.112 36.7926 3.816C37.0486 3.52 37.3646 3.296 37.7406 3.144C38.1166 2.984 38.5166 2.904 38.9406 2.904C39.7726 2.904 40.3966 3.128 40.8126 3.576C41.2366 4.016 41.4486 4.604 41.4486 5.34V9H40.5486L40.4886 7.932C40.3206 8.268 40.0726 8.556 39.7446 8.796C39.4246 9.028 38.9926 9.144 38.4486 9.144ZM38.6046 8.292C38.9886 8.292 39.3166 8.192 39.5886 7.992C39.8686 7.792 40.0806 7.532 40.2246 7.212C40.3686 6.892 40.4406 6.556 40.4406 6.204V6.192H38.9166C38.3246 6.192 37.9046 6.296 37.6566 6.504C37.4166 6.704 37.2966 6.956 37.2966 7.26C37.2966 7.572 37.4086 7.824 37.6326 8.016C37.8646 8.2 38.1886 8.292 38.6046 8.292ZM45.2408 9.144C44.5288 9.144 43.9368 8.964 43.4648 8.604C42.9928 8.244 42.7168 7.756 42.6368 7.14H43.6688C43.7328 7.452 43.8968 7.724 44.1608 7.956C44.4328 8.18 44.7968 8.292 45.2528 8.292C45.6768 8.292 45.9888 8.204 46.1888 8.028C46.3888 7.844 46.4888 7.628 46.4888 7.38C46.4888 7.02 46.3568 6.78 46.0928 6.66C45.8368 6.54 45.4728 6.432 45.0008 6.336C44.6808 6.272 44.3608 6.18 44.0408 6.06C43.7208 5.94 43.4528 5.772 43.2368 5.556C43.0208 5.332 42.9128 5.04 42.9128 4.68C42.9128 4.16 43.1048 3.736 43.4888 3.408C43.8808 3.072 44.4088 2.904 45.0728 2.904C45.7048 2.904 46.2208 3.064 46.6208 3.384C47.0288 3.696 47.2648 4.144 47.3288 4.728H46.3328C46.2928 4.424 46.1608 4.188 45.9368 4.02C45.7208 3.844 45.4288 3.756 45.0608 3.756C44.7008 3.756 44.4208 3.832 44.2208 3.984C44.0288 4.136 43.9328 4.336 43.9328 4.584C43.9328 4.824 44.0568 5.012 44.3048 5.148C44.5608 5.284 44.9048 5.4 45.3368 5.496C45.7048 5.576 46.0528 5.676 46.3808 5.796C46.7168 5.908 46.9888 6.08 47.1968 6.312C47.4128 6.536 47.5208 6.864 47.5208 7.296C47.5288 7.832 47.3248 8.276 46.9088 8.628C46.5008 8.972 45.9448 9.144 45.2408 9.144ZM51.2408 9.144C50.5288 9.144 49.9368 8.964 49.4648 8.604C48.9928 8.244 48.7168 7.756 48.6368 7.14H49.6688C49.7328 7.452 49.8968 7.724 50.1608 7.956C50.4328 8.18 50.7968 8.292 51.2528 8.292C51.6768 8.292 51.9888 8.204 52.1888 8.028C52.3888 7.844 52.4888 7.628 52.4888 7.38C52.4888 7.02 52.3568 6.78 52.0928 6.66C51.8368 6.54 51.4728 6.432 51.0008 6.336C50.6808 6.272 50.3608 6.18 50.0408 6.06C49.7208 5.94 49.4528 5.772 49.2368 5.556C49.0208 5.332 48.9128 5.04 48.9128 4.68C48.9128 4.16 49.1048 3.736 49.4888 3.408C49.8808 3.072 50.4088 2.904 51.0728 2.904C51.7048 2.904 52.2208 3.064 52.6208 3.384C53.0288 3.696 53.2648 4.144 53.3288 4.728H52.3328C52.2928 4.424 52.1608 4.188 51.9368 4.02C51.7208 3.844 51.4288 3.756 51.0608 3.756C50.7008 3.756 50.4208 3.832 50.2208 3.984C50.0288 4.136 49.9328 4.336 49.9328 4.584C49.9328 4.824 50.0568 5.012 50.3048 5.148C50.5608 5.284 50.9048 5.4 51.3368 5.496C51.7048 5.576 52.0528 5.676 52.3808 5.796C52.7168 5.908 52.9888 6.08 53.1968 6.312C53.4128 6.536 53.5208 6.864 53.5208 7.296C53.5288 7.832 53.3248 8.276 52.9088 8.628C52.5008 8.972 51.9448 9.144 51.2408 9.144ZM55.9382 9L54.1982 3.048H55.2062L56.4662 7.716L57.8582 3.048H58.9982L60.4022 7.716L61.6502 3.048H62.6702L60.9302 9H59.8982L58.4342 4.092L56.9702 9H55.9382ZM66.2744 9.144C65.7144 9.144 65.2104 9.016 64.7624 8.76C64.3144 8.504 63.9584 8.144 63.6944 7.68C63.4384 7.208 63.3104 6.656 63.3104 6.024C63.3104 5.392 63.4424 4.844 63.7064 4.38C63.9704 3.908 64.3264 3.544 64.7744 3.288C65.2304 3.032 65.7384 2.904 66.2984 2.904C66.8584 2.904 67.3624 3.032 67.8104 3.288C68.2584 3.544 68.6104 3.908 68.8664 4.38C69.1304 4.844 69.2624 5.392 69.2624 6.024C69.2624 6.656 69.1304 7.208 68.8664 7.68C68.6024 8.144 68.2424 8.504 67.7864 8.76C67.3384 9.016 66.8344 9.144 66.2744 9.144ZM66.2744 8.28C66.6184 8.28 66.9384 8.196 67.2344 8.028C67.5304 7.86 67.7704 7.608 67.9544 7.272C68.1384 6.936 68.2304 6.52 68.2304 6.024C68.2304 5.528 68.1384 5.112 67.9544 4.776C67.7784 4.44 67.5424 4.188 67.2464 4.02C66.9504 3.852 66.6344 3.768 66.2984 3.768C65.9544 3.768 65.6344 3.852 65.3384 4.02C65.0424 4.188 64.8024 4.44 64.6184 4.776C64.4344 5.112 64.3424 5.528 64.3424 6.024C64.3424 6.52 64.4344 6.936 64.6184 7.272C64.8024 7.608 65.0384 7.86 65.3264 8.028C65.6224 8.196 65.9384 8.28 66.2744 8.28ZM70.6639 9V3.048H71.5759L71.6599 4.188C71.8439 3.796 72.1239 3.484 72.4999 3.252C72.8759 3.02 73.3399 2.904 73.8919 2.904V3.96H73.6159C73.2639 3.96 72.9399 4.024 72.6439 4.152C72.3479 4.272 72.1119 4.48 71.9359 4.776C71.7599 5.072 71.6719 5.48 71.6719 6V9H70.6639ZM77.5007 9.144C76.9087 9.144 76.3887 9.008 75.9407 8.736C75.5007 8.464 75.1567 8.092 74.9087 7.62C74.6687 7.148 74.5487 6.612 74.5487 6.012C74.5487 5.412 74.6727 4.88 74.9207 4.416C75.1687 3.944 75.5127 3.576 75.9527 3.312C76.3927 3.04 76.9127 2.904 77.5127 2.904C78.0007 2.904 78.4327 3.004 78.8087 3.204C79.1847 3.404 79.4767 3.684 79.6847 4.044V0.36H80.6927V9H79.7807L79.6847 8.016C79.4927 8.304 79.2167 8.564 78.8567 8.796C78.4967 9.028 78.0447 9.144 77.5007 9.144ZM77.6087 8.268C78.0087 8.268 78.3607 8.176 78.6647 7.992C78.9767 7.8 79.2167 7.536 79.3847 7.2C79.5607 6.864 79.6487 6.472 79.6487 6.024C79.6487 5.576 79.5607 5.184 79.3847 4.848C79.2167 4.512 78.9767 4.252 78.6647 4.068C78.3607 3.876 78.0087 3.78 77.6087 3.78C77.2167 3.78 76.8647 3.876 76.5527 4.068C76.2487 4.252 76.0087 4.512 75.8327 4.848C75.6647 5.184 75.5807 5.576 75.5807 6.024C75.5807 6.472 75.6647 6.864 75.8327 7.2C76.0087 7.536 76.2487 7.8 76.5527 7.992C76.8647 8.176 77.2167 8.268 77.6087 8.268ZM85.5116 9V0.36H86.5196V4.068C86.7196 3.7 87.0036 3.416 87.3716 3.216C87.7396 3.008 88.1396 2.904 88.5716 2.904C89.2596 2.904 89.8116 3.12 90.2276 3.552C90.6436 3.976 90.8516 4.632 90.8516 5.52V9H89.8556V5.628C89.8556 4.388 89.3556 3.768 88.3556 3.768C87.8356 3.768 87.3996 3.956 87.0476 4.332C86.6956 4.7 86.5196 5.228 86.5196 5.916V9H85.5116ZM94.3588 9.144C93.8628 9.144 93.4508 9.06 93.1228 8.892C92.7948 8.724 92.5508 8.5 92.3908 8.22C92.2308 7.94 92.1508 7.636 92.1508 7.308C92.1508 6.7 92.3828 6.232 92.8468 5.904C93.3108 5.576 93.9428 5.412 94.7428 5.412H96.3508V5.34C96.3508 4.82 96.2148 4.428 95.9428 4.164C95.6708 3.892 95.3068 3.756 94.8508 3.756C94.4588 3.756 94.1188 3.856 93.8308 4.056C93.5508 4.248 93.3748 4.532 93.3028 4.908H92.2708C92.3108 4.476 92.4548 4.112 92.7028 3.816C92.9588 3.52 93.2748 3.296 93.6508 3.144C94.0268 2.984 94.4268 2.904 94.8508 2.904C95.6828 2.904 96.3068 3.128 96.7228 3.576C97.1468 4.016 97.3588 4.604 97.3588 5.34V9H96.4588L96.3988 7.932C96.2308 8.268 95.9828 8.556 95.6548 8.796C95.3348 9.028 94.9028 9.144 94.3588 9.144ZM94.5148 8.292C94.8988 8.292 95.2268 8.192 95.4988 7.992C95.7788 7.792 95.9908 7.532 96.1348 7.212C96.2788 6.892 96.3508 6.556 96.3508 6.204V6.192H94.8268C94.2348 6.192 93.8148 6.296 93.5668 6.504C93.3268 6.704 93.2068 6.956 93.2068 7.26C93.2068 7.572 93.3188 7.824 93.5428 8.016C93.7748 8.2 94.0988 8.292 94.5148 8.292ZM101.151 9.144C100.439 9.144 99.847 8.964 99.375 8.604C98.903 8.244 98.627 7.756 98.547 7.14H99.579C99.643 7.452 99.807 7.724 100.071 7.956C100.343 8.18 100.707 8.292 101.163 8.292C101.587 8.292 101.899 8.204 102.099 8.028C102.299 7.844 102.399 7.628 102.399 7.38C102.399 7.02 102.267 6.78 102.003 6.66C101.747 6.54 101.383 6.432 100.911 6.336C100.591 6.272 100.271 6.18 99.951 6.06C99.631 5.94 99.363 5.772 99.147 5.556C98.931 5.332 98.823 5.04 98.823 4.68C98.823 4.16 99.015 3.736 99.399 3.408C99.791 3.072 100.319 2.904 100.983 2.904C101.615 2.904 102.131 3.064 102.531 3.384C102.939 3.696 103.175 4.144 103.239 4.728H102.243C102.203 4.424 102.071 4.188 101.847 4.02C101.631 3.844 101.339 3.756 100.971 3.756C100.611 3.756 100.331 3.832 100.131 3.984C99.939 4.136 99.843 4.336 99.843 4.584C99.843 4.824 99.967 5.012 100.215 5.148C100.471 5.284 100.815 5.4 101.247 5.496C101.615 5.576 101.963 5.676 102.291 5.796C102.627 5.908 102.899 6.08 103.107 6.312C103.323 6.536 103.431 6.864 103.431 7.296C103.439 7.832 103.235 8.276 102.819 8.628C102.411 8.972 101.855 9.144 101.151 9.144ZM111.227 9.144C110.739 9.144 110.303 9.044 109.919 8.844C109.543 8.644 109.255 8.364 109.055 8.004L108.959 9H108.047V0.36H109.055V4.032C109.247 3.744 109.519 3.484 109.871 3.252C110.231 3.02 110.687 2.904 111.239 2.904C111.831 2.904 112.347 3.04 112.787 3.312C113.227 3.584 113.567 3.956 113.807 4.428C114.055 4.9 114.179 5.436 114.179 6.036C114.179 6.636 114.055 7.172 113.807 7.644C113.567 8.108 113.223 8.476 112.775 8.748C112.335 9.012 111.819 9.144 111.227 9.144ZM111.119 8.268C111.519 8.268 111.871 8.176 112.175 7.992C112.479 7.8 112.719 7.536 112.895 7.2C113.071 6.864 113.159 6.472 113.159 6.024C113.159 5.576 113.071 5.184 112.895 4.848C112.719 4.512 112.479 4.252 112.175 4.068C111.871 3.876 111.519 3.78 111.119 3.78C110.719 3.78 110.367 3.876 110.063 4.068C109.759 4.252 109.519 4.512 109.343 4.848C109.167 5.184 109.079 5.576 109.079 6.024C109.079 6.472 109.167 6.864 109.343 7.2C109.519 7.536 109.759 7.8 110.063 7.992C110.367 8.176 110.719 8.268 111.119 8.268ZM118.258 9.144C117.69 9.144 117.186 9.016 116.746 8.76C116.306 8.496 115.958 8.132 115.702 7.668C115.454 7.204 115.33 6.656 115.33 6.024C115.33 5.4 115.454 4.856 115.702 4.392C115.95 3.92 116.294 3.556 116.734 3.3C117.182 3.036 117.698 2.904 118.282 2.904C118.858 2.904 119.354 3.036 119.77 3.3C120.194 3.556 120.518 3.896 120.742 4.32C120.966 4.744 121.078 5.2 121.078 5.688C121.078 5.776 121.074 5.864 121.066 5.952C121.066 6.04 121.066 6.14 121.066 6.252H116.326C116.35 6.708 116.454 7.088 116.638 7.392C116.83 7.688 117.066 7.912 117.346 8.064C117.634 8.216 117.938 8.292 118.258 8.292C118.674 8.292 119.022 8.196 119.302 8.004C119.582 7.812 119.786 7.552 119.914 7.224H120.91C120.75 7.776 120.442 8.236 119.986 8.604C119.538 8.964 118.962 9.144 118.258 9.144ZM118.258 3.756C117.778 3.756 117.35 3.904 116.974 4.2C116.606 4.488 116.394 4.912 116.338 5.472H120.082C120.058 4.936 119.874 4.516 119.53 4.212C119.186 3.908 118.762 3.756 118.258 3.756ZM125.09 9.144C124.522 9.144 124.018 9.016 123.578 8.76C123.138 8.496 122.79 8.132 122.534 7.668C122.286 7.204 122.162 6.656 122.162 6.024C122.162 5.4 122.286 4.856 122.534 4.392C122.782 3.92 123.126 3.556 123.566 3.3C124.014 3.036 124.53 2.904 125.114 2.904C125.69 2.904 126.186 3.036 126.602 3.3C127.026 3.556 127.35 3.896 127.574 4.32C127.798 4.744 127.91 5.2 127.91 5.688C127.91 5.776 127.906 5.864 127.898 5.952C127.898 6.04 127.898 6.14 127.898 6.252H123.158C123.182 6.708 123.286 7.088 123.47 7.392C123.662 7.688 123.898 7.912 124.178 8.064C124.466 8.216 124.77 8.292 125.09 8.292C125.506 8.292 125.854 8.196 126.134 8.004C126.414 7.812 126.618 7.552 126.746 7.224H127.742C127.582 7.776 127.274 8.236 126.818 8.604C126.37 8.964 125.794 9.144 125.09 9.144ZM125.09 3.756C124.61 3.756 124.182 3.904 123.806 4.2C123.438 4.488 123.226 4.912 123.17 5.472H126.914C126.89 4.936 126.706 4.516 126.362 4.212C126.018 3.908 125.594 3.756 125.09 3.756ZM129.246 9V3.048H130.158L130.218 4.116C130.41 3.74 130.686 3.444 131.046 3.228C131.406 3.012 131.814 2.904 132.27 2.904C132.974 2.904 133.534 3.12 133.95 3.552C134.374 3.976 134.586 4.632 134.586 5.52V9H133.578V5.628C133.578 4.388 133.066 3.768 132.042 3.768C131.53 3.768 131.102 3.956 130.758 4.332C130.422 4.7 130.254 5.228 130.254 5.916V9H129.246ZM141.461 9.144C140.757 9.144 140.197 8.932 139.781 8.508C139.365 8.076 139.157 7.416 139.157 6.528V3.048H140.165V6.42C140.165 7.66 140.673 8.28 141.689 8.28C142.209 8.28 142.637 8.096 142.973 7.728C143.317 7.352 143.489 6.82 143.489 6.132V3.048H144.497V9H143.585L143.513 7.932C143.329 8.308 143.053 8.604 142.685 8.82C142.325 9.036 141.917 9.144 141.461 9.144ZM146.156 11.64V3.048H147.068L147.164 4.032C147.356 3.744 147.628 3.484 147.98 3.252C148.34 3.02 148.796 2.904 149.348 2.904C149.94 2.904 150.456 3.04 150.896 3.312C151.336 3.584 151.676 3.956 151.916 4.428C152.164 4.9 152.288 5.436 152.288 6.036C152.288 6.636 152.164 7.172 151.916 7.644C151.676 8.108 151.332 8.476 150.884 8.748C150.444 9.012 149.928 9.144 149.336 9.144C148.848 9.144 148.412 9.044 148.028 8.844C147.652 8.644 147.364 8.364 147.164 8.004V11.64H146.156ZM149.228 8.268C149.628 8.268 149.98 8.176 150.284 7.992C150.588 7.8 150.828 7.536 151.004 7.2C151.18 6.864 151.268 6.472 151.268 6.024C151.268 5.576 151.18 5.184 151.004 4.848C150.828 4.512 150.588 4.252 150.284 4.068C149.98 3.876 149.628 3.78 149.228 3.78C148.828 3.78 148.476 3.876 148.172 4.068C147.868 4.252 147.628 4.512 147.452 4.848C147.276 5.184 147.188 5.576 147.188 6.024C147.188 6.472 147.276 6.864 147.452 7.2C147.628 7.536 147.868 7.8 148.172 7.992C148.476 8.176 148.828 8.268 149.228 8.268ZM156.391 9.144C155.799 9.144 155.279 9.008 154.831 8.736C154.391 8.464 154.047 8.092 153.799 7.62C153.559 7.148 153.439 6.612 153.439 6.012C153.439 5.412 153.563 4.88 153.811 4.416C154.059 3.944 154.403 3.576 154.843 3.312C155.283 3.04 155.803 2.904 156.403 2.904C156.891 2.904 157.323 3.004 157.699 3.204C158.075 3.404 158.367 3.684 158.575 4.044V0.36H159.583V9H158.671L158.575 8.016C158.383 8.304 158.107 8.564 157.747 8.796C157.387 9.028 156.935 9.144 156.391 9.144ZM156.499 8.268C156.899 8.268 157.251 8.176 157.555 7.992C157.867 7.8 158.107 7.536 158.275 7.2C158.451 6.864 158.539 6.472 158.539 6.024C158.539 5.576 158.451 5.184 158.275 4.848C158.107 4.512 157.867 4.252 157.555 4.068C157.251 3.876 156.899 3.78 156.499 3.78C156.107 3.78 155.755 3.876 155.443 4.068C155.139 4.252 154.899 4.512 154.723 4.848C154.555 5.184 154.471 5.576 154.471 6.024C154.471 6.472 154.555 6.864 154.723 7.2C154.899 7.536 155.139 7.8 155.443 7.992C155.755 8.176 156.107 8.268 156.499 8.268ZM163.206 9.144C162.71 9.144 162.298 9.06 161.97 8.892C161.642 8.724 161.398 8.5 161.238 8.22C161.078 7.94 160.998 7.636 160.998 7.308C160.998 6.7 161.23 6.232 161.694 5.904C162.158 5.576 162.79 5.412 163.59 5.412H165.198V5.34C165.198 4.82 165.062 4.428 164.79 4.164C164.518 3.892 164.154 3.756 163.698 3.756C163.306 3.756 162.966 3.856 162.678 4.056C162.398 4.248 162.222 4.532 162.15 4.908H161.118C161.158 4.476 161.302 4.112 161.55 3.816C161.806 3.52 162.122 3.296 162.498 3.144C162.874 2.984 163.274 2.904 163.698 2.904C164.53 2.904 165.154 3.128 165.57 3.576C165.994 4.016 166.206 4.604 166.206 5.34V9H165.306L165.246 7.932C165.078 8.268 164.83 8.556 164.502 8.796C164.182 9.028 163.75 9.144 163.206 9.144ZM163.362 8.292C163.746 8.292 164.074 8.192 164.346 7.992C164.626 7.792 164.838 7.532 164.982 7.212C165.126 6.892 165.198 6.556 165.198 6.204V6.192H163.674C163.082 6.192 162.662 6.296 162.414 6.504C162.174 6.704 162.054 6.956 162.054 7.26C162.054 7.572 162.166 7.824 162.39 8.016C162.622 8.2 162.946 8.292 163.362 8.292ZM169.907 9C169.363 9 168.935 8.868 168.623 8.604C168.311 8.34 168.155 7.864 168.155 7.176V3.9H167.123V3.048H168.155L168.287 1.62H169.163V3.048H170.915V3.9H169.163V7.176C169.163 7.552 169.239 7.808 169.391 7.944C169.543 8.072 169.811 8.136 170.195 8.136H170.819V9H169.907ZM174.707 9.144C174.139 9.144 173.635 9.016 173.195 8.76C172.755 8.496 172.407 8.132 172.151 7.668C171.903 7.204 171.779 6.656 171.779 6.024C171.779 5.4 171.903 4.856 172.151 4.392C172.399 3.92 172.743 3.556 173.183 3.3C173.631 3.036 174.147 2.904 174.731 2.904C175.307 2.904 175.803 3.036 176.219 3.3C176.643 3.556 176.967 3.896 177.191 4.32C177.415 4.744 177.527 5.2 177.527 5.688C177.527 5.776 177.523 5.864 177.515 5.952C177.515 6.04 177.515 6.14 177.515 6.252H172.775C172.799 6.708 172.903 7.088 173.087 7.392C173.279 7.688 173.515 7.912 173.795 8.064C174.083 8.216 174.387 8.292 174.707 8.292C175.123 8.292 175.471 8.196 175.751 8.004C176.031 7.812 176.235 7.552 176.363 7.224H177.359C177.199 7.776 176.891 8.236 176.435 8.604C175.987 8.964 175.411 9.144 174.707 9.144ZM174.707 3.756C174.227 3.756 173.799 3.904 173.423 4.2C173.055 4.488 172.843 4.912 172.787 5.472H176.531C176.507 4.936 176.323 4.516 175.979 4.212C175.635 3.908 175.211 3.756 174.707 3.756ZM181.563 9.144C180.971 9.144 180.451 9.008 180.003 8.736C179.563 8.464 179.219 8.092 178.971 7.62C178.731 7.148 178.611 6.612 178.611 6.012C178.611 5.412 178.735 4.88 178.983 4.416C179.231 3.944 179.575 3.576 180.015 3.312C180.455 3.04 180.975 2.904 181.575 2.904C182.063 2.904 182.495 3.004 182.871 3.204C183.247 3.404 183.539 3.684 183.747 4.044V0.36H184.755V9H183.843L183.747 8.016C183.555 8.304 183.279 8.564 182.919 8.796C182.559 9.028 182.107 9.144 181.563 9.144ZM181.671 8.268C182.071 8.268 182.423 8.176 182.727 7.992C183.039 7.8 183.279 7.536 183.447 7.2C183.623 6.864 183.711 6.472 183.711 6.024C183.711 5.576 183.623 5.184 183.447 4.848C183.279 4.512 183.039 4.252 182.727 4.068C182.423 3.876 182.071 3.78 181.671 3.78C181.279 3.78 180.927 3.876 180.615 4.068C180.311 4.252 180.071 4.512 179.895 4.848C179.727 5.184 179.643 5.576 179.643 6.024C179.643 6.472 179.727 6.864 179.895 7.2C180.071 7.536 180.311 7.8 180.615 7.992C180.927 8.176 181.279 8.268 181.671 8.268ZM185.594 10.428L186.29 7.776H187.334L186.29 10.428H185.594ZM191.707 11.64V3.048H192.619L192.715 4.032C192.907 3.744 193.179 3.484 193.531 3.252C193.891 3.02 194.347 2.904 194.899 2.904C195.491 2.904 196.007 3.04 196.447 3.312C196.887 3.584 197.227 3.956 197.467 4.428C197.715 4.9 197.839 5.436 197.839 6.036C197.839 6.636 197.715 7.172 197.467 7.644C197.227 8.108 196.883 8.476 196.435 8.748C195.995 9.012 195.479 9.144 194.887 9.144C194.399 9.144 193.963 9.044 193.579 8.844C193.203 8.644 192.915 8.364 192.715 8.004V11.64H191.707ZM194.779 8.268C195.179 8.268 195.531 8.176 195.835 7.992C196.139 7.8 196.379 7.536 196.555 7.2C196.731 6.864 196.819 6.472 196.819 6.024C196.819 5.576 196.731 5.184 196.555 4.848C196.379 4.512 196.139 4.252 195.835 4.068C195.531 3.876 195.179 3.78 194.779 3.78C194.379 3.78 194.027 3.876 193.723 4.068C193.419 4.252 193.179 4.512 193.003 4.848C192.827 5.184 192.739 5.576 192.739 6.024C192.739 6.472 192.827 6.864 193.003 7.2C193.179 7.536 193.419 7.8 193.723 7.992C194.027 8.176 194.379 8.268 194.779 8.268ZM199.242 9V0.36H200.25V9H199.242ZM204.578 9.144C204.01 9.144 203.506 9.016 203.066 8.76C202.626 8.496 202.278 8.132 202.022 7.668C201.774 7.204 201.65 6.656 201.65 6.024C201.65 5.4 201.774 4.856 202.022 4.392C202.27 3.92 202.614 3.556 203.054 3.3C203.502 3.036 204.018 2.904 204.602 2.904C205.178 2.904 205.674 3.036 206.09 3.3C206.514 3.556 206.838 3.896 207.062 4.32C207.286 4.744 207.398 5.2 207.398 5.688C207.398 5.776 207.394 5.864 207.386 5.952C207.386 6.04 207.386 6.14 207.386 6.252H202.646C202.67 6.708 202.774 7.088 202.958 7.392C203.15 7.688 203.386 7.912 203.666 8.064C203.954 8.216 204.258 8.292 204.578 8.292C204.994 8.292 205.342 8.196 205.622 8.004C205.902 7.812 206.106 7.552 206.234 7.224H207.23C207.07 7.776 206.762 8.236 206.306 8.604C205.858 8.964 205.282 9.144 204.578 9.144ZM204.578 3.756C204.098 3.756 203.67 3.904 203.294 4.2C202.926 4.488 202.714 4.912 202.658 5.472H206.402C206.378 4.936 206.194 4.516 205.85 4.212C205.506 3.908 205.082 3.756 204.578 3.756ZM210.714 9.144C210.218 9.144 209.806 9.06 209.478 8.892C209.15 8.724 208.906 8.5 208.746 8.22C208.586 7.94 208.506 7.636 208.506 7.308C208.506 6.7 208.738 6.232 209.202 5.904C209.666 5.576 210.298 5.412 211.098 5.412H212.706V5.34C212.706 4.82 212.57 4.428 212.298 4.164C212.026 3.892 211.662 3.756 211.206 3.756C210.814 3.756 210.474 3.856 210.186 4.056C209.906 4.248 209.73 4.532 209.658 4.908H208.626C208.666 4.476 208.81 4.112 209.058 3.816C209.314 3.52 209.63 3.296 210.006 3.144C210.382 2.984 210.782 2.904 211.206 2.904C212.038 2.904 212.662 3.128 213.078 3.576C213.502 4.016 213.714 4.604 213.714 5.34V9H212.814L212.754 7.932C212.586 8.268 212.338 8.556 212.01 8.796C211.69 9.028 211.258 9.144 210.714 9.144ZM210.87 8.292C211.254 8.292 211.582 8.192 211.854 7.992C212.134 7.792 212.346 7.532 212.49 7.212C212.634 6.892 212.706 6.556 212.706 6.204V6.192H211.182C210.59 6.192 210.17 6.296 209.922 6.504C209.682 6.704 209.562 6.956 209.562 7.26C209.562 7.572 209.674 7.824 209.898 8.016C210.13 8.2 210.454 8.292 210.87 8.292ZM217.506 9.144C216.794 9.144 216.202 8.964 215.73 8.604C215.258 8.244 214.982 7.756 214.902 7.14H215.934C215.998 7.452 216.162 7.724 216.426 7.956C216.698 8.18 217.062 8.292 217.518 8.292C217.942 8.292 218.254 8.204 218.454 8.028C218.654 7.844 218.754 7.628 218.754 7.38C218.754 7.02 218.622 6.78 218.358 6.66C218.102 6.54 217.738 6.432 217.266 6.336C216.946 6.272 216.626 6.18 216.306 6.06C215.986 5.94 215.718 5.772 215.502 5.556C215.286 5.332 215.178 5.04 215.178 4.68C215.178 4.16 215.37 3.736 215.754 3.408C216.146 3.072 216.674 2.904 217.338 2.904C217.97 2.904 218.486 3.064 218.886 3.384C219.294 3.696 219.53 4.144 219.594 4.728H218.598C218.558 4.424 218.426 4.188 218.202 4.02C217.986 3.844 217.694 3.756 217.326 3.756C216.966 3.756 216.686 3.832 216.486 3.984C216.294 4.136 216.198 4.336 216.198 4.584C216.198 4.824 216.322 5.012 216.57 5.148C216.826 5.284 217.17 5.4 217.602 5.496C217.97 5.576 218.318 5.676 218.646 5.796C218.982 5.908 219.254 6.08 219.462 6.312C219.678 6.536 219.786 6.864 219.786 7.296C219.794 7.832 219.59 8.276 219.174 8.628C218.766 8.972 218.21 9.144 217.506 9.144ZM223.902 9.144C223.334 9.144 222.83 9.016 222.39 8.76C221.95 8.496 221.602 8.132 221.346 7.668C221.098 7.204 220.974 6.656 220.974 6.024C220.974 5.4 221.098 4.856 221.346 4.392C221.594 3.92 221.938 3.556 222.378 3.3C222.826 3.036 223.342 2.904 223.926 2.904C224.502 2.904 224.998 3.036 225.414 3.3C225.838 3.556 226.162 3.896 226.386 4.32C226.61 4.744 226.722 5.2 226.722 5.688C226.722 5.776 226.718 5.864 226.71 5.952C226.71 6.04 226.71 6.14 226.71 6.252H221.97C221.994 6.708 222.098 7.088 222.282 7.392C222.474 7.688 222.71 7.912 222.99 8.064C223.278 8.216 223.582 8.292 223.902 8.292C224.318 8.292 224.666 8.196 224.946 8.004C225.226 7.812 225.43 7.552 225.558 7.224H226.554C226.394 7.776 226.086 8.236 225.63 8.604C225.182 8.964 224.606 9.144 223.902 9.144ZM223.902 3.756C223.422 3.756 222.994 3.904 222.618 4.2C222.25 4.488 222.038 4.912 221.982 5.472H225.726C225.702 4.936 225.518 4.516 225.174 4.212C224.83 3.908 224.406 3.756 223.902 3.756ZM233.97 9.144C233.402 9.144 232.89 9.016 232.434 8.76C231.986 8.496 231.63 8.132 231.366 7.668C231.11 7.196 230.982 6.648 230.982 6.024C230.982 5.4 231.11 4.856 231.366 4.392C231.63 3.92 231.986 3.556 232.434 3.3C232.89 3.036 233.402 2.904 233.97 2.904C234.674 2.904 235.266 3.088 235.746 3.456C236.234 3.824 236.542 4.316 236.67 4.932H235.638C235.558 4.564 235.362 4.28 235.05 4.08C234.738 3.872 234.374 3.768 233.958 3.768C233.622 3.768 233.306 3.852 233.01 4.02C232.714 4.188 232.474 4.44 232.29 4.776C232.106 5.112 232.014 5.528 232.014 6.024C232.014 6.52 232.106 6.936 232.29 7.272C232.474 7.608 232.714 7.864 233.01 8.04C233.306 8.208 233.622 8.292 233.958 8.292C234.374 8.292 234.738 8.192 235.05 7.992C235.362 7.784 235.558 7.492 235.638 7.116H236.67C236.55 7.716 236.246 8.204 235.758 8.58C235.27 8.956 234.674 9.144 233.97 9.144ZM238.078 9V0.36H239.086V4.068C239.286 3.7 239.57 3.416 239.938 3.216C240.306 3.008 240.706 2.904 241.138 2.904C241.826 2.904 242.378 3.12 242.794 3.552C243.21 3.976 243.418 4.632 243.418 5.52V9H242.422V5.628C242.422 4.388 241.922 3.768 240.922 3.768C240.402 3.768 239.966 3.956 239.614 4.332C239.262 4.7 239.086 5.228 239.086 5.916V9H238.078ZM246.925 9.144C246.429 9.144 246.017 9.06 245.689 8.892C245.361 8.724 245.117 8.5 244.957 8.22C244.797 7.94 244.717 7.636 244.717 7.308C244.717 6.7 244.949 6.232 245.413 5.904C245.877 5.576 246.509 5.412 247.309 5.412H248.917V5.34C248.917 4.82 248.781 4.428 248.509 4.164C248.237 3.892 247.873 3.756 247.417 3.756C247.025 3.756 246.685 3.856 246.397 4.056C246.117 4.248 245.941 4.532 245.869 4.908H244.837C244.877 4.476 245.021 4.112 245.269 3.816C245.525 3.52 245.841 3.296 246.217 3.144C246.593 2.984 246.993 2.904 247.417 2.904C248.249 2.904 248.873 3.128 249.289 3.576C249.713 4.016 249.925 4.604 249.925 5.34V9H249.025L248.965 7.932C248.797 8.268 248.549 8.556 248.221 8.796C247.901 9.028 247.469 9.144 246.925 9.144ZM247.081 8.292C247.465 8.292 247.793 8.192 248.065 7.992C248.345 7.792 248.557 7.532 248.701 7.212C248.845 6.892 248.917 6.556 248.917 6.204V6.192H247.393C246.801 6.192 246.381 6.296 246.133 6.504C245.893 6.704 245.773 6.956 245.773 7.26C245.773 7.572 245.885 7.824 246.109 8.016C246.341 8.2 246.665 8.292 247.081 8.292ZM251.437 9V3.048H252.349L252.409 4.116C252.601 3.74 252.877 3.444 253.237 3.228C253.597 3.012 254.005 2.904 254.461 2.904C255.165 2.904 255.725 3.12 256.141 3.552C256.565 3.976 256.777 4.632 256.777 5.52V9H255.769V5.628C255.769 4.388 255.257 3.768 254.233 3.768C253.721 3.768 253.293 3.956 252.949 4.332C252.613 4.7 252.445 5.228 252.445 5.916V9H251.437ZM260.657 7.128C260.321 7.128 260.013 7.084 259.733 6.996L259.133 7.56C259.221 7.624 259.329 7.68 259.457 7.728C259.593 7.768 259.785 7.808 260.033 7.848C260.281 7.88 260.629 7.916 261.077 7.956C261.877 8.012 262.449 8.196 262.793 8.508C263.137 8.82 263.309 9.228 263.309 9.732C263.309 10.076 263.213 10.404 263.021 10.716C262.837 11.028 262.549 11.284 262.157 11.484C261.773 11.684 261.277 11.784 260.669 11.784C260.133 11.784 259.657 11.712 259.241 11.568C258.825 11.432 258.501 11.22 258.269 10.932C258.037 10.652 257.921 10.296 257.921 9.864C257.921 9.64 257.981 9.396 258.101 9.132C258.221 8.876 258.445 8.632 258.773 8.4C258.597 8.328 258.445 8.252 258.317 8.172C258.197 8.084 258.085 7.988 257.981 7.884V7.608L259.001 6.6C258.529 6.2 258.293 5.672 258.293 5.016C258.293 4.624 258.385 4.268 258.569 3.948C258.753 3.628 259.021 3.376 259.373 3.192C259.725 3 260.153 2.904 260.657 2.904C261.001 2.904 261.313 2.952 261.593 3.048H263.789V3.804L262.673 3.852C262.905 4.188 263.021 4.576 263.021 5.016C263.021 5.408 262.925 5.764 262.733 6.084C262.549 6.404 262.281 6.66 261.929 6.852C261.585 7.036 261.161 7.128 260.657 7.128ZM260.657 6.3C261.081 6.3 261.417 6.192 261.665 5.976C261.921 5.752 262.049 5.432 262.049 5.016C262.049 4.608 261.921 4.296 261.665 4.08C261.417 3.856 261.081 3.744 260.657 3.744C260.225 3.744 259.881 3.856 259.625 4.08C259.377 4.296 259.253 4.608 259.253 5.016C259.253 5.432 259.377 5.752 259.625 5.976C259.881 6.192 260.225 6.3 260.657 6.3ZM258.905 9.768C258.905 10.168 259.073 10.464 259.409 10.656C259.745 10.856 260.165 10.956 260.669 10.956C261.165 10.956 261.561 10.848 261.857 10.632C262.161 10.416 262.313 10.128 262.313 9.768C262.313 9.512 262.209 9.288 262.001 9.096C261.793 8.912 261.409 8.804 260.849 8.772C260.409 8.74 260.029 8.7 259.709 8.652C259.381 8.828 259.165 9.016 259.061 9.216C258.957 9.424 258.905 9.608 258.905 9.768ZM267.367 9.144C266.799 9.144 266.295 9.016 265.855 8.76C265.415 8.496 265.067 8.132 264.811 7.668C264.563 7.204 264.439 6.656 264.439 6.024C264.439 5.4 264.563 4.856 264.811 4.392C265.059 3.92 265.403 3.556 265.843 3.3C266.291 3.036 266.807 2.904 267.391 2.904C267.967 2.904 268.463 3.036 268.879 3.3C269.303 3.556 269.627 3.896 269.851 4.32C270.075 4.744 270.187 5.2 270.187 5.688C270.187 5.776 270.183 5.864 270.175 5.952C270.175 6.04 270.175 6.14 270.175 6.252H265.435C265.459 6.708 265.563 7.088 265.747 7.392C265.939 7.688 266.175 7.912 266.455 8.064C266.743 8.216 267.047 8.292 267.367 8.292C267.783 8.292 268.131 8.196 268.411 8.004C268.691 7.812 268.895 7.552 269.023 7.224H270.019C269.859 7.776 269.551 8.236 269.095 8.604C268.647 8.964 268.071 9.144 267.367 9.144ZM267.367 3.756C266.887 3.756 266.459 3.904 266.083 4.2C265.715 4.488 265.503 4.912 265.447 5.472H269.191C269.167 4.936 268.983 4.516 268.639 4.212C268.295 3.908 267.871 3.756 267.367 3.756ZM275.347 11.64L276.823 8.424H276.475L274.111 3.048H275.203L277.171 7.68L279.259 3.048H280.303L276.403 11.64H275.347ZM283.517 9.144C282.957 9.144 282.453 9.016 282.005 8.76C281.557 8.504 281.201 8.144 280.937 7.68C280.681 7.208 280.553 6.656 280.553 6.024C280.553 5.392 280.685 4.844 280.949 4.38C281.213 3.908 281.569 3.544 282.017 3.288C282.473 3.032 282.981 2.904 283.541 2.904C284.101 2.904 284.605 3.032 285.053 3.288C285.501 3.544 285.853 3.908 286.109 4.38C286.373 4.844 286.505 5.392 286.505 6.024C286.505 6.656 286.373 7.208 286.109 7.68C285.845 8.144 285.485 8.504 285.029 8.76C284.581 9.016 284.077 9.144 283.517 9.144ZM283.517 8.28C283.861 8.28 284.181 8.196 284.477 8.028C284.773 7.86 285.013 7.608 285.197 7.272C285.381 6.936 285.473 6.52 285.473 6.024C285.473 5.528 285.381 5.112 285.197 4.776C285.021 4.44 284.785 4.188 284.489 4.02C284.193 3.852 283.877 3.768 283.541 3.768C283.197 3.768 282.877 3.852 282.581 4.02C282.285 4.188 282.045 4.44 281.861 4.776C281.677 5.112 281.585 5.528 281.585 6.024C281.585 6.52 281.677 6.936 281.861 7.272C282.045 7.608 282.281 7.86 282.569 8.028C282.865 8.196 283.181 8.28 283.517 8.28ZM290.078 9.144C289.374 9.144 288.814 8.932 288.398 8.508C287.982 8.076 287.774 7.416 287.774 6.528V3.048H288.782V6.42C288.782 7.66 289.29 8.28 290.306 8.28C290.826 8.28 291.254 8.096 291.59 7.728C291.934 7.352 292.106 6.82 292.106 6.132V3.048H293.114V9H292.202L292.13 7.932C291.946 8.308 291.67 8.604 291.302 8.82C290.942 9.036 290.534 9.144 290.078 9.144ZM294.773 9V3.048H295.685L295.769 4.188C295.953 3.796 296.233 3.484 296.609 3.252C296.985 3.02 297.449 2.904 298.001 2.904V3.96H297.725C297.373 3.96 297.049 4.024 296.753 4.152C296.457 4.272 296.221 4.48 296.045 4.776C295.869 5.072 295.781 5.48 295.781 6V9H294.773ZM31.9686 30.64V22.048H32.8806L32.9766 23.032C33.1686 22.744 33.4406 22.484 33.7926 22.252C34.1526 22.02 34.6086 21.904 35.1606 21.904C35.7526 21.904 36.2686 22.04 36.7086 22.312C37.1486 22.584 37.4886 22.956 37.7286 23.428C37.9766 23.9 38.1006 24.436 38.1006 25.036C38.1006 25.636 37.9766 26.172 37.7286 26.644C37.4886 27.108 37.1446 27.476 36.6966 27.748C36.2566 28.012 35.7406 28.144 35.1486 28.144C34.6606 28.144 34.2246 28.044 33.8406 27.844C33.4646 27.644 33.1766 27.364 32.9766 27.004V30.64H31.9686ZM35.0406 27.268C35.4406 27.268 35.7926 27.176 36.0966 26.992C36.4006 26.8 36.6406 26.536 36.8166 26.2C36.9926 25.864 37.0806 25.472 37.0806 25.024C37.0806 24.576 36.9926 24.184 36.8166 23.848C36.6406 23.512 36.4006 23.252 36.0966 23.068C35.7926 22.876 35.4406 22.78 35.0406 22.78C34.6406 22.78 34.2886 22.876 33.9846 23.068C33.6806 23.252 33.4406 23.512 33.2646 23.848C33.0886 24.184 33.0006 24.576 33.0006 25.024C33.0006 25.472 33.0886 25.864 33.2646 26.2C33.4406 26.536 33.6806 26.8 33.9846 26.992C34.2886 27.176 34.6406 27.268 35.0406 27.268ZM41.4838 28.144C40.9878 28.144 40.5758 28.06 40.2478 27.892C39.9198 27.724 39.6758 27.5 39.5158 27.22C39.3558 26.94 39.2758 26.636 39.2758 26.308C39.2758 25.7 39.5078 25.232 39.9718 24.904C40.4358 24.576 41.0678 24.412 41.8678 24.412H43.4758V24.34C43.4758 23.82 43.3398 23.428 43.0678 23.164C42.7958 22.892 42.4318 22.756 41.9758 22.756C41.5838 22.756 41.2438 22.856 40.9558 23.056C40.6758 23.248 40.4998 23.532 40.4278 23.908H39.3958C39.4358 23.476 39.5798 23.112 39.8278 22.816C40.0838 22.52 40.3998 22.296 40.7758 22.144C41.1518 21.984 41.5518 21.904 41.9758 21.904C42.8078 21.904 43.4318 22.128 43.8478 22.576C44.2718 23.016 44.4838 23.604 44.4838 24.34V28H43.5838L43.5238 26.932C43.3558 27.268 43.1078 27.556 42.7798 27.796C42.4598 28.028 42.0278 28.144 41.4838 28.144ZM41.6398 27.292C42.0238 27.292 42.3518 27.192 42.6238 26.992C42.9038 26.792 43.1158 26.532 43.2598 26.212C43.4038 25.892 43.4758 25.556 43.4758 25.204V25.192H41.9518C41.3598 25.192 40.9398 25.296 40.6918 25.504C40.4518 25.704 40.3318 25.956 40.3318 26.26C40.3318 26.572 40.4438 26.824 40.6678 27.016C40.8998 27.2 41.2238 27.292 41.6398 27.292ZM48.276 28.144C47.564 28.144 46.972 27.964 46.5 27.604C46.028 27.244 45.752 26.756 45.672 26.14H46.704C46.768 26.452 46.932 26.724 47.196 26.956C47.468 27.18 47.832 27.292 48.288 27.292C48.712 27.292 49.024 27.204 49.224 27.028C49.424 26.844 49.524 26.628 49.524 26.38C49.524 26.02 49.392 25.78 49.128 25.66C48.872 25.54 48.508 25.432 48.036 25.336C47.716 25.272 47.396 25.18 47.076 25.06C46.756 24.94 46.488 24.772 46.272 24.556C46.056 24.332 45.948 24.04 45.948 23.68C45.948 23.16 46.14 22.736 46.524 22.408C46.916 22.072 47.444 21.904 48.108 21.904C48.74 21.904 49.256 22.064 49.656 22.384C50.064 22.696 50.3 23.144 50.364 23.728H49.368C49.328 23.424 49.196 23.188 48.972 23.02C48.756 22.844 48.464 22.756 48.096 22.756C47.736 22.756 47.456 22.832 47.256 22.984C47.064 23.136 46.968 23.336 46.968 23.584C46.968 23.824 47.092 24.012 47.34 24.148C47.596 24.284 47.94 24.4 48.372 24.496C48.74 24.576 49.088 24.676 49.416 24.796C49.752 24.908 50.024 25.08 50.232 25.312C50.448 25.536 50.556 25.864 50.556 26.296C50.564 26.832 50.36 27.276 49.944 27.628C49.536 27.972 48.98 28.144 48.276 28.144ZM54.276 28.144C53.564 28.144 52.972 27.964 52.5 27.604C52.028 27.244 51.752 26.756 51.672 26.14H52.704C52.768 26.452 52.932 26.724 53.196 26.956C53.468 27.18 53.832 27.292 54.288 27.292C54.712 27.292 55.024 27.204 55.224 27.028C55.424 26.844 55.524 26.628 55.524 26.38C55.524 26.02 55.392 25.78 55.128 25.66C54.872 25.54 54.508 25.432 54.036 25.336C53.716 25.272 53.396 25.18 53.076 25.06C52.756 24.94 52.488 24.772 52.272 24.556C52.056 24.332 51.948 24.04 51.948 23.68C51.948 23.16 52.14 22.736 52.524 22.408C52.916 22.072 53.444 21.904 54.108 21.904C54.74 21.904 55.256 22.064 55.656 22.384C56.064 22.696 56.3 23.144 56.364 23.728H55.368C55.328 23.424 55.196 23.188 54.972 23.02C54.756 22.844 54.464 22.756 54.096 22.756C53.736 22.756 53.456 22.832 53.256 22.984C53.064 23.136 52.968 23.336 52.968 23.584C52.968 23.824 53.092 24.012 53.34 24.148C53.596 24.284 53.94 24.4 54.372 24.496C54.74 24.576 55.088 24.676 55.416 24.796C55.752 24.908 56.024 25.08 56.232 25.312C56.448 25.536 56.556 25.864 56.556 26.296C56.564 26.832 56.36 27.276 55.944 27.628C55.536 27.972 54.98 28.144 54.276 28.144ZM58.9733 28L57.2333 22.048H58.2413L59.5013 26.716L60.8933 22.048H62.0333L63.4373 26.716L64.6853 22.048H65.7053L63.9653 28H62.9333L61.4693 23.092L60.0053 28H58.9733ZM69.3095 28.144C68.7495 28.144 68.2455 28.016 67.7975 27.76C67.3495 27.504 66.9935 27.144 66.7295 26.68C66.4735 26.208 66.3455 25.656 66.3455 25.024C66.3455 24.392 66.4775 23.844 66.7415 23.38C67.0055 22.908 67.3615 22.544 67.8095 22.288C68.2655 22.032 68.7735 21.904 69.3335 21.904C69.8935 21.904 70.3975 22.032 70.8455 22.288C71.2935 22.544 71.6455 22.908 71.9015 23.38C72.1655 23.844 72.2975 24.392 72.2975 25.024C72.2975 25.656 72.1655 26.208 71.9015 26.68C71.6375 27.144 71.2775 27.504 70.8215 27.76C70.3735 28.016 69.8695 28.144 69.3095 28.144ZM69.3095 27.28C69.6535 27.28 69.9735 27.196 70.2695 27.028C70.5655 26.86 70.8055 26.608 70.9895 26.272C71.1735 25.936 71.2655 25.52 71.2655 25.024C71.2655 24.528 71.1735 24.112 70.9895 23.776C70.8135 23.44 70.5775 23.188 70.2815 23.02C69.9855 22.852 69.6695 22.768 69.3335 22.768C68.9895 22.768 68.6695 22.852 68.3735 23.02C68.0775 23.188 67.8375 23.44 67.6535 23.776C67.4695 24.112 67.3775 24.528 67.3775 25.024C67.3775 25.52 67.4695 25.936 67.6535 26.272C67.8375 26.608 68.0735 26.86 68.3615 27.028C68.6575 27.196 68.9735 27.28 69.3095 27.28ZM73.6991 28V22.048H74.6111L74.6951 23.188C74.8791 22.796 75.1591 22.484 75.5351 22.252C75.9111 22.02 76.3751 21.904 76.9271 21.904V22.96H76.6511C76.2991 22.96 75.9751 23.024 75.6791 23.152C75.3831 23.272 75.1471 23.48 74.9711 23.776C74.7951 24.072 74.7071 24.48 74.7071 25V28H73.6991ZM80.5358 28.144C79.9438 28.144 79.4238 28.008 78.9758 27.736C78.5358 27.464 78.1918 27.092 77.9438 26.62C77.7038 26.148 77.5838 25.612 77.5838 25.012C77.5838 24.412 77.7078 23.88 77.9558 23.416C78.2038 22.944 78.5478 22.576 78.9878 22.312C79.4278 22.04 79.9478 21.904 80.5478 21.904C81.0358 21.904 81.4678 22.004 81.8438 22.204C82.2198 22.404 82.5118 22.684 82.7198 23.044V19.36H83.7278V28H82.8158L82.7198 27.016C82.5278 27.304 82.2518 27.564 81.8918 27.796C81.5318 28.028 81.0798 28.144 80.5358 28.144ZM80.6438 27.268C81.0438 27.268 81.3958 27.176 81.6998 26.992C82.0118 26.8 82.2518 26.536 82.4198 26.2C82.5958 25.864 82.6838 25.472 82.6838 25.024C82.6838 24.576 82.5958 24.184 82.4198 23.848C82.2518 23.512 82.0118 23.252 81.6998 23.068C81.3958 22.876 81.0438 22.78 80.6438 22.78C80.2518 22.78 79.8998 22.876 79.5878 23.068C79.2838 23.252 79.0438 23.512 78.8678 23.848C78.6998 24.184 78.6158 24.576 78.6158 25.024C78.6158 25.472 78.6998 25.864 78.8678 26.2C79.0438 26.536 79.2838 26.8 79.5878 26.992C79.8998 27.176 80.2518 27.268 80.6438 27.268ZM88.5468 28V22.048H89.4588L89.5428 23.188C89.7268 22.796 90.0068 22.484 90.3828 22.252C90.7588 22.02 91.2228 21.904 91.7748 21.904V22.96H91.4988C91.1468 22.96 90.8228 23.024 90.5268 23.152C90.2308 23.272 89.9948 23.48 89.8188 23.776C89.6428 24.072 89.5548 24.48 89.5548 25V28H88.5468ZM95.3595 28.144C94.7915 28.144 94.2875 28.016 93.8475 27.76C93.4075 27.496 93.0595 27.132 92.8035 26.668C92.5555 26.204 92.4315 25.656 92.4315 25.024C92.4315 24.4 92.5555 23.856 92.8035 23.392C93.0515 22.92 93.3955 22.556 93.8355 22.3C94.2835 22.036 94.7995 21.904 95.3835 21.904C95.9595 21.904 96.4555 22.036 96.8715 22.3C97.2955 22.556 97.6195 22.896 97.8435 23.32C98.0675 23.744 98.1795 24.2 98.1795 24.688C98.1795 24.776 98.1755 24.864 98.1675 24.952C98.1675 25.04 98.1675 25.14 98.1675 25.252H93.4275C93.4515 25.708 93.5555 26.088 93.7395 26.392C93.9315 26.688 94.1675 26.912 94.4475 27.064C94.7355 27.216 95.0395 27.292 95.3595 27.292C95.7755 27.292 96.1235 27.196 96.4035 27.004C96.6835 26.812 96.8875 26.552 97.0155 26.224H98.0115C97.8515 26.776 97.5435 27.236 97.0875 27.604C96.6395 27.964 96.0635 28.144 95.3595 28.144ZM95.3595 22.756C94.8795 22.756 94.4515 22.904 94.0755 23.2C93.7075 23.488 93.4955 23.912 93.4395 24.472H97.1835C97.1595 23.936 96.9755 23.516 96.6315 23.212C96.2875 22.908 95.8635 22.756 95.3595 22.756ZM101.832 26.128C101.496 26.128 101.188 26.084 100.908 25.996L100.308 26.56C100.396 26.624 100.504 26.68 100.632 26.728C100.768 26.768 100.96 26.808 101.208 26.848C101.456 26.88 101.804 26.916 102.252 26.956C103.052 27.012 103.624 27.196 103.968 27.508C104.312 27.82 104.484 28.228 104.484 28.732C104.484 29.076 104.388 29.404 104.196 29.716C104.012 30.028 103.724 30.284 103.332 30.484C102.948 30.684 102.452 30.784 101.844 30.784C101.308 30.784 100.832 30.712 100.416 30.568C100 30.432 99.6763 30.22 99.4443 29.932C99.2123 29.652 99.0963 29.296 99.0963 28.864C99.0963 28.64 99.1563 28.396 99.2763 28.132C99.3963 27.876 99.6203 27.632 99.9483 27.4C99.7723 27.328 99.6203 27.252 99.4923 27.172C99.3723 27.084 99.2603 26.988 99.1563 26.884V26.608L100.176 25.6C99.7043 25.2 99.4683 24.672 99.4683 24.016C99.4683 23.624 99.5603 23.268 99.7443 22.948C99.9283 22.628 100.196 22.376 100.548 22.192C100.9 22 101.328 21.904 101.832 21.904C102.176 21.904 102.488 21.952 102.768 22.048H104.964V22.804L103.848 22.852C104.08 23.188 104.196 23.576 104.196 24.016C104.196 24.408 104.1 24.764 103.908 25.084C103.724 25.404 103.456 25.66 103.104 25.852C102.76 26.036 102.336 26.128 101.832 26.128ZM101.832 25.3C102.256 25.3 102.592 25.192 102.84 24.976C103.096 24.752 103.224 24.432 103.224 24.016C103.224 23.608 103.096 23.296 102.84 23.08C102.592 22.856 102.256 22.744 101.832 22.744C101.4 22.744 101.056 22.856 100.8 23.08C100.552 23.296 100.428 23.608 100.428 24.016C100.428 24.432 100.552 24.752 100.8 24.976C101.056 25.192 101.4 25.3 101.832 25.3ZM100.08 28.768C100.08 29.168 100.248 29.464 100.584 29.656C100.92 29.856 101.34 29.956 101.844 29.956C102.34 29.956 102.736 29.848 103.032 29.632C103.336 29.416 103.488 29.128 103.488 28.768C103.488 28.512 103.384 28.288 103.176 28.096C102.968 27.912 102.584 27.804 102.024 27.772C101.584 27.74 101.204 27.7 100.884 27.652C100.556 27.828 100.34 28.016 100.236 28.216C100.132 28.424 100.08 28.608 100.08 28.768ZM108.273 28.144C107.569 28.144 107.009 27.932 106.593 27.508C106.177 27.076 105.969 26.416 105.969 25.528V22.048H106.977V25.42C106.977 26.66 107.485 27.28 108.501 27.28C109.021 27.28 109.449 27.096 109.785 26.728C110.129 26.352 110.301 25.82 110.301 25.132V22.048H111.309V28H110.397L110.325 26.932C110.141 27.308 109.865 27.604 109.497 27.82C109.137 28.036 108.729 28.144 108.273 28.144ZM112.969 28V19.36H113.977V28H112.969ZM117.609 28.144C117.113 28.144 116.701 28.06 116.373 27.892C116.045 27.724 115.801 27.5 115.641 27.22C115.481 26.94 115.401 26.636 115.401 26.308C115.401 25.7 115.633 25.232 116.097 24.904C116.561 24.576 117.193 24.412 117.993 24.412H119.601V24.34C119.601 23.82 119.465 23.428 119.193 23.164C118.921 22.892 118.557 22.756 118.101 22.756C117.709 22.756 117.369 22.856 117.081 23.056C116.801 23.248 116.625 23.532 116.553 23.908H115.521C115.561 23.476 115.705 23.112 115.953 22.816C116.209 22.52 116.525 22.296 116.901 22.144C117.277 21.984 117.677 21.904 118.101 21.904C118.933 21.904 119.557 22.128 119.973 22.576C120.397 23.016 120.609 23.604 120.609 24.34V28H119.709L119.649 26.932C119.481 27.268 119.233 27.556 118.905 27.796C118.585 28.028 118.153 28.144 117.609 28.144ZM117.765 27.292C118.149 27.292 118.477 27.192 118.749 26.992C119.029 26.792 119.241 26.532 119.385 26.212C119.529 25.892 119.601 25.556 119.601 25.204V25.192H118.077C117.485 25.192 117.065 25.296 116.817 25.504C116.577 25.704 116.457 25.956 116.457 26.26C116.457 26.572 116.569 26.824 116.793 27.016C117.025 27.2 117.349 27.292 117.765 27.292ZM122.121 28V22.048H123.033L123.117 23.188C123.301 22.796 123.581 22.484 123.957 22.252C124.333 22.02 124.797 21.904 125.349 21.904V22.96H125.073C124.721 22.96 124.397 23.024 124.101 23.152C123.805 23.272 123.569 23.48 123.393 23.776C123.217 24.072 123.129 24.48 123.129 25V28H122.121ZM126.48 28V19.36H127.488V28H126.48ZM129.789 30.64L131.265 27.424H130.917L128.553 22.048H129.645L131.613 26.68L133.701 22.048H134.745L130.845 30.64H129.789ZM141.336 28C140.792 28 140.364 27.868 140.052 27.604C139.74 27.34 139.584 26.864 139.584 26.176V22.9H138.552V22.048H139.584L139.716 20.62H140.592V22.048H142.344V22.9H140.592V26.176C140.592 26.552 140.668 26.808 140.82 26.944C140.972 27.072 141.24 27.136 141.624 27.136H142.248V28H141.336ZM146.173 28.144C145.613 28.144 145.109 28.016 144.661 27.76C144.213 27.504 143.857 27.144 143.593 26.68C143.337 26.208 143.209 25.656 143.209 25.024C143.209 24.392 143.341 23.844 143.605 23.38C143.869 22.908 144.225 22.544 144.673 22.288C145.129 22.032 145.637 21.904 146.197 21.904C146.757 21.904 147.261 22.032 147.709 22.288C148.157 22.544 148.509 22.908 148.765 23.38C149.029 23.844 149.161 24.392 149.161 25.024C149.161 25.656 149.029 26.208 148.765 26.68C148.501 27.144 148.141 27.504 147.685 27.76C147.237 28.016 146.733 28.144 146.173 28.144ZM146.173 27.28C146.517 27.28 146.837 27.196 147.133 27.028C147.429 26.86 147.669 26.608 147.853 26.272C148.037 25.936 148.129 25.52 148.129 25.024C148.129 24.528 148.037 24.112 147.853 23.776C147.677 23.44 147.441 23.188 147.145 23.02C146.849 22.852 146.533 22.768 146.197 22.768C145.853 22.768 145.533 22.852 145.237 23.02C144.941 23.188 144.701 23.44 144.517 23.776C144.333 24.112 144.241 24.528 144.241 25.024C144.241 25.52 144.333 25.936 144.517 26.272C144.701 26.608 144.937 26.86 145.225 27.028C145.521 27.196 145.837 27.28 146.173 27.28ZM155.718 28.144C155.222 28.144 154.81 28.06 154.482 27.892C154.154 27.724 153.91 27.5 153.75 27.22C153.59 26.94 153.51 26.636 153.51 26.308C153.51 25.7 153.742 25.232 154.206 24.904C154.67 24.576 155.302 24.412 156.102 24.412H157.71V24.34C157.71 23.82 157.574 23.428 157.302 23.164C157.03 22.892 156.666 22.756 156.21 22.756C155.818 22.756 155.478 22.856 155.19 23.056C154.91 23.248 154.734 23.532 154.662 23.908H153.63C153.67 23.476 153.814 23.112 154.062 22.816C154.318 22.52 154.634 22.296 155.01 22.144C155.386 21.984 155.786 21.904 156.21 21.904C157.042 21.904 157.666 22.128 158.082 22.576C158.506 23.016 158.718 23.604 158.718 24.34V28H157.818L157.758 26.932C157.59 27.268 157.342 27.556 157.014 27.796C156.694 28.028 156.262 28.144 155.718 28.144ZM155.874 27.292C156.258 27.292 156.586 27.192 156.858 26.992C157.138 26.792 157.35 26.532 157.494 26.212C157.638 25.892 157.71 25.556 157.71 25.204V25.192H156.186C155.594 25.192 155.174 25.296 154.926 25.504C154.686 25.704 154.566 25.956 154.566 26.26C154.566 26.572 154.678 26.824 154.902 27.016C155.134 27.2 155.458 27.292 155.874 27.292ZM161.724 28L159.468 22.048H160.524L162.312 27.028L164.112 22.048H165.144L162.888 28H161.724ZM168.673 28.144C168.113 28.144 167.609 28.016 167.161 27.76C166.713 27.504 166.357 27.144 166.093 26.68C165.837 26.208 165.709 25.656 165.709 25.024C165.709 24.392 165.841 23.844 166.105 23.38C166.369 22.908 166.725 22.544 167.173 22.288C167.629 22.032 168.137 21.904 168.697 21.904C169.257 21.904 169.761 22.032 170.209 22.288C170.657 22.544 171.009 22.908 171.265 23.38C171.529 23.844 171.661 24.392 171.661 25.024C171.661 25.656 171.529 26.208 171.265 26.68C171.001 27.144 170.641 27.504 170.185 27.76C169.737 28.016 169.233 28.144 168.673 28.144ZM168.673 27.28C169.017 27.28 169.337 27.196 169.633 27.028C169.929 26.86 170.169 26.608 170.353 26.272C170.537 25.936 170.629 25.52 170.629 25.024C170.629 24.528 170.537 24.112 170.353 23.776C170.177 23.44 169.941 23.188 169.645 23.02C169.349 22.852 169.033 22.768 168.697 22.768C168.353 22.768 168.033 22.852 167.737 23.02C167.441 23.188 167.201 23.44 167.017 23.776C166.833 24.112 166.741 24.528 166.741 25.024C166.741 25.52 166.833 25.936 167.017 26.272C167.201 26.608 167.437 26.86 167.725 27.028C168.021 27.196 168.337 27.28 168.673 27.28ZM173.674 20.728C173.474 20.728 173.306 20.664 173.17 20.536C173.042 20.4 172.978 20.232 172.978 20.032C172.978 19.84 173.042 19.68 173.17 19.552C173.306 19.424 173.474 19.36 173.674 19.36C173.866 19.36 174.03 19.424 174.166 19.552C174.302 19.68 174.37 19.84 174.37 20.032C174.37 20.232 174.302 20.4 174.166 20.536C174.03 20.664 173.866 20.728 173.674 20.728ZM173.17 28V22.048H174.178V28H173.17ZM178.633 28.144C178.041 28.144 177.521 28.008 177.073 27.736C176.633 27.464 176.289 27.092 176.041 26.62C175.801 26.148 175.681 25.612 175.681 25.012C175.681 24.412 175.805 23.88 176.053 23.416C176.301 22.944 176.645 22.576 177.085 22.312C177.525 22.04 178.045 21.904 178.645 21.904C179.133 21.904 179.565 22.004 179.941 22.204C180.317 22.404 180.609 22.684 180.817 23.044V19.36H181.825V28H180.913L180.817 27.016C180.625 27.304 180.349 27.564 179.989 27.796C179.629 28.028 179.177 28.144 178.633 28.144ZM178.741 27.268C179.141 27.268 179.493 27.176 179.797 26.992C180.109 26.8 180.349 26.536 180.517 26.2C180.693 25.864 180.781 25.472 180.781 25.024C180.781 24.576 180.693 24.184 180.517 23.848C180.349 23.512 180.109 23.252 179.797 23.068C179.493 22.876 179.141 22.78 178.741 22.78C178.349 22.78 177.997 22.876 177.685 23.068C177.381 23.252 177.141 23.512 176.965 23.848C176.797 24.184 176.713 24.576 176.713 25.024C176.713 25.472 176.797 25.864 176.965 26.2C177.141 26.536 177.381 26.8 177.685 26.992C177.997 27.176 178.349 27.268 178.741 27.268ZM188.996 28C188.452 28 188.024 27.868 187.712 27.604C187.4 27.34 187.244 26.864 187.244 26.176V22.9H186.212V22.048H187.244L187.376 20.62H188.252V22.048H190.004V22.9H188.252V26.176C188.252 26.552 188.328 26.808 188.48 26.944C188.632 27.072 188.9 27.136 189.284 27.136H189.908V28H188.996ZM191.285 28V19.36H192.293V23.068C192.493 22.7 192.777 22.416 193.145 22.216C193.513 22.008 193.913 21.904 194.345 21.904C195.033 21.904 195.585 22.12 196.001 22.552C196.417 22.976 196.625 23.632 196.625 24.52V28H195.629V24.628C195.629 23.388 195.129 22.768 194.129 22.768C193.609 22.768 193.173 22.956 192.821 23.332C192.469 23.7 192.293 24.228 192.293 24.916V28H191.285ZM198.764 20.728C198.564 20.728 198.396 20.664 198.26 20.536C198.132 20.4 198.068 20.232 198.068 20.032C198.068 19.84 198.132 19.68 198.26 19.552C198.396 19.424 198.564 19.36 198.764 19.36C198.956 19.36 199.12 19.424 199.256 19.552C199.392 19.68 199.46 19.84 199.46 20.032C199.46 20.232 199.392 20.4 199.256 20.536C199.12 20.664 198.956 20.728 198.764 20.728ZM198.26 28V22.048H199.268V28H198.26ZM203.303 28.144C202.591 28.144 201.999 27.964 201.527 27.604C201.055 27.244 200.779 26.756 200.699 26.14H201.731C201.795 26.452 201.959 26.724 202.223 26.956C202.495 27.18 202.859 27.292 203.315 27.292C203.739 27.292 204.051 27.204 204.251 27.028C204.451 26.844 204.551 26.628 204.551 26.38C204.551 26.02 204.419 25.78 204.155 25.66C203.899 25.54 203.535 25.432 203.063 25.336C202.743 25.272 202.423 25.18 202.103 25.06C201.783 24.94 201.515 24.772 201.299 24.556C201.083 24.332 200.975 24.04 200.975 23.68C200.975 23.16 201.167 22.736 201.551 22.408C201.943 22.072 202.471 21.904 203.135 21.904C203.767 21.904 204.283 22.064 204.683 22.384C205.091 22.696 205.327 23.144 205.391 23.728H204.395C204.355 23.424 204.223 23.188 203.999 23.02C203.783 22.844 203.491 22.756 203.123 22.756C202.763 22.756 202.483 22.832 202.283 22.984C202.091 23.136 201.995 23.336 201.995 23.584C201.995 23.824 202.119 24.012 202.367 24.148C202.623 24.284 202.967 24.4 203.399 24.496C203.767 24.576 204.115 24.676 204.443 24.796C204.779 24.908 205.051 25.08 205.259 25.312C205.475 25.536 205.583 25.864 205.583 26.296C205.591 26.832 205.387 27.276 204.971 27.628C204.563 27.972 204.007 28.144 203.303 28.144ZM210.199 28V19.36H211.207V23.068C211.407 22.7 211.691 22.416 212.059 22.216C212.427 22.008 212.827 21.904 213.259 21.904C213.947 21.904 214.499 22.12 214.915 22.552C215.331 22.976 215.539 23.632 215.539 24.52V28H214.543V24.628C214.543 23.388 214.043 22.768 213.043 22.768C212.523 22.768 212.087 22.956 211.735 23.332C211.383 23.7 211.207 24.228 211.207 24.916V28H210.199ZM219.046 28.144C218.55 28.144 218.138 28.06 217.81 27.892C217.482 27.724 217.238 27.5 217.078 27.22C216.918 26.94 216.838 26.636 216.838 26.308C216.838 25.7 217.07 25.232 217.534 24.904C217.998 24.576 218.63 24.412 219.43 24.412H221.038V24.34C221.038 23.82 220.902 23.428 220.63 23.164C220.358 22.892 219.994 22.756 219.538 22.756C219.146 22.756 218.806 22.856 218.518 23.056C218.238 23.248 218.062 23.532 217.99 23.908H216.958C216.998 23.476 217.142 23.112 217.39 22.816C217.646 22.52 217.962 22.296 218.338 22.144C218.714 21.984 219.114 21.904 219.538 21.904C220.37 21.904 220.994 22.128 221.41 22.576C221.834 23.016 222.046 23.604 222.046 24.34V28H221.146L221.086 26.932C220.918 27.268 220.67 27.556 220.342 27.796C220.022 28.028 219.59 28.144 219.046 28.144ZM219.202 27.292C219.586 27.292 219.914 27.192 220.186 26.992C220.466 26.792 220.678 26.532 220.822 26.212C220.966 25.892 221.038 25.556 221.038 25.204V25.192H219.514C218.922 25.192 218.502 25.296 218.254 25.504C218.014 25.704 217.894 25.956 217.894 26.26C217.894 26.572 218.006 26.824 218.23 27.016C218.462 27.2 218.786 27.292 219.202 27.292ZM223.558 30.64V22.048H224.47L224.566 23.032C224.758 22.744 225.03 22.484 225.382 22.252C225.742 22.02 226.198 21.904 226.75 21.904C227.342 21.904 227.858 22.04 228.298 22.312C228.738 22.584 229.078 22.956 229.318 23.428C229.566 23.9 229.69 24.436 229.69 25.036C229.69 25.636 229.566 26.172 229.318 26.644C229.078 27.108 228.734 27.476 228.286 27.748C227.846 28.012 227.33 28.144 226.738 28.144C226.25 28.144 225.814 28.044 225.43 27.844C225.054 27.644 224.766 27.364 224.566 27.004V30.64H223.558ZM226.63 27.268C227.03 27.268 227.382 27.176 227.686 26.992C227.99 26.8 228.23 26.536 228.406 26.2C228.582 25.864 228.67 25.472 228.67 25.024C228.67 24.576 228.582 24.184 228.406 23.848C228.23 23.512 227.99 23.252 227.686 23.068C227.382 22.876 227.03 22.78 226.63 22.78C226.23 22.78 225.878 22.876 225.574 23.068C225.27 23.252 225.03 23.512 224.854 23.848C224.678 24.184 224.59 24.576 224.59 25.024C224.59 25.472 224.678 25.864 224.854 26.2C225.03 26.536 225.27 26.8 225.574 26.992C225.878 27.176 226.23 27.268 226.63 27.268ZM231.094 30.64V22.048H232.006L232.102 23.032C232.294 22.744 232.566 22.484 232.918 22.252C233.278 22.02 233.734 21.904 234.286 21.904C234.878 21.904 235.394 22.04 235.834 22.312C236.274 22.584 236.614 22.956 236.854 23.428C237.102 23.9 237.226 24.436 237.226 25.036C237.226 25.636 237.102 26.172 236.854 26.644C236.614 27.108 236.27 27.476 235.822 27.748C235.382 28.012 234.866 28.144 234.274 28.144C233.786 28.144 233.35 28.044 232.966 27.844C232.59 27.644 232.302 27.364 232.102 27.004V30.64H231.094ZM234.166 27.268C234.566 27.268 234.918 27.176 235.222 26.992C235.526 26.8 235.766 26.536 235.942 26.2C236.118 25.864 236.206 25.472 236.206 25.024C236.206 24.576 236.118 24.184 235.942 23.848C235.766 23.512 235.526 23.252 235.222 23.068C234.918 22.876 234.566 22.78 234.166 22.78C233.766 22.78 233.414 22.876 233.11 23.068C232.806 23.252 232.566 23.512 232.39 23.848C232.214 24.184 232.126 24.576 232.126 25.024C232.126 25.472 232.214 25.864 232.39 26.2C232.566 26.536 232.806 26.8 233.11 26.992C233.414 27.176 233.766 27.268 234.166 27.268ZM241.305 28.144C240.737 28.144 240.233 28.016 239.793 27.76C239.353 27.496 239.005 27.132 238.749 26.668C238.501 26.204 238.377 25.656 238.377 25.024C238.377 24.4 238.501 23.856 238.749 23.392C238.997 22.92 239.341 22.556 239.781 22.3C240.229 22.036 240.745 21.904 241.329 21.904C241.905 21.904 242.401 22.036 242.817 22.3C243.241 22.556 243.565 22.896 243.789 23.32C244.013 23.744 244.125 24.2 244.125 24.688C244.125 24.776 244.121 24.864 244.113 24.952C244.113 25.04 244.113 25.14 244.113 25.252H239.373C239.397 25.708 239.501 26.088 239.685 26.392C239.877 26.688 240.113 26.912 240.393 27.064C240.681 27.216 240.985 27.292 241.305 27.292C241.721 27.292 242.069 27.196 242.349 27.004C242.629 26.812 242.833 26.552 242.961 26.224H243.957C243.797 26.776 243.489 27.236 243.033 27.604C242.585 27.964 242.009 28.144 241.305 28.144ZM241.305 22.756C240.825 22.756 240.397 22.904 240.021 23.2C239.653 23.488 239.441 23.912 239.385 24.472H243.129C243.105 23.936 242.921 23.516 242.577 23.212C242.233 22.908 241.809 22.756 241.305 22.756ZM245.461 28V22.048H246.373L246.433 23.116C246.625 22.74 246.901 22.444 247.261 22.228C247.621 22.012 248.029 21.904 248.485 21.904C249.189 21.904 249.749 22.12 250.165 22.552C250.589 22.976 250.801 23.632 250.801 24.52V28H249.793V24.628C249.793 23.388 249.281 22.768 248.257 22.768C247.745 22.768 247.317 22.956 246.973 23.332C246.637 23.7 246.469 24.228 246.469 24.916V28H245.461ZM252.94 20.728C252.74 20.728 252.572 20.664 252.436 20.536C252.308 20.4 252.244 20.232 252.244 20.032C252.244 19.84 252.308 19.68 252.436 19.552C252.572 19.424 252.74 19.36 252.94 19.36C253.132 19.36 253.296 19.424 253.432 19.552C253.568 19.68 253.636 19.84 253.636 20.032C253.636 20.232 253.568 20.4 253.432 20.536C253.296 20.664 253.132 20.728 252.94 20.728ZM252.436 28V22.048H253.444V28H252.436ZM255.199 28V22.048H256.111L256.171 23.116C256.363 22.74 256.639 22.444 256.999 22.228C257.359 22.012 257.767 21.904 258.223 21.904C258.927 21.904 259.487 22.12 259.903 22.552C260.327 22.976 260.539 23.632 260.539 24.52V28H259.531V24.628C259.531 23.388 259.019 22.768 257.995 22.768C257.483 22.768 257.055 22.956 256.711 23.332C256.375 23.7 256.207 24.228 256.207 24.916V28H255.199ZM264.418 26.128C264.082 26.128 263.774 26.084 263.494 25.996L262.894 26.56C262.982 26.624 263.09 26.68 263.218 26.728C263.354 26.768 263.546 26.808 263.794 26.848C264.042 26.88 264.39 26.916 264.838 26.956C265.638 27.012 266.21 27.196 266.554 27.508C266.898 27.82 267.07 28.228 267.07 28.732C267.07 29.076 266.974 29.404 266.782 29.716C266.598 30.028 266.31 30.284 265.918 30.484C265.534 30.684 265.038 30.784 264.43 30.784C263.894 30.784 263.418 30.712 263.002 30.568C262.586 30.432 262.262 30.22 262.03 29.932C261.798 29.652 261.682 29.296 261.682 28.864C261.682 28.64 261.742 28.396 261.862 28.132C261.982 27.876 262.206 27.632 262.534 27.4C262.358 27.328 262.206 27.252 262.078 27.172C261.958 27.084 261.846 26.988 261.742 26.884V26.608L262.762 25.6C262.29 25.2 262.054 24.672 262.054 24.016C262.054 23.624 262.146 23.268 262.33 22.948C262.514 22.628 262.782 22.376 263.134 22.192C263.486 22 263.914 21.904 264.418 21.904C264.762 21.904 265.074 21.952 265.354 22.048H267.55V22.804L266.434 22.852C266.666 23.188 266.782 23.576 266.782 24.016C266.782 24.408 266.686 24.764 266.494 25.084C266.31 25.404 266.042 25.66 265.69 25.852C265.346 26.036 264.922 26.128 264.418 26.128ZM264.418 25.3C264.842 25.3 265.178 25.192 265.426 24.976C265.682 24.752 265.81 24.432 265.81 24.016C265.81 23.608 265.682 23.296 265.426 23.08C265.178 22.856 264.842 22.744 264.418 22.744C263.986 22.744 263.642 22.856 263.386 23.08C263.138 23.296 263.014 23.608 263.014 24.016C263.014 24.432 263.138 24.752 263.386 24.976C263.642 25.192 263.986 25.3 264.418 25.3ZM262.666 28.768C262.666 29.168 262.834 29.464 263.17 29.656C263.506 29.856 263.926 29.956 264.43 29.956C264.926 29.956 265.322 29.848 265.618 29.632C265.922 29.416 266.074 29.128 266.074 28.768C266.074 28.512 265.97 28.288 265.762 28.096C265.554 27.912 265.17 27.804 264.61 27.772C264.17 27.74 263.79 27.7 263.47 27.652C263.142 27.828 262.926 28.016 262.822 28.216C262.718 28.424 262.666 28.608 262.666 28.768Z" fill="#524B6B"/>
</svg>
